<?xml version="1.0" encoding="utf-8"?>
<!-- Generator: Adobe Illustrator 24.1.0, SVG Export Plug-In . SVG Version: 6.00 Build 0)  -->
<svg version="1.1" id="레이어_1" xmlns="http://www.w3.org/2000/svg" xmlns:xlink="http://www.w3.org/1999/xlink" x="0px"
	 y="0px" viewBox="0 0 500 500" style="enable-background:new 0 0 500 500;" xml:space="preserve">
<style type="text/css">
	.st0{fill:#FFFFFF;}
	.st1{fill:#313338;}
	.st2{opacity:0.8;fill:#FF723D;}
	.st3{fill:#F9F3EA;}
	.st4{fill:#FFFBF7;}
	.st5{fill:#FF723D;}
	.st6{fill:#80B9FF;}
	.st7{fill:#F8F2E9;}
</style>
<g>
	<path class="st0" d="M406.5,156.5l4.5-16.9l0.1-0.4c8.4-31.5-10.3-63.9-41.8-72.4c-30.9-8.3-62.5,9.5-71.8,39.9
		c-15.3-2.7-31.2-4.2-47.6-4.2s-32.3,1.5-47.6,4.2c-9.2-30.4-40.9-48.2-71.8-39.9c-31.5,8.4-50.2,40.9-41.8,72.4l0.1,0.4l4.5,16.9
		C59.1,185.9,38.2,225,38.2,268c0,91.4,94.8,165.5,211.8,165.5c117,0,211.8-74.1,211.8-165.5C461.8,225,440.9,185.9,406.5,156.5z"/>
	<path class="st1" d="M250,442.3c-121.6,0-220.6-78.2-220.6-174.3c0-42.3,19.2-82.7,54.1-114.4l-3.1-11.6
		c-9.8-36.6,11.8-73.9,47.9-83.6c33-8.8,66.6,7.9,79.8,38.5c27.7-4.2,56-4.2,83.7,0c13.2-30.6,46.8-47.4,79.8-38.5
		c36.2,9.7,57.7,47,48,83.2l-3.2,12c34.9,31.7,54.1,72.1,54.1,114.4C470.6,364.1,371.6,442.3,250,442.3z M146.1,73.6
		c-4.3,0-8.8,0.6-13.2,1.7c-26.8,7.2-42.7,34.8-35.6,61.6l4.6,17.3c0.9,3.3-0.2,6.8-2.8,9C65.6,192.1,47,229.3,47,268
		c0,86.4,91,156.6,203,156.6S453,354.3,453,268c0-38.7-18.5-75.9-52.2-104.7c-2.6-2.2-3.7-5.7-2.8-9l4.5-16.9
		c7.3-27.2-8.7-54.8-35.5-62c-26.3-7-53.1,7.9-61.1,33.9c-1.3,4.3-5.6,6.9-10,6.1c-30.4-5.5-61.7-5.5-92.1,0
		c-4.4,0.8-8.7-1.8-10-6.1C187.4,87.6,167.7,73.6,146.1,73.6z"/>
</g>
<circle class="st2" cx="156.9" cy="250.5" r="35.3"/>
<circle class="st2" cx="343.1" cy="250.5" r="35.3"/>
<g>
	<circle class="st1" cx="212.5" cy="219" r="11"/>
	<circle class="st1" cx="287.5" cy="219" r="11"/>
</g>
<path class="st1" d="M247.8,318.9c-21.4,0-38.9-17.4-38.9-38.9s17.4-38.9,38.9-38.9c21.4,0,38.9,17.4,38.9,38.9
	S269.2,318.9,247.8,318.9z M247.8,258.8c-11.7,0-21.2,9.5-21.2,21.2s9.5,21.2,21.2,21.2c11.7,0,21.2-9.5,21.2-21.2
	S259.5,258.8,247.8,258.8z"/>
</svg>
