<?xml version="1.0" encoding="utf-8"?>
<!-- Generator: Adobe Illustrator 24.1.0, SVG Export Plug-In . SVG Version: 6.00 Build 0)  -->
<svg version="1.1" id="레이어_1" xmlns="http://www.w3.org/2000/svg" xmlns:xlink="http://www.w3.org/1999/xlink" x="0px"
	 y="0px" viewBox="0 0 500 500" style="enable-background:new 0 0 500 500;" xml:space="preserve">
<style type="text/css">
	.st0{fill:#FFFFFF;}
	.st1{fill:#313338;}
	.st2{opacity:0.8;fill:#FF723D;}
	.st3{fill:#F9F3EA;}
	.st4{fill:#FFFBF7;}
	.st5{fill:#FF723D;}
	.st6{fill:#80B9FF;}
	.st7{fill:#F8F2E9;}
</style>
<g>
	<path class="st0" d="M406.5,157.4l4.5-16.9l0.1-0.4c8.4-31.5-10.3-63.9-41.8-72.4c-30.9-8.3-62.5,9.5-71.8,39.9
		c-15.3-2.7-31.2-4.2-47.6-4.2s-32.3,1.5-47.6,4.2c-9.2-30.4-40.9-48.2-71.8-39.9c-31.5,8.4-50.2,40.9-41.8,72.4l0.1,0.4l4.5,16.9
		c-34.3,29.4-55.2,68.5-55.2,111.4c0,91.4,94.8,165.5,211.8,165.5c117,0,211.8-74.1,211.8-165.5
		C461.8,225.9,440.9,186.8,406.5,157.4z"/>
	<path class="st1" d="M250,443.1c-121.6,0-220.6-78.2-220.6-174.3c0-42.3,19.2-82.7,54.1-114.4l-3.1-11.6
		c-9.8-36.6,11.8-73.9,47.9-83.6c33-8.8,66.6,7.9,79.8,38.5c27.7-4.2,56-4.2,83.7,0c13.2-30.6,46.8-47.4,79.8-38.5
		c36.2,9.7,57.7,47,48,83.2l-3.2,12c34.9,31.7,54.1,72.1,54.1,114.4C470.6,365,371.6,443.1,250,443.1z M146.1,74.5
		c-4.3,0-8.8,0.6-13.2,1.7c-26.8,7.2-42.7,34.8-35.6,61.6l4.6,17.3c0.9,3.3-0.2,6.8-2.8,9C65.6,192.9,47,230.1,47,268.9
		c0,86.4,91,156.6,203,156.6s203-70.3,203-156.6c0-38.7-18.5-75.9-52.2-104.7c-2.6-2.2-3.7-5.7-2.8-9l4.5-16.9
		c7.3-27.2-8.7-54.8-35.5-62c-26.3-7-53.1,7.9-61.1,33.9c-1.3,4.3-5.6,6.9-10,6.1c-30.4-5.5-61.7-5.5-92.1,0
		c-4.4,0.8-8.7-1.8-10-6.1C187.4,88.5,167.7,74.5,146.1,74.5z"/>
</g>
<circle class="st2" cx="156.9" cy="251.4" r="35.3"/>
<circle class="st2" cx="343.1" cy="251.4" r="35.3"/>
<g>
	<path class="st4" d="M270.3,327.7h-40.6c-14.6,0-26.5-11.9-26.5-26.5v-27.5c0-9.7,7.9-17.6,17.6-17.6h58.2
		c9.7,0,17.6,7.9,17.6,17.6v27.5C296.8,315.8,284.9,327.7,270.3,327.7z"/>
	<path class="st1" d="M270.3,336.5h-40.6c-19.5,0-35.3-15.8-35.3-35.3v-27.5c0-14.6,11.9-26.5,26.5-26.5h58.2
		c14.6,0,26.5,11.9,26.5,26.5v27.5C305.6,320.7,289.8,336.5,270.3,336.5z M220.9,264.8c-4.9,0-8.8,4-8.8,8.8v27.5
		c0,9.7,7.9,17.6,17.6,17.6h40.6c9.7,0,17.6-7.9,17.6-17.6v-27.5c0-4.9-4-8.8-8.8-8.8H220.9z"/>
</g>
<path class="st1" d="M284.3,230.2c-3.5,0-6.9-2.1-8.2-5.6c-1.8-4.5,0.5-9.7,5-11.4l13.5-5.2c4.5-1.8,9.7,0.5,11.4,5
	c1.8,4.5-0.5,9.7-5,11.4l-13.5,5.2C286.5,230,285.4,230.2,284.3,230.2z"/>
<path class="st1" d="M221.6,230.2c-1.1,0-2.1-0.2-3.2-0.6l-13.5-5.2c-4.5-1.8-6.8-6.9-5-11.4c1.8-4.5,6.9-6.8,11.4-5l13.5,5.2
	c4.5,1.8,6.8,6.9,5,11.4C228.5,228,225.2,230.2,221.6,230.2z"/>
</svg>
