<?xml version="1.0" encoding="utf-8"?>
<!-- Generator: Adobe Illustrator 24.1.0, SVG Export Plug-In . SVG Version: 6.00 Build 0)  -->
<svg version="1.1" id="레이어_1" xmlns="http://www.w3.org/2000/svg" xmlns:xlink="http://www.w3.org/1999/xlink" x="0px"
	 y="0px" viewBox="0 0 500 500" style="enable-background:new 0 0 500 500;" xml:space="preserve">
<style type="text/css">
	.st0{fill:#FFFFFF;}
	.st1{fill:#313338;}
	.st2{opacity:0.8;fill:#FF723D;}
	.st3{fill:#F9F3EA;}
	.st4{fill:#FFFBF7;}
	.st5{fill:#FF723D;}
	.st6{fill:#80B9FF;}
	.st7{fill:#F8F2E9;}
</style>
<g>
	<path class="st0" d="M406.5,157.4l4.5-16.9l0.1-0.4c8.4-31.5-10.3-63.9-41.8-72.4c-30.9-8.3-62.5,9.5-71.8,39.9
		c-15.3-2.7-31.2-4.2-47.6-4.2s-32.3,1.5-47.6,4.2c-9.2-30.4-40.9-48.2-71.8-39.9c-31.5,8.4-50.2,40.9-41.8,72.4l0.1,0.4l4.5,16.9
		c-34.3,29.4-55.2,68.5-55.2,111.4c0,91.4,94.8,165.5,211.8,165.5c117,0,211.8-74.1,211.8-165.5
		C461.8,225.9,440.9,186.8,406.5,157.4z"/>
	<path class="st1" d="M250,443.1c-121.6,0-220.6-78.2-220.6-174.3c0-42.3,19.2-82.7,54.1-114.4l-3.1-11.6
		c-4.8-17.9-2.4-36.2,6.7-51.9c9.1-15.7,23.7-27,41.3-31.7c33-8.9,66.6,7.9,79.8,38.5c27.7-4.2,56-4.2,83.7,0
		c13.2-30.6,46.8-47.4,79.8-38.5c17.5,4.7,32.2,15.9,41.3,31.7c9.1,15.7,11.5,34,6.8,51.5l-3.2,12c34.9,31.7,54.1,72.1,54.1,114.4
		C470.6,365,371.6,443.1,250,443.1z M146.1,74.5c-4.3,0-8.8,0.6-13.2,1.7c-13,3.5-23.8,11.8-30.5,23.4c-6.7,11.6-8.5,25.2-5,38.2
		l4.6,17.3c0.9,3.3-0.2,6.8-2.8,9C65.6,192.9,47,230.1,47,268.9c0,86.4,91,156.6,203,156.6s203-70.3,203-156.6
		c0-38.7-18.5-75.9-52.2-104.7c-2.6-2.2-3.7-5.7-2.8-9l4.5-16.9c3.6-13.3,1.8-26.9-4.9-38.5c-6.7-11.6-17.6-20-30.5-23.4
		c-26.3-7-53.1,7.9-61.1,33.9c-1.3,4.3-5.6,6.9-10,6.1c-30.4-5.5-61.7-5.5-92.1,0c-4.4,0.8-8.7-1.8-10-6.1
		C187.4,88.5,167.7,74.5,146.1,74.5z"/>
</g>
<g>
	<circle class="st1" cx="212.5" cy="219.9" r="11"/>
	<circle class="st1" cx="287.5" cy="219.9" r="11"/>
</g>
<g>
	<path class="st6" d="M315.7,232.2c2.3,7.8,4.7,15.5,7.4,23.2c1.8,5.2,3.8,10.4,5.9,15.4c1.4,3.1,2.8,6.2,4.5,9.2
		c0.9,1.6,1.9,3.2,3.1,4.6c4.3,5.1,11.2,7.7,17.9,6.6c4.4-0.7,8.6-3,11.7-6.4c1.6-1.7,2.8-3.7,3.8-5.8c2.8-6.6,1.9-14.2-2.2-19.8
		c-3.8-5.1-8.8-9.2-14.1-12.5c-5.4-3.4-11.3-6.1-17.2-8.4c-4.8-1.8-9.6-3.4-14.6-4.7C319.8,233.1,317.8,232.6,315.7,232.2z"/>
	<path class="st6" d="M351.3,293.6c-6.3,0-12.4-2.8-16.5-7.6c-1.4-1.6-2.5-3.5-3.3-4.9c-1.5-2.6-2.9-5.5-4.6-9.4
		c-2-4.6-3.9-9.5-6-15.5c-2.4-7-4.9-14.6-7.4-23.3c-0.2-0.7,0-1.5,0.5-2.1c0.5-0.6,1.3-0.8,2-0.7c2.1,0.4,4.2,0.9,6.3,1.5
		c5.1,1.3,10.1,2.9,14.8,4.7c6.7,2.6,12.5,5.4,17.6,8.6c6.4,4,11.2,8.3,14.7,13.1c4.6,6.2,5.5,14.8,2.4,22c-1,2.4-2.4,4.5-4.2,6.4
		c-3.4,3.7-8,6.2-13,7.1C353.7,293.5,352.5,293.6,351.3,293.6z M318.9,235.2c2.2,7.2,4.2,13.6,6.3,19.5c2.1,5.9,3.9,10.8,5.9,15.2
		c1.6,3.7,3,6.5,4.4,9c0.8,1.3,1.7,2.9,2.8,4.3c3.8,4.5,10,6.8,15.9,5.8c4-0.7,7.7-2.7,10.4-5.7c1.4-1.5,2.5-3.3,3.4-5.2
		c2.5-5.7,1.7-12.6-1.9-17.6c-3.2-4.4-7.6-8.3-13.5-12c-4.9-3-10.4-5.7-16.9-8.2c-4.6-1.7-9.4-3.3-14.3-4.6
		C320.5,235.6,319.7,235.4,318.9,235.2z"/>
</g>
<g>
	<path class="st6" d="M184.3,233.7c-4.9,1.3-9.8,2.8-14.6,4.7c-6,2.3-11.8,5-17.2,8.4c-5.4,3.4-10.4,7.4-14.1,12.5
		c-4.1,5.5-5,13.2-2.2,19.8c0.9,2.1,2.2,4.1,3.8,5.8c3.1,3.4,7.3,5.6,11.7,6.4c6.7,1.1,13.7-1.5,17.9-6.6c1.2-1.4,2.2-3,3.1-4.6
		c1.7-3,3.1-6.1,4.5-9.2c2.2-5,4.1-10.2,5.9-15.4c2.7-7.7,5.1-15.4,7.4-23.2C188.4,232.6,186.3,233.1,184.3,233.7z"/>
	<path class="st6" d="M154.8,293.6c-1.2,0-2.3-0.1-3.5-0.3c-4.9-0.8-9.5-3.3-13-7.1c-1.7-1.9-3.1-4-4.2-6.4
		c-3.1-7.1-2.1-15.8,2.4-22c3.5-4.8,8.4-9.1,14.7-13.1c5.1-3.2,10.9-6,17.6-8.6c4.7-1.8,9.7-3.4,14.8-4.7c2.1-0.6,4.2-1.1,6.3-1.5
		c0.8-0.2,1.5,0.1,2,0.7c0.5,0.6,0.7,1.4,0.5,2.1c-2.6,8.7-5,16.3-7.4,23.3c-2.1,6-4,11-6,15.5c-1.7,3.9-3.1,6.8-4.6,9.4
		c-0.8,1.4-1.9,3.3-3.3,4.9C167.2,290.9,161.1,293.6,154.8,293.6z M187.3,235.2c-0.8,0.2-1.6,0.4-2.4,0.6c0,0,0,0,0,0
		c-5,1.3-9.8,2.8-14.3,4.6c-6.5,2.5-12,5.1-16.9,8.2c-5.9,3.7-10.3,7.6-13.5,12c-3.7,5-4.4,11.9-1.9,17.6c0.8,1.9,2,3.6,3.4,5.2
		c2.8,3,6.5,5,10.4,5.7c5.9,1,12.1-1.3,15.9-5.8c1.1-1.4,2.1-2.9,2.8-4.2c1.4-2.5,2.8-5.3,4.4-9c1.9-4.5,3.8-9.3,5.9-15.2
		C183,248.7,185.1,242.3,187.3,235.2z M184.3,233.7L184.3,233.7L184.3,233.7z"/>
</g>
<g>
	<path class="st4" d="M212.5,279l34.1-23.6c2-1.4,4.7-1.4,6.7,0l34.1,23.6"/>
	<path class="st1" d="M212.5,287.8c-2.8,0-5.6-1.3-7.3-3.8c-2.8-4-1.8-9.5,2.2-12.3l34.1-23.6c5-3.5,11.7-3.5,16.8,0l34.1,23.6
		c4,2.8,5,8.3,2.2,12.3c-2.8,4-8.3,5-12.3,2.2L250,263.8l-32.5,22.4C216,287.3,214.2,287.8,212.5,287.8z"/>
</g>
</svg>
