<?xml version="1.0" encoding="utf-8"?>
<!-- Generator: Adobe Illustrator 24.1.0, SVG Export Plug-In . SVG Version: 6.00 Build 0)  -->
<svg version="1.1" id="레이어_1" xmlns="http://www.w3.org/2000/svg" xmlns:xlink="http://www.w3.org/1999/xlink" x="0px"
	 y="0px" viewBox="0 0 500 500" style="enable-background:new 0 0 500 500;" xml:space="preserve">
<style type="text/css">
	.st0{fill:#FFFFFF;}
	.st1{fill:#313338;}
	.st2{opacity:0.8;fill:#FF723D;}
	.st3{fill:#F9F3EA;}
	.st4{fill:#FFFBF7;}
	.st5{fill:#FF723D;}
	.st6{fill:#80B9FF;}
	.st7{fill:#F8F2E9;}
</style>
<g>
	<g>
		<path class="st3" d="M396.6,202.6c7-16.4,12.1-36.6,14.6-60.2c8.1-75.1-16.7-121.7-53-125.7c-36.3-4-70.5,36.1-78.6,111.2
			c-1.1,10.6-1.6,20.5-1.5,29.9c-8.9-0.9-18-1.5-27.3-1.6c-9.1-0.1-18.1,0.4-27,1.2c0.2-9.4-0.2-19.3-1.3-29.9
			c-7.7-75.1-41.6-115.6-78-111.9S83.2,65.5,90.9,140.6c2.4,23.5,7.4,43.6,14.2,60c-40.9,29.9-66.6,72.4-66.9,119.8
			c-0.5,91.4,93.9,166,210.9,166.6c117,0.6,212.2-72.9,212.7-164.3C462,275.6,437,232.9,396.6,202.6z"/>
		<path class="st1" d="M250.6,495.9c-0.5,0-1.1,0-1.6,0c-58.5-0.3-113.5-18.5-154.9-51.2c-42-33.2-65-77.3-64.7-124.3
			c0.3-46.7,23.3-90.1,65.1-122.7c-6-16.4-10.2-35.3-12.3-56.1c-5-48.7,3.1-88.8,22.7-112.8c10.5-12.9,24-20.5,39-22
			c37.1-3.7,78.6,31.9,87.6,119.8c0.7,7.1,1.2,14.2,1.3,21.2c6.2-0.4,12.3-0.6,18.2-0.5c6,0,12.2,0.3,18.5,0.7
			c0.2-7,0.7-14.1,1.4-21.2c5.2-48.7,21.4-86.2,45.6-105.6c13-10.4,27.7-15,42.7-13.4c37.1,4.1,70.3,47.6,60.8,135.4
			c-2.3,21-6.5,39.9-12.7,56.4c41.2,33.1,63.6,76.6,63.3,123.1c-0.3,47-23.7,90.9-66.1,123.6C363.2,478.3,308.6,495.9,250.6,495.9z
			 M149.2,24.1c-1.2,0-2.4,0.1-3.7,0.2c-10.4,1-19.5,6.3-27,15.6c-16.4,20.1-23.2,56.5-18.8,99.8c2.2,21.9,6.8,41.3,13.6,57.6
			c1.6,3.8,0.3,8.1-2.9,10.5c-40.6,29.7-63,69.7-63.3,112.7c-0.2,41.4,20.4,80.6,58,110.4c38.3,30.3,89.5,47.1,144.1,47.4
			c54.5,0.4,106-16,144.6-45.8c38-29.3,59-68.3,59.2-109.7c0.2-42.8-21.7-83-61.7-113.1c-3.2-2.4-4.4-6.8-2.8-10.5
			c6.9-16.3,11.6-35.7,14-57.7c7-64.6-11.6-112.3-45.2-116c-10.3-1.1-20.3,2.1-29.7,9.6c-20.2,16.2-34.5,50.4-39.1,93.7
			c-1,9.6-1.5,19.3-1.4,28.8c0,2.5-1,4.9-2.9,6.6c-1.9,1.7-4.4,2.5-6.9,2.2c-9-1-17.9-1.5-26.4-1.5c-8.4,0-17.2,0.4-26.1,1.2
			c-2.5,0.2-5-0.6-6.8-2.3c-1.8-1.7-2.9-4.1-2.8-6.6c0.2-9.5-0.3-19.2-1.3-28.8C207.5,66.1,181.2,24.1,149.2,24.1z"/>
	</g>
	<g>
		<circle class="st2" cx="156.9" cy="302.1" r="35.3"/>
		<circle class="st2" cx="343.1" cy="303.1" r="35.3"/>
	</g>
	<path class="st1" d="M186.3,293.3c-3.1,0-6-1.8-7.2-4.9c-1.6-4,0.4-8.4,4.3-10l24.5-9.7l-21.1-14.4c-3.5-2.4-4.4-7.2-2-10.7
		c2.4-3.5,7.2-4.4,10.7-2l33,22.6c2.4,1.6,3.6,4.4,3.3,7.2c-0.3,2.8-2.2,5.3-4.8,6.3l-38,15.1C188.2,293.1,187.2,293.3,186.3,293.3z
		"/>
	<path class="st1" d="M317.8,293.3c-0.9,0-1.9-0.2-2.8-0.5l-38-15.1c-2.7-1.1-4.5-3.5-4.8-6.3c-0.3-2.8,1-5.6,3.3-7.2l33-22.6
		c3.5-2.4,8.3-1.5,10.7,2c2.4,3.5,1.5,8.3-2,10.7l-21.1,14.4l24.5,9.7c4,1.6,5.9,6.1,4.3,10C323.8,291.4,320.9,293.3,317.8,293.3z"
		/>
	<g>
		<path class="st1" d="M220.5,335.1c-20.8,0-34.5-10-35.3-10.7c-3.9-2.9-4.7-8.5-1.7-12.4c2.9-3.9,8.4-4.7,12.3-1.8
			c1,0.8,22.7,16,52.2-0.6c4.3-2.4,9.6-0.9,12,3.4c2.4,4.3,0.9,9.6-3.4,12C243.2,332.6,231,335.1,220.5,335.1z"/>
		<path class="st1" d="M282.3,335.1c-20.8,0-34.5-10-35.3-10.7c-3.9-2.9-4.7-8.5-1.7-12.4c2.9-3.9,8.4-4.7,12.3-1.8
			c1,0.8,22.7,16,52.2-0.6c4.3-2.4,9.6-0.9,12,3.4c2.4,4.3,0.9,9.6-3.4,12C305,332.6,292.8,335.1,282.3,335.1z"/>
	</g>
</g>
</svg>
