<?xml version="1.0" encoding="utf-8"?>
<!-- Generator: Adobe Illustrator 24.1.0, SVG Export Plug-In . SVG Version: 6.00 Build 0)  -->
<svg version="1.1" id="레이어_1" xmlns="http://www.w3.org/2000/svg" xmlns:xlink="http://www.w3.org/1999/xlink" x="0px"
	 y="0px" viewBox="0 0 500 500" style="enable-background:new 0 0 500 500;" xml:space="preserve">
<style type="text/css">
	.st0{fill:#FFFFFF;}
	.st1{fill:#313338;}
	.st2{opacity:0.8;fill:#FF723D;}
	.st3{fill:#F9F3EA;}
	.st4{fill:#FFFBF7;}
	.st5{fill:#FF723D;}
	.st6{fill:#80B9FF;}
	.st7{fill:#F8F2E9;}
</style>
<g>
	<g>
		<path class="st3" d="M396.6,202.6c7-16.4,12.1-36.6,14.6-60.2c8.1-75.1-16.7-121.7-53-125.7c-36.3-4-70.5,36.1-78.6,111.2
			c-1.1,10.6-1.6,20.5-1.5,29.9c-8.9-0.9-18-1.5-27.3-1.6c-9.1-0.1-18.1,0.4-27,1.2c0.2-9.4-0.2-19.3-1.3-29.9
			c-7.7-75.1-41.6-115.6-78-111.9S83.2,65.5,90.9,140.6c2.4,23.5,7.4,43.6,14.2,60c-40.9,29.9-66.6,72.4-66.9,119.8
			c-0.5,91.4,93.9,166,210.9,166.6c117,0.6,212.2-72.9,212.7-164.3C462,275.6,437,232.9,396.6,202.6z"/>
		<path class="st1" d="M250.6,495.9c-0.5,0-1.1,0-1.6,0c-121.6-0.7-220.2-79.4-219.6-175.5c0.3-46.7,23.3-90.1,65.1-122.7
			c-6-16.4-10.2-35.3-12.3-56.1c-5-48.7,3.1-88.8,22.7-112.8c10.5-12.9,24-20.5,39-22c37.1-3.7,78.6,31.9,87.6,119.8
			c0.7,7.1,1.2,14.2,1.3,21.3c6.2-0.4,12.3-0.6,18.2-0.5c6,0,12.2,0.3,18.5,0.7c0.2-7,0.7-14.1,1.4-21.2
			c5.2-48.7,21.4-86.2,45.6-105.6c13-10.4,27.7-15,42.7-13.4c37.1,4.1,70.3,47.6,60.8,135.4c-2.3,21-6.5,39.9-12.7,56.4
			c41.2,33.1,63.6,76.6,63.3,123.1C470.1,418.5,371.5,495.9,250.6,495.9z M149.2,24.1c-1.2,0-2.4,0.1-3.7,0.2
			c-10.4,1-19.5,6.3-27,15.6c-16.4,20.1-23.2,56.5-18.8,99.8c2.2,21.9,6.8,41.3,13.6,57.6c1.6,3.8,0.3,8.1-2.9,10.5
			c-40.6,29.7-63,69.7-63.3,112.7c-0.5,86.4,90.2,157.1,202.1,157.8c0.5,0,1,0,1.5,0c111.2,0,201.9-69.5,202.3-155.5
			c0.2-42.8-21.7-83-61.7-113.1c-3.2-2.4-4.4-6.8-2.8-10.5c6.9-16.3,11.6-35.7,14-57.7c7-64.6-11.6-112.3-45.2-116
			c-10.3-1.1-20.3,2.1-29.7,9.6c-20.2,16.2-34.5,50.4-39.1,93.7c-1,9.6-1.5,19.3-1.4,28.8c0,2.5-1,4.9-2.9,6.6
			c-1.9,1.7-4.4,2.5-6.9,2.2c-9-1-17.9-1.5-26.4-1.5c-8.5,0-17.2,0.4-26.1,1.2c-2.5,0.2-5-0.6-6.8-2.3c-1.8-1.7-2.9-4.1-2.8-6.6
			c0.2-9.5-0.3-19.2-1.3-28.8C207.5,66.1,181.2,24.1,149.2,24.1z"/>
	</g>
	<g>
		<g>
			<path class="st6" d="M182.2,290.7c-4,1-7.9,2.3-11.8,3.8c-4.8,1.8-9.6,4-13.9,6.8c-4.3,2.7-8.4,6-11.4,10.1
				c-3.3,4.5-4.1,10.7-1.8,16c0.7,1.7,1.8,3.3,3,4.7c2.5,2.7,5.9,4.6,9.5,5.2c5.4,0.9,11.1-1.2,14.5-5.3c1-1.1,1.7-2.4,2.5-3.7
				c1.4-2.4,2.5-4.9,3.6-7.4c1.8-4.1,3.3-8.2,4.8-12.5c2.2-6.2,4.1-12.5,6-18.8C185.5,289.9,183.8,290.3,182.2,290.7z"/>
			<path class="st6" d="M158.3,339.7c-1,0-1.9-0.1-2.9-0.2c-4.1-0.7-7.9-2.8-10.7-5.8c-1.4-1.6-2.6-3.4-3.4-5.3
				c-2.6-6-1.8-13,2-18.2c2.9-4,6.8-7.4,12-10.7c4.2-2.6,8.9-4.9,14.3-7c3.8-1.5,7.9-2.8,12-3.8c1.7-0.4,3.4-0.9,5.1-1.2
				c0.8-0.1,1.5,0.1,2,0.7c0.5,0.6,0.7,1.4,0.5,2.1c-2.1,7.1-4.1,13.2-6,18.9c-1.7,4.9-3.2,8.9-4.9,12.6c-1.4,3.2-2.5,5.5-3.7,7.7
				c-0.7,1.2-1.6,2.7-2.7,4C168.6,337.4,163.5,339.7,158.3,339.7z M183.9,292.6c-0.4,0.1-0.8,0.2-1.2,0.3h0c-4,1-7.9,2.3-11.6,3.7
				c-5.2,2-9.6,4.1-13.6,6.6c-4.7,2.9-8.2,6.1-10.8,9.6c-2.9,3.9-3.5,9.3-1.5,13.8c0.6,1.5,1.5,2.8,2.6,4.1c2.2,2.4,5.1,4,8.2,4.5
				c4.6,0.8,9.5-1,12.5-4.6c0.9-1.1,1.6-2.3,2.2-3.4c1.1-2,2.2-4.2,3.5-7.2c1.6-3.6,3.1-7.5,4.7-12.3
				C180.7,303,182.3,298.1,183.9,292.6z M182.2,290.7L182.2,290.7L182.2,290.7z"/>
		</g>
		<g>
			<path class="st6" d="M318.3,290.7c4,1,7.9,2.3,11.8,3.8c4.8,1.8,9.6,4,13.9,6.8c4.3,2.7,8.4,6,11.4,10.1c3.3,4.5,4.1,10.7,1.8,16
				c-0.7,1.7-1.8,3.3-3,4.7c-2.5,2.7-5.9,4.6-9.5,5.2c-5.4,0.9-11.1-1.2-14.5-5.3c-1-1.1-1.7-2.4-2.5-3.7c-1.4-2.4-2.5-4.9-3.6-7.4
				c-1.8-4.1-3.3-8.2-4.8-12.5c-2.2-6.2-4.1-12.5-6-18.8C315,289.9,316.6,290.3,318.3,290.7z"/>
			<path class="st6" d="M342.1,339.7c-5.2,0-10.3-2.3-13.6-6.3c-1.1-1.3-2-2.8-2.7-4c-1.2-2.2-2.4-4.6-3.7-7.7
				c-1.6-3.7-3.1-7.7-4.9-12.6c-2-5.7-4-11.8-6-18.9c-0.2-0.7,0-1.5,0.5-2.1c0.5-0.6,1.3-0.8,2-0.7c1.7,0.3,3.4,0.8,5.1,1.2
				c4.1,1.1,8.2,2.4,12,3.8c5.5,2.1,10.2,4.4,14.3,7c5.2,3.3,9.1,6.7,12,10.7c3.8,5.2,4.6,12.2,2,18.2c-0.8,1.9-2,3.7-3.4,5.3
				c-2.8,3.1-6.7,5.2-10.7,5.8C344.1,339.6,343.1,339.7,342.1,339.7z M316.5,292.6c1.7,5.5,3.3,10.4,4.9,15.1
				c1.7,4.8,3.2,8.7,4.7,12.3c1.3,2.9,2.4,5.2,3.5,7.2c0.6,1.1,1.4,2.3,2.2,3.4c3,3.5,7.9,5.3,12.5,4.6c3.1-0.5,6-2.1,8.2-4.5
				c1.1-1.2,2-2.6,2.6-4.1c1.9-4.5,1.3-9.9-1.5-13.8c-2.6-3.5-6.1-6.6-10.8-9.6c-3.9-2.5-8.4-4.6-13.6-6.6
				c-3.7-1.4-7.6-2.7-11.6-3.7h0C317.3,292.8,316.9,292.7,316.5,292.6z"/>
		</g>
	</g>
	<g>
		<g>
			<path class="st6" d="M137,352.4c-4,1-7.9,2.3-11.8,3.8c-4.8,1.8-9.6,4-13.9,6.8c-4.3,2.7-8.4,6-11.4,10.1
				c-3.3,4.5-4.1,10.7-1.8,16c0.7,1.7,1.8,3.3,3,4.7c2.5,2.7,5.9,4.6,9.5,5.2c5.4,0.9,11.1-1.2,14.5-5.3c1-1.1,1.7-2.4,2.5-3.7
				c1.4-2.4,2.5-4.9,3.6-7.4c1.8-4.1,3.3-8.2,4.8-12.5c2.2-6.2,4.1-12.5,6-18.8C140.3,351.5,138.6,351.9,137,352.4z"/>
			<path class="st6" d="M113.1,401.3c-1,0-1.9-0.1-2.9-0.2c-4.1-0.7-7.9-2.8-10.7-5.8c-1.4-1.6-2.6-3.4-3.4-5.3
				c-2.6-6-1.8-13,2-18.2c2.9-3.9,6.8-7.4,12-10.7c4.2-2.6,8.9-4.9,14.3-7c3.8-1.5,7.9-2.8,12-3.8c1.7-0.4,3.4-0.9,5.1-1.2
				c0.8-0.1,1.5,0.1,2,0.7c0.5,0.6,0.7,1.4,0.5,2.1c-2.1,7-4,13.2-6,18.9c-1.7,4.9-3.3,8.9-4.9,12.6c-0.9,2.1-2.2,4.9-3.7,7.7
				c-0.7,1.2-1.6,2.7-2.7,4C123.4,399,118.3,401.3,113.1,401.3z M138.7,354.2c-0.4,0.1-0.8,0.2-1.2,0.3h0c-4,1-7.9,2.3-11.6,3.7
				c-5.2,2-9.6,4.1-13.6,6.6c-4.7,3-8.3,6.1-10.8,9.6c-2.9,3.9-3.5,9.3-1.5,13.8c0.6,1.5,1.5,2.9,2.6,4.1c2.2,2.4,5.1,4,8.2,4.5
				c4.6,0.8,9.5-1,12.5-4.6c0.9-1.1,1.6-2.3,2.2-3.4c1.4-2.5,2.6-5.2,3.5-7.2c1.5-3.6,3.1-7.5,4.7-12.3
				C135.5,364.6,137.1,359.7,138.7,354.2z M137,352.4L137,352.4L137,352.4z"/>
		</g>
		<g>
			<path class="st6" d="M363.5,352.4c4,1,7.9,2.3,11.8,3.8c4.8,1.8,9.6,4,13.9,6.8c4.3,2.7,8.4,6,11.4,10.1c3.3,4.5,4.1,10.7,1.8,16
				c-0.7,1.7-1.8,3.3-3,4.7c-2.5,2.7-5.9,4.6-9.5,5.2c-5.4,0.9-11.1-1.2-14.5-5.3c-1-1.1-1.7-2.4-2.5-3.7c-1.4-2.4-2.5-4.9-3.6-7.4
				c-1.8-4.1-3.3-8.2-4.8-12.5c-2.2-6.2-4.1-12.5-6-18.8C360.2,351.5,361.8,351.9,363.5,352.4z"/>
			<path class="st6" d="M387.4,401.3c-5.2,0-10.3-2.3-13.7-6.3c-1.1-1.3-2-2.8-2.7-4c-1.5-2.7-2.8-5.5-3.7-7.6
				c-1.6-3.7-3.2-7.8-4.9-12.6c-2-5.6-3.9-11.8-6-18.9c-0.2-0.7,0-1.5,0.5-2.1c0.5-0.6,1.3-0.8,2-0.7c1.7,0.3,3.4,0.8,5.1,1.2
				c4.1,1.1,8.2,2.4,12,3.8c5.5,2.1,10.2,4.4,14.3,7c5.2,3.3,9.1,6.8,12,10.7c3.8,5.2,4.6,12.2,2,18.2c-0.8,1.9-2,3.7-3.4,5.3
				c-2.9,3.1-6.7,5.2-10.7,5.8C389.3,401.2,388.3,401.3,387.4,401.3z M361.7,354.2c1.7,5.5,3.3,10.5,4.9,15.1
				c1.6,4.7,3.2,8.7,4.7,12.3c0.9,2,2.1,4.7,3.5,7.2c0.6,1.1,1.3,2.3,2.2,3.4c3,3.5,7.9,5.3,12.5,4.6c3.1-0.5,6-2.1,8.2-4.5
				c1.1-1.2,2-2.6,2.6-4.1c1.9-4.5,1.3-9.9-1.5-13.8c-2.6-3.5-6.1-6.6-10.8-9.6c-3.9-2.5-8.4-4.6-13.6-6.6
				c-3.7-1.4-7.6-2.6-11.6-3.7h0C362.5,354.4,362.1,354.3,361.7,354.2z"/>
		</g>
	</g>
	<g>
		<path class="st1" d="M192.4,279.3c-4,0-7.6-2.7-8.6-6.8c-1.1-4.7,1.8-9.5,6.6-10.6l22-5.1c4.7-1.1,9.5,1.8,10.6,6.6
			c1.1,4.7-1.8,9.5-6.6,10.6l-22,5.1C193.7,279.2,193.1,279.3,192.4,279.3z"/>
		<path class="st1" d="M307.6,279.3c-0.7,0-1.3-0.1-2-0.2l-22-5.1c-4.7-1.1-7.7-5.8-6.6-10.6c1.1-4.7,5.9-7.7,10.6-6.6l22,5.1
			c4.7,1.1,7.7,5.8,6.6,10.6C315.2,276.5,311.6,279.3,307.6,279.3z"/>
	</g>
	<g>
		<path class="st3" d="M260.9,377.1h-21.9c-19.7,0-35.8-16.1-35.8-35.8v0c0-19.7,16.1-35.8,35.8-35.8h21.9
			c19.7,0,35.8,16.1,35.8,35.8v0C296.8,361,280.6,377.1,260.9,377.1z"/>
		<path class="st1" d="M260.9,385.9h-21.9c-24.6,0-44.7-20-44.7-44.7c0-24.6,20-44.7,44.7-44.7h21.9c24.6,0,44.7,20,44.7,44.7
			C305.6,365.9,285.6,385.9,260.9,385.9z M239.1,314.3c-14.9,0-27,12.1-27,27c0,14.9,12.1,27,27,27h21.9c14.9,0,27-12.1,27-27
			c0-14.9-12.1-27-27-27H239.1z"/>
	</g>
</g>
</svg>
