<?xml version="1.0" encoding="utf-8"?>
<!-- Generator: Adobe Illustrator 24.1.0, SVG Export Plug-In . SVG Version: 6.00 Build 0)  -->
<svg version="1.1" id="레이어_1" xmlns="http://www.w3.org/2000/svg" xmlns:xlink="http://www.w3.org/1999/xlink" x="0px"
	 y="0px" viewBox="0 0 500 500" style="enable-background:new 0 0 500 500;" xml:space="preserve">
<style type="text/css">
	.st0{fill:#FFFFFF;}
	.st1{fill:#313338;}
	.st2{opacity:0.8;fill:#FF723D;}
	.st3{fill:#F9F3EA;}
	.st4{fill:#FFFBF7;}
	.st5{fill:#FF723D;}
	.st6{fill:#80B9FF;}
	.st7{fill:#F8F2E9;}
</style>
<g>
	<path class="st0" d="M406.5,156.5l4.5-16.9l0.1-0.4c8.4-31.5-10.3-63.9-41.8-72.4c-30.9-8.3-62.5,9.5-71.8,39.9
		c-15.3-2.7-31.2-4.2-47.6-4.2s-32.3,1.5-47.6,4.2c-9.2-30.4-40.9-48.2-71.8-39.9c-31.5,8.4-50.2,40.9-41.8,72.4l0.1,0.4l4.5,16.9
		C59.1,185.9,38.2,225,38.2,268c0,91.4,94.8,165.5,211.8,165.5c117,0,211.8-74.1,211.8-165.5C461.8,225,440.9,185.9,406.5,156.5z"/>
	<path class="st1" d="M250,442.3c-121.6,0-220.6-78.2-220.6-174.3c0-42.3,19.2-82.7,54.1-114.4l-3.1-11.6C75.6,124,78,105.7,87.1,90
		c9.1-15.7,23.7-27,41.2-31.7c33-8.8,66.6,7.9,79.8,38.5c27.7-4.2,56-4.2,83.7,0c13.2-30.6,46.8-47.4,79.8-38.5
		c36.2,9.7,57.7,47,48,83.2l-3.2,12c35,31.7,54.1,72.1,54.1,114.4C470.6,364.1,371.6,442.3,250,442.3z M146.1,73.6
		c-4.3,0-8.8,0.6-13.2,1.7c-13,3.5-23.8,11.8-30.5,23.4c-6.7,11.6-8.5,25.2-5,38.2l4.6,17.3c0.9,3.3-0.2,6.8-2.8,9
		C65.6,192.1,47,229.3,47,268c0,86.4,91,156.6,203,156.6S453,354.3,453,268c0-38.7-18.5-75.9-52.2-104.7c-2.6-2.2-3.7-5.7-2.8-9
		l4.5-16.9c7.3-27.2-8.7-54.8-35.5-62c-26.3-7-53.1,7.9-61.1,33.9c-1.3,4.3-5.6,6.9-10,6.1c-30.4-5.5-61.7-5.5-92.1,0
		c-4.4,0.8-8.7-1.8-10-6.1C187.4,87.6,167.7,73.6,146.1,73.6z"/>
</g>
<circle class="st2" cx="156.9" cy="250.5" r="35.3"/>
<circle class="st2" cx="343.1" cy="250.5" r="35.3"/>
<path class="st1" d="M246.1,288.4c-34.9,0-57.5-8.7-58.9-9.3c-4.5-1.8-6.8-6.9-5-11.4c1.8-4.5,6.9-6.8,11.4-5
	c0.5,0.2,47.3,17.9,109-0.2c4.7-1.4,9.6,1.3,11,6c1.4,4.7-1.3,9.6-6,11C284.8,286.2,263.8,288.4,246.1,288.4z"/>
<g>
	<circle class="st1" cx="212.5" cy="219" r="11"/>
	<circle class="st1" cx="287.5" cy="219" r="11"/>
</g>
<path class="st1" d="M187.6,297.2c-1,0-2.1-0.2-3.1-0.6c-4.6-1.7-6.9-6.8-5.2-11.3c7-19-2.8-28.4-3.2-28.8
	c-3.5-3.3-3.8-8.8-0.6-12.4c3.2-3.6,8.6-4,12.3-0.9c0.8,0.7,19.6,17.3,8.1,48.2C194.5,295,191.2,297.2,187.6,297.2z"/>
<path class="st1" d="M306.6,297.1c-4,0-7.6-2.7-8.6-6.8c-7.7-32,12.9-46.3,13.8-46.9c4-2.7,9.5-1.7,12.2,2.4c2.7,4,1.7,9.4-2.3,12.2
	c-0.7,0.5-11.3,8.7-6.6,28.2c1.1,4.7-1.8,9.5-6.5,10.6C308,297,307.3,297.1,306.6,297.1z"/>
</svg>
