<?xml version="1.0" encoding="utf-8"?>
<!-- Generator: Adobe Illustrator 24.1.0, SVG Export Plug-In . SVG Version: 6.00 Build 0)  -->
<svg version="1.1" id="레이어_1" xmlns="http://www.w3.org/2000/svg" xmlns:xlink="http://www.w3.org/1999/xlink" x="0px"
	 y="0px" viewBox="0 0 500 500" style="enable-background:new 0 0 500 500;" xml:space="preserve">
<style type="text/css">
	.st0{fill:#90D8F3;}
	.st1{fill:#67C0F3;}
	.st2{fill:#F9CCDA;}
	.st3{fill:#FF5E5B;}
	.st4{fill:#85AFF3;}
	.st5{fill:#FFE455;}
	.st6{fill:#FFB119;}
	.st7{fill:#FFDB79;}
	.st8{fill:#FF905B;}
	.st9{fill:#8B8B8B;}
	.st10{fill:#FFF3E4;}
	.st11{fill:#FCDCC4;}
	.st12{fill:#FFFFFF;}
	.st13{fill:#FFA2A2;}
	.st14{fill:#DDBEF2;}
	.st15{fill:#FFDF70;}
	.st16{fill:#FFED99;}
	.st17{fill:#303030;}
	.st18{fill:#BF88CD;}
	.st19{fill:#9AD880;}
	.st20{fill:#F3E7D5;}
	.st21{fill:#875348;}
	.st22{fill:#EEECE9;}
	.st23{fill:#FD7D7B;}
	.st24{fill:#FFC4CF;}
	.st25{fill:#D95B1E;}
	.st26{fill:#548444;}
	.st27{fill:#2B8CBC;}
	.st28{fill:#AE4847;}
	.st29{clip-path:url(#SVGID_2_);}
	.st30{fill:#FF877D;}
	.st31{fill:#FFAF76;}
	.st32{fill:#FFE778;}
	.st33{fill:#90CEB6;}
	.st34{fill:#ADD4E2;}
	.st35{fill:#338AA5;}
	.st36{clip-path:url(#SVGID_4_);}
	.st37{fill:#4880B0;}
	.st38{fill:#BA5050;}
	.st39{clip-path:url(#SVGID_6_);}
	.st40{clip-path:url(#SVGID_8_);}
	.st41{fill:#4E89B5;}
	.st42{clip-path:url(#SVGID_10_);}
</style>
<g>
	<path class="st23" d="M363.2,175.9c-0.4-17.7-4.5-35-14.1-50.6C333,99.2,306,83.2,276.9,83.6c-36.8,0.6-67.7,26.2-79.5,61.6
		c-12.9-35.1-44.6-59.7-81.4-59.1c-33.9,0.5-62.1,24.2-75,57.5c-13.3,34.3-3.7,77.1,9.5,110.2c20.6,51.2,65.5,99.3,112.4,127.5
		c21.8,13.1,40.4,23.7,63.8,10.5c21.1-11.9,40.1-25.4,57.4-43.4c28.7-29.9,50.6-66.9,66-106.6C358.2,221.2,363.7,198.3,363.2,175.9z
		"/>
	<path class="st23" d="M378.1,175.9c-3-51.3-34.5-99.3-88.6-106.3C239.7,63.1,199.9,97,183,141.3c9.6,0,19.2,0,28.8,0
		c-26.3-62.8-103.4-96.1-158-43.8C-6.4,155.1,23.1,252.2,65.5,311c24,33.3,54.8,62,89.9,83.3c39.8,24.1,67.1,21,104.8-5.9
		C325.1,342,376.8,256.7,378.1,175.9c0.3-19.2-29.6-19.2-29.9,0c-0.9,57.6-32.9,117-71.5,158.5c-21.8,23.5-56.2,55.9-90.1,42.9
		c-27.3-10.4-52.8-33.6-72.6-54.4c-37.3-39-69.7-96.3-64.2-152.2c7.5-76.7,103.2-92.9,133.1-21.5c5.7,13.7,23.3,14.5,28.8,0
		c12.1-31.6,42.7-56.8,78.3-49.5c36.4,7.4,56.2,41.4,58.2,76.2C349.4,195,379.2,195.1,378.1,175.9z"/>
</g>
<g>
	<path class="st24" d="M272.2,308.5c-1.2-14,0.2-27.9,5.9-39.5c10.3-20.9,39.7-28.9,60.8-21.7c22.7,7.8,29.9,29.3,37.6,49.7
		c-0.2-0.6,7.7-7.5,8.5-8.4c3-2.9,6.1-5.7,9.6-8c7-4.6,14.6-8.6,22.8-10.8c18.4-4.8,38.2,0.6,49.5,16.3
		c11.3,15.7,12.5,37.2,4.1,54.4c-2.8,5.7-6.5,10.9-10.1,16.1c-16,22.8-37.8,40-61.1,54.8c-13.5,8.5-26.8,23.8-43.4,25.9
		c-14.2,1.8-28.1-15.6-36.6-26.3c-13.5-17.1-26-35-34.8-55C278.8,342.7,273.6,325.5,272.2,308.5z"/>
	<path class="st24" d="M279.6,308.5c-1-27.1,9.8-57.5,42.3-56.2c28.3,1.1,38.6,23.6,47.3,46.7c1.8,4.8,8.5,7.9,12.5,3.3
		c21.9-25.3,70.8-42,85,0.5c12.9,38.4-32,75.5-59.5,94.7c-10.2,7.1-21.4,16.9-32,23c-21,11.9-33.8,5.9-48.1-11.7
		C303.3,379.2,284.5,346.9,279.6,308.5c-1.2-9.4-16.1-9.5-14.9,0c5.7,45,31.5,102.9,70.5,129.4c16.7,11.3,31.7,6.1,47.6-4.5
		c22.4-15,46.3-31,65.4-50.3c27.4-27.6,53.9-75,18.5-108.3c-29.5-27.7-72.5-9.7-95.6,17c4.2,1.1,8.3,2.2,12.5,3.3
		c-12.1-32.3-29.6-61.6-68.8-57.2c-38,4.3-51.4,35.8-50.2,70.6C265,318.1,280,318.1,279.6,308.5z"/>
</g>
<path class="st38" d="M200.4,259.6c-22.1,0-46-7.3-62.4-19.4c-4-2.9-4.8-8.5-1.9-12.5c2.9-4,8.5-4.8,12.5-1.9
	c12.1,8.9,34.4,17.2,56.8,15.8c16.6-1.1,38.7-9.3,52.5-19.6c4-3,9.6-2.1,12.5,1.8c3,4,2.1,9.6-1.8,12.5
	c-16.6,12.4-42.1,21.9-62.1,23.2C204.5,259.5,202.4,259.6,200.4,259.6z"/>
<ellipse class="st38" cx="165" cy="192.1" rx="10.4" ry="10.8"/>
<ellipse class="st38" cx="237.6" cy="189.1" rx="10.4" ry="10.8"/>
</svg>
