<?xml version="1.0" encoding="utf-8"?>
<!-- Generator: Adobe Illustrator 24.1.0, SVG Export Plug-In . SVG Version: 6.00 Build 0)  -->
<svg version="1.1" id="레이어_1" xmlns="http://www.w3.org/2000/svg" xmlns:xlink="http://www.w3.org/1999/xlink" x="0px"
	 y="0px" viewBox="0 0 500 500" style="enable-background:new 0 0 500 500;" xml:space="preserve">
<style type="text/css">
	.st0{fill:#90D8F3;}
	.st1{fill:#67C0F3;}
	.st2{fill:#F9CCDA;}
	.st3{fill:#FF5E5B;}
	.st4{fill:#85AFF3;}
	.st5{fill:#FFE455;}
	.st6{fill:#FFB119;}
	.st7{fill:#FFDB79;}
	.st8{fill:#FF905B;}
	.st9{fill:#8B8B8B;}
	.st10{fill:#FFF3E4;}
	.st11{fill:#FCDCC4;}
	.st12{fill:#FFFFFF;}
	.st13{fill:#FFA2A2;}
	.st14{fill:#DDBEF2;}
	.st15{fill:#FFDF70;}
	.st16{fill:#FFED99;}
	.st17{fill:#303030;}
	.st18{fill:#BF88CD;}
	.st19{fill:#9AD880;}
	.st20{fill:#F3E7D5;}
	.st21{fill:#875348;}
	.st22{fill:#EEECE9;}
	.st23{fill:#FD7D7B;}
	.st24{fill:#FFC4CF;}
	.st25{fill:#D95B1E;}
	.st26{fill:#548444;}
	.st27{fill:#2B8CBC;}
	.st28{fill:#AE4847;}
	.st29{clip-path:url(#SVGID_2_);}
	.st30{fill:#FF877D;}
	.st31{fill:#FFAF76;}
	.st32{fill:#FFE778;}
	.st33{fill:#90CEB6;}
	.st34{fill:#ADD4E2;}
	.st35{fill:#338AA5;}
	.st36{clip-path:url(#SVGID_4_);}
	.st37{fill:#4880B0;}
	.st38{fill:#BA5050;}
	.st39{clip-path:url(#SVGID_6_);}
	.st40{clip-path:url(#SVGID_8_);}
	.st41{fill:#4E89B5;}
	.st42{clip-path:url(#SVGID_10_);}
</style>
<g>
	<g>
		<path class="st10" d="M465.2,133.5c0.3,2.4,0.5,4.9,0.5,7.6c0,43.4,0,86.9,0,130.3c0,22.2,0,44.5,0,66.7
			c0,18.6-0.4,50.2-19.7,59.5c-11.8,5.7-34.7,6.1-47.5,5.8c-14.6-0.5-29.3-0.4-43.9-0.4c-50.5,0-101,0-151.4-0.1
			c-40.4,0-80.9,0-121.3-0.3c-16.1-0.1-28.1,0.6-38.8-13.1c-10.7-13.7-11.5-23.5-11.5-41.1c0.1-43.6,0.2-87.2,0.2-130.8
			c0-18.7-1.1-38.8,1.5-58c2.1-15.5,0.5-30,11.5-42.4C64,95.6,97.2,103.6,122,103.8c22.8,0.2,45.6,0.5,68.4,0.6
			c79.5,0.3,159.1,0.6,238.6,0.9C446.2,105.4,462.5,113.9,465.2,133.5z"/>
		<path class="st10" d="M457.8,133.5c3.7,56.6,0.5,114.5,0.5,171.3c0,20.1,3.2,44.7-2.3,64.6c-8.9,32.1-42.8,26.7-68.4,26.3
			c-57.6-0.8-115.2-0.2-172.7-0.2c-25.9,0-51.9,0-77.8-0.1c-25.1-0.1-63.2,7.1-83.3-8.9c-23.1-18.4-14.6-59.2-14.5-85.7
			c0.1-27.8,0.3-55.5,0.2-83.3c-0.1-22.6-0.3-44.7,2.4-67.2c5.6-46,42.8-40.5,76.5-39.3c54.3,1.9,108.8,0.9,163.2,1.1
			c26.5,0.1,53,0.2,79.5,0.3c27.2,0.1,88.4-11.7,97.2,23c2.3,9.3,16.7,5.3,14.3-4c-10.5-41.5-54.8-33.7-88.8-33.9
			C323,97.5,262.4,97.2,201.8,97c-27.8-0.1-55.8,0.2-83.6-0.8c-20.5-0.7-42.9-4.6-62.3,4.1c-34.3,15.5-31.7,61.6-31.7,93.3
			c0,27.8,0.1,55.6,0.1,83.4c-0.1,28.6-3.3,59.4,0.6,87.8c4.5,32.5,26.8,44.7,57,45.2c59.8,1.1,119.7,0.3,179.6,0.4
			c31.1,0,62.1,0,93.2,0c25.1,0,51.8,3.1,76.7-1.2c37.5-6.5,41.6-37.8,41.9-71.1c0.6-67.7,3.9-137.1-0.5-204.6
			C472,124,457.1,124,457.8,133.5z"/>
	</g>
	<path class="st11" d="M431.5,376.5c2,2,4,4,6,6c6.8,6.8,17.1-3.6,10.5-10.5c-32.2-33.5-68.9-61.9-102.7-93.7
		c-14.2-13.4-30.1-35.3-50.5-37.9c-35.4-4.5-74.1,0-109.8,0c-6.1,0-8.6,6.2-6.4,11.2c-0.8-1.8-51.5,51.8-56.4,57.2
		c-18.7,20.6-38.7,40.3-56.7,61.5c-6.2,7.3,4.3,17.8,10.5,10.5c37-43.6,81.6-81.9,116.1-127.5c1.7-2.2,1-5.2,0-7.5
		c-0.2-0.6-0.5-1.1-0.7-1.7c-2.1,3.7-4.3,7.5-6.4,11.2c33.9,0,68.6-2.3,102.5,0c22.9,1.6,38.7,25.7,55.2,40.8
		c31.6,28.9,65.1,55.4,94.9,86.4c3.5-3.5,7-7,10.5-10.5c-2-2-4-4-6-6C435.2,359.2,424.7,369.7,431.5,376.5L431.5,376.5z"/>
	<g>
		<path class="st12" d="M62.9,144.3c40.2,34.2,79.9,68.9,119,104.3"/>
		<path class="st11" d="M57.6,149.6c40.2,34.2,79.8,69,119,104.3c7.1,6.4,17.6-4.1,10.5-10.5C148,208,108.3,173.2,68.2,139
			C60.9,132.9,50.3,143.3,57.6,149.6L57.6,149.6z"/>
	</g>
	<path class="st11" d="M314.6,253.1c42.2-37.4,83.9-76.1,124.8-114.8c7-6.6-3.6-17.1-10.5-10.5c-41,38.7-82.6,77.4-124.8,114.8
		C297,249,307.5,259.5,314.6,253.1L314.6,253.1z"/>
	<g>
		<path class="st13" d="M286.5,235c-0.5-4-2-7.8-4.9-11c-4.9-5.4-12.3-8.3-19.9-7.3c-9.6,1.2-17,7.9-19.2,16.3
			c-4.2-7.6-13.1-12.2-22.7-10.9c-8.8,1.1-15.6,7.3-18.1,15.3c-2.6,8.2,0.9,17.6,5.2,24.7c3.6,5.9,8.5,11,14,15.4
			c5.8,4.6,11.5,7.4,18.5,10.1c6,2.3,11.1,4.2,16.9,0.5c5.2-3.3,9.8-6.9,13.9-11.5c6.7-7.6,11.5-16.7,14.6-26.1
			C286.3,245.4,287.2,240,286.5,235z"/>
		<path class="st13" d="M293.7,233c-7-31.3-47.8-30-58.3-2c4.5-0.6,9.1-1.2,13.6-1.8c-10.6-14.9-31-20.4-45.8-7.4
			c-17.1,15.1-8.4,39.3,4.8,53.6c13.6,14.8,37.1,28.7,55.9,16.3c18-11.9,30.9-35.2,30.1-56.8c-0.4-9.5-15.2-9.6-14.9,0
			c0.7,16.9-14.5,50.7-35.5,46.1c-10.6-2.3-21.3-11-27.7-19.5c-4.4-5.9-9.8-16.6-6.2-24.3c5-10.7,20-9.5,26.4-0.5
			c3.8,5.4,11.3,4.4,13.6-1.8c6-15.8,26.2-13.4,29.6,2C281.4,246.3,295.8,242.3,293.7,233z"/>
	</g>
</g>
</svg>
