<?xml version="1.0" encoding="utf-8"?>
<!-- Generator: Adobe Illustrator 24.1.0, SVG Export Plug-In . SVG Version: 6.00 Build 0)  -->
<svg version="1.1" id="레이어_1" xmlns="http://www.w3.org/2000/svg" xmlns:xlink="http://www.w3.org/1999/xlink" x="0px"
	 y="0px" viewBox="0 0 500 500" style="enable-background:new 0 0 500 500;" xml:space="preserve">
<style type="text/css">
	.st0{fill:#90D8F3;}
	.st1{fill:#67C0F3;}
	.st2{fill:#F9CCDA;}
	.st3{fill:#FF5E5B;}
	.st4{fill:#85AFF3;}
	.st5{fill:#FFE455;}
	.st6{fill:#FFB119;}
	.st7{fill:#FFDB79;}
	.st8{fill:#FF905B;}
	.st9{fill:#8B8B8B;}
	.st10{fill:#FFF3E4;}
	.st11{fill:#FCDCC4;}
	.st12{fill:#FFFFFF;}
	.st13{fill:#FFA2A2;}
	.st14{fill:#DDBEF2;}
	.st15{fill:#FFDF70;}
	.st16{fill:#FFED99;}
	.st17{fill:#303030;}
	.st18{fill:#BF88CD;}
	.st19{fill:#9AD880;}
	.st20{fill:#F3E7D5;}
	.st21{fill:#875348;}
	.st22{fill:#EEECE9;}
	.st23{fill:#FD7D7B;}
	.st24{fill:#FFC4CF;}
	.st25{fill:#D95B1E;}
	.st26{fill:#548444;}
	.st27{fill:#2B8CBC;}
	.st28{fill:#AE4847;}
	.st29{clip-path:url(#SVGID_2_);}
	.st30{fill:#FF877D;}
	.st31{fill:#FFAF76;}
	.st32{fill:#FFE778;}
	.st33{fill:#90CEB6;}
	.st34{fill:#ADD4E2;}
	.st35{fill:#338AA5;}
	.st36{clip-path:url(#SVGID_4_);}
	.st37{fill:#4880B0;}
	.st38{fill:#BA5050;}
	.st39{clip-path:url(#SVGID_6_);}
	.st40{clip-path:url(#SVGID_8_);}
	.st41{fill:#4E89B5;}
	.st42{clip-path:url(#SVGID_10_);}
</style>
<g>
	<g>
		<path class="st19" d="M248.1,237.3c-9.4-0.6-18.7-3.3-27.4-8.4c-11.3-6.6-21.2-14.8-30.1-24.4c-24.4-26.5-37.3-60.8-34-96.9
			c2.4-25.6,23.2-60.3,51.9-60.4c10.2,0,20.9,0.5,30.5,4.2c6.4,2.5,10.4,7.1,17.7,6.7c7.3-0.4,12.8-5.5,19.7-7.5
			c15.3-4.3,32.1-5.2,47.1,0.9c45.1,18.5,40.5,81.8,21.9,117.3c-10.6,20.3-26.2,38.4-44.6,52C285.6,232,266.7,238.6,248.1,237.3z"/>
	</g>
	<g>
		<path class="st19" d="M252.1,264.1c2.6,0.4,5.2,1,7.8,1.8c22.1,7.3,33.2,18.8,48.2,36.2c23.5,27.3,35.4,62,30.8,98
			c-3.2,25.5-25.1,59.5-53.8,58.7c-10.2-0.3-20.8-1.1-30.3-5.2c-6.3-2.7-10.1-7.4-17.5-7.3c-7.3,0.1-13,5.1-19.9,6.8
			c-15.5,3.8-32.2,4.2-47-2.5c-44.5-19.9-37.9-83-18.1-117.9c11.3-19.9,27.5-37.5,46.3-50.5C214,271.6,232.9,261.4,252.1,264.1z"/>
	</g>
	<g>
		<path class="st19" d="M270,238.6c0.8-2.5,1.8-4.9,3.1-7.3c11-20.5,24.2-29.4,43.9-41.3c30.9-18.5,67.1-24.2,101.8-13.5
			c24.6,7.6,54.3,34.9,48.6,63.1c-2,10-4.7,20.3-10.3,29c-3.7,5.8-9.1,8.7-10.2,16c-1.1,7.2,2.8,13.7,3.3,20.8
			c1.1,15.9-1.4,32.5-10.5,45.9c-27.2,40.4-88.3,23.1-119.3-2.4c-17.7-14.5-32.2-33.5-41.8-54.3C270.7,277.4,264,257.1,270,238.6z"
			/>
	</g>
	<g>
		<path class="st19" d="M177.8,160.5c-17.6-11.3-38-18-58.9-19.2c-25.7-1.5-63.1,13.9-67.5,42.2c-1.6,10.1-2.7,20.7-0.4,30.8
			c1.5,6.7,5.5,11.3,4,18.6c-1.5,7.1-7.4,11.8-10.3,18.3c-6.6,14.5-9.9,30.9-6.1,46.7c11.5,47.4,74.8,52.3,112.7,39.3
			c21.6-7.5,41.9-20.2,58.1-36.4C253.7,256.4,222.8,189.4,177.8,160.5z"/>
	</g>
</g>
<path class="st26" d="M222.8,151.4c20.6,6.6,43.2,6.8,63.9,0.4c9.2-2.8,5.5-17.3-3.8-14.5c-18.3,5.6-37.7,5.5-55.9-0.3
	C217.7,134.1,213.6,148.5,222.8,151.4L222.8,151.4z"/>
<ellipse class="st26" cx="229.7" cy="113.4" rx="7.2" ry="7.5"/>
<ellipse class="st26" cx="277.7" cy="111.8" rx="7.2" ry="7.5"/>
</svg>
