<?xml version="1.0" encoding="utf-8"?>
<!-- Generator: Adobe Illustrator 24.1.0, SVG Export Plug-In . SVG Version: 6.00 Build 0)  -->
<svg version="1.1" id="레이어_1" xmlns="http://www.w3.org/2000/svg" xmlns:xlink="http://www.w3.org/1999/xlink" x="0px"
	 y="0px" viewBox="0 0 500 500" style="enable-background:new 0 0 500 500;" xml:space="preserve">
<style type="text/css">
	.st0{fill:#90D8F3;}
	.st1{fill:#67C0F3;}
	.st2{fill:#F9CCDA;}
	.st3{fill:#FF5E5B;}
	.st4{fill:#85AFF3;}
	.st5{fill:#FFE455;}
	.st6{fill:#FFB119;}
	.st7{fill:#FFDB79;}
	.st8{fill:#FF905B;}
	.st9{fill:#8B8B8B;}
	.st10{fill:#FFF3E4;}
	.st11{fill:#FCDCC4;}
	.st12{fill:#FFFFFF;}
	.st13{fill:#FFA2A2;}
	.st14{fill:#DDBEF2;}
	.st15{fill:#FFDF70;}
	.st16{fill:#FFED99;}
	.st17{fill:#303030;}
	.st18{fill:#BF88CD;}
	.st19{fill:#9AD880;}
	.st20{fill:#F3E7D5;}
	.st21{fill:#875348;}
	.st22{fill:#EEECE9;}
	.st23{fill:#FD7D7B;}
	.st24{fill:#FFC4CF;}
	.st25{fill:#D95B1E;}
	.st26{fill:#548444;}
	.st27{fill:#2B8CBC;}
	.st28{fill:#AE4847;}
	.st29{clip-path:url(#SVGID_2_);}
	.st30{fill:#FF877D;}
	.st31{fill:#FFAF76;}
	.st32{fill:#FFE778;}
	.st33{fill:#90CEB6;}
	.st34{fill:#ADD4E2;}
	.st35{fill:#338AA5;}
	.st36{clip-path:url(#SVGID_4_);}
	.st37{fill:#4880B0;}
	.st38{fill:#BA5050;}
	.st39{clip-path:url(#SVGID_6_);}
	.st40{clip-path:url(#SVGID_8_);}
	.st41{fill:#4E89B5;}
	.st42{clip-path:url(#SVGID_10_);}
</style>
<g>
	<path class="st9" d="M469.9,276.9c-8.8-22.9-23.9-43.5-44.5-58.8c-14-10.4-29-16.2-44.6-23.4c-0.6-0.3-1.3-0.5-2-0.5
		c-0.1,0-0.2,0-0.3,0c-1.3,0-2.5,0.4-3.5,1.2c-0.3,0.2-0.6,0.5-0.8,0.8c-0.8,0.9-1.3,2.1-1.4,3.5c0,0.9-0.1,1.7-0.1,2.6
		c-0.1,3-0.2,6-0.3,9c-0.2,4.8-0.3,9.5-0.5,14.3c-0.2,6.1-0.4,12.2-0.7,18.3c-0.3,7-0.5,14.1-0.8,21.1c-0.3,7.6-0.5,15.1-0.8,22.7
		c-0.3,7.7-0.6,15.4-0.8,23c-0.3,7.4-0.5,14.7-0.8,22.1c-0.2,6.7-0.5,13.3-0.7,20c-0.2,5.5-0.4,11.1-0.6,16.6c-0.1,4-0.3,8-0.4,12
		c0,1.3-0.1,2.6-0.1,3.9c0,0.4,0,0.9,0,1.3c-0.4,2-2.1-0.7-2.8-1.4c-1.1-1-2.2-2-3.4-2.9c-2.5-1.9-5.1-3.6-7.9-5
		c-10.2-5.3-22-7.3-33.4-6.3c-29.7,2.6-51.9,24.6-49.8,49.1c4.1,46.6,75.4,45.4,99,15.5c0.2-0.3,0.4-0.5,0.6-0.8
		c0.2-0.2,0.4-0.5,0.5-0.7c1-1.4,1.8-2.8,2.6-4.3c0.3-0.6,0.6-1.2,0.9-1.8c3.6-7.4,4.1-15.3,4.4-23.4c0.3-9.6,0.7-19.2,1-28.8
		c0.4-12.1,0.9-24.1,1.3-36.2c0.4-11.3,0.8-22.6,1.2-33.9c0.3-7.3,0.5-14.6,0.8-21.8c0.3-8.9-1-19,2.9-27.2
		c21.4,5,43.8,18.9,55.8,37.5c9.4,14.7,14.2,32.6,16.8,49.7c2.9,19.6,0.6,37.7-6.5,56.1c-0.6,1.5-5.4,10.2-4.4,11.3
		c1.7,1.8,5.5-0.9,6.9-2.2c2.2-2.1,4-5.6,5.6-8.1c4-6.1,6.8-12.8,9.7-19.5C482.5,347.6,482.6,309.8,469.9,276.9z"/>
	<path class="st9" d="M316.8,463c-7,0-14-0.9-20.5-2.9c-19.9-5.9-32.2-20.4-33.9-39.6c-2.5-28,22.5-53.1,55.6-56.1
		c13.1-1.1,25.9,1.3,36.9,7c1.8,0.9,3.6,2,5.2,3.1l6.4-175.1c0.1-2.9,1.2-5.4,3-7.5c0.5-0.6,1.1-1.1,1.7-1.6
		c2.1-1.6,4.7-2.4,7.4-2.5l0.6,0c1.5,0.1,3,0.5,4.3,1.1c2.8,1.3,5.6,2.5,8.4,3.8c12.5,5.6,25.3,11.4,37.3,20.3
		c21,15.6,37.1,36.9,46.7,61.6c13.5,35.1,12.8,75-2.1,109.5l-0.3,0.7c-2.8,6.6-5.8,13.4-9.9,19.8c-0.4,0.6-0.8,1.3-1.3,2
		c-1.4,2.4-3.1,5.1-5.3,7.2c-0.8,0.8-5.2,5-10.2,4.6c-2.3-0.1-4.4-1-5.9-2.7c-3.7-4.1-1.2-9.2,2.4-16.3c0.4-0.7,0.7-1.3,0.8-1.7
		c6.8-17.5,8.9-34.8,6.1-52.8c-3-19.8-8.2-35.3-15.8-47.2c-9.4-14.8-27.2-27.4-46.2-33.2c-0.8,3.9-0.7,8.3-0.7,12.9
		c0,2.3,0,4.5,0,6.7L383,404.7c-0.3,8.4-0.9,17.3-5,25.9c-0.3,0.7-0.7,1.3-1,2c-0.9,1.7-1.9,3.3-3,4.9l-1.3,1.7
		C361.1,454.1,338.6,463,316.8,463z M324.3,376.9c-1.7,0-3.5,0.1-5.2,0.2c-26.1,2.3-45.8,21.2-44,42.2c1.6,17.9,14.4,25.4,24.9,28.5
		c21.9,6.5,50.6-1,62.7-16.4l0.9-1.2c0.8-1.2,1.5-2.4,2.2-3.6c0.3-0.5,0.5-1.1,0.8-1.6c3-6.3,3.5-13.5,3.8-20.8l0.5-13.3
		c-0.9,1.1-2.1,1.9-3.5,2.3c-4.4,1.2-7.3-2.2-8.4-3.5c-1-1-2-1.8-3-2.6c-2.1-1.6-4.4-3.1-6.9-4.4
		C341.5,378.9,333.1,376.9,324.3,376.9z M380.5,249.3l5,1.2c24.6,5.7,47.4,21.2,59.7,40.3c8.6,13.5,14.4,30.6,17.7,52.2
		c1.7,11.6,1.8,22.9,0,34.1c12.8-31,13.2-66.6,1.1-97.9v0c-8.7-22.5-23.3-41.8-42.4-56c-10.9-8.1-22.6-13.3-34.9-18.9
		c-2.5-1.1-5-2.2-7.5-3.4l-2,55.6c0.3-0.9,0.7-1.8,1.1-2.6L380.5,249.3z M378.1,200.5L378.1,200.5L378.1,200.5
		C378.1,200.5,378.1,200.5,378.1,200.5z"/>
</g>
<g>
	<path class="st17" d="M322,265.7c-0.2-11.5-1.7-23.4-2.4-34.8c-1.1-19-2.2-38-3.3-57c-0.6-9.6-1.1-19.2-1.7-28.8l-5.3-91.7
		c-0.2-2.6-1.5-5-3.7-6.4c-2.2-1.5-4.9-1.8-7.3-1C284,50.8,178.4,59.9,110.9,64.7c-4.5,0.3-8,4.2-7.7,8.8l10.2,175.6
		c-10.6-7.2-24.8-11.1-40.1-10.2c-31.1,1.8-55.2,22.9-53.8,47.1c1.4,24.2,27.8,42.3,58.9,40.5c9.6-0.6,19.2-3,27.8-7.5
		c10.1-5.3,19.1-13.6,23.4-24.3c2.1-5.2,2.8-10.8,2.9-16.3c0-4-0.7-8-1-12c-2.2-25.6-4.5-51.7-4.2-77.2c0.1-5.1,0.2-10.3,0.2-15.4
		c0-1.1,0.6-2.2,1.6-2.6c1-0.4,2.2-0.4,3.3-0.4c0.1,0,0.2,0,0.3,0c2.3,0.1,4.6,0.1,6.9,0.2c4.5,0.1,9,0.2,13.5-0.2
		c48.1-3.8,98.2-8,145.1-20.4l5.1,87.8c-10.6-7.2-24.8-11.2-40.2-10.3c-31.1,1.8-55.2,22.9-53.8,47.1c1.4,24.2,27.8,42.3,58.9,40.5
		c23-1.3,52.7-16.3,53.7-42.6C322,270.5,322,268.1,322,265.7z M123.1,129.2l-0.8-21.6c5.7-0.2,14.6-0.6,25.8-1.3
		c39.1-2.3,104.7-7.7,146.8-19.6l0.7,21.2C248.6,123.1,147.3,128.1,123.1,129.2z"/>
	<path class="st17" d="M74.2,333c-32.5,0-59.5-20.2-61-46.7c-1.6-27.7,25.2-51.8,59.8-53.8c11.8-0.7,23.4,1.3,33.5,5.6L96.9,73.9
		c-0.5-8,5.6-14.9,13.6-15.5c81-5.9,173.6-14.3,185.8-18.4c4.4-1.4,9.2-0.8,12.9,1.8c3.8,2.5,6.2,6.8,6.4,11.3L326,230.6
		c0.3,4.4,0.6,8.8,1,13.3c0.6,7.1,1.3,14.5,1.4,21.8l0,0c0,2.5,0,5.1-0.1,7.6c-1.3,31.3-35.7,47.3-59.7,48.7
		c-34.7,2-64-18.9-65.6-46.5c-1.6-27.7,25.2-51.8,59.8-53.8c11.9-0.7,23.4,1.3,33.6,5.6l-4-68.6c-45.9,11.3-95,15.2-138.7,18.7
		c-4.9,0.4-9.7,0.3-14.2,0.2l-5.6-0.2c0,2.1-0.1,4.2-0.1,6.3l-0.1,5.8c-0.3,24.2,1.6,48,4.1,76.6c0.1,1.3,0.3,2.5,0.4,3.7
		c0.3,2.8,0.7,5.8,0.7,8.9c0,7.1-1.1,13.2-3.3,18.7c-4.5,11.3-13.9,21.1-26.4,27.6c-9.1,4.7-19.6,7.6-30.4,8.2
		C77.2,333,75.7,333,74.2,333z M77.6,245.2c-1.3,0-2.6,0-3.9,0.1c-27.5,1.6-49,19.7-47.8,40.3c1.2,20.6,24.6,36.2,52.1,34.5
		c9-0.5,17.7-2.9,25.2-6.8c9.8-5.1,17.1-12.6,20.5-21c1.6-3.9,2.4-8.5,2.4-14c0-2.3-0.3-4.8-0.6-7.3c-0.2-1.4-0.3-2.7-0.4-4.1
		c-2-22.8-4.5-51.1-4.2-77.8l0.1-5.9c0.1-3.2,0.1-6.3,0.1-9.5c0-3.8,2.2-7.1,5.6-8.5c2.3-0.9,4.4-0.9,5.9-0.9l7.3,0.2
		c4.1,0.1,8.5,0.2,12.8-0.1c45.5-3.6,97.1-7.8,144-20.2c1.8-0.5,3.8-0.1,5.4,1c1.6,1.1,2.5,2.9,2.6,4.8l5.1,87.8
		c0.1,2.4-1.1,4.7-3.2,5.9c-2.1,1.2-4.7,1.1-6.7-0.3c-9.9-6.7-22.8-10-36.3-9.2c-27.5,1.6-49,19.7-47.8,40.3
		c1.2,20.6,24.6,36.1,52.1,34.5c18.7-1.1,46.8-13.4,47.7-36.5c0.1-2.3,0.1-4.5,0.1-6.8c-0.1-6.8-0.7-14-1.3-20.9
		c-0.4-4.6-0.8-9.1-1.1-13.6L302.9,53.8c0-0.6-0.4-1.2-0.8-1.5c-0.5-0.3-1.1-0.4-1.7-0.2c-16,5.4-130.6,14.8-188.9,19
		c-1.1,0.1-1.9,1-1.8,2.1l10.2,175.6c0.1,2.4-1.1,4.7-3.2,5.9c-2.1,1.2-4.7,1.1-6.7-0.3C100.9,248.4,89.6,245.2,77.6,245.2z
		 M123.1,135.5c-1.6,0-3.2-0.6-4.3-1.7c-1.2-1.2-2-2.8-2-4.5l-0.8-21.6c-0.1-3.5,2.6-6.5,6.1-6.6c5.6-0.2,14.6-0.6,25.7-1.3
		C184,97.8,251,92.5,293.3,80.5c1.9-0.5,3.9-0.2,5.5,1c1.6,1.2,2.6,3,2.6,4.9l0.7,21.2c0.1,2.8-1.7,5.4-4.4,6.3
		c-47.1,15.3-145.3,20.5-174.3,21.7C123.3,135.5,123.2,135.5,123.1,135.5z M129,113.7l0.3,8.8c29.1-1.4,115.3-6.4,159.9-19.4
		l-0.3-8.3c-43.5,10.9-105.8,15.8-140.4,17.8C140.9,113.1,134.2,113.4,129,113.7z"/>
</g>
</svg>
