<?xml version="1.0" encoding="utf-8"?>
<!-- Generator: Adobe Illustrator 24.1.0, SVG Export Plug-In . SVG Version: 6.00 Build 0)  -->
<svg version="1.1" id="레이어_1" xmlns="http://www.w3.org/2000/svg" xmlns:xlink="http://www.w3.org/1999/xlink" x="0px"
	 y="0px" viewBox="0 0 500 500" style="enable-background:new 0 0 500 500;" xml:space="preserve">
<style type="text/css">
	.st0{fill:#90D8F3;}
	.st1{fill:#67C0F3;}
	.st2{fill:#F9CCDA;}
	.st3{fill:#FF5E5B;}
	.st4{fill:#85AFF3;}
	.st5{fill:#FFE455;}
	.st6{fill:#FFB119;}
	.st7{fill:#FFDB79;}
	.st8{fill:#FF905B;}
	.st9{fill:#8B8B8B;}
	.st10{fill:#FFF3E4;}
	.st11{fill:#FCDCC4;}
	.st12{fill:#FFFFFF;}
	.st13{fill:#FFA2A2;}
	.st14{fill:#DDBEF2;}
	.st15{fill:#FFDF70;}
	.st16{fill:#FFED99;}
	.st17{fill:#303030;}
	.st18{fill:#BF88CD;}
	.st19{fill:#9AD880;}
	.st20{fill:#F3E7D5;}
	.st21{fill:#875348;}
	.st22{fill:#EEECE9;}
	.st23{fill:#FD7D7B;}
	.st24{fill:#FFC4CF;}
	.st25{fill:#D95B1E;}
	.st26{fill:#548444;}
	.st27{fill:#2B8CBC;}
	.st28{fill:#AE4847;}
	.st29{clip-path:url(#SVGID_2_);}
	.st30{fill:#FF877D;}
	.st31{fill:#FFAF76;}
	.st32{fill:#FFE778;}
	.st33{fill:#90CEB6;}
	.st34{fill:#ADD4E2;}
	.st35{fill:#338AA5;}
	.st36{clip-path:url(#SVGID_4_);}
	.st37{fill:#4880B0;}
	.st38{fill:#BA5050;}
	.st39{clip-path:url(#SVGID_6_);}
	.st40{clip-path:url(#SVGID_8_);}
	.st41{fill:#4E89B5;}
	.st42{clip-path:url(#SVGID_10_);}
</style>
<g>
	<path class="st15" d="M225.9,244.3c-2.3-1.8-4.2-4.1-5.2-6.9c-1.5-4.1-3.1-8.2-4.6-12.3c-6.4-17.1-12.7-34.2-19.1-51.3
		c-3.2-8.5-6.4-17.1-9.5-25.6c-1.4-3.9-8.8-28.6-15.1-17.1c-2.2,4-2.6,9-3.4,13.4c-1.5,8-1.9,16.2-3.2,24.2
		c-3,17.9-5.9,35.8-8.8,53.7c-2.5,15-3.7,27.1-17.1,36.2c-10.1,6.9-22.2,10-33.3,14.9c-10.2,4.5-20.4,9.1-30.6,13.6
		c-4.8,2.1-9.9,3.6-14.6,5.8c-1.8,0.8-6.9,3-7,5.7c-0.1,4.1,7.1,4.4,9.9,5c5,1.1,9.9,2.3,14.9,3.4c10.2,2.3,20.4,4.7,30.6,7
		c12.7,2.9,26,5.4,37.4,12c13.1,7.6,18.7,20.2,23.8,33.7c4.5,11.7,9.3,23.2,13.6,34.9c4,10.8,7.3,21.8,11.1,32.7
		c1.5,4.4,2.9,12.9,6.1,16.3c9.7,10.5,10-3.1,11-10.5c1.7-12.2,3.3-24.4,5.3-36.6c4-23.9,0.9-53.6,17.4-73.4
		c11.6-13.9,28.4-22.5,44.7-29.5c8.8-3.8,17.7-7.1,26.7-10.5c3.6-1.3,25.2-6.3,19.4-13c-2.8-3.2-15.2-3.8-19.1-4.7
		c-12.4-2.8-24.7-5.7-37.1-8.5c-10.9-2.5-21.8-5-32.7-7.5C233.4,248.7,229.2,246.9,225.9,244.3z"/>
	<path class="st15" d="M246.2,232.5c-12.3-16.3-44-169.2-90.2-117.9c-23.6,26.3-10.8,78.8-22.9,110.3c-14.1,36.6-72,28.2-95.2,57.2
		c-7.9,9.8-9.8,23.4,0,33.1c18.8,18.6,55.7,17.8,80.1,24.9c36.1,10.4,44.5,61.2,55.2,93.5c6.1,18.5,16.7,42.5,41.1,35.9
		c26-7,23.5-46.1,26.4-66.7c4.8-33.9,1.3-62.6,35.1-81.2c19.4-10.7,51.1-13.7,66.7-30.2c47.2-49.9-88.3-57.6-104.6-67.4
		c-25.9-15.5-49.5,25-23.6,40.4c16.4,9.8,36,12,54.4,16.2c12.6,2.9,34.4,3.6,45.9,9.8c-3.6-4.7-7.2-9.3-10.8-14
		c0.3,1.1,0.6,2.1,0.9,3.2c2-7.6,4-15.2,6-22.8c-8.8,10.2-37.6,14.1-50.3,20.3c-17,8.2-33.7,18.8-44.9,34.3
		c-11.2,15.4-15,32.8-17.2,51.3c-2.4,21,0.3,53.2-8.8,72.1c4.7-3.6,9.3-7.2,14-10.8c-1,0.2-2,0.5-3,0.7c6,0.8,12,1.6,18,2.4
		c0.1,0.1-6.2-24.3-7.3-27.8c-3.3-9.6-6.9-18.9-10.6-28.3c-6.6-16.8-12.2-36.2-24.2-50.2c-13.3-15.6-31.3-22.1-50.7-27.1
		c-12.5-3.3-48.3-5.4-54.6-11.6c0,11,0,22.1,0,33.1c9.5-11.8,45.3-20.1,58.9-25.8c15.5-6.5,29.7-13.5,39.2-28
		c10.2-15.6,11.2-36.3,14.1-54.2c1.9-11.3,5.1-58.7,8.6-62.4c-7.6,2-15.2,4-22.8,6c-6.5-5.4-8.2-5.1-5,0.8c1.3,3.8,2.7,7.6,4.1,11.3
		c4,10.8,8,21.6,12.1,32.5c7.4,19.8,12.6,43.6,25.5,60.7C223.6,279.9,264.3,256.6,246.2,232.5z"/>
</g>
<g>
	<path class="st16" d="M399,104.9c-6.3-6.1-11.8-13.2-14.9-21.2c-3.4-8.7-6.8-17.3-10.2-26c-1.9-4.9-3.8-9.8-5.7-14.6
		c-1.9-4.9-6.2-14.6-8.5-4.7c-1.2,5.1-1.2,10.4-1.8,15.5c-0.8,6.3-1.5,12.6-2.3,18.9c-1,8.4-2,16.8-3.1,25.2
		c-1.2,10-8.9,21.2-18.9,25.9c-6.9,3.3-14,6.3-20.8,9.7c-3.8,1.9-19.9,5.9-16.2,12.9c2.2,4.3,16.9,4.9,21.5,5.9
		c9.8,2.1,21.5,1.6,30.5,6.6c11.2,6.2,13.5,15.9,17.6,26.6c2.8,7.1,5.6,14.2,8.3,21.3c2.1,5.4,4.3,10.8,6.4,16.3
		c1.4,3.7,2.9,15.8,8.7,10.8c2.8-2.5,2-8.1,2.3-11.5c0.5-4.6,1.1-9.1,1.7-13.7c1.1-9.4,2.3-18.9,3.4-28.3c1.2-9.5,0.3-19.6,8.2-26.9
		c5.8-5.4,15-8.5,22.2-12.1c4.5-2.2,8.9-4.4,13.4-6.6c4-2,10.9-2.7,13.6-6.8c4.7-7.2-7-7.4-11.4-8.4c-6.7-1.4-13.3-2.8-20-4.2
		c-9.8-2.1-15.9-3-23-9.7C399.6,105.4,399.3,105.1,399,104.9z"/>
	<path class="st16" d="M405.7,98.2c-15.8-17-19.2-38.6-29-58.8c-3.6-7.4-4.9-11.3-12.5-14.3c-3.6-1.4-8.9,0.9-10.6,4.3
		c-15.5,31.9,2.8,70.2-35.3,91.1c-10,5.5-35.6,10.2-31.1,27.2c3.8,14.5,26.7,13.3,38.3,15.2c41.2,6.5,31.8,50.2,52.2,76.6
		c2.6,3.4,6.2,5.5,10.6,4.3c19.9-5.2,14.7-43.6,17.3-58.7c4.8-27.6,16.5-30.5,39-41.5c9.4-4.6,17.4-6.5,19.5-17.4
		c0.9-4.5-0.7-7.9-4.3-10.6C444.6,104.3,420.1,112.1,405.7,98.2c-8.7-8.3-22,4.9-13.2,13.2c16.4,15.7,41.5,8,58,20.3
		c-1.4-3.5-2.9-7.1-4.3-10.6c-1,4.9-26.7,13.2-31.2,15.6c-9.4,4.9-17.9,9.2-22.8,19c-4.4,8.9-5.8,69.2-8.7,69.9
		c3.5,1.4,7.1,2.9,10.6,4.3c-15.3-19.9-13.8-51.1-30.5-70.6c-14.2-16.5-33.1-10.7-51.3-17.4c-5-1.8-1.7,2.7,3.1,0.5
		c4.2-2,8.5-3.8,12.6-5.9c10.7-5.2,19.8-9.1,26.6-19.2c15.7-23.1,3.7-54.8,15.4-78.7c-3.5,1.4-7.1,2.9-10.6,4.3
		c2.5,1,12,33.6,14.2,38.6c4.8,11.4,10.6,20.5,19.1,29.6C400.7,120.3,413.9,107.1,405.7,98.2z"/>
</g>
</svg>
