<?xml version="1.0" encoding="utf-8"?>
<!-- Generator: Adobe Illustrator 24.1.0, SVG Export Plug-In . SVG Version: 6.00 Build 0)  -->
<svg version="1.1" id="레이어_1" xmlns="http://www.w3.org/2000/svg" xmlns:xlink="http://www.w3.org/1999/xlink" x="0px"
	 y="0px" viewBox="0 0 500 500" style="enable-background:new 0 0 500 500;" xml:space="preserve">
<style type="text/css">
	.st0{fill:#90D8F3;}
	.st1{fill:#67C0F3;}
	.st2{fill:#F9CCDA;}
	.st3{fill:#FF5E5B;}
	.st4{fill:#85AFF3;}
	.st5{fill:#FFE455;}
	.st6{fill:#FFB119;}
	.st7{fill:#FFDB79;}
	.st8{fill:#FF905B;}
	.st9{fill:#8B8B8B;}
	.st10{fill:#FFF3E4;}
	.st11{fill:#FCDCC4;}
	.st12{fill:#FFFFFF;}
	.st13{fill:#FFA2A2;}
	.st14{fill:#DDBEF2;}
	.st15{fill:#FFDF70;}
	.st16{fill:#FFED99;}
	.st17{fill:#303030;}
	.st18{fill:#BF88CD;}
	.st19{fill:#9AD880;}
	.st20{fill:#F3E7D5;}
	.st21{fill:#875348;}
	.st22{fill:#EEECE9;}
	.st23{fill:#FD7D7B;}
	.st24{fill:#FFC4CF;}
	.st25{fill:#D95B1E;}
	.st26{fill:#548444;}
	.st27{fill:#2B8CBC;}
	.st28{fill:#AE4847;}
	.st29{clip-path:url(#SVGID_2_);}
	.st30{fill:#FF877D;}
	.st31{fill:#FFAF76;}
	.st32{fill:#FFE778;}
	.st33{fill:#90CEB6;}
	.st34{fill:#ADD4E2;}
	.st35{fill:#338AA5;}
	.st36{clip-path:url(#SVGID_4_);}
	.st37{fill:#4880B0;}
	.st38{fill:#BA5050;}
	.st39{clip-path:url(#SVGID_6_);}
	.st40{clip-path:url(#SVGID_8_);}
	.st41{fill:#4E89B5;}
	.st42{clip-path:url(#SVGID_10_);}
</style>
<g>
	<path class="st0" d="M422.8,308.5c-0.3-4.4-0.7-8.8-1.2-13.1c-5.9-54.7-23-107.4-42.6-159.1c-6.2-16.4-12.6-32.6-19.3-48.8
		c-6.7-16-12.8-33.2-21.5-48.2c-6.9,15.9-16.1,31.1-23.6,46.9c-7.7,16.4-15,32.9-22.4,49.4c-29,65.3-55.4,133.6-54.3,204.3
		c0.4,24.1,4.1,48.6,15.3,70.4c11.7,22.9,34.6,46.3,62.9,50.5c29.6,4.4,59.9-11.2,77.4-32.5C421.2,394.8,425.8,349.8,422.8,308.5z"
		/>
	<path class="st0" d="M438.4,308.5c-7.7-93.8-42.5-194.1-86.7-277.1c-5.2-9.7-22-10.6-27,0c-29.7,64.3-63.4,126.7-84.3,194.8
		c-18.6,60.7-31.4,137.6,1.5,195.8c27.7,48.9,83.7,70.1,134,41.1C430.2,431.8,441.7,365.9,438.4,308.5c-1.1-20-32.4-20.1-31.2,0
		c2.7,47.2-3.1,106.4-51.2,130.1c-69.4,34.2-102.5-51.2-102.3-104.2c0.3-103.1,56.1-196.4,98.1-287.2c-9,0-18,0-27,0
		c41.3,77.6,75.2,173.6,82.4,261.3C408.8,328.4,440,328.5,438.4,308.5z"/>
</g>
<g>
	<path class="st1" d="M166.9,166.4c-7-20.3-14.3-40.6-21.4-60.9c-2.1-6.1-4.3-12.1-6.8-18c-2.9-6.9-6-13.6-9.2-20.5
		c-0.4-0.9-1-1.9-2-2.1c-1.3-0.2-2.2,1-2.8,2.2c-6.3,11.4-9.3,23.5-14.2,35.4c-6.9,16.7-13.4,33.4-19.5,50.4
		c-23.5,65.1-58,144.9-11,208.6c8.1,10.9,19.4,19.9,32.3,24.3c19.6,6.7,41.4-3.5,55.4-17.6c8.2-8.3,13.5-18.8,16.9-29.9
		C202,280.8,185.9,221.3,166.9,166.4z"/>
	<path class="st1" d="M174.5,164.3c-7.6-21.8-15.1-43.7-23.1-65.4c-4.5-12.3-9.3-30-18.4-39.5c-2.1-2.2-6.8-3.2-9.5-1.2
		c-16,12.1-21.7,44.4-28.7,62.2c-12,30.5-23.9,61.5-33.4,93C46,264.7,39.1,326.3,77,370.1c30.3,35.2,80.2,31.4,105.4-8.2
		C218.8,304.5,194.2,222.6,174.5,164.3c-3.2-9.5-18.3-5.4-15.1,4.2c18.3,53.9,42.2,127.9,11.8,181.9c-22.7,40.3-68.1,34.3-90.2-1.2
		C66.5,326,62.7,298.5,65,271.8c4.2-47.1,24.2-93.3,41-137.1c3.9-10.1,8.1-20,12-30.1c6.5-16.8,5.4-35.4,16.7-6
		c8.9,23,16.6,46.6,24.7,69.9C162.7,177.9,177.8,173.8,174.5,164.3z"/>
</g>
<path class="st27" d="M359.4,305.5c-1.5,0-3-0.4-4.3-1.3c-6.1-4-14.2-8.4-21.3-11.4c-1.3-0.6-2.6-1.1-3.7-1.3
	c-1.7-0.3-4.1,0.1-6.3,0.6c-8.5,1.8-16.7,4.6-24.5,8.5c-3.9,1.9-8.6,0.3-10.5-3.5c-1.9-3.9-0.3-8.6,3.5-10.5
	c9-4.5,18.5-7.8,28.3-9.8c3.8-0.8,7.8-1.4,12.2-0.6c2.8,0.5,5.2,1.5,7.2,2.3c7.8,3.4,16.9,8.2,23.7,12.7c3.6,2.4,4.6,7.2,2.2,10.8
	C364.4,304.2,361.9,305.5,359.4,305.5z"/>
<ellipse transform="matrix(4.961059e-02 -0.9988 0.9988 4.961059e-02 49.681 532.7252)" class="st27" cx="304.8" cy="240.3" rx="9.2" ry="8.8"/>
<ellipse transform="matrix(4.961059e-02 -0.9988 0.9988 4.961059e-02 96.836 589.5076)" class="st27" cx="358.2" cy="243.9" rx="9.2" ry="8.8"/>
</svg>
