<?xml version="1.0" encoding="utf-8"?>
<!-- Generator: Adobe Illustrator 24.1.0, SVG Export Plug-In . SVG Version: 6.00 Build 0)  -->
<svg version="1.1" id="레이어_1" xmlns="http://www.w3.org/2000/svg" xmlns:xlink="http://www.w3.org/1999/xlink" x="0px"
	 y="0px" viewBox="0 0 500 500" style="enable-background:new 0 0 500 500;" xml:space="preserve">
<style type="text/css">
	.st0{fill:#90D8F3;}
	.st1{fill:#67C0F3;}
	.st2{fill:#F9CCDA;}
	.st3{fill:#FF5E5B;}
	.st4{fill:#85AFF3;}
	.st5{fill:#FFE455;}
	.st6{fill:#FFB119;}
	.st7{fill:#FFDB79;}
	.st8{fill:#FF905B;}
	.st9{fill:#8B8B8B;}
	.st10{fill:#FFF3E4;}
	.st11{fill:#FCDCC4;}
	.st12{fill:#FFFFFF;}
	.st13{fill:#FFA2A2;}
	.st14{fill:#DDBEF2;}
	.st15{fill:#FFDF70;}
	.st16{fill:#FFED99;}
	.st17{fill:#303030;}
	.st18{fill:#BF88CD;}
	.st19{fill:#9AD880;}
	.st20{fill:#F3E7D5;}
	.st21{fill:#875348;}
	.st22{fill:#EEECE9;}
	.st23{fill:#FD7D7B;}
	.st24{fill:#FFC4CF;}
	.st25{fill:#D95B1E;}
	.st26{fill:#548444;}
	.st27{fill:#2B8CBC;}
	.st28{fill:#AE4847;}
	.st29{clip-path:url(#SVGID_2_);}
	.st30{fill:#FF877D;}
	.st31{fill:#FFAF76;}
	.st32{fill:#FFE778;}
	.st33{fill:#90CEB6;}
	.st34{fill:#ADD4E2;}
	.st35{fill:#338AA5;}
	.st36{clip-path:url(#SVGID_4_);}
	.st37{fill:#4880B0;}
	.st38{fill:#BA5050;}
	.st39{clip-path:url(#SVGID_6_);}
	.st40{clip-path:url(#SVGID_8_);}
	.st41{fill:#4E89B5;}
	.st42{clip-path:url(#SVGID_10_);}
</style>
<g>
	<defs>
		<rect id="SVGID_7_" x="42.2" y="84" width="416.3" height="232.6"/>
	</defs>
	<clipPath id="SVGID_2_">
		<use xlink:href="#SVGID_7_"  style="overflow:visible;"/>
	</clipPath>
	<g class="st29">
		<path class="st30" d="M451.8,304.8c-4-26.7-12.7-52.3-25-75.6c-29.7-56.1-78-94.7-134.1-110.5c-32.8-9.2-67.6-8.8-100.2,1.3
			c-9.5,3-18.9,6.7-27.9,11.3C105.8,160.8,61,223.1,47.5,293.9c-1.6,8.6-2.8,17.6-1,26.1c1.9,8.5,7.4,16.6,15.1,18.4
			c8.2,1.9,16.6-3.8,21.5-11.4c5-7.6,7.3-16.9,10-25.8c20.7-67.2,74.1-123.2,137-131.1c31.7-4,64.4,4.1,92.2,21.6
			c27.9,17.5,50.9,44.1,66.7,75.3c7.2,14.2,13,29.3,21.6,42.4c8.9,13.6,46.4,44.5,42.5,6.7C452.9,312.3,452.4,308.5,451.8,304.8z"/>
	</g>
	<g class="st29">
		<path class="st31" d="M420.8,316.5c1.1-5.8-0.2-12.2-2.4-18.2c-5.1-14.1-8.8-28.7-15-42.4c-12.4-27.5-29.9-52.3-51.6-71.3
			c-22.8-19.9-50.1-33.3-78.7-38.3c-35.8-6.3-71.7,3.6-103.9,21.4c-17.4,9.6-35.2,27.2-47.9,43.5c-9.4,12-18.1,24.9-24.6,39.2
			c-8.5,18.8-19.7,48.6-3.1,66.4c15.9,17.1,26.6-13.6,32.2-25.7c9.4-20.4,21.3-39.6,36.6-54.9c29.4-29.3,70.9-42.4,109.6-34.7
			c38.7,7.7,73.6,36.2,92.2,75.1c8.6,18,21.8,71.7,49.1,51.6C417.6,324.9,419.9,320.9,420.8,316.5z"/>
	</g>
	<g class="st29">
		<path class="st32" d="M388.8,322.9c-0.1-0.5-0.1-0.9-0.2-1.4c-7.3-47-30.6-91.3-65.6-118.3c-27.3-21-60.3-29.3-93.1-25.3
			c-30.2,3.7-54.2,21.1-75.7,44.2c-19.6,21-37,48.1-37.2,79.7c0,2.8,0.2,5.6,1.1,8.2c0.8,2.4,2.2,4.5,3.9,6.3
			c3.2,3.3,8.4,6.1,12.9,5.6c6.1-0.7,5.8-4.1,7.9-10.2c3.7-10.8,8.2-21.2,13.6-31.1c10.7-19.4,25.1-36.4,43-47.2
			c29-17.5,65.6-17,95-0.5c29.4,16.6,51.3,48.4,59.7,84.1c1.8,7.6,3.1,15.5,6.9,22.1c6.7,11.3,23.9,13.9,27.8-1.6
			C389.9,332.9,389.5,327.8,388.8,322.9z"/>
	</g>
	<g class="st29">
		<path class="st33" d="M353.5,326.1c2.1-1.1,4-2.5,5.6-4.2c9.9-10.7-12.9-42-19.6-52c-11.4-16.8-25.9-31.6-43.3-42
			c-21.9-13.1-47.2-18-71.6-12.1c-39.7,9.6-69.9,46.9-88,87.6c-2.8,6.4-5.9,12-6,19c0,0.7,0,1.4,0.3,2c0.4,0.7,1.2,1.2,2,1.5
			c6.1,2.4,12.8-0.6,18.6-3.6c11-5.7,12.6-9,18.5-19.6c4.7-8.4,10.1-16.4,16.6-23.5c16.2-17.8,38.4-30.1,61.6-29.9
			c21.4,0.1,39.9,10.7,53.7,26.6c7.3,8.3,13.2,17.8,18.3,27.6c5.1,9.8,7.1,21.7,19.7,24.5C344.5,328.9,349.4,328.2,353.5,326.1z"/>
	</g>
</g>
<g>
	<path class="st34" d="M214.2,325.4c0-16.2-11.5-31.8-27-36.6c-2.3-0.7-4.7-1.2-6.7-2.5c-2.7-1.7-4.4-4.7-6.3-7.3
		c-6.7-9.2-17.7-15.1-29.1-15.6c-11.4-0.5-22.9,4.3-30.5,12.8c-7.5-8.5-19-13.3-30.3-12.8c-11.3,0.5-22.3,6.3-29.1,15.4
		c-1.6,2.1-3,4.5-5,6.2c-2.9,2.6-6.7,3.7-10.3,5.2c-12.7,5.6-22.2,18.2-23.5,32.1c-1.2,13.8,6.3,28.2,18.6,34.6
		c4.4,2.3,9.4,3.6,13,6.9c3.1,2.8,4.9,6.6,7.2,10c6.5,9.3,17.4,15.4,28.7,16c6.5,0.3,13.9-1,19.6-4.4c9.8-5.9,10.5-5.3,21.1-1.4
		c6.1,2.2,14.9,5.9,21.6,5.5c12.5-0.8,24.3-8.1,30.2-19.3c1.1-2,2-4.3,3.9-5.7c1.6-1.3,3.7-1.7,5.7-2.2c15.8-4.5,27.7-20,27.9-36.4
		C214.2,325.7,214.2,325.5,214.2,325.4z"/>
	<path class="st34" d="M86.3,398.8c-0.8,0-1.7,0-2.5-0.1c-14.2-0.8-27.5-8.2-35.6-19.9c-0.8-1.1-1.5-2.3-2.2-3.4
		c-1.2-2-2.4-3.9-3.6-5c-1.4-1.3-3.8-2.3-6.3-3.4c-1.6-0.7-3.3-1.4-4.8-2.2c-15.4-7.9-25-25.7-23.5-43.3
		c1.5-16.9,12.8-32.4,28.7-39.5c0.9-0.4,1.9-0.8,2.8-1.2c2.1-0.8,4.1-1.6,5.1-2.6c0.7-0.6,1.6-1.8,2.4-3.1l1.3-1.8
		c8.4-11.3,21.8-18.4,35.9-19c11-0.4,22,3,30.7,9.6c8.8-6.6,19.7-10.2,30.9-9.6c14.1,0.7,27.5,7.9,35.9,19.3l1.2,1.8
		c0.9,1.3,2,2.9,2.7,3.3c0.5,0.3,1.8,0.7,3,1l1.5,0.5c19.3,6,33.3,25,33.3,45.1v0.5c-0.3,20.6-14.7,39.5-34.4,45l-0.9,0.3
		c-0.6,0.2-1.6,0.4-1.9,0.6h0c0.1,0-0.4,1-0.7,1.6l-0.5,1c-7.3,13.8-21.7,23-37.5,24c-7.8,0.5-16.4-2.7-23.2-5.3l-3-1.1
		c-6.7-2.5-6.7-2.5-12.5,1C102.3,396.8,94.3,398.8,86.3,398.8z M86,272.2c-0.4,0-0.8,0-1.2,0c-8.6,0.4-17.2,4.9-22.3,11.8l-1,1.4
		c-1.3,1.8-2.9,4.2-5.2,6.2c-3.4,3-7.2,4.5-10.3,5.8c-0.8,0.3-1.5,0.6-2.3,0.9c-9.9,4.4-17.2,14.3-18.2,24.7
		c-0.9,10.4,4.9,21.3,13.8,25.9c1.2,0.6,2.5,1.2,3.7,1.7c3.6,1.5,7.6,3.3,11.2,6.5c3.1,2.8,5.1,6,6.9,8.8c0.6,0.9,1.1,1.8,1.7,2.7
		c4.9,7.1,13.3,11.7,21.9,12.2c5.3,0.3,10.8-0.9,14.5-3.2c12-7.2,15.8-6.9,27.9-2.5l3.1,1.1c4.7,1.8,11.7,4.4,15.8,4.2
		c9.7-0.6,18.5-6.2,22.9-14.5l0.4-0.8c1.2-2.2,2.7-5.3,5.9-7.8c2.8-2.2,5.8-3,7.9-3.6l0.8-0.2c12.1-3.4,21.3-15.4,21.4-27.9l8.9-0.4
		l-8.9,0c0-12.4-8.9-24.4-20.7-28.1l-1.2-0.4c-2.2-0.6-5-1.4-7.7-3.2c-3.6-2.4-5.9-5.5-7.7-8.1l-1-1.4c-5.1-7-13.7-11.6-22.3-12
		c-8.5-0.3-17.6,3.4-23.4,9.8l-6.7,7.5l-6.7-7.5C102.5,275.9,94.2,272.2,86,272.2z"/>
</g>
<g>
	<path class="st34" d="M483.5,325.4c0-16.2-11.5-31.8-27-36.6c-2.3-0.7-4.7-1.2-6.7-2.5c-2.7-1.7-4.4-4.7-6.3-7.3
		c-6.7-9.2-17.7-15.1-29.1-15.6s-22.9,4.3-30.5,12.8c-7.5-8.5-19-13.3-30.3-12.8c-11.3,0.5-22.3,6.3-29.1,15.4c-1.6,2.1-3,4.5-5,6.2
		c-2.9,2.6-6.7,3.7-10.3,5.2c-12.7,5.6-22.2,18.2-23.5,32.1c-1.2,13.8,6.3,28.2,18.6,34.6c4.4,2.3,9.4,3.6,13,6.9
		c3.1,2.8,4.9,6.6,7.2,10c6.5,9.3,17.4,15.4,28.7,16c6.5,0.3,13.9-1,19.6-4.4c9.8-5.9,10.5-5.3,21.1-1.4c6.1,2.2,14.9,5.9,21.6,5.5
		c12.5-0.8,24.3-8.1,30.2-19.3c1.1-2,2-4.3,3.9-5.7c1.6-1.3,3.7-1.7,5.7-2.2c15.8-4.5,27.7-20,27.9-36.4
		C483.5,325.7,483.5,325.5,483.5,325.4z"/>
	<path class="st34" d="M355.6,398.8c-0.8,0-1.7,0-2.5-0.1c-14.2-0.8-27.5-8.2-35.6-19.9c-0.8-1.1-1.5-2.3-2.2-3.4
		c-1.2-2-2.4-3.9-3.6-5c-1.4-1.3-3.8-2.3-6.3-3.4c-1.6-0.7-3.3-1.4-4.8-2.2c-15.4-7.9-25-25.7-23.5-43.3
		c1.5-16.9,12.8-32.4,28.7-39.5c0.9-0.4,1.9-0.8,2.8-1.2c2.1-0.8,4.1-1.6,5.1-2.6c0.7-0.6,1.5-1.8,2.4-3c0.4-0.6,0.9-1.2,1.3-1.9
		c8.4-11.3,21.8-18.4,35.9-19c11-0.4,22,3,30.7,9.6c8.8-6.6,19.7-10.2,30.9-9.6c14.1,0.7,27.5,7.9,35.9,19.3l1.3,1.8
		c0.9,1.3,2,2.8,2.7,3.3c0.5,0.3,1.8,0.7,3,1l1.5,0.5c19.2,6,33.2,25,33.3,45.1l0,0.8c-0.3,20.2-14.7,39.1-34.4,44.7l-0.9,0.3
		c-0.6,0.2-1.6,0.4-1.9,0.6h0c0.1,0-0.4,1-0.7,1.6l-0.5,1c-7.3,13.8-21.7,23-37.5,24c-7.7,0.5-16.4-2.7-23.2-5.3l-3-1.1
		c-6.7-2.5-6.7-2.5-12.5,1C371.6,396.8,363.6,398.8,355.6,398.8z M355.3,272.2c-0.4,0-0.8,0-1.2,0c-8.6,0.4-17.2,4.9-22.3,11.8
		l-1.1,1.5c-1.3,1.8-2.9,4.1-5.2,6.1c-3.4,3-7.2,4.5-10.3,5.8c-0.8,0.3-1.5,0.6-2.3,0.9c-9.9,4.4-17.2,14.3-18.2,24.7
		c-0.9,10.4,4.9,21.3,13.8,25.9c1.2,0.6,2.5,1.2,3.7,1.7c3.6,1.5,7.6,3.3,11.2,6.5c3.1,2.8,5.1,6,6.9,8.8c0.6,0.9,1.1,1.8,1.7,2.7
		c4.9,7.1,13.3,11.7,21.8,12.2c5.3,0.3,10.8-0.9,14.5-3.2c12-7.2,15.8-6.9,27.9-2.5l3.1,1.1c4.7,1.8,11.8,4.4,15.8,4.2
		c9.7-0.6,18.5-6.2,22.9-14.5l0.4-0.8c1.2-2.2,2.7-5.3,5.9-7.7c2.8-2.2,5.8-3,8-3.6l0.8-0.2c12-3.4,21.2-15.4,21.4-27.9l8.9-0.4
		l-8.9,0c0-12.4-8.9-24.4-20.7-28.1l-1.2-0.4c-2.2-0.6-5-1.4-7.7-3.2c-3.7-2.4-5.9-5.5-7.7-8.1l-1-1.4c-5.1-7-13.7-11.6-22.3-12
		c-8.6-0.4-17.6,3.4-23.4,9.8l-6.7,7.5l-6.7-7.5C371.9,275.9,363.5,272.2,355.3,272.2z"/>
</g>
<path class="st41" d="M384.9,353.1c-6.9,0-12.8-3.3-16.1-9c-3.3-5.8-3.4-13.2-0.1-18.8c3.2-5.4,8.9-8.3,15.9-8.3
	c12.2,0.2,18.5,9.4,18.4,18.4C403,344.2,396.8,353.1,384.9,353.1L384.9,353.1C384.9,353.1,384.9,353.1,384.9,353.1z M384.3,326
	c-3.6,0-6.4,1.3-7.8,3.9c-1.7,2.8-1.6,6.8,0.1,9.8c1.2,2.1,3.6,4.5,8.3,4.5c0,0,0,0,0,0l0,0c6.8,0,9.2-4.7,9.2-8.7
	c0-4.6-2.9-9.3-9.6-9.4C384.5,326,384.4,326,384.3,326z"/>
<g>
	
		<ellipse transform="matrix(2.018745e-02 -0.9998 0.9998 2.018745e-02 92.1207 702.0637)" class="st41" cx="404.3" cy="304" rx="6.4" ry="6.1"/>
	
		<ellipse transform="matrix(2.018745e-02 -0.9998 0.9998 2.018745e-02 53.8327 662.9948)" class="st41" cx="365.2" cy="304" rx="6.4" ry="6.1"/>
</g>
</svg>
