<?xml version="1.0" encoding="utf-8"?>
<!-- Generator: Adobe Illustrator 24.1.0, SVG Export Plug-In . SVG Version: 6.00 Build 0)  -->
<svg version="1.1" id="레이어_1" xmlns="http://www.w3.org/2000/svg" xmlns:xlink="http://www.w3.org/1999/xlink" x="0px"
	 y="0px" viewBox="0 0 500 500" style="enable-background:new 0 0 500 500;" xml:space="preserve">
<style type="text/css">
	.st0{fill:#90D8F3;}
	.st1{fill:#67C0F3;}
	.st2{fill:#F9CCDA;}
	.st3{fill:#FF5E5B;}
	.st4{fill:#85AFF3;}
	.st5{fill:#FFE455;}
	.st6{fill:#FFB119;}
	.st7{fill:#FFDB79;}
	.st8{fill:#FF905B;}
	.st9{fill:#8B8B8B;}
	.st10{fill:#FFF3E4;}
	.st11{fill:#FCDCC4;}
	.st12{fill:#FFFFFF;}
	.st13{fill:#FFA2A2;}
	.st14{fill:#DDBEF2;}
	.st15{fill:#FFDF70;}
	.st16{fill:#FFED99;}
	.st17{fill:#303030;}
	.st18{fill:#BF88CD;}
	.st19{fill:#9AD880;}
	.st20{fill:#F3E7D5;}
	.st21{fill:#875348;}
	.st22{fill:#EEECE9;}
	.st23{fill:#FD7D7B;}
	.st24{fill:#FFC4CF;}
	.st25{fill:#D95B1E;}
	.st26{fill:#548444;}
	.st27{fill:#2B8CBC;}
	.st28{fill:#AE4847;}
	.st29{clip-path:url(#SVGID_2_);}
	.st30{fill:#FF877D;}
	.st31{fill:#FFAF76;}
	.st32{fill:#FFE778;}
	.st33{fill:#90CEB6;}
	.st34{fill:#ADD4E2;}
	.st35{fill:#338AA5;}
	.st36{clip-path:url(#SVGID_4_);}
	.st37{fill:#4880B0;}
	.st38{fill:#BA5050;}
	.st39{clip-path:url(#SVGID_6_);}
	.st40{clip-path:url(#SVGID_8_);}
	.st41{fill:#4E89B5;}
	.st42{clip-path:url(#SVGID_10_);}
</style>
<g>
	<path class="st7" d="M351.1,114.3c-0.8,1.7-1.4,3.7-1.6,5.2c-3.1,17.6-5.6,35.4-8.5,53c-2.7,16.6-2.5,34-3.3,50.9
		c-0.4,7.9-1.4,15.8-1.7,23.8c-0.2,6.1-1.5,17.2,0.7,22.9c4.2,11,20.9,1.6,28.1-0.1c4.3-1,14.6-4,14.9,3.7c0.1,2.9-1.6,5.8-2.8,8.3
		c-3.9,7.4-7.3,15-11.4,22.2c-2.2,3.9-4.3,7.7-6.5,11.6c-1.1,2-2.2,4-3.3,6c-0.7,1.3-3.2,4.2-3.2,5.6c-6.2,11.1-12.5,22.2-18.8,33.3
		c-3.1,5.5-6.3,11.1-9.4,16.6c-1.5,2.7-3.1,5.4-4.6,8.1c-0.2,0.3-3,6.5-2.3,6.3c2.6-0.5,3.6-3.5,5.3-5.2c1.2-1.2,2.3-2.5,3.4-3.8
		c0.6-0.7,3.6-3.3,3.6-4.2c26.4-30.9,52.8-61.8,79.2-92.8c13.4-15.7,26.8-31.3,40.1-47c5.7-6.7,12-12.8,17.6-19.5
		c2.8-3.3,7.1-6.1,8.3-10.5c1.5-5.2-4-5.4-7.7-4.8c-2.5,0.4-4.8,1.2-7.2,1.7c-9.5,1.9-19.4,4.6-28.7,7.4c-5.6,1.7-16.6,5-19.5-2.4
		c-1.5-3.7,0.5-10,1-13.8c1.9-15.2,7.4-29.9,10.9-44.9c1.8-7.5,12.3-37.9,4.1-43.1c-2.8-1.8-6.3-1.8-9.6-1.7
		c-15.7,0.3-31.4,0.5-47.1,0.8c-4.4,0.1-15-0.7-18.1,3.2C352.3,112,351.7,113.1,351.1,114.3z"/>
	<path class="st7" d="M343.9,112.4c-11,35.1-11.6,74.7-13.7,111.1c-0.9,15-10.7,50.1,8.3,58.3c8,3.5,24-7.1,28.2-4.5
		c6.3,3.9-14.7,35.5-17.6,40.7c-12.7,22.6-31.9,46.9-39.1,71.8c-1.7,5.9,5.5,12.4,11,8.4c11.1-8,19.5-21,28.2-31.2
		c20.4-23.9,40.8-47.8,61.2-71.7c17.4-20.4,34.6-41.1,52.6-61c8.6-9.5,20.4-17.5,18.6-31.3c-0.4-2.7-3-4.3-5.2-5.2
		c-7.8-3.2-15.3-0.2-23.2,1.7c-17.6,4.2-34.2,15.3-31.6-9.8c2.4-23.2,16.6-45.5,16.7-69.1c0-20.8-13.2-20.9-31.8-20.9
		c-16.2,0.1-51.4-7-61.7,10.7c-4.8,8.3,8.1,15.9,12.9,7.6c3.6-6.3,32-3.5,37-3.1c10.1-1.5,19.7,0.4,28.7,5.7
		c-0.7,5.4-1.7,10.7-3.1,15.9c-3.9,16.5-9.5,32.6-13,49.2c-4.8,22.6-4.1,40.8,23.7,35.2c2.8-0.6,30.3-9.8,31.2-8.1
		c0.9,1.6-16.6,18.7-18.3,20.6c-16.1,18.2-31.6,37-47.4,55.4c-16.8,19.7-33.6,39.4-50.4,59c-9.8,11.5-19.9,28.3-32.4,37.3
		c3.7,2.8,7.3,5.6,11,8.4c8-27.7,30.2-54.6,44.2-80c5.6-10.1,27.6-38.3,13.7-49.9c-4.3-3.6-10.5-2.5-15.5-2
		c-3.4,0.4-13.3,5.7-15.9,4.9c-10.9-3.3-7.5-20-7-27.5c2.7-40.5,2.2-83.9,14.4-123C361.2,107.1,346.8,103.2,343.9,112.4z"/>
</g>
<g>
	<path class="st8" d="M29.6,77.9c-4.5,7.3-0.7,17.5,3.9,30.4c4.1,11.5,8.2,23,12.3,34.4c10,27.9,19.9,55.7,29.9,83.6
		c6.5,18.1,13,36.3,19.5,54.4c4.4,12.4,6.1,26.5,13.4,37.8c11.5,17.7,25.8,6.1,39.5-2.3c7.9-4.9,15.8-9.8,23.7-14.7
		c6.9-4.3,11.9-9.7,19.2-13.2c3.9-1.9,8.8-4.9,13.2-5.3c18.5-1.8,19.3,21.4,21.2,34.2c2.7,17.6,4.5,35.3,5.8,53
		c2.2,29.5,4.7,59,4.7,88.6c0,0.4-0.1,0.8,0.1,1.1c0.3,0.9,0.7,0,0.8-0.5c0.2-0.6,0.2-1.1,0.3-1.7c8.7-44.8,17.3-87.7,26.1-132.4
		c8.6-44.3,15.9-87.6,21-132.4c1-8.5,3.4-14.1-3.3-21c-6-6.1-14.4-6.7-22.2-4.5c-14.2,3.9-27.8,10.1-40.3,18.2
		c-3.3,2.1-6.7,3.8-10.1,5.8c-2,1.1-4.2,2.3-6.3,1.7c-2.3-0.6-3.8-2.8-4.9-5c-2.4-4.7-3.7-9.6-5.6-14.4c-10-25.7-18.5-52-25.4-78.7
		c-3.2-12.5-5.4-38.8-15.9-47.9c-4.8-4.1-10.8-1.7-16.7-0.9c-9.5,1.3-18.4,5.2-27.8,7.1C84.7,57.6,63.7,62.9,43,69.3
		C36,71.5,31.8,74.3,29.6,77.9z"/>
	<path class="st8" d="M21,75.5c-5.8,17.9,4.1,35.6,10.1,52.4c9.5,26.6,19.1,53.3,28.6,79.9c10.1,28.2,20.7,56.3,29.9,84.9
		c4.5,14,7.6,32.6,21.7,40.7c32,18.3,80.8-59.1,103-30.6c3.6,4.6,5,33.8,5.2,35.6c1.7,14.3,2.7,28.6,3.8,42.9
		c2,26.2,2.4,52.4,3.9,78.6c0.4,6.5,7.4,11.5,13.5,7.8c6.5-4,6.1-11.7,7.4-18.7c3.6-18.4,7.2-36.7,10.9-55.1
		c8-40.4,16.3-80.7,23-121.3c3.2-19.1,6.1-38.3,8.6-57.5c1.5-11.7,7.1-27.3,3.2-39.1c-7.6-22.7-32-19.9-49.9-13.2
		c-8.6,3.2-27.3,18.7-34.9,17.8c-11.6-1.4-17.9-34.6-20.9-43.6c-8.8-26.5-10.9-59.2-23.1-84.1c-10.4-21.4-27.2-17.5-47.7-12.3
		c-28.8,7.4-72,9.2-94,30.8C15,79.7,27.7,92.4,36,84.2c17.3-17.1,58.2-19,81.5-24.9c15.3-3.8,24.3-8.9,34,9.1
		c3.5,6.5,3.4,16.2,5,23.4c4.8,21.9,11.9,43.5,19.4,64.7c5.3,14.8,8.8,31.3,20,42.7c2.2,2.3,5.7,3.1,8.7,2.3
		c20.6-5.6,46.3-34.9,63.9-18.4c17.4,16.3-1.7,72.5-5.7,95.6c-5.1,29.5-11,58.9-16.8,88.3c-3.2,16.5-6.5,32.9-9.8,49.4
		c-1.5,7.4-2.9,14.7-4.3,22.1c-1.2,6.2-7.4,17.9-0.3,13.5c4.5,2.6,9,5.2,13.5,7.8c-2.8-48.5-3.6-96.9-10.8-145.1
		c-3.6-23.8-11.3-47.7-40.1-37.9c-18.7,6.4-31.8,25.1-50.4,31.5c-36.6,12.7-44.4-43-53.4-68.2c-9.4-26.3-18.8-52.7-28.3-79
		c-6.9-19.3-30.3-60.4-23.7-81C41.8,69.3,24.5,64.5,21,75.5z"/>
</g>
<path class="st25" d="M103,146c-0.9,0-1.8-0.2-2.7-0.5l-21.1-8.1c-3.9-1.5-5.8-5.8-4.3-9.7c1.5-3.9,5.8-5.8,9.7-4.3l21.1,8.1
	c3.9,1.5,5.8,5.8,4.3,9.7C108.9,144.2,106,146,103,146z"/>
<path class="st25" d="M135.6,140.2c-1.6,0-3.2-0.5-4.6-1.5c-3.3-2.5-3.9-7.2-1.4-10.5l13.8-17.9c2.5-3.3,7.2-3.9,10.5-1.4
	c3.3,2.5,3.9,7.2,1.4,10.5l-13.8,17.9C140,139.2,137.8,140.2,135.6,140.2z"/>
<path class="st25" d="M149.1,182.1c-0.8,0-1.6-0.1-2.4-0.4c-14.8-5.5-31.4-6.3-46.7-2.1c-4,1.1-8.1-1.3-9.2-5.3
	c-1.1-4,1.3-8.1,5.3-9.2c17.4-4.7,36.2-4.1,53.3,1.6c0.9,0.1,1.9,0.4,2.8,0.9c3.3,2,5.1,6.4,3.4,9.9
	C154.4,180.4,151.9,182.1,149.1,182.1z"/>
</svg>
