<?xml version="1.0" encoding="utf-8"?>
<!-- Generator: Adobe Illustrator 24.1.0, SVG Export Plug-In . SVG Version: 6.00 Build 0)  -->
<svg version="1.1" id="레이어_1" xmlns="http://www.w3.org/2000/svg" xmlns:xlink="http://www.w3.org/1999/xlink" x="0px"
	 y="0px" viewBox="0 0 500 500" style="enable-background:new 0 0 500 500;" xml:space="preserve">
<style type="text/css">
	.st0{fill:#90D8F3;}
	.st1{fill:#67C0F3;}
	.st2{fill:#F9CCDA;}
	.st3{fill:#FF5E5B;}
	.st4{fill:#85AFF3;}
	.st5{fill:#FFE455;}
	.st6{fill:#FFB119;}
	.st7{fill:#FFDB79;}
	.st8{fill:#FF905B;}
	.st9{fill:#8B8B8B;}
	.st10{fill:#FFF3E4;}
	.st11{fill:#FCDCC4;}
	.st12{fill:#FFFFFF;}
	.st13{fill:#FFA2A2;}
	.st14{fill:#DDBEF2;}
	.st15{fill:#FFDF70;}
	.st16{fill:#FFED99;}
	.st17{fill:#303030;}
	.st18{fill:#BF88CD;}
	.st19{fill:#9AD880;}
	.st20{fill:#F3E7D5;}
	.st21{fill:#875348;}
	.st22{fill:#EEECE9;}
	.st23{fill:#FD7D7B;}
	.st24{fill:#FFC4CF;}
	.st25{fill:#D95B1E;}
	.st26{fill:#548444;}
	.st27{fill:#2B8CBC;}
	.st28{fill:#AE4847;}
	.st29{clip-path:url(#SVGID_2_);}
	.st30{fill:#FF877D;}
	.st31{fill:#FFAF76;}
	.st32{fill:#FFE778;}
	.st33{fill:#90CEB6;}
	.st34{fill:#ADD4E2;}
	.st35{fill:#338AA5;}
	.st36{clip-path:url(#SVGID_4_);}
	.st37{fill:#4880B0;}
	.st38{fill:#BA5050;}
	.st39{clip-path:url(#SVGID_6_);}
	.st40{clip-path:url(#SVGID_8_);}
	.st41{fill:#4E89B5;}
	.st42{clip-path:url(#SVGID_10_);}
</style>
<g>
	<g>
		<path class="st3" d="M78.3,73.5c1.3-7.7,3.4-15.4,7.4-22.1c11.6-19.2,39.5-25.6,59-14.6s28.6,37,21.4,58.2
			c8.3-21,34.6-31.7,56.2-25s36.8,28,39.2,50.4c0.7,6.9,0.4,14-2.3,20.4c-6.6,15.6-24.5,22.5-40.6,27.8c14,0.9,26.7,10.4,32.9,23
			c6.2,12.6,6.3,27.7,1.8,41c-9.9,29.6-57.2,39.7-76.6,13.7c-3.4-4.6-4.4-17.3-9.7-19.8c5.5,2.6,6.3,10,5.7,16
			c-1,10.7-4.1,21.4-10,30.4c-18.3,27.6-52.4,22.2-73.3,1.6c-7.1-7-13.1-15.3-16.1-24.8c-3-9.5-2.6-20.3,2.3-29
			c5.2-9.1,16.6-17.3,27.1-18.7c-15.8,21.5-57.9,10.2-73.5-5.2c-16.8-16.6-21.2-44.9-8.9-65.2c8.5-14,24.7-22.7,40.9-23.3
			c4.1-0.1,8.3,0.2,12.3,1.2c8.7,2.1,18.6,7.8,26.9,11.5C81.5,112.5,75.1,92.8,78.3,73.5z"/>
		<path class="st3" d="M85.8,75.5c11.8-56.9,86-38.2,72.8,17.4c-2,8.3,10.1,14.2,14.3,6c33.7-65.5,131.9,31.7,43.6,62.1
			c-6.6,2.3-8.2,13.5,0,15.1c49,9.1,36.5,80.7-10.2,76.8c-21.3-1.8-22-19.5-33.8-32.1c-3.7,3.7-7.4,7.4-11,11
			c5.1,15.6,1.8,29.6-9.7,42.1c-9.7,9.3-20.9,12.1-33.7,8.4c-8.9-2.6-16.6-7.1-23.2-13.6c-20-17.1-16.7-36.9,9.9-59.4
			c-2.5-4.3-5.1-8.7-7.6-13c-22.3,23.5-65.6,2.2-73.9-24.3c-5.7-18.2,1.5-40.8,18.5-50.4c20-11.3,36.4-2.6,54.7,6.1
			c9,4.3,16.7-8.3,7.9-13.5c-16.2-9.5-19.8-23.6-18.2-40.8c0.9-10-14.7-9.9-15.6,0c-2.2,23.6,5.2,42.1,26,54.3
			c2.6-4.5,5.3-9,7.9-13.5c-23.4-11.2-45.9-20.1-70.4-6.1c-21,11.9-31.3,35.8-27.6,59.4c6.7,42.7,68.7,74.8,101.9,39.8
			c5.3-5.6,0.1-15.2-7.6-13c-57.4,16.2-38.2,86,9.8,101.9c21.9,7.2,44.2,1,57.8-17.9c11.1-15.5,19.5-42.5,4.3-57.4
			c-7.2-7.1-17.9,3.7-11,11c12.9,13.9,10,27.7,32,34.7c17.7,5.7,38.8,0.8,52.9-11.2c34-29,16.9-86.5-25.7-94.4c0,5,0,10,0,15.1
			c18-6.2,38.5-13.9,46-33.2c7.5-19.3,0.3-43.5-12.1-59.1c-25.7-32.6-75.8-30.4-95.2,7.3c4.8,2,9.5,4,14.3,6
			c17.8-75-87.1-102.3-102.9-25.7C68.7,81.2,83.7,85.4,85.8,75.5z"/>
	</g>
	<g>
		<path class="st4" d="M180,363.8c2.5-20.1,17.8-37.8,39.4-35.9c5.2,0.5,9.8,3.5,13.3,7.3c3.4,3.7,5.9,8.1,8.3,12.4
			c-2.9-16-4.7-33.5,8.8-45.5c12.2-10.8,33-11.3,45.2-0.3c14.5,13,14.4,38.5,0.4,52.1c2-9,9.1-16.6,17.9-19.7
			c8.7-3.1,18.8-1.7,26.7,3c14.2,8.5,20.5,28.2,13.9,43.4c-6.7,15.2-25.4,23.9-41.3,19.2c19.9,5.9,32.2,21.1,27.1,42.3
			c-5,21.1-32,31-49.8,19.3c-11.1-7.3-18.1-21.1-15.6-34.2c1.3,17.2-12,34.4-29.1,37.3c-17,3-35.4-8.7-39.9-25.4
			c-3.7-13.6,0.7-28.5,9.9-38.9c-7.1,4.3-16.7,3.3-23.4-1.5C181.4,391.2,178.5,375.9,180,363.8z"/>
		<path class="st4" d="M187.5,365.9c4.5-22,30.5-41.8,46.7-14.3c4.8,8.1,15.6,2.3,14.3-6c-5.8-18.8,2.2-33.5,23.9-44
			c26.8,11.3,32.6,26.9,17.5,46.8c4.3,2.5,8.7,5.1,13,7.6c52.7-14.4,56.6-2.3,11.7,36.3c-9.9-1.6-13.6,11.4-4.2,15.1
			c28.7,16,30,32.8,3.8,50.3c-23.1,0-33.8-10.1-32.2-30.4c0.5-10.1-15-10-15.6,0c-36,33.8-52.1,34.6-48.3,2.4
			c-4.7-10.2-3.4-18.7,3.8-25.4c4-5.5-2.7-13.6-8.8-11.5c-19.6-4.7-28-14.3-25.3-28.9c0.5-10-15.1-10-15.6,0
			c-1.3,27.5,14.5,54.3,45.1,43.9c-2.9-3.8-5.9-7.6-8.8-11.5c-18.2,24.8-16.2,62.2,16.8,73.8c30.5,10.8,55-13.7,56.8-42.9
			c-5.2,0-10.4,0-15.6,0c-1.7,34.6,35.5,61.5,66,38.6c31.5-23.7,12.6-61.9-17.8-73.6c-1.4,5-2.8,10-4.2,15.1
			c34,5.3,65.9-23.7,49.4-58.6c-15.4-32.7-59.6-30-71.9,3.1c-2.7,7.2,8.2,13.5,13,7.6c19.5-23.8,16-64.3-18.3-72.3
			c-41.6-9.8-54.3,30.5-49.2,62.7c4.8-2,9.5-4,14.3-6c-22.8-38.9-66.8-22.8-75.2,18C170.4,371.5,185.5,375.7,187.5,365.9z"/>
	</g>
	<g>
		<path class="st5" d="M317.2,210c-37.1-31,9.3-95.4,46.5-55.2c-9.5-10.2-10-27.5-1.2-38.3c6.2-7.6,15.8-11.7,25.5-13.6
			c19-3.7,40,5.3,46.3,24c3,8.9,2.9,18.6-2.8,26c9-8.8,27.6-3.5,36.6,2.7c10.3,7,17.8,19.4,18.7,31.9c1.1,16-8,32.5-22.5,39.4
			c-14.5,6.9-33.5,3.4-44.1-8.6c17.8,6.8,15.7,27.8,5.6,40c-9.9,11.9-25.8,16.2-40.8,15.5c-18.3-0.9-38.8-10.5-40.5-30.9
			c-0.9-10.7,0.8-23.2,13.1-26.3c-5.1,1.3-10.3,2-15.5,2.2C334.9,219,322.7,214.6,317.2,210z"/>
		<path class="st5" d="M322.7,204.5c-26.6-26.2,4.1-73.4,35.5-44.1c6.2,5.8,17.4-1.8,12.3-9.5c4.3-36.6,16.9-48.8,37.7-36.5
			c16.9,2.3,22.4,13.9,16.6,34.6c-3.3,6.8,3.5,14.8,10.7,10.7c5.5-0.9,10.9-1.8,16.4-2.6c19.3,5,26.8,16,22.6,33
			c4.9,13.2,0.7,21.4-12.8,24.6c-11.1,11.7-23.1,11.1-36-1.9c-3.2,4.1-6.3,8.2-9.5,12.3c30.1,17.3-17.5,42-31.3,41
			c-18-1.3-51.3-29.7-23.4-42.7c8.5-3.9,2.1-15.8-6-14.3c-12.8,2.5-23.3,1.2-34.4-5.8c-8.5-5.5-16.3,8.1-7.9,13.5
			c15.1,9.7,29.1,10.7,46.4,7.4c-2-4.8-4-9.5-6-14.3c-16.3,7.6-21.2,26.5-14.9,43.2c7,18.6,27.3,27.8,46.2,28.6
			c35.9,1.5,83.1-44.7,39.2-70.1c-7.5-4.3-16.2,6.2-9.5,12.3c28.1,25.1,73.3,13.7,79.4-26.2c5.4-35-33.6-70.3-66.5-51.4
			c3.6,3.6,7.1,7.1,10.7,10.7c14.9-30.8-8.2-62.8-42-62.6c-35.5,0.2-60.1,33.2-39.2,64.5c4.1-3.2,8.2-6.3,12.3-9.5
			c-45.7-42.7-98.8,25.6-57.6,66.2C318.8,222.6,329.9,211.5,322.7,204.5z"/>
	</g>
	<g>
		<path class="st6" d="M141,142.9c-8.1,2.8-14.8,9.4-15.5,17.9c-1.4,16.2,12.5,25.9,27.7,21.8C180.2,175.5,168.6,133.4,141,142.9z"
			/>
		<path class="st6" d="M140.2,139.9c-14.6,5.7-23.5,21.7-14.2,36.2c7.9,12.3,26.5,13.7,37.4,4.8c8.6-7,10.2-19.3,5.7-29.1
			C163.8,140.4,151.9,136.3,140.2,139.9c-3.8,1.2-2.2,7.2,1.7,6c7.8-2.4,15.6-1.1,20.3,6.1c3.8,5.9,4.5,14.1,0.7,20.2
			c-5.3,8.5-18.4,10.6-26.6,5.4c-13.8-8.7-7.4-26.6,5.6-31.7C145.5,144.5,143.9,138.4,140.2,139.9z"/>
	</g>
	<g>
		<circle class="st6" cx="393.1" cy="186.7" r="20"/>
		<path class="st6" d="M409.7,183.7c0.9,8.6-3.5,17-12.3,19.3c-9.6,2.6-19.4-4-20.9-13.7c-3.5-21.8,28.8-26.2,33.3-4.8
			c0.8,3.9,6.8,2.3,6-1.7c-2.6-12.3-13.9-21.1-26.6-18.9c-12.3,2.1-20.8,13.9-19,26.2c1.8,12.3,13.6,21.1,25.9,19.4
			c12.8-1.7,21.1-13.4,19.8-25.9C415.6,179.7,409.3,179.7,409.7,183.7z"/>
	</g>
	<g>
		<circle class="st6" cx="270" cy="385.5" r="15.3"/>
		<path class="st6" d="M282.1,385.2c-0.5,15.6-23.8,16.5-24.3,0.7C257.3,370.2,280.9,369.6,282.1,385.2c0.3,4,6.6,4,6.2,0
			c-0.8-10-8.3-18.2-18.8-18c-10,0.2-18.2,8.8-18,18.8c0.2,9.7,8.3,17.8,17.9,18c10.7,0.2,18.6-8.4,18.9-18.7
			C288.5,381.1,282.2,381.1,282.1,385.2z"/>
	</g>
</g>
</svg>
