<?xml version="1.0" encoding="utf-8"?>
<!-- Generator: Adobe Illustrator 24.1.0, SVG Export Plug-In . SVG Version: 6.00 Build 0)  -->
<svg version="1.1" id="레이어_1" xmlns="http://www.w3.org/2000/svg" xmlns:xlink="http://www.w3.org/1999/xlink" x="0px"
	 y="0px" viewBox="0 0 500 500" style="enable-background:new 0 0 500 500;" xml:space="preserve">
<style type="text/css">
	.st0{fill:#90D8F3;}
	.st1{fill:#67C0F3;}
	.st2{fill:#F9CCDA;}
	.st3{fill:#FF5E5B;}
	.st4{fill:#85AFF3;}
	.st5{fill:#FFE455;}
	.st6{fill:#FFB119;}
	.st7{fill:#FFDB79;}
	.st8{fill:#FF905B;}
	.st9{fill:#8B8B8B;}
	.st10{fill:#FFF3E4;}
	.st11{fill:#FCDCC4;}
	.st12{fill:#FFFFFF;}
	.st13{fill:#FFA2A2;}
	.st14{fill:#DDBEF2;}
	.st15{fill:#FFDF70;}
	.st16{fill:#FFED99;}
	.st17{fill:#303030;}
	.st18{fill:#BF88CD;}
	.st19{fill:#9AD880;}
	.st20{fill:#EFEAE4;}
	.st21{fill:#875348;}
	.st22{fill:#EEECE9;}
	.st23{fill:#FD7D7B;}
	.st24{fill:#FFC4CF;}
	.st25{fill:#D95B1E;}
	.st26{fill:#548444;}
	.st27{fill:#2B8CBC;}
	.st28{fill:#AE4847;}
	.st29{clip-path:url(#SVGID_2_);}
	.st30{fill:#FF877D;}
	.st31{fill:#FFAF76;}
	.st32{fill:#FFE778;}
	.st33{fill:#90CEB6;}
	.st34{fill:#ADD4E2;}
	.st35{fill:#F3E7D5;}
	.st36{fill:#338AA5;}
	.st37{clip-path:url(#SVGID_4_);}
	.st38{fill:#4880B0;}
	.st39{fill:#BA5050;}
	.st40{clip-path:url(#SVGID_6_);}
	.st41{clip-path:url(#SVGID_8_);}
	.st42{fill:#4E89B5;}
	.st43{clip-path:url(#SVGID_10_);}
</style>
<g>
	<path class="st20" d="M217.6,70.8c-35.8,0-72.3,4.4-106.3,16.1c-22.2,7.6-48.1,19.4-60.5,40.5c-8.2,14-6.4,32.4-6.5,47.9
		c-0.2,28.4-0.7,56.8,0.5,85.2c1.1,33.8,4.7,67.8,13.7,100.5c20.1,72.5,94.5,82.8,159.1,82.8c32.1,0,72.6-0.6,102.2-14.6
		c58.3-27.4,70.1-98,70.1-155.7c0-42.3,0-84.7,0-127C389.9,104.6,312.7,70.8,217.6,70.8z"/>
	<path class="st20" d="M217.6,63.5c-48.3,0.6-101.7,6.6-143.8,32.3c-39.8,24.3-36.6,58.6-36.9,100.7c-0.5,77.8-9.8,196.8,74.5,236.4
		c32.8,15.4,70.5,17.8,106.2,18c39.9,0.2,85.1-0.3,119.5-23.3c73.7-49.2,60-159.4,60-235c0-40.7,4.2-70-32.3-94.3
		C322.6,70.3,266.9,64.2,217.6,63.5c-9.3-0.1-9.3,14.3,0,14.5c46.5,0.6,100.2,5.9,139.9,32.8c23.2,15.7,25.2,31.9,25.2,58.7
		c0,26.9,0,53.9,0,80.8c0,43.5,0.2,89.7-21.3,129c-26.5,48.3-76.7,56-127.1,57c-39.4,0.8-82.6,0.5-118.7-17.3
		c-49-24.1-57.4-78.5-61.7-128.1c-2.1-24.3-2.5-48.7-2.5-73c0-24.6-6.5-64.4,5.8-86.8c26.3-48,114.1-52.5,160.6-53
		C226.9,77.9,226.9,63.4,217.6,63.5z"/>
</g>
<g>
	<path class="st21" d="M354.3,147c0.1,1.5,0.1,3,0,4.5c-0.5,5.9-3.6,11.3-7.4,16C335.5,181.3,314.3,191,297,195
		c-19.2,4.5-39.1,5-58.9,5.3c-39.1,0.6-80.1,0.6-117-14.2c-15.3-6.2-40.4-17.6-40.5-37.3c-0.1-17.5,22.9-30.7,36.9-36.2
		C161.2,95.4,209,93,255,98.6C280.9,101.8,351.7,110.8,354.3,147z"/>
	<path class="st21" d="M347,147c-0.4,56.4-123.7,47.9-158.3,45.6c-25.7-1.7-51.8-6-75.1-17.6c-7.1-3.5-20-10-23.2-17.8
		c-7.8-18.7,11.9-29.5,25.3-35.9c43.7-20.6,96.3-20.9,143.2-14.9c27.3,3.5,82.8,8.8,88.3,42.5c1.5,9.2,15.4,5.3,13.9-3.8
		c-7.1-43.3-71.8-49.7-106.3-53.7c-40.1-4.7-81.4-3.8-120.3,7.7c-21.1,6.2-51.9,17-59.5,40.5c-17.6,54.8,92.9,66.7,123.5,67.8
		c42.3,1.5,162.3,7.3,162.8-60.5C361.6,137.7,347.1,137.6,347,147z"/>
</g>
<g>
	<path class="st20" d="M417.6,244.7c0.1,0.1,0.3,0.2,0.4,0.3c1.9,1.2,3.8,2.6,5.5,4.1c4.2,3.7,6.4,6,6.8,11.6
		c0.3,4.5,0.6,8.9-0.2,13.3c-1.4,8.6-6.2,15.8-14.4,19.3c-6.1,2.6-31.2,4.5-37.1,7.5c-18.1,9.4-12.5,33.3,5,39.9
		c7.9,3,16.7,2.6,25,1.2c17.4-2.9,34.3-10.5,46.9-22.9c11.7-11.4,17.2-29.5,19.1-45.3c2.2-17.6-4.4-31.4-15-45
		c-14.1-18.1-35.1-30.7-57.7-34.9c-8.3-1.5-17.9,0.2-24.4,6.1c-5.3,4.8-12.7,19.3-10.3,26.4c1.7,5,7.1,7.6,12.1,9.1
		c8.6,2.6,17.6,2.4,26.3,4.5C409.9,240.8,413.9,242.4,417.6,244.7z"/>
	<path class="st20" d="M414,250.9c15,9.2,7.6,28.9-3.9,36.3c-3.5,2.3-14.4,2.3-18.3,3c-8.7,1.5-17.6,2.7-24,9.4
		c-11.3,11.8-8.8,29.8,2.4,40.5c17.2,16.4,46.6,9.6,65.7,0.7c24.3-11.4,39.2-31,44.5-57.3c9.4-46.5-37.9-101.7-87-97.5
		c-16.6,1.4-34.3,17.1-33.7,35.1C360.6,248.1,397.3,242.5,414,250.9c8.3,4.2,15.6-8.3,7.3-12.5c-14.8-7.5-36.1-7.4-43.9-25.6
		c-11.6-27.1,49-3,53.1-0.6c10.4,6.2,21.7,16.5,28,26.9c13.9,22.9,11,54.9-7.9,74.7c-9,9.4-22.7,15.8-35.1,19.2
		c-13.1,7.1-20.9,3.1-23.2-12c-11.7-10.1-12.6-15.4-2.8-15.7c17.4-10.6,36.4,1,46-23.3c6.8-17.2,1.2-34.1-14.1-43.5
		C413.3,233.5,406,246.1,414,250.9z"/>
</g>
<g>
	<path class="st12" d="M189.7,109.6c1-2.7,2.5-5.2,4.5-7.1c2.4-2.1,5.9-3,9.3-3.8c12.4-2.9,24.8-5.7,37.1-8.6
		c7.4-1.7,15.4-3.4,22.8-1c6.3,2.1,11,6.8,14.4,11.8c8.9,12.9,11.2,27.9,13.2,42.4c0.3,1.9,0.5,3.8-0.4,5.5c-1.6,3-6.1,3.7-10,4
		c-14.3,1.3-28.4,4.1-42.7,4.8c-4.3,0.2-8.5-0.4-12.7-0.8c-3.4-0.3-7.4,0.4-10.7-0.4c-6.1-1.5-12.3-3.1-17.5-6.6
		c-10.9-7.3-8.9-19.2-9-30.8C188.1,116,188.6,112.7,189.7,109.6z"/>
</g>
<path class="st22" d="M256.8,103.3c0.6,2.5,1.4,5,2,6.7c-0.5,2.7,2.9,8.6,3.9,11.2c1.5,4,3,7.9,4.6,11.8c1.6,3.9,2.4,11.9,5.2,14.9
	c2.8,2.9,8.8,0.2,12.4-0.4c0.4-0.1,0.9-0.2,1.2-0.5c0.6-0.5,0.6-1.3,0.6-2c0.4-14.8-2.8-29.5-11.7-41.5c-4.9-6.6-9.7-12.5-18.7-11.2
	c-0.4,0.1-0.8,0.1-1,0.4c-0.3,0.3-0.3,0.7-0.4,1.1C254.7,97,256.1,100.3,256.8,103.3z"/>
<path class="st21" d="M210.6,341.7c-21.5,0-42.9-5.5-61.3-16.7c-4.1-2.5-5.4-7.8-2.9-11.9c2.5-4.1,7.8-5.4,11.9-2.9
	c35.6,21.7,84.9,18.3,117.2-8.2c3.7-3,9.2-2.5,12.2,1.2c3,3.7,2.5,9.2-1.2,12.2C265.3,332.8,237.9,341.7,210.6,341.7z"/>
<ellipse class="st21" cx="182.4" cy="271.8" rx="10" ry="10.5"/>
<ellipse class="st21" cx="242" cy="271.8" rx="10" ry="10.5"/>
</svg>
