<?xml version="1.0" encoding="utf-8"?>
<!-- Generator: Adobe Illustrator 24.1.0, SVG Export Plug-In . SVG Version: 6.00 Build 0)  -->
<svg version="1.1" id="레이어_1" xmlns="http://www.w3.org/2000/svg" xmlns:xlink="http://www.w3.org/1999/xlink" x="0px"
	 y="0px" viewBox="0 0 500 500" style="enable-background:new 0 0 500 500;" xml:space="preserve">
<style type="text/css">
	.st0{fill:#90D8F3;}
	.st1{fill:#67C0F3;}
	.st2{fill:#F9CCDA;}
	.st3{fill:#FF5E5B;}
	.st4{fill:#85AFF3;}
	.st5{fill:#FFE455;}
	.st6{fill:#FFB119;}
	.st7{fill:#FFDB79;}
	.st8{fill:#FF905B;}
	.st9{fill:#8B8B8B;}
	.st10{fill:#FFF3E4;}
	.st11{fill:#FCDCC4;}
	.st12{fill:#FFFFFF;}
	.st13{fill:#FFA2A2;}
	.st14{fill:#DDBEF2;}
	.st15{fill:#FFDF70;}
	.st16{fill:#FFED99;}
	.st17{fill:#303030;}
	.st18{fill:#BF88CD;}
	.st19{fill:#9AD880;}
	.st20{fill:#F3E7D5;}
	.st21{fill:#875348;}
	.st22{fill:#EEECE9;}
	.st23{fill:#FD7D7B;}
	.st24{fill:#FFC4CF;}
	.st25{fill:#D95B1E;}
	.st26{fill:#548444;}
	.st27{fill:#2B8CBC;}
	.st28{fill:#AE4847;}
	.st29{clip-path:url(#SVGID_2_);}
	.st30{fill:#FF877D;}
	.st31{fill:#FFAF76;}
	.st32{fill:#FFE778;}
	.st33{fill:#90CEB6;}
	.st34{fill:#ADD4E2;}
	.st35{fill:#338AA5;}
	.st36{clip-path:url(#SVGID_4_);}
	.st37{fill:#4880B0;}
	.st38{fill:#BA5050;}
	.st39{clip-path:url(#SVGID_6_);}
	.st40{clip-path:url(#SVGID_8_);}
	.st41{fill:#4E89B5;}
	.st42{clip-path:url(#SVGID_10_);}
</style>
<g>
	<path class="st14" d="M226.8,220.4c-0.1-0.2-0.2-0.4-0.3-0.6c-4.5-8.7-10.3-16.6-16.3-23.9c-12.6-15.1-27.6-27.5-44-36.5
		c-23.5-12.9-49.5-18.6-75.4-18.4c-8.1,0.1-16.2,0.7-24.2,1.8c-7.2,1-17.9,0.8-23.4,6.7c-10.8,11.6-14.8,29.7-19.2,45.4
		c-7.4,26.1-11.2,53.9-9.2,81.4c1.3,17.1,5.1,33.9,11.2,49.6c3.1,8,6.9,15.6,11.1,22.9c2.1,3.6,4.3,7,6.7,10.4
		c5.8,8.2,12.3,8.7,20.6,9c7.8,0.4,15.5,0.3,23.3-0.3c21.9-1.5,43.8-6.3,64.3-15.3c25.5-11.1,48.6-28.8,66.4-52.5
		c2.9-3.8,5.7-7.8,8.3-12C226.8,288.2,226.8,220.4,226.8,220.4z"/>
	<path class="st14" d="M233.6,216.4c-15.2-30.3-43.9-55.5-74.5-69.3c-30.5-13.8-80.8-22.7-112.8-8.5c-27.3,12.2-33.4,63.7-37,88.5
		c-5.5,37.4-2.4,75.9,13.5,110.5c15,32.7,29.1,40.4,65.1,38c36.7-2.4,72.6-14,102.1-36.2c18-13.5,41.7-33.7,44.7-56.9
		c2.6-20,0-42,0-62.2c0-10-15.6-10.1-15.6,0c0,19.7,5.8,48.5,0,67.1c-6.8,21.6-43.9,45.1-62.5,54.4c-27.8,13.9-87.7,33.7-111,5.5
		c-18.6-22.6-23.7-60.9-23.3-88.8c0.3-26.2,3.9-69.4,19.7-92.4c21-30.5,82.2-17.5,110.9-4.4c27.8,12.6,53.3,34.9,67.2,62.5
		C224.6,233.3,238.1,225.4,233.6,216.4z"/>
</g>
<g>
	<path class="st14" d="M272.3,220.4c0.1-0.2,0.2-0.4,0.3-0.6c4.5-8.7,10.3-16.6,16.3-23.9c12.6-15.1,27.6-27.5,44-36.5
		c23.5-12.9,49.5-18.6,75.4-18.4c8.1,0.1,16.2,0.7,24.2,1.8c7.2,1,17.9,0.8,23.4,6.7c10.8,11.6,14.8,29.7,19.2,45.4
		c7.4,26.1,11.2,53.9,9.2,81.4c-1.3,17.1-5.1,33.9-11.2,49.6c-3.1,8-6.9,15.6-11.1,22.9c-2.1,3.6-4.3,7-6.7,10.4
		c-5.8,8.2-12.3,8.7-20.6,9c-7.8,0.4-15.5,0.3-23.3-0.3c-21.9-1.5-43.8-6.3-64.3-15.3c-25.5-11.1-48.6-28.8-66.4-52.5
		c-2.9-3.8-5.7-7.8-8.3-12C272.3,288.2,272.3,220.4,272.3,220.4z"/>
	<path class="st14" d="M279,224.3c12.2-24.3,34.2-45.1,57.8-58.2c25.8-14.4,92.3-32.4,117.1-6.3c17.7,18.6,21.9,70.2,22.8,93
		c1.2,28.6-3,72-23.3,94.7c-23.3,26.1-74.4,10.2-102.5-1.8c-22.8-9.8-60-31.8-69.4-56.7c-7-18.3-1.5-48.2-1.5-68.5
		c0-10-15.6-10.1-15.6,0c0,19.6-2.5,40.9,0,60.3c3.2,24.6,25.2,44.2,44.7,58.9c29.6,22.1,65.5,33.7,102.1,36.2
		c36.5,2.4,50-5.3,65.1-38c15.9-34.6,19-73.1,13.5-110.5c-3.7-25.2-9.5-76.3-37-88.5c-31.9-14.1-81.3-5.4-111.9,8.1
		c-31.1,13.7-60.1,39.1-75.5,69.7C261.1,225.4,274.5,233.3,279,224.3z"/>
</g>
<g>
	<path class="st14" d="M205.1,257.4c1.8,15.8,11.2,30.7,26.3,35.4c28.9,9,52-12.4,50.8-41.6C280,199.2,198.8,203.3,205.1,257.4z"/>
	<path class="st18" d="M197.5,259.5c5,31.1,36.2,54.1,66.8,38.5c24.5-12.4,33-46.6,19.1-69.9c-10.5-17.6-33-24.8-52.4-20
		c-23.1,5.7-35.7,26.2-33.8,49.3c0.8,9.9,16.5,10,15.6,0c-1.2-14.3,3.5-27.2,17.6-32.8c11-4.4,25.2-2.8,34.2,5.2
		c13.5,11.9,12.6,36.1,0.5,48.6c-21,21.7-48.7,1.5-52.6-23C211,245.4,196,249.6,197.5,259.5z"/>
</g>
<path class="st18" d="M164.3,229.6c12.7,0.7,24.8,6.7,32.6,16.9c6,7.9,19.6,0.1,13.5-7.9c-11.4-14.8-27.3-23.6-46.1-24.6
	C154.3,213.4,154.3,229.1,164.3,229.6L164.3,229.6z"/>
<path class="st18" d="M168.8,287.5c14,1.5,27.7-1.7,39.9-8.6c8.7-5,0.9-18.5-7.9-13.5c-10,5.7-20.6,7.7-32,6.5
	C158.8,270.9,158.9,286.5,168.8,287.5L168.8,287.5z"/>
<path class="st18" d="M321.5,214c-18.8,1.1-34.7,9.8-46.1,24.6c-6.1,8,7.4,15.7,13.5,7.9c7.8-10.2,19.9-16.2,32.6-16.9
	C331.5,229.1,331.6,213.4,321.5,214L321.5,214z"/>
<path class="st18" d="M316.2,269.5c-11.4,1.2-22-0.8-32-6.5c-8.7-5-16.6,8.5-7.9,13.5c12.2,7,25.9,10.1,39.9,8.6
	C326.1,284.1,326.2,268.5,316.2,269.5L316.2,269.5z"/>
</svg>
