<?xml version="1.0" encoding="utf-8"?>
<!-- Generator: Adobe Illustrator 24.1.0, SVG Export Plug-In . SVG Version: 6.00 Build 0)  -->
<svg version="1.1" id="레이어_1" xmlns="http://www.w3.org/2000/svg" xmlns:xlink="http://www.w3.org/1999/xlink" x="0px"
	 y="0px" viewBox="0 0 500 500" style="enable-background:new 0 0 500 500;" xml:space="preserve">
<style type="text/css">
	.st0{fill:#90D8F3;}
	.st1{fill:#67C0F3;}
	.st2{fill:#F9CCDA;}
	.st3{fill:#FF5E5B;}
	.st4{fill:#85AFF3;}
	.st5{fill:#FFE455;}
	.st6{fill:#FFB119;}
	.st7{fill:#FFDB79;}
	.st8{fill:#FF905B;}
	.st9{fill:#8B8B8B;}
	.st10{fill:#FFF3E4;}
	.st11{fill:#FCDCC4;}
	.st12{fill:#FFFFFF;}
	.st13{fill:#FFA2A2;}
	.st14{fill:#DDBEF2;}
	.st15{fill:#FFDF70;}
	.st16{fill:#FFED99;}
	.st17{fill:#303030;}
	.st18{fill:#BF88CD;}
	.st19{fill:#9AD880;}
	.st20{fill:#F3E7D5;}
	.st21{fill:#875348;}
	.st22{fill:#EEECE9;}
	.st23{fill:#FD7D7B;}
	.st24{fill:#FFC4CF;}
	.st25{fill:#D95B1E;}
	.st26{fill:#548444;}
	.st27{fill:#2B8CBC;}
	.st28{fill:#AE4847;}
	.st29{clip-path:url(#SVGID_2_);}
	.st30{fill:#FF877D;}
	.st31{fill:#FFAF76;}
	.st32{fill:#FFE778;}
	.st33{fill:#90CEB6;}
	.st34{fill:#ADD4E2;}
	.st35{fill:#338AA5;}
	.st36{clip-path:url(#SVGID_4_);}
	.st37{fill:#4880B0;}
	.st38{fill:#BA5050;}
	.st39{clip-path:url(#SVGID_6_);}
	.st40{clip-path:url(#SVGID_8_);}
	.st41{fill:#4E89B5;}
	.st42{clip-path:url(#SVGID_10_);}
</style>
<g>
	<path class="st2" d="M312.7,432.6c1.5-2.5,2.8-5.5,3.6-7.7c1.9-4.7,3.8-9.5,5.7-14.2c4.6-11.4,9.1-22.7,13.7-34.1
		c2.4-6,4.8-12,7.2-18c2.1-5.2-1.2-11.1-6.2-11.1h-59.6c-5,0-8.3,5.9-6.2,11.1c0,0,29.8,74.2,29.8,74.2c1.2,3,5.3,6.1,8.3,4.1
		C310.3,436.1,311.6,434.5,312.7,432.6z"/>
	<path class="st2" d="M319.2,436.4c11.3-21.8,20.6-46.5,28.6-69.7c4.2-12.1,4-24.4-11.3-26.6c-11.7-1.6-24.8,0-36.6,0
		c-8.2,0-22.3-2.6-29.9,2c-18.2,10.9,6.2,49.7,11.2,62.2c5.2,13,16.6,57.5,36.9,33.6c6.2-7.3-4.3-18-10.6-10.6c-2.1,2.4,1.9,4.2-1,0
		c-1.8-2.5-2.6-6.4-3.7-9.3c-3.7-9.2-7.4-18.4-11.1-27.5c-1.8-4.6-16.1-32.6-13.5-35.4c2-2.3,18.4,0,21.7,0c9.8,0,19.7-0.6,29.5,0
		c0.4,0,6.8-0.6,7.2,0c1.1,1.7-7.9,19.4-9.1,22.4c-6.8,17-12.7,35-21.1,51.3C301.8,437.4,314.8,444.9,319.2,436.4z"/>
</g>
<g>
	<path class="st2" d="M353.7,368.6c-21.5,1.4-43.1-0.1-64.7-0.8c-20.6-0.7-41.1-0.5-61.7,0c-44,1.2-103.6,9-141.9-17.4
		C52.5,327.6,32,290.1,32,249.8c0,0,0-32.9,0-32.9c0-66.8,54.7-121.4,121.4-121.4h200.5c66.8,0,121.4,54.7,121.4,121.4v32.9
		c0,66.8-51.3,112.2-115.2,118.2C358,368.3,355.9,368.4,353.7,368.6z"/>
	<path class="st2" d="M353.7,361.1c-53.1,2.4-106.3-1.4-159.5,0.6c-54.6,2.1-109-3-139.2-55.2c-44-75.8-4.8-196,90.2-203.2
		c44.5-3.4,90.2-0.3,134.8-0.3c58.9,0,123-8.3,164,44.6c24.4,31.6,26.5,72.1,23.7,110.5C463.1,319.1,411.4,356.5,353.7,361.1
		c-9.6,0.8-9.6,15.8,0,15c45.1-3.6,88.7-23.3,112.4-63.4c18.3-30.9,18.9-69,16.4-104c-3.2-45.1-30.2-86.2-70.6-106.7
		c-27.6-14-56.3-13.9-86.1-13.9c-59.8,0-121-3.9-180.7,0.3C51.4,94.9,13.3,185.8,26,268.9c8.5,55.4,51.4,97.7,106.4,106
		c31.5,4.7,63.4,1.4,95,0.4c42.1-1.3,84.3,2.7,126.3,0.8C363.3,375.6,363.4,360.6,353.7,361.1z"/>
</g>
<g>
	<path class="st12" d="M181.6,221.1c0-3.2-0.8-6.4-2.6-9.3c-3.1-4.8-8.3-7.8-14-7.8c-7.2,0-13.3,4.6-15.8,11
		c-2.4-6.4-8.6-11-15.8-11c-6.6,0-12.2,4.2-14.9,10.3c-2.7,6.2-1,14.1,1.5,20.1c2.1,5.1,5.3,9.6,8.9,13.7c3.8,4.3,7.8,7.1,12.7,9.9
		c4.2,2.4,7.8,4.4,12.4,2.1c4.2-2.1,7.9-4.5,11.4-7.8c5.7-5.4,10.1-12.1,13.3-19.3C180.5,229.4,181.7,225.2,181.6,221.1z"/>
	<path class="st12" d="M189.1,221.1c-2.2-25.4-34.5-33.9-46.3-9.8c4.3,0,8.6,0,12.9,0c-6.7-13.6-23.9-19.7-36.5-9.7
		c-15.2,12.1-9.4,33.7,0.7,47.2c9.4,12.6,25.5,25.1,41.1,16.2C176.6,256.1,187.7,238.9,189.1,221.1c0.8-9.6-14.2-9.6-15,0
		c-1.2,14.4-15.9,37.5-32.1,28.3c-6.7-3.8-12-10.9-14.8-17.9c-1.9-4.7-4-12.8,0.3-17.2c5.2-5.4,12.5-1.1,15.3,4.6
		c2.4,4.9,10.5,4.9,12.9,0c4.6-9.3,17.4-9.7,18.4,2.3C175,230.7,190,230.8,189.1,221.1z"/>
</g>
<g>
	<path class="st12" d="M285.8,221.1c0-3.2-0.8-6.4-2.6-9.3c-3.1-4.8-8.3-7.8-14-7.8c-7.2,0-13.3,4.6-15.8,11
		c-2.4-6.4-8.6-11-15.8-11c-6.6,0-12.2,4.2-14.9,10.3c-2.7,6.2-1,14.1,1.5,20.1c2.1,5.1,5.3,9.6,8.9,13.7c3.8,4.3,7.8,7.1,12.7,9.9
		c4.2,2.4,7.8,4.4,12.4,2.1c4.2-2.1,7.9-4.5,11.4-7.8c5.7-5.4,10.1-12.1,13.3-19.3C284.7,229.4,285.9,225.2,285.8,221.1z"/>
	<path class="st12" d="M293.3,221.1c-2.2-25.4-34.5-33.9-46.3-9.8c4.3,0,8.6,0,12.9,0c-6.7-13.6-23.9-19.7-36.5-9.7
		c-15.2,12.1-9.4,33.7,0.7,47.2c9.4,12.6,25.5,25.1,41.1,16.2C280.8,256.1,291.8,238.9,293.3,221.1c0.8-9.6-14.2-9.6-15,0
		c-1.2,14.4-15.9,37.5-32.1,28.3c-6.7-3.8-12-10.9-14.8-17.9c-1.9-4.7-4-12.8,0.3-17.2c5.2-5.4,12.5-1.1,15.3,4.6
		c2.4,4.9,10.5,4.9,12.9,0c4.6-9.3,17.4-9.7,18.4,2.3C279.2,230.7,294.2,230.8,293.3,221.1z"/>
</g>
<g>
	<path class="st12" d="M390,221.1c0-3.2-0.8-6.4-2.6-9.3c-3.1-4.8-8.3-7.8-14-7.8c-7.2,0-13.3,4.6-15.8,11c-2.4-6.4-8.6-11-15.8-11
		c-6.6,0-12.2,4.2-14.9,10.3c-2.7,6.2-1,14.1,1.5,20.1c2.1,5.1,5.3,9.6,8.9,13.7c3.8,4.3,7.8,7.1,12.7,9.9c4.2,2.4,7.8,4.4,12.4,2.1
		c4.2-2.1,7.9-4.5,11.4-7.8c5.7-5.4,10.1-12.1,13.3-19.3C388.9,229.4,390,225.2,390,221.1z"/>
	<path class="st12" d="M397.5,221.1c-2.2-25.4-34.5-33.9-46.3-9.8c4.3,0,8.6,0,12.9,0c-6.7-13.6-23.9-19.7-36.5-9.7
		c-15.2,12.1-9.4,33.7,0.7,47.2c9.4,12.6,25.5,25.1,41.1,16.2C385,256.1,396,238.9,397.5,221.1c0.8-9.6-14.2-9.6-15,0
		c-1.2,14.4-15.9,37.5-32.1,28.3c-6.7-3.8-12-10.9-14.8-17.9c-1.9-4.7-4-12.8,0.3-17.2c5.2-5.4,12.5-1.1,15.3,4.6
		c2.4,4.9,10.5,4.9,12.9,0c4.6-9.3,17.4-9.7,18.4,2.3C383.3,230.7,398.3,230.8,397.5,221.1z"/>
</g>
</svg>
