<?xml version="1.0" encoding="utf-8"?>
<!-- Generator: Adobe Illustrator 24.1.0, SVG Export Plug-In . SVG Version: 6.00 Build 0)  -->
<svg version="1.1" id="레이어_1" xmlns="http://www.w3.org/2000/svg" xmlns:xlink="http://www.w3.org/1999/xlink" x="0px"
	 y="0px" viewBox="0 0 500 500" style="enable-background:new 0 0 500 500;" xml:space="preserve">
<style type="text/css">
	.st0{fill:#FFFFFF;}
	.st1{fill:#FFFCF9;}
	.st2{fill:#EFEBEA;}
	.st3{opacity:0.8;fill:#FF7246;}
	.st4{fill:#313338;}
	.st5{fill:#FF7246;}
	.st6{fill:#7EB7FF;}
	.st7{fill:#FFFAF6;}
	.st8{fill:#FFF6EB;}
	.st9{fill:#F4EAE0;}
	.st10{fill:#E7E4E3;}
	.st11{fill:#F0E3D6;}
</style>
<path class="st8" d="M382.6,206.8c6.5-15.9,10.8-35.9,12.1-59.5c3.8-68-20.8-108.7-53.7-110.4C308.1,35.1,279.2,73,275.4,141
	c-0.5,8.9-0.5,17.3-0.1,25.3c-8.3-0.9-16.8-1.4-25.4-1.4s-17.1,0.5-25.4,1.4c0.4-7.9,0.4-16.4-0.1-25.3
	C220.7,73,191.9,35.1,159,36.9c-32.9,1.7-57.5,42.4-53.7,110.4c1.3,23.6,5.6,43.6,12.1,59.5c-36,27.1-58.4,65.2-58.4,107.4
	c0,82.4,85.5,149.2,191,149.2c105.5,0,191-66.8,191-149.2C441,272,418.6,233.9,382.6,206.8z"/>
<path class="st9" d="M250,471.4c-109.7,0-199-70.5-199-157.2c0-41.6,20.1-80.5,56.9-110c-5.8-16.3-9.3-35.2-10.5-56.4
	c-2.4-44.1,6.5-79.9,25.2-100.7c10-11.2,22.5-17.4,36-18.1C192.1,27,228,61,232.4,140.6c0.3,5.7,0.4,11.4,0.4,17
	c11.6-0.8,22.7-0.8,34.3,0c-0.1-5.5,0-11.2,0.4-17c4.4-79.6,40.3-113.4,73.9-111.7c13.6,0.7,26,7,36,18.1
	c18.7,20.8,27.6,56.6,25.2,100.7c-1.2,21.2-4.7,40.1-10.5,56.4c36.7,29.5,56.9,68.4,56.9,110C449,400.8,359.7,471.4,250,471.4z
	 M161.1,44.8c-0.6,0-1.2,0-1.8,0c-9.4,0.5-17.8,4.8-25,12.9c-15.6,17.4-23.3,49.9-21.1,89.2c1.2,21.9,5.1,41.1,11.5,57
	c1.4,3.3,0.3,7.2-2.6,9.3c-35.6,26.9-55.3,62.7-55.3,101c0,77.9,82.1,141.3,183.1,141.3S433,392.1,433,314.2
	c0-38.3-19.6-74.1-55.3-101c-2.9-2.2-3.9-6-2.6-9.3c6.4-15.9,10.3-35,11.5-57c2.2-39.3-5.5-71.8-21.1-89.2
	c-7.2-8.1-15.6-12.4-25-12.9c-30.5-1.5-53.9,38.1-57.2,96.6c-0.5,8.4-0.5,16.6-0.1,24.4c0.1,2.3-0.8,4.6-2.5,6.2
	c-1.7,1.6-4,2.4-6.3,2.2c-16.8-1.7-32.4-1.7-49.2,0c-2.3,0.2-4.6-0.5-6.3-2.2c-1.7-1.6-2.6-3.9-2.5-6.2c0.4-7.8,0.4-16-0.1-24.4
	C213.4,84.1,190.7,44.8,161.1,44.8z"/>
<g>
	<g>
		<g>
			<path class="st6" d="M188.6,285.2c-3.6,0.9-7.2,2.1-10.6,3.4c-4.4,1.7-8.6,3.6-12.6,6.1c-3.9,2.4-7.6,5.4-10.3,9.1
				c-3,4-3.7,9.6-1.6,14.4c0.7,1.5,1.6,3,2.7,4.2c2.3,2.5,5.3,4.1,8.5,4.7c4.9,0.8,10-1.1,13.1-4.8c0.9-1,1.6-2.2,2.2-3.3
				c1.2-2.2,2.3-4.4,3.3-6.7c1.6-3.7,3-7.4,4.3-11.2c2-5.6,3.7-11.2,5.4-16.9C191.6,284.5,190.1,284.9,188.6,285.2z"/>
			<path class="st6" d="M167.1,329.4c-0.9,0-1.8-0.1-2.6-0.2c-3.7-0.6-7.1-2.5-9.7-5.3c-1.3-1.4-2.3-3-3.1-4.8
				c-2.3-5.3-1.6-11.8,1.8-16.4c2.6-3.6,6.2-6.7,10.9-9.6c3.8-2.3,8-4.4,12.9-6.3c3.5-1.3,7.1-2.5,10.8-3.5c1.5-0.4,3.1-0.8,4.6-1.1
				c0.7-0.1,1.4,0.1,1.8,0.6c0.5,0.5,0.6,1.2,0.4,1.9c-1.9,6.4-3.7,11.9-5.4,17c-1.5,4.4-2.9,8-4.4,11.4c-1.2,2.8-2.3,5-3.4,6.9
				c-0.6,1-1.4,2.4-2.4,3.6C176.3,327.3,171.8,329.4,167.1,329.4z M190.2,286.9c-0.4,0.1-0.7,0.2-1.1,0.3c0,0,0,0,0,0
				c-3.6,0.9-7.1,2.1-10.4,3.3c-4.7,1.8-8.7,3.7-12.2,5.9c-4.2,2.7-7.4,5.5-9.8,8.6c-2.6,3.5-3.1,8.4-1.4,12.5
				c0.6,1.3,1.4,2.6,2.4,3.7c2,2.1,4.6,3.6,7.4,4c4.1,0.7,8.6-0.9,11.2-4.1c0.8-1,1.5-2.1,2-3c1-1.8,2-3.8,3.2-6.5
				c1.4-3.3,2.8-6.8,4.3-11.1C187.2,296.3,188.7,291.9,190.2,286.9z M188.6,285.2L188.6,285.2L188.6,285.2z"/>
		</g>
		<g>
			<path class="st6" d="M311.4,285.2c3.6,0.9,7.2,2.1,10.6,3.4c4.4,1.7,8.6,3.6,12.6,6.1c3.9,2.4,7.6,5.4,10.3,9.1
				c3,4,3.7,9.6,1.6,14.4c-0.7,1.5-1.6,3-2.7,4.2c-2.3,2.5-5.3,4.1-8.5,4.7c-4.9,0.8-10-1.1-13.1-4.8c-0.9-1-1.6-2.2-2.2-3.3
				c-1.2-2.2-2.3-4.4-3.3-6.7c-1.6-3.7-3-7.4-4.3-11.2c-2-5.6-3.7-11.2-5.4-16.9C308.4,284.5,309.9,284.9,311.4,285.2z"/>
			<path class="st6" d="M332.9,329.4c-4.7,0-9.3-2.1-12.3-5.7c-1-1.2-1.8-2.6-2.4-3.6c-1.1-1.9-2.1-4-3.4-6.9
				c-1.5-3.4-2.8-7-4.4-11.4c-1.8-5.1-3.6-10.6-5.4-17c-0.2-0.7,0-1.4,0.4-1.9c0.5-0.5,1.2-0.7,1.8-0.6c1.6,0.3,3.1,0.7,4.6,1.1
				c3.7,1,7.4,2.1,10.8,3.5c4.9,1.9,9.2,3.9,12.9,6.3c4.7,2.9,8.2,6.1,10.9,9.6c3.4,4.6,4.1,11.1,1.8,16.4c-0.8,1.8-1.8,3.4-3.1,4.8
				c-2.6,2.8-6,4.7-9.7,5.3C334.6,329.3,333.8,329.4,332.9,329.4z M309.7,286.9c1.5,5,3,9.4,4.4,13.6c1.5,4.3,2.9,7.8,4.3,11.1
				c1.2,2.7,2.1,4.7,3.2,6.5c0.5,0.9,1.2,2.1,2,3.1c2.7,3.2,7.1,4.8,11.2,4.1c2.8-0.5,5.4-1.9,7.4-4c1-1.1,1.8-2.3,2.4-3.7
				c1.7-4.1,1.2-8.9-1.4-12.5c-2.3-3.2-5.5-6-9.8-8.6c-3.5-2.2-7.5-4.2-12.2-5.9c-3.3-1.3-6.8-2.4-10.4-3.3c0,0,0,0,0,0
				C310.5,287.1,310.1,287,309.7,286.9z"/>
		</g>
	</g>
	<g>
		<g>
			<path class="st6" d="M147.8,340.8c-3.6,0.9-7.2,2.1-10.6,3.4c-4.4,1.7-8.6,3.6-12.6,6.1c-3.9,2.4-7.6,5.4-10.3,9.1
				c-3,4-3.7,9.6-1.6,14.4c0.7,1.5,1.6,3,2.7,4.2c2.3,2.5,5.3,4.1,8.5,4.7c4.9,0.8,10-1.1,13.1-4.8c0.9-1,1.6-2.2,2.2-3.3
				c1.2-2.2,2.3-4.4,3.3-6.7c1.6-3.7,3-7.4,4.3-11.2c2-5.6,3.7-11.2,5.4-16.9C150.8,340.1,149.3,340.4,147.8,340.8z"/>
			<path class="st6" d="M126.3,385c-0.9,0-1.8-0.1-2.6-0.2c-3.7-0.6-7.1-2.5-9.7-5.3c-1.3-1.4-2.3-3-3.1-4.8
				c-2.3-5.4-1.6-11.7,1.8-16.4c2.6-3.6,6.2-6.7,10.9-9.6c3.8-2.4,8-4.4,12.9-6.3c3.5-1.3,7.1-2.5,10.8-3.5c1.5-0.4,3.1-0.8,4.6-1.1
				c0.7-0.1,1.4,0.1,1.8,0.6c0.5,0.5,0.6,1.2,0.4,1.9c-1.9,6.4-3.7,12-5.4,17c-1.6,4.4-2.9,8-4.4,11.4c-0.8,1.9-2,4.5-3.4,6.9
				c-0.6,1.1-1.4,2.4-2.4,3.6C135.6,382.9,131,385,126.3,385z M149.4,342.5c-0.4,0.1-0.7,0.2-1.1,0.3c0,0,0,0,0,0
				c-3.6,0.9-7.1,2.1-10.4,3.3c-4.7,1.8-8.7,3.7-12.2,5.9c-4.2,2.7-7.4,5.5-9.8,8.6c-2.6,3.5-3.1,8.4-1.4,12.5
				c0.6,1.3,1.4,2.6,2.4,3.7c2,2.1,4.6,3.6,7.4,4c4.2,0.7,8.6-0.9,11.2-4.1c0.8-1,1.5-2.1,2-3c1.3-2.3,2.4-4.7,3.2-6.5
				c1.4-3.2,2.8-6.8,4.3-11.1C146.5,351.9,147.9,347.5,149.4,342.5z M147.8,340.8L147.8,340.8L147.8,340.8z"/>
		</g>
		<g>
			<path class="st6" d="M352.1,340.8c3.6,0.9,7.2,2.1,10.6,3.4c4.4,1.7,8.6,3.6,12.6,6.1c3.9,2.4,7.6,5.4,10.3,9.1
				c3,4,3.7,9.6,1.6,14.4c-0.7,1.5-1.6,3-2.7,4.2c-2.3,2.5-5.3,4.1-8.5,4.7c-4.9,0.8-10-1.1-13.1-4.8c-0.9-1-1.6-2.2-2.2-3.3
				c-1.2-2.2-2.3-4.4-3.3-6.7c-1.6-3.7-3-7.4-4.3-11.2c-2-5.6-3.7-11.2-5.4-16.9C349.2,340.1,350.7,340.4,352.1,340.8z"/>
			<path class="st6" d="M373.7,385c-4.7,0-9.3-2.1-12.3-5.7c-1-1.2-1.8-2.5-2.4-3.6c-1.4-2.4-2.5-5-3.4-6.9
				c-1.4-3.3-2.8-6.9-4.4-11.4c-1.8-5-3.5-10.6-5.4-17c-0.2-0.7,0-1.4,0.4-1.9c0.5-0.5,1.2-0.8,1.8-0.6c1.6,0.3,3.1,0.7,4.6,1.1
				c3.7,1,7.4,2.1,10.8,3.5c4.9,1.9,9.2,3.9,12.9,6.3c4.7,2.9,8.2,6.1,10.9,9.6c3.5,4.7,4.2,11,1.8,16.4c-0.8,1.7-1.8,3.4-3.1,4.8
				c-2.6,2.8-6,4.7-9.7,5.3C375.4,384.9,374.5,385,373.7,385z M350.5,342.5c1.5,5,3,9.5,4.4,13.6c1.5,4.3,2.9,7.9,4.3,11.1
				c0.8,1.8,1.9,4.2,3.2,6.5c0.6,1,1.2,2.1,2,3c2.7,3.2,7.1,4.8,11.2,4.1c2.8-0.5,5.4-1.9,7.4-4c1-1.1,1.8-2.3,2.4-3.7
				c1.8-4.1,1.2-9-1.4-12.5c-2.3-3.1-5.5-6-9.8-8.6c-3.5-2.2-7.5-4.2-12.2-5.9c-3.3-1.3-6.8-2.4-10.4-3.3c0,0,0,0,0,0
				C351.3,342.7,350.9,342.6,350.5,342.5z"/>
		</g>
	</g>
	<g>
		<path class="st4" d="M193.8,274.9c-3.6,0-6.9-2.5-7.7-6.2c-1-4.3,1.7-8.6,5.9-9.6l19.8-4.6c4.3-1,8.6,1.7,9.6,5.9
			c1,4.3-1.7,8.6-5.9,9.6l-19.8,4.6C195.1,274.8,194.4,274.9,193.8,274.9z"/>
		<path class="st4" d="M305.7,274.9c-0.6,0-1.2-0.1-1.8-0.2l-19.8-4.6c-4.3-1-6.9-5.3-5.9-9.6c1-4.3,5.3-7,9.6-5.9l19.8,4.6
			c4.3,1,6.9,5.3,5.9,9.6C312.6,272.4,309.3,274.9,305.7,274.9z"/>
	</g>
	<path class="st4" d="M259.6,371.1h-19.7c-22.2,0-40.3-18.1-40.3-40.3c0-22.2,18.1-40.3,40.3-40.3h19.7c22.2,0,40.3,18.1,40.3,40.3
		C299.9,353,281.8,371.1,259.6,371.1z M239.9,306.5c-13.4,0-24.4,10.9-24.4,24.4c0,13.4,10.9,24.4,24.4,24.4h19.7
		c13.4,0,24.4-10.9,24.4-24.4c0-13.4-10.9-24.4-24.4-24.4H239.9z"/>
</g>
</svg>
