<?xml version="1.0" encoding="utf-8"?>
<!-- Generator: Adobe Illustrator 24.1.0, SVG Export Plug-In . SVG Version: 6.00 Build 0)  -->
<svg version="1.1" id="레이어_1" xmlns="http://www.w3.org/2000/svg" xmlns:xlink="http://www.w3.org/1999/xlink" x="0px"
	 y="0px" viewBox="0 0 500 500" style="enable-background:new 0 0 500 500;" xml:space="preserve">
<style type="text/css">
	.st0{fill:#FFFFFF;}
	.st1{fill:#FFFCF9;}
	.st2{fill:#EFEBEA;}
	.st3{opacity:0.8;fill:#FF7246;}
	.st4{fill:#313338;}
	.st5{fill:#FF7246;}
	.st6{fill:#7EB7FF;}
	.st7{fill:#FFFAF6;}
	.st8{fill:#FFF6EB;}
	.st9{fill:#F4EAE0;}
	.st10{fill:#E7E4E3;}
	.st11{fill:#F0E3D6;}
</style>
<path class="st8" d="M391.3,206.8c6.5-15.9,10.8-35.9,12.1-59.5c3.8-68-20.8-108.7-53.7-110.4C316.7,35.2,287.9,73,284.1,141
	c-0.5,8.9-0.5,17.3-0.1,25.3c-8.3-0.9-16.8-1.4-25.4-1.4c-8.6,0-17.1,0.5-25.4,1.4c0.4-7.9,0.4-16.4-0.1-25.3
	c-3.8-68-32.6-105.9-65.5-104.2c-32.9,1.7-57.5,42.4-53.7,110.4c1.3,23.6,5.6,43.6,12.1,59.5C90.1,234,67.6,272,67.6,314.2
	c0,82.4,85.5,149.2,191,149.2c105.5,0,191-66.8,191-149.2C449.7,272,427.3,234,391.3,206.8z"/>
<path class="st9" d="M258.7,471.4c-109.7,0-199-70.5-199-157.2c0-41.6,20.1-80.5,56.9-110c-5.8-16.3-9.3-35.2-10.5-56.4
	c-2.4-44.1,6.5-79.9,25.2-100.7c10-11.2,22.5-17.4,36-18.1c33.5-1.7,69.5,32.1,73.9,111.7c0.3,5.7,0.4,11.4,0.4,17
	c11.6-0.8,22.7-0.8,34.3,0c-0.1-5.6,0-11.2,0.4-17c4.4-79.6,40.3-113.4,73.9-111.7c13.6,0.7,26,7,36,18.1
	c18.7,20.8,27.6,56.6,25.2,100.7c-1.2,21.2-4.7,40.1-10.5,56.4c36.7,29.5,56.9,68.4,56.9,110C457.6,400.9,368.4,471.4,258.7,471.4z
	 M169.8,44.8c-0.6,0-1.2,0-1.8,0c-9.4,0.5-17.8,4.8-25,12.9c-15.6,17.4-23.3,49.9-21.1,89.2c1.2,21.9,5.1,41.1,11.5,56.9
	c1.4,3.3,0.3,7.2-2.6,9.3c-35.6,26.9-55.3,62.7-55.3,101c0,77.9,82.1,141.3,183.1,141.3s183.1-63.4,183.1-141.3
	c0-38.3-19.6-74.1-55.3-101c-2.9-2.2-3.9-6-2.6-9.3c6.4-15.9,10.3-35,11.5-56.9c2.2-39.3-5.5-71.8-21.1-89.2
	c-7.2-8.1-15.6-12.4-25-12.9c-30.5-1.6-53.9,38.1-57.2,96.6c-0.5,8.4-0.5,16.6-0.1,24.4c0.1,2.3-0.8,4.6-2.5,6.2
	c-1.7,1.6-4,2.4-6.3,2.1c-16.7-1.7-32.5-1.7-49.2,0c-2.3,0.2-4.6-0.5-6.3-2.1c-1.7-1.6-2.6-3.9-2.5-6.2c0.4-7.8,0.4-16-0.1-24.4
	C222.1,84.1,199.4,44.8,169.8,44.8z"/>
<circle class="st3" cx="174.7" cy="306.5" r="31.8"/>
<circle class="st3" cx="342.6" cy="307.4" r="31.8"/>
<g>
	<g>
		<circle class="st4" cx="224.8" cy="278.3" r="9.9"/>
		<circle class="st4" cx="292.5" cy="278.7" r="9.9"/>
	</g>
</g>
<g>
	<path class="st5" d="M42.3,120.8c0.2-15,11.6-27.1,25.5-26.9c9.5,0.1,17.7,5.9,21.9,14.3c4.4-8.3,12.7-13.9,22.2-13.8
		c13.9,0.2,25,12.5,24.8,27.6c0,1.4-0.1,2.9-0.4,4.2c-0.7,7.5-7,26.7-47.6,55.5c-39.9-29.8-45.8-49.1-46.2-56.7
		C42.4,123.7,42.3,122.2,42.3,120.8z"/>
</g>
<g>
	<path class="st4" d="M264.1,340.4c-10.4,0-18.9-9.2-18.9-20.6c0-11.3,8.5-20.6,18.9-20.6c4.4,0,8,3.6,8,8s-3.6,8-8,8
		c-1.4,0-2.9,2-2.9,4.7s1.5,4.7,2.9,4.7c4.4,0,8,3.6,8,8S268.5,340.4,264.1,340.4z"/>
	<path class="st4" d="M264.1,365.7c-10.4,0-18.9-9.2-18.9-20.6c0-11.3,8.5-20.6,18.9-20.6c4.4,0,8,3.6,8,8s-3.6,8-8,8
		c-1.4,0-2.9,2-2.9,4.7s1.5,4.7,2.9,4.7c4.4,0,8,3.6,8,8S268.5,365.7,264.1,365.7z"/>
</g>
</svg>
