<?xml version="1.0" encoding="utf-8"?>
<!-- Generator: Adobe Illustrator 24.1.0, SVG Export Plug-In . SVG Version: 6.00 Build 0)  -->
<svg version="1.1" id="레이어_1" xmlns="http://www.w3.org/2000/svg" xmlns:xlink="http://www.w3.org/1999/xlink" x="0px"
	 y="0px" viewBox="0 0 500 500" style="enable-background:new 0 0 500 500;" xml:space="preserve">
<style type="text/css">
	.st0{fill:#FFFFFF;}
	.st1{fill:#FFFCF9;}
	.st2{fill:#EFEBEA;}
	.st3{opacity:0.8;fill:#FF7246;}
	.st4{fill:#313338;}
	.st5{fill:#FF7246;}
	.st6{fill:#7EB7FF;}
	.st7{fill:#FFFAF6;}
	.st8{fill:#FFF6EB;}
	.st9{fill:#F4EAE0;}
	.st10{fill:#E7E4E3;}
	.st11{fill:#F0E3D6;}
</style>
<path class="st1" d="M391.2,166.5l4.1-15.3l0.1-0.3c7.6-28.4-9.3-57.7-37.7-65.3c-27.9-7.5-56.4,8.6-64.7,36
	c-13.8-2.5-28.2-3.8-42.9-3.8s-29.1,1.4-42.9,3.8c-8.3-27.4-36.9-43.5-64.7-36c-28.4,7.6-45.3,36.9-37.7,65.3l0.1,0.3l4.1,15.3
	C77.9,193,59,228.3,59,267c0,82.4,85.5,149.2,191,149.2c105.5,0,191-66.8,191-149.2C441.1,228.3,422.2,193,391.2,166.5z"/>
<path class="st2" d="M250,424.2c-109.7,0-199-70.5-199-157.2c0-38.1,17.3-74.6,48.8-103.2l-2.8-10.5c-8.8-33,10.6-66.6,43.2-75.4
	c29.8-8,60.1,7.1,72,34.7c25-3.8,50.5-3.8,75.5,0c11.9-27.6,42.2-42.7,72-34.7c32.6,8.7,52.1,42.4,43.3,75l-2.9,10.8
	C431.7,192.4,449,228.9,449,267C449,353.7,359.8,424.2,250,424.2z M156.3,91.7c-3.9,0-7.9,0.5-11.9,1.6
	c-24.2,6.5-38.5,31.4-32.1,55.6l4.2,15.6c0.8,3-0.2,6.1-2.5,8.1c-30.3,26-47,59.5-47,94.5c0,77.9,82.1,141.3,183.1,141.3
	S433.1,344.9,433.1,267c0-34.9-16.7-68.5-47-94.5c-2.3-2-3.3-5.1-2.5-8.1l4.1-15.3c6.6-24.5-7.8-49.4-32-55.9
	c-23.7-6.3-47.9,7.1-55.1,30.6c-1.2,3.9-5,6.2-9,5.5c-27.4-4.9-55.7-4.9-83,0c-4,0.7-7.8-1.7-9-5.5
	C193.5,104.3,175.8,91.7,156.3,91.7z"/>
<circle class="st3" cx="166.1" cy="251.3" r="31.8"/>
<circle class="st3" cx="334" cy="251.3" r="31.8"/>
<path class="st4" d="M268.3,328h-36.6c-17.6,0-31.8-14.3-31.8-31.8v-24.8c0-13.2,10.7-23.9,23.9-23.9h52.5
	c13.2,0,23.9,10.7,23.9,23.9v24.8C300.2,313.7,285.9,328,268.3,328z M223.8,263.4c-4.4,0-8,3.6-8,8v24.8c0,8.8,7.1,15.9,15.9,15.9
	h36.6c8.8,0,15.9-7.1,15.9-15.9v-24.8c0-4.4-3.6-8-8-8H223.8z"/>
<path class="st4" d="M281,232.1c-3.2,0-6.2-1.9-7.4-5.1c-1.6-4.1,0.4-8.7,4.5-10.3l12.2-4.7c4.1-1.6,8.7,0.4,10.3,4.5
	c1.6,4.1-0.4,8.7-4.5,10.3l-12.2,4.7C282.9,231.9,282,232.1,281,232.1z"/>
<path class="st4" d="M224.4,232.1c-1,0-1.9-0.2-2.9-0.5l-12.2-4.7c-4.1-1.6-6.1-6.2-4.5-10.3c1.6-4.1,6.2-6.1,10.3-4.5l12.2,4.7
	c4.1,1.6,6.1,6.2,4.5,10.3C230.6,230.2,227.6,232.1,224.4,232.1z"/>
</svg>
