<?xml version="1.0" encoding="utf-8"?>
<!-- Generator: Adobe Illustrator 24.1.0, SVG Export Plug-In . SVG Version: 6.00 Build 0)  -->
<svg version="1.1" id="레이어_1" xmlns="http://www.w3.org/2000/svg" xmlns:xlink="http://www.w3.org/1999/xlink" x="0px"
	 y="0px" viewBox="0 0 500 500" style="enable-background:new 0 0 500 500;" xml:space="preserve">
<style type="text/css">
	.st0{fill:#FFFFFF;}
	.st1{fill:#FFFCF9;}
	.st2{fill:#EFEBEA;}
	.st3{opacity:0.8;fill:#FF7246;}
	.st4{fill:#313338;}
	.st5{fill:#FF7246;}
	.st6{fill:#7EB7FF;}
	.st7{fill:#FFFAF6;}
	.st8{fill:#FFF6EB;}
	.st9{fill:#F4EAE0;}
	.st10{fill:#E7E4E3;}
	.st11{fill:#F0E3D6;}
</style>
<path class="st1" d="M391.2,166.5l4.1-15.3l0.1-0.3c7.6-28.4-9.3-57.7-37.7-65.3c-27.9-7.5-56.4,8.6-64.7,36
	c-13.8-2.5-28.2-3.8-42.9-3.8s-29.1,1.4-42.9,3.8c-8.3-27.4-36.9-43.5-64.7-36c-28.4,7.6-45.3,36.9-37.7,65.3l0.1,0.3l4.1,15.3
	C77.8,193,58.9,228.3,58.9,267c0,82.4,85.5,149.2,191,149.2c105.5,0,191-66.8,191-149.2C441,228.3,422.1,193,391.2,166.5z"/>
<path class="st2" d="M250,424.2c-109.7,0-199-70.5-199-157.2c0-38.1,17.3-74.6,48.8-103.2L97,153.3c-8.8-33,10.6-66.6,43.2-75.4
	c29.8-8,60.1,7.1,72,34.7c25-3.8,50.5-3.8,75.5,0c11.9-27.6,42.2-42.7,72-34.7c32.6,8.7,52.1,42.4,43.3,75l-2.9,10.8
	C431.7,192.4,449,228.9,449,267C449,353.7,359.7,424.2,250,424.2z M156.2,91.7c-3.9,0-7.9,0.5-11.9,1.6
	c-24.2,6.5-38.5,31.4-32.1,55.6l4.2,15.6c0.8,3-0.2,6.1-2.5,8.1c-30.3,26-47,59.5-47,94.5c0,77.9,82.1,141.3,183.1,141.3
	S433,344.9,433,267c0-34.9-16.7-68.5-47-94.5c-2.3-2-3.3-5.1-2.5-8.1l4.1-15.3c6.6-24.5-7.8-49.4-32-55.9
	c-23.7-6.3-47.9,7.1-55.1,30.6c-1.2,3.9-5,6.2-9,5.5c-27.4-4.9-55.7-4.9-83,0c-4,0.7-7.8-1.7-9-5.5
	C193.5,104.3,175.7,91.7,156.2,91.7z"/>
<g>
	<circle class="st4" cx="216.1" cy="222.8" r="9.9"/>
	<circle class="st4" cx="283.8" cy="222.8" r="9.9"/>
</g>
<g>
	<path class="st6" d="M309.2,234c2.1,7,4.3,14,6.7,20.9c1.6,4.7,3.4,9.3,5.3,13.9c1.2,2.8,2.5,5.6,4,8.3c0.8,1.4,1.7,2.9,2.8,4.1
		c3.8,4.6,10.1,6.9,16.2,5.9c4-0.7,7.8-2.7,10.6-5.8c1.4-1.5,2.6-3.3,3.4-5.2c2.6-5.9,1.7-12.8-2-17.8c-3.4-4.6-7.9-8.3-12.7-11.3
		c-4.9-3.1-10.2-5.5-15.5-7.6c-4.3-1.6-8.7-3-13.1-4.2C312.9,234.8,311.1,234.3,309.2,234z"/>
	<path class="st6" d="M341.4,289.3c-5.7,0-11.2-2.5-14.9-6.9c-1.2-1.5-2.2-3.1-3-4.4c-1.3-2.4-2.6-5-4.1-8.5
		c-1.8-4.1-3.5-8.6-5.4-14c-2.2-6.3-4.4-13.2-6.7-21c-0.2-0.7,0-1.4,0.4-1.9c0.5-0.5,1.2-0.7,1.8-0.6c1.9,0.4,3.8,0.8,5.7,1.3
		c4.6,1.2,9.1,2.6,13.3,4.3c6.1,2.3,11.3,4.8,15.9,7.7c5.7,3.6,10.1,7.5,13.3,11.8c4.1,5.6,5,13.4,2.2,19.8
		c-0.9,2.1-2.2,4.1-3.8,5.8c-3.1,3.4-7.3,5.6-11.7,6.4C343.5,289.3,342.4,289.3,341.4,289.3z M312.1,236.6
		c1.9,6.4,3.8,12.2,5.7,17.6c1.9,5.4,3.6,9.7,5.3,13.8c1.5,3.4,2.7,5.9,3.9,8.1c0.7,1.2,1.5,2.6,2.5,3.8c3.4,4.1,9,6.1,14.3,5.3
		c3.6-0.6,6.9-2.4,9.4-5.1c1.3-1.4,2.3-2.9,3-4.7c2.2-5.2,1.5-11.4-1.8-15.9c-2.9-3.9-6.9-7.5-12.2-10.8c-4.4-2.7-9.4-5.2-15.2-7.4
		c-4.1-1.6-8.5-3-12.9-4.1C313.5,237,312.8,236.8,312.1,236.6z"/>
</g>
<g>
	<path class="st6" d="M190.7,235.3c-4.5,1.2-8.9,2.6-13.1,4.2c-5.4,2.1-10.7,4.5-15.5,7.6c-4.8,3-9.3,6.7-12.7,11.3
		c-3.7,5-4.5,11.9-2,17.8c0.8,1.9,2,3.7,3.4,5.2c2.8,3,6.6,5.1,10.6,5.8c6.1,1,12.3-1.3,16.2-5.9c1.1-1.3,1.9-2.7,2.8-4.1
		c1.5-2.7,2.8-5.5,4-8.3c2-4.5,3.7-9.2,5.3-13.9c2.4-6.9,4.6-13.9,6.7-20.9C194.4,234.3,192.5,234.8,190.7,235.3z"/>
	<path class="st6" d="M164.1,289.3c-1.1,0-2.1-0.1-3.2-0.3c-4.4-0.7-8.6-3-11.7-6.4c-1.6-1.7-2.8-3.7-3.8-5.8
		c-2.8-6.4-1.9-14.2,2.2-19.8c3.2-4.3,7.5-8.2,13.3-11.8c4.6-2.9,9.8-5.4,15.9-7.7c4.3-1.6,8.8-3.1,13.3-4.3l0,0
		c1.9-0.5,3.8-1,5.7-1.3c0.7-0.1,1.4,0.1,1.8,0.6c0.5,0.5,0.6,1.2,0.4,1.9c-2.3,7.9-4.5,14.8-6.7,21c-1.9,5.5-3.6,9.9-5.4,14
		c-1,2.4-2.4,5.5-4.1,8.5c-0.8,1.4-1.7,3-3,4.4C175.3,286.9,169.8,289.3,164.1,289.3z M193.4,236.6c-0.7,0.2-1.4,0.4-2.2,0.6
		c0,0,0,0,0,0c-4.5,1.2-8.8,2.6-12.9,4.1c-5.8,2.2-10.8,4.6-15.2,7.4c-5.3,3.3-9.3,6.8-12.2,10.8c-3.3,4.5-4,10.7-1.8,15.9
		c0.7,1.7,1.8,3.3,3,4.7c2.5,2.7,5.9,4.5,9.4,5.1c5.3,0.9,10.9-1.2,14.3-5.3c1-1.2,1.9-2.6,2.6-3.8c1.6-2.9,3-5.8,3.9-8.1
		c1.7-4,3.4-8.4,5.3-13.8C189.6,248.9,191.4,243.1,193.4,236.6z M190.7,235.3L190.7,235.3L190.7,235.3z"/>
</g>
<g>
	<path class="st7" d="M216.1,276.2l30.8-21.3c1.8-1.3,4.2-1.3,6.1,0l30.8,21.3"/>
	<path class="st4" d="M283.8,284.1c-1.6,0-3.1-0.5-4.5-1.4L250,262.5l-29.3,20.2c-3.6,2.5-8.6,1.6-11.1-2c-2.5-3.6-1.6-8.6,2-11.1
		l30.8-21.3c4.5-3.1,10.6-3.1,15.1,0l30.8,21.3c3.6,2.5,4.5,7.5,2,11.1C288.8,282.9,286.3,284.1,283.8,284.1z"/>
</g>
</svg>
