<?xml version="1.0" encoding="utf-8"?>
<!-- Generator: Adobe Illustrator 24.1.0, SVG Export Plug-In . SVG Version: 6.00 Build 0)  -->
<svg version="1.1" id="레이어_1" xmlns="http://www.w3.org/2000/svg" xmlns:xlink="http://www.w3.org/1999/xlink" x="0px"
	 y="0px" viewBox="0 0 500 500" style="enable-background:new 0 0 500 500;" xml:space="preserve">
<style type="text/css">
	.st0{fill:#FFFFFF;}
	.st1{fill:#FFFCF9;}
	.st2{fill:#EFEBEA;}
	.st3{opacity:0.8;fill:#FF7246;}
	.st4{fill:#313338;}
	.st5{fill:#FF7246;}
	.st6{fill:#7EB7FF;}
	.st7{fill:#FFFAF6;}
	.st8{fill:#FFF6EB;}
	.st9{fill:#F4EAE0;}
	.st10{fill:#E7E4E3;}
	.st11{fill:#F0E3D6;}
</style>
<path class="st1" d="M391.2,166.4l4.1-15.3l0.1-0.3c7.6-28.4-9.3-57.7-37.7-65.3c-27.9-7.5-56.4,8.6-64.7,36
	c-13.8-2.5-28.2-3.8-42.9-3.8c-14.8,0-29.1,1.4-42.9,3.8c-8.3-27.4-36.9-43.5-64.7-36c-28.4,7.6-45.3,36.9-37.7,65.3l0.1,0.3
	l4.1,15.3C77.9,192.9,59,228.2,59,266.9c0,82.4,85.5,149.2,191,149.2c105.5,0,191-66.8,191-149.2C441,228.2,422.2,192.9,391.2,166.4
	z"/>
<path class="st2" d="M250,424.1c-109.7,0-199-70.5-199-157.2c0-38.1,17.3-74.6,48.8-103.2L97,153.2c-8.8-33,10.6-66.6,43.2-75.4
	c29.8-8,60.1,7.1,72,34.7c25-3.8,50.5-3.8,75.5,0c11.9-27.6,42.2-42.7,72-34.7c32.6,8.7,52.1,42.4,43.3,75l-2.9,10.8
	c31.5,28.6,48.8,65.1,48.8,103.2C449,353.6,359.7,424.1,250,424.1z M156.3,91.6c-3.9,0-7.9,0.5-11.9,1.6
	c-24.2,6.5-38.5,31.4-32.1,55.6l4.2,15.6c0.8,3-0.2,6.1-2.5,8.1c-30.3,26-47,59.5-47,94.5c0,77.9,82.1,141.3,183.1,141.3
	s183.1-63.4,183.1-141.3c0-34.9-16.7-68.5-47-94.5c-2.3-2-3.3-5.1-2.5-8.1l4.1-15.3c6.6-24.5-7.8-49.4-32-55.9
	c-23.7-6.4-47.9,7.1-55.1,30.6c-1.2,3.9-5.1,6.2-9,5.5c-27.4-4.9-55.7-4.9-83,0c-4,0.7-7.8-1.7-9-5.5
	C193.5,104.2,175.7,91.6,156.3,91.6z"/>
<circle class="st3" cx="166.1" cy="251.2" r="31.8"/>
<circle class="st3" cx="333.9" cy="251.2" r="31.8"/>
<g>
	<circle class="st4" cx="216.2" cy="222.7" r="9.9"/>
	<circle class="st4" cx="283.8" cy="222.7" r="9.9"/>
</g>
<path class="st4" d="M227.1,276.3c0-4.4,3.6-8,8-8H265c4.4,0,8,3.6,8,8c0,4.4-3.6,8-8,8h-29.9C230.7,284.2,227.1,280.7,227.1,276.3z
	"/>
</svg>
