<?xml version="1.0" encoding="utf-8"?>
<!-- Generator: Adobe Illustrator 24.1.0, SVG Export Plug-In . SVG Version: 6.00 Build 0)  -->
<svg version="1.1" id="레이어_1" xmlns="http://www.w3.org/2000/svg" xmlns:xlink="http://www.w3.org/1999/xlink" x="0px"
	 y="0px" viewBox="0 0 500 500" style="enable-background:new 0 0 500 500;" xml:space="preserve">
<style type="text/css">
	.st0{fill:#FFFFFF;}
	.st1{fill:#FFFCF9;}
	.st2{fill:#EFEBEA;}
	.st3{opacity:0.8;fill:#FF7246;}
	.st4{fill:#313338;}
	.st5{fill:#FF7246;}
	.st6{fill:#7EB7FF;}
	.st7{fill:#FFFAF6;}
	.st8{fill:#FFF6EB;}
	.st9{fill:#F4EAE0;}
	.st10{fill:#E7E4E3;}
	.st11{fill:#F0E3D6;}
</style>
<path class="st1" d="M391.2,200l4.1-15.3l0.1-0.3c7.6-28.4-9.3-57.7-37.7-65.3c-27.9-7.5-56.4,8.6-64.7,36
	c-13.8-2.5-28.2-3.8-42.9-3.8s-29.1,1.4-42.9,3.8c-8.3-27.4-36.9-43.5-64.7-36c-28.4,7.6-45.3,36.9-37.7,65.3l0.1,0.3l4.1,15.3
	c-30.9,26.5-49.8,61.8-49.8,100.5c0,82.4,85.5,149.2,191,149.2c105.5,0,191-66.8,191-149.2C441,261.8,422.1,226.5,391.2,200z"/>
<path class="st2" d="M250,457.7c-109.7,0-199-70.5-199-157.2c0-38.1,17.3-74.6,48.8-103.2L97,186.8c-8.8-33,10.6-66.6,43.2-75.4
	c29.8-8,60.1,7.1,72,34.7c25-3.8,50.5-3.8,75.5,0c11.9-27.6,42.2-42.7,72-34.7c15.8,4.2,29,14.4,37.2,28.5
	c8.2,14.2,10.4,30.7,6.1,46.5l-2.9,10.8c31.5,28.6,48.8,65.1,48.8,103.2C449,387.2,359.7,457.7,250,457.7z M156.2,125.2
	c-3.9,0-7.9,0.5-11.9,1.6c-24.2,6.5-38.5,31.4-32.1,55.6l4.2,15.6c0.8,3-0.2,6.1-2.5,8.1c-30.3,26-47,59.5-47,94.5
	c0,77.9,82.1,141.3,183.1,141.3S433,378.4,433,300.5c0-34.9-16.7-68.5-47-94.5c-2.3-2-3.3-5.1-2.5-8.1l4.1-15.3
	c6.6-24.5-7.8-49.4-32-55.9c-23.7-6.4-47.9,7.1-55.1,30.6c-1.2,3.9-5.1,6.2-9,5.5c-27.4-4.9-55.7-4.9-83.1,0c-4,0.7-7.8-1.7-9-5.5
	C193.5,137.8,175.7,125.2,156.2,125.2z"/>
<circle class="st3" cx="166" cy="284.7" r="31.8"/>
<circle class="st3" cx="333.9" cy="284.7" r="31.8"/>
<path class="st4" d="M248.4,317.7c-33.7,0-55.6-16.2-56.9-17.3c-3.5-2.7-4.2-7.7-1.5-11.2c2.7-3.5,7.6-4.2,11.1-1.5
	c1.8,1.3,42.8,31.1,98.7-0.6c3.8-2.2,8.7-0.8,10.8,3c2.2,3.8,0.8,8.7-3,10.8C285.6,313.5,265.5,317.7,248.4,317.7z"/>
<g>
	<circle class="st4" cx="216.1" cy="256.3" r="9.9"/>
	<circle class="st4" cx="283.8" cy="256.3" r="9.9"/>
</g>
<path class="st5" d="M293.7,67.4c0-13.9-10.4-25.3-23.3-25.3c-8.8,0-16.5,5.3-20.4,13c-4-7.8-11.6-13-20.4-13
	c-12.9,0-23.3,11.3-23.3,25.3c0,1.3,0.1,2.7,0.3,3.9c0.5,7,6.1,24.8,43.5,52c37.3-27.2,43-45,43.5-52
	C293.7,70.1,293.7,68.8,293.7,67.4z"/>
</svg>
