<?xml version="1.0" encoding="utf-8"?>
<!-- Generator: Adobe Illustrator 24.1.0, SVG Export Plug-In . SVG Version: 6.00 Build 0)  -->
<svg version="1.1" id="레이어_1" xmlns="http://www.w3.org/2000/svg" xmlns:xlink="http://www.w3.org/1999/xlink" x="0px"
	 y="0px" viewBox="0 0 500 500" style="enable-background:new 0 0 500 500;" xml:space="preserve">
<style type="text/css">
	.st0{fill:#FFFFFF;}
	.st1{fill:#FFFCF9;}
	.st2{fill:#EFEBEA;}
	.st3{opacity:0.8;fill:#FF7246;}
	.st4{fill:#313338;}
	.st5{fill:#FF7246;}
	.st6{fill:#7EB7FF;}
	.st7{fill:#FFFAF6;}
	.st8{fill:#FFF6EB;}
	.st9{fill:#F4EAE0;}
	.st10{fill:#E7E4E3;}
	.st11{fill:#F0E3D6;}
</style>
<path class="st8" d="M382.6,206.8c6.5-15.9,10.8-35.9,12.1-59.5c3.8-68-20.8-108.7-53.7-110.4C308.1,35.1,279.2,73,275.5,141
	c-0.5,8.9-0.5,17.3-0.1,25.3c-8.3-0.9-16.8-1.4-25.4-1.4c-8.6,0-17.1,0.5-25.4,1.4c0.4-7.9,0.4-16.4-0.1-25.3
	C220.8,73,191.9,35.1,159,36.9c-32.9,1.7-57.5,42.4-53.7,110.4c1.3,23.6,5.6,43.6,12.1,59.5C81.4,233.9,59,272,59,314.2
	c0,82.4,85.5,149.2,191,149.2c105.5,0,191-66.8,191-149.2C441,272,418.6,233.9,382.6,206.8z"/>
<path class="st9" d="M250,471.4c-109.7,0-199-70.5-199-157.2c0-41.6,20.1-80.5,56.9-110c-5.8-16.3-9.3-35.2-10.5-56.4
	c-2.4-44.1,6.5-79.9,25.2-100.7c10-11.2,22.5-17.4,36-18.1c33.6-1.8,69.5,32.1,73.9,111.7c0.3,5.7,0.4,11.4,0.4,17
	c11.6-0.8,22.7-0.8,34.3,0c-0.1-5.6,0-11.2,0.4-17c4.4-79.6,40.3-113.4,73.9-111.7c13.6,0.7,26,7,36,18.1
	c18.7,20.8,27.6,56.6,25.2,100.7c-1.2,21.2-4.7,40.1-10.5,56.4c36.7,29.5,56.9,68.4,56.9,110C449,400.8,359.7,471.4,250,471.4z
	 M161.2,44.8c-0.6,0-1.2,0-1.8,0c-9.4,0.5-17.8,4.8-25,12.9c-15.6,17.4-23.3,49.9-21.1,89.2c1.2,21.9,5.1,41.1,11.5,57
	c1.4,3.3,0.3,7.2-2.6,9.3c-35.6,26.9-55.3,62.7-55.3,101c0,77.9,82.1,141.3,183.1,141.3s183.1-63.4,183.1-141.3
	c0-38.3-19.6-74.1-55.3-101c-2.9-2.2-3.9-6-2.6-9.3c6.4-15.9,10.3-35,11.5-57c2.2-39.3-5.5-71.8-21.1-89.2
	c-7.2-8.1-15.6-12.4-25-12.9c-30.4-1.5-53.9,38.1-57.2,96.6c-0.5,8.4-0.5,16.6-0.1,24.4c0.1,2.3-0.8,4.6-2.5,6.2
	c-1.7,1.6-4,2.4-6.3,2.2c-16.8-1.7-32.4-1.7-49.2,0c-2.3,0.2-4.6-0.5-6.3-2.2c-1.7-1.6-2.6-3.9-2.5-6.2c0.4-7.8,0.4-16-0.1-24.4
	C213.4,84.1,190.7,44.8,161.2,44.8z"/>
<circle class="st3" cx="166.1" cy="295.4" r="31.8"/>
<circle class="st3" cx="333.9" cy="296.4" r="31.8"/>
<g>
	<g>
		<circle class="st4" cx="216.2" cy="267.3" r="9.9"/>
		<circle class="st4" cx="283.8" cy="267.7" r="9.9"/>
	</g>
	<g>
		<path class="st4" d="M221.4,321.3c-18.8,0-31.1-9-31.9-9.6c-3.5-2.6-4.2-7.6-1.6-11.1c2.6-3.5,7.6-4.2,11.1-1.6
			c0.9,0.7,20.4,14.4,47.1-0.6c3.8-2.2,8.7-0.8,10.8,3c2.2,3.8,0.8,8.7-3,10.8C241.9,319,230.8,321.3,221.4,321.3z"/>
		<path class="st4" d="M277.1,321.3c-18.8,0-31.1-9-31.9-9.6c-3.5-2.6-4.2-7.6-1.6-11.1c2.6-3.5,7.6-4.2,11.1-1.6
			c0.9,0.7,20.4,14.4,47.1-0.6c3.8-2.2,8.7-0.8,10.8,3c2.2,3.8,0.8,8.7-3,10.8C297.6,319,286.5,321.3,277.1,321.3z"/>
	</g>
</g>
</svg>
