<?xml version="1.0" encoding="utf-8"?>
<!-- Generator: Adobe Illustrator 24.1.0, SVG Export Plug-In . SVG Version: 6.00 Build 0)  -->
<svg version="1.1" id="레이어_1" xmlns="http://www.w3.org/2000/svg" xmlns:xlink="http://www.w3.org/1999/xlink" x="0px"
	 y="0px" viewBox="0 0 500 500" style="enable-background:new 0 0 500 500;" xml:space="preserve">
<style type="text/css">
	.st0{fill:#FFFFFF;}
	.st1{opacity:0.8;fill:#FF723D;}
	.st2{fill:#313338;}
	.st3{fill:#F9F3EA;}
	.st4{fill:#FFFBF7;}
	.st5{fill:#FF723D;}
	.st6{fill:#80B9FF;}
</style>
<g>
	<path class="st0" d="M406.5,157.4l4.5-16.9l0.1-0.4c8.4-31.5-10.3-63.9-41.8-72.4c-30.9-8.3-62.5,9.5-71.8,39.9
		c-15.3-2.7-31.2-4.2-47.6-4.2s-32.3,1.5-47.6,4.2c-9.2-30.4-40.9-48.2-71.8-39.9c-31.5,8.4-50.2,40.9-41.8,72.4l0.1,0.4l4.5,16.9
		c-34.3,29.4-55.2,68.5-55.2,111.4c0,91.4,94.8,165.5,211.8,165.5c117,0,211.8-74.1,211.8-165.5
		C461.8,225.9,440.9,186.8,406.5,157.4z"/>
	<path class="st0" d="M250,443.1c-121.6,0-220.6-78.2-220.6-174.3c0-42.3,19.2-82.7,54.1-114.4l-3.1-11.6
		c-9.8-36.6,11.8-73.9,47.9-83.6c33-8.9,66.6,7.9,79.8,38.5c27.7-4.2,56-4.2,83.7,0c13.2-30.6,46.8-47.4,79.8-38.5
		c17.5,4.7,32.2,15.9,41.2,31.7c9.1,15.7,11.5,34,6.8,51.5l-3.2,12c35,31.7,54.1,72.1,54.1,114.4C470.6,365,371.6,443.1,250,443.1z
		 M146.1,74.5c-4.3,0-8.8,0.6-13.2,1.7c-26.8,7.2-42.7,34.8-35.6,61.6l4.6,17.3c0.9,3.3-0.2,6.8-2.8,9C65.6,192.9,47,230.1,47,268.9
		c0,86.4,91,156.6,203,156.6s203-70.3,203-156.6c0-38.7-18.5-75.9-52.2-104.7c-2.6-2.2-3.7-5.7-2.8-9l4.5-16.9
		c7.3-27.2-8.7-54.8-35.5-62c-26.3-7-53.1,7.9-61.1,33.9c-1.3,4.3-5.6,6.9-10,6.1c-30.4-5.4-61.7-5.4-92.1,0
		c-4.4,0.8-8.7-1.8-10-6.1C187.4,88.5,167.7,74.5,146.1,74.5z"/>
</g>
<circle class="st1" cx="156.9" cy="251.4" r="35.3"/>
<circle class="st1" cx="343.1" cy="251.4" r="35.3"/>
<path class="st2" d="M248.2,288c-37.3,0-61.6-18-63.1-19.1c-3.9-2.9-4.6-8.5-1.7-12.4c2.9-3.9,8.5-4.6,12.3-1.7
	c2,1.5,47.4,34.5,109.5-0.6c4.2-2.4,9.6-0.9,12,3.3c2.4,4.2,0.9,9.6-3.3,12C289.5,283.3,267.2,288,248.2,288z"/>
<g>
	<circle class="st2" cx="212.5" cy="219.9" r="11"/>
	<circle class="st2" cx="287.5" cy="219.9" r="11"/>
</g>
</svg>
