<?xml version="1.0" encoding="utf-8"?>
<!-- Generator: Adobe Illustrator 24.1.0, SVG Export Plug-In . SVG Version: 6.00 Build 0)  -->
<svg version="1.1" id="레이어_1" xmlns="http://www.w3.org/2000/svg" xmlns:xlink="http://www.w3.org/1999/xlink" x="0px"
	 y="0px" viewBox="0 0 500 500" style="enable-background:new 0 0 500 500;" xml:space="preserve">
<style type="text/css">
	.st0{fill:#FFFFFF;}
	.st1{opacity:0.8;fill:#FF723D;}
	.st2{fill:#313338;}
	.st3{fill:#F9F3EA;}
	.st4{fill:#FFFBF7;}
	.st5{fill:#FF723D;}
	.st6{fill:#80B9FF;}
</style>
<g>
	<path class="st3" d="M396.6,201c7-16.4,12.1-36.6,14.6-60.2c8.1-75.1-16.7-121.7-53-125.7c-36.3-4-70.5,36.1-78.6,111.2
		c-1.1,10.6-1.6,20.5-1.5,29.9c-8.9-0.9-18-1.5-27.3-1.6c-9.1-0.1-18.1,0.4-27,1.2c0.2-9.4-0.2-19.3-1.3-29.9
		C214.9,50.8,181,10.4,144.6,14S83.2,63.9,90.9,139.1c2.4,23.5,7.4,43.6,14.2,60C64.2,229,38.5,271.5,38.2,318.9
		c-0.5,91.4,93.9,166,210.9,166.6c117,0.6,212.2-72.9,212.7-164.3C462,274,437,231.4,396.6,201z"/>
	<path class="st3" d="M250.6,494.3c-0.5,0-1.1,0-1.6,0c-58.5-0.3-113.5-18.5-154.9-51.2c-42-33.2-65-77.3-64.7-124.3
		c0.3-46.7,23.3-90.1,65.1-122.7c-6-16.4-10.2-35.3-12.3-56.1c-5-48.7,3.1-88.8,22.7-112.8c10.5-12.9,24-20.5,39-22
		c37.1-3.7,78.6,31.9,87.6,119.8c0.7,7.1,1.2,14.2,1.3,21.3c6.2-0.4,12.3-0.6,18.2-0.5c6,0,12.2,0.3,18.5,0.7
		c0.2-7,0.7-14.1,1.4-21.2c5.2-48.7,21.4-86.2,45.6-105.6c13-10.4,27.7-15,42.7-13.4c37.1,4.1,70.3,47.6,60.8,135.4
		c-2.3,21-6.5,39.9-12.7,56.4c41.2,33.1,63.6,76.6,63.3,123.1c-0.3,47-23.7,90.9-66.1,123.6C363.2,476.8,308.6,494.3,250.6,494.3z
		 M149.2,22.6c-1.2,0-2.4,0.1-3.7,0.2c-10.4,1-19.5,6.3-27,15.6c-16.4,20.1-23.2,56.5-18.8,99.8c2.2,21.9,6.8,41.3,13.6,57.6
		c1.6,3.8,0.3,8.1-2.9,10.5c-40.6,29.7-63,69.7-63.3,112.7c-0.2,41.4,20.4,80.6,58,110.4c38.3,30.3,89.5,47.1,144.1,47.4
		c54.5,0.4,106-16,144.6-45.8c38-29.3,59-68.3,59.2-109.7c0.2-42.9-21.7-83-61.7-113.1c-3.2-2.4-4.4-6.8-2.8-10.5
		c6.9-16.3,11.6-35.7,14-57.7c7-64.6-11.6-112.3-45.2-116c-10.3-1.1-20.3,2.1-29.7,9.6c-20.2,16.2-34.5,50.4-39.1,93.7
		c-1,9.6-1.5,19.3-1.4,28.8c0,2.5-1,4.9-2.9,6.6c-1.9,1.7-4.4,2.5-6.9,2.2c-9-1-17.9-1.5-26.4-1.5c-8.4-0.1-17.2,0.4-26.1,1.2
		c-2.5,0.2-5-0.6-6.8-2.3c-1.8-1.7-2.9-4.1-2.8-6.6c0.2-9.5-0.3-19.2-1.3-28.8C207.5,64.6,181.2,22.6,149.2,22.6z"/>
</g>
<g>
	<circle class="st1" cx="156.9" cy="300.5" r="35.3"/>
	<circle class="st1" cx="343.1" cy="301.5" r="35.3"/>
</g>
<g>
	<path class="st2" d="M277.1,283c-3.9,0-7.5-2.6-8.5-6.6c-1.2-4.7,1.6-9.5,6.3-10.7l35.3-9.1c4.7-1.2,9.5,1.6,10.7,6.3
		c1.2,4.7-1.6,9.5-6.3,10.7l-35.3,9.1C278.6,282.9,277.8,283,277.1,283z"/>
	<path class="st2" d="M222.9,283c-0.7,0-1.5-0.1-2.2-0.3l-35.3-9.1c-4.7-1.2-7.6-6-6.3-10.7c1.2-4.7,6-7.6,10.7-6.3l35.3,9.1
		c4.7,1.2,7.6,6,6.3,10.7C230.4,280.3,226.8,283,222.9,283z"/>
</g>
<path class="st2" d="M203.2,338c-3.1,0-6.2-1.7-7.8-4.6c-2.3-4.3-0.7-9.6,3.6-12c57.8-31.3,101.1-0.7,102.9,0.6
	c3.9,2.9,4.8,8.4,2,12.3c-2.9,3.9-8.4,4.8-12.3,2c-1.5-1.1-36.5-25.2-84.2,0.6C206.1,337.7,204.6,338,203.2,338z"/>
</svg>
