<?xml version="1.0" encoding="utf-8"?>
<!-- Generator: Adobe Illustrator 24.1.0, SVG Export Plug-In . SVG Version: 6.00 Build 0)  -->
<svg version="1.1" id="레이어_1" xmlns="http://www.w3.org/2000/svg" xmlns:xlink="http://www.w3.org/1999/xlink" x="0px"
	 y="0px" viewBox="0 0 500 500" style="enable-background:new 0 0 500 500;" xml:space="preserve">
<style type="text/css">
	.st0{fill:#F05A4B;}
	.st1{fill:#FCE061;}
	.st2{fill:#92C2FD;}
	.st3{fill:#98D882;}
	.st4{fill:#D3A1DE;}
	.st5{fill:#6E5850;}
	.st6{fill:#FCC057;}
	.st7{fill:#FF6045;}
	.st8{fill:#FFE771;}
	.st9{fill:#93CFEA;}
	.st10{fill:#6EC695;}
	.st11{fill:#E1B7EA;}
	.st12{fill:#FFA074;}
	.st13{fill:#FFCE0E;}
	.st14{fill:#B1E659;}
	.st15{fill:#6DA1BC;}
	.st16{fill:#8B649E;}
	.st17{fill:#FF9C28;}
	.st18{fill:#63BC9B;}
	.st19{fill:#E36C6B;}
	.st20{fill:#FFD974;}
	.st21{fill:#FA93AB;}
	.st22{fill:#60A7DE;}
	.st23{fill:#D393E3;}
	.st24{fill:#CFD5D7;}
	.st25{fill:#FFFFFF;}
	.st26{fill:#FFB901;}
	.st27{fill:#FFF2DF;}
	.st28{fill:none;}
	.st29{fill:#F8F2D7;}
	.st30{fill:#FFD06B;}
	.st31{fill:#EA3C23;}
	.st32{fill:#8A1F1C;}
	.st33{fill:#ECEDEE;}
	.st34{fill:#F9DE5F;}
	.st35{fill:#FFE986;}
	.st36{clip-path:url(#SVGID_2_);fill:#FFE986;}
	.st37{fill:#C7CACB;}
	.st38{fill:#FDACC0;}
	.st39{fill:#FFCEDC;}
	.st40{fill:#711A18;}
	.st41{fill:#FFCA33;}
	.st42{fill:#FF6134;}
	.st43{fill:#FF6A89;}
	.st44{fill:#FD8E9E;}
	.st45{clip-path:url(#SVGID_4_);fill:#FF6E57;}
	.st46{fill:#D2E5FF;}
	.st47{clip-path:url(#SVGID_6_);fill:#FFE986;}
	.st48{clip-path:url(#SVGID_8_);fill:#FF6E57;}
</style>
<g>
	<g>
		<path class="st7" d="M131.5,161.6c-0.1,10.1-0.3,20.3-0.4,30.4c-9.3,0.3-18.7-0.1-27.9-1c0.5-9.4,1-18.8,1.5-28.1
			c0.5-8.9-13.3-8.8-13.8,0c-1.4,25-2.5,49.9-4.7,74.9c-0.3,3.7,3.4,6.9,6.9,6.9c4,0,6.6-3.2,6.9-6.9c1-11,1.7-22,2.4-33
			c9.5,1,19,1.3,28.6,1.1c-0.1,10.3-0.3,20.7-0.4,31c-0.1,8.9,13.7,8.9,13.8,0c0.3-25.1,0.7-50.1,1-75.2
			C145.4,152.8,131.6,152.8,131.5,161.6z"/>
		<path class="st7" d="M128.4,161.6c-0.1,4.6,2.3,20.8-0.3,24.3c-2.4,3.2-15.8,5.7-19.4,2.5c-7.4-6.7,2.9-21.7-1.8-30
			c-5.1-9.2-16.6-5.1-19,3.6c-3.6,13.4-1.7,30.6-2.5,44.5c-0.5,8.9-6.2,28.3-1,36.2c7.9,12.1,17.6,0.9,18.9-8.3
			c0.7-4.7-1.2-19.8,1.7-23.1c2.6-3,16.6-5.2,20.2-2.4c8.4,6.8-2,23.5,3.2,32.3c5.3,9,16.7,5.4,18.9-3.6c3.2-13.4,0.5-30.9,0.7-44.7
			c0.1-9.1,4.2-27.6-0.6-35.8c-5.2-8.8-16.9-5.5-18.9,3.6c-0.8,3.9,5.1,5.5,5.9,1.6c6.9,1.7,9.4,5.6,7.6,11.7
			c-0.1,4.2-0.1,8.4-0.2,12.5c-0.1,8.4-0.2,16.7-0.3,25.1c-0.1,3.9,3.3,27.3-7.9,18.9c-2-1.5,0.3-21.7,0.3-24.8
			c0-1.6-1.4-3.1-3.1-3.1c-9.6,0.1-19-0.2-28.6-1.1c-1.7-0.2-3,1.5-3.1,3.1c-0.3,4.7,0.7,34.6-9.5,26.8c-2.1-1.6,1.9-27.2,2.1-31.2
			c0.4-7.6-1.8-21.6,1.5-28.1c-0.8-4.6,1.8-5.8,7.9-3.7c-0.1,1.9-0.2,3.8-0.3,5.6c1.4,4.5-0.7,12.3-0.9,16.9
			c-0.1,1.8,1.5,2.9,3.1,3.1c9.3,0.8,18.6,1.1,27.9,1c1.7,0,3-1.4,3.1-3.1c0.1-10.1,0.3-20.3,0.4-30.4
			C134.6,157.7,128.5,157.7,128.4,161.6z"/>
	</g>
	<g>
		<path class="st8" d="M219.8,221.5c-2.5-6.6-4.9-13.2-7.1-19.9c-0.1-0.7-0.4-1.3-0.7-2c-4.7-14.2-9-28.5-13.5-42.8
			c-0.8-2.6-3.6-5.4-6.7-5.1c-2,0.2-4,0.5-6,0.7c-2.8,0.3-6.1,1.9-6.7,5.1c-4,24.7-8,49.3-11.9,74c-0.6,3.7,1,7.4,4.8,8.5
			c3.3,0.9,7.9-1.1,8.5-4.8c1.3-8.2,2.6-16.3,4-24.5c5.5-0.1,11-0.4,16.5-0.8c2.2,6.5,4.6,12.9,7.1,19.3c2.9,7.2,12.9,6.2,13.6-1.8
			c0-0.4,0.1-0.8,0.1-1.2C221.8,224.4,221,222.8,219.8,221.5z M183,196.9c2-12.1,3.9-24.2,5.9-36.3c3.7,11.8,7.4,23.6,11.2,35.4
			C194.4,196.4,188.7,196.7,183,196.9z"/>
		<g>
			<path class="st8" d="M222.7,220.7c-6.9-18.2-12.6-36.8-18.5-55.4c-3.2-10.2-6.2-19.8-19.3-15.7c-14,4.4-11.7,25.5-13.7,37.5
				c-1.8,11.2-3.6,22.4-5.4,33.6c-0.7,4.3-3.3,11.5-1.2,16.1c2.9,6.2,9.9,8.7,15.6,4.3c4.1-3.2,3.9-9.6,4.6-14.1
				c1.9-11.8,8.9-19.2,16.5-6.4c3.8,6.3,4.4,18.4,15,16.6C224.9,235.5,225.3,227.1,222.7,220.7c-1.5-3.6-7.4-2-5.9,1.6
				c-5.7,2.3-8.9,1.2-9.5-3.5c-1.2-3.2-2.4-6.4-3.5-9.7c-0.4-1.2-1.6-2.3-3-2.3c-5.5,0.4-11,0.7-16.5,0.8c-1.2,0-2.7,0.9-3,2.3
				c-0.2,1.5-1.3,17.7-3,18.4c-11.5,4.6-5.8-12-5.1-16.1c2-12.3,1.5-32.8,7.1-43.7c0.1-7.6,5.8-9.1,17-4.7c1,3.1,1.9,6.1,2.9,9.2
				c1.9,6.1,3.8,12.2,5.8,18.3c3.4,10.4,6.9,20.7,10.8,31C218.2,226,224.1,224.4,222.7,220.7z"/>
			<path class="st8" d="M186,197.7c2-12.1,3.9-24.2,5.9-36.3c-2,0-3.9,0-5.9,0c3.7,11.8,7.4,23.6,11.2,35.4c1-1.3,2-2.6,3-3.9
				c-5.7,0.4-11.3,0.7-17,0.9c-3.9,0.1-4,6.3,0,6.1c5.7-0.2,11.4-0.5,17-0.9c1.9-0.1,3.6-1.9,3-3.9c-3.8-11.8-7.5-23.6-11.2-35.4
				c-0.8-2.7-5.4-3.2-5.9,0c-2,12.1-3.9,24.2-5.9,36.3C179.4,200,185.3,201.6,186,197.7z"/>
		</g>
	</g>
	<g>
		<path class="st9" d="M281,166.1c-4.3-14-20.8-23.1-34.8-18c-2.9,1-5.1,3.5-5.1,6.7c0.3,24.9,1.8,49.7,4.4,74.4
			c0.4,3.7,2.9,6.9,6.9,6.9c3.4,0,7.3-3.2,6.9-6.9c-0.9-8.2-1.6-16.4-2.2-24.6c7.5-2.8,14.6-6.1,19.3-12.8
			C281.6,184.5,283.6,174.7,281,166.1z M264.9,184.3c-2.1,2.9-5.4,4.6-8.7,6c-0.6-9.9-0.9-19.7-1.1-29.6c5.5,0.2,10.7,3.7,12.6,9.2
			C269.3,174.6,267.9,180.2,264.9,184.3z"/>
		<g>
			<path class="st9" d="M284,165.3c-5.6-13.8-25.9-30.1-41.1-18.6c-8.9,6.7-4.5,22.3-4.1,31.8c0.4,10.2,1,20.3,1.9,30.4
				c0.6,6.9-0.2,16.4,2.5,22.8c1.9,4.4,4.8,7.7,10.1,7.3c9.2-0.7,8.9-9.2,8.5-16c-0.4-7.9-2.6-13.4,3.5-18.6
				c3.9-3.4,8.2-4.6,11.8-8.7C284.6,187.1,286.1,176.2,284,165.3c-0.8-3.9-6.7-2.2-5.9,1.6c3.5,17.9-6.5,28.6-21.7,34.7
				c-1.2,0.5-2.4,1.5-2.3,3c0.3,3.8,1.5,8.6,1,12.3c-0.5,3.3-0.5,11.3-7.2,5.5c-3.2-2.8-2.1-26.5-2.4-30.4
				c-0.5-8.1-2.9-19.1-1.1-27.1c-0.9-4,0.8-7.1,5.2-9.3c2.2-6,5.8-7.5,10.7-4.5c8.5,1.2,14.6,8,17.8,15.8
				C279.5,170.6,285.4,169,284,165.3z"/>
			<path class="st9" d="M262.7,182.1c-2.3,2.7-4.9,4.1-8.1,5.5c1.5,0.9,3.1,1.8,4.6,2.7c-0.5-9.9-0.9-19.7-1.1-29.6
				c-1,1-2,2-3.1,3.1c10.4,1.1,12.2,11.4,7.2,19c-2.2,3.3,3.1,6.4,5.3,3.1c8-11.9,2.2-26.7-12.5-28.2c-1.6-0.2-3.1,1.5-3.1,3.1
				c0.2,9.9,0.6,19.7,1.1,29.6c0.1,2.5,2.5,3.6,4.6,2.7c3.7-1.6,6.7-3.4,9.3-6.4C269.6,183.5,265.3,179.1,262.7,182.1z"/>
		</g>
	</g>
	<g>
		<path class="st10" d="M340.1,160.4c-6.4-6.4-15.2-9.9-24.1-10.3c-2-0.1-4.1,0.1-5.9,1.2c-3.7,2.3-3.6,6.6-3.9,10.5
			c-0.7,6.9-1.3,13.8-1.9,20.6c-1.4,15.9-2.6,31.8-3.5,47.8c-0.5,8.9,13.2,8.8,13.8,0c0.6-9.3,1.3-18.5,2-27.8
			c9.7,0.7,19.5-3.4,25.3-11.5C348.7,181.4,348.5,168.7,340.1,160.4z M328.2,185.6c-3.1,2.4-6.8,3.3-10.6,3c0.7-8,1.4-16.1,2.2-24.1
			c1.2,0.2,2.5,0.5,3.6,1c3.4,1.4,8.3,4.5,9.4,8.1C334.1,177.8,331.5,183,328.2,185.6z"/>
		<g>
			<path class="st10" d="M342.3,158.2c-13-11.3-36.2-19-39.2,3.5c-2.3,17.7-3.2,35.7-4.5,53.5c-0.5,7.2-4.3,20.3,4.9,24
				c4.8,1.9,10.2-0.4,12.9-4.6c2.6-4.2,1.6-11,1.9-15.6c0.8-10.8-0.1-11.3,8.6-14.5C347.1,197,357.1,176.1,342.3,158.2
				c-2.5-3-6.8,1.3-4.3,4.3c14.3,17.3-2.5,36.6-21.4,36.8c-1.8,0-2.9,1.4-3.1,3.1c-0.3,4.5,0.4,30.4-9.3,21.8
				c-2.4-2.1,1.8-25.7,2.2-29.9c0.7-8.3,1.4-16.6,2.2-24.8c0.4-4.7,1.7-14.5,7.5-16.3c6.7-2.2,17.7,5.7,21.9,9.4
				C340.9,165.2,345.3,160.8,342.3,158.2z"/>
			<path class="st10" d="M326.6,183c-2.9,2-5.5,2.7-9,2.5c1,1,2,2,3.1,3.1c0.7-8,1.4-16.1,2.2-24.1c-1.3,1-2.6,2-3.9,3
				c3.4,0.7,6.9,2.2,9.3,4.8c3.4,3.7,1,8.3-2.3,11.2c-3,2.6,1.4,7,4.3,4.3c4.4-3.9,7.6-10.6,4.8-16.4c-2.6-5.3-9-8.7-14.5-9.8
				c-2.1-0.4-3.7,0.9-3.9,3c-0.8,8-1.5,16.1-2.2,24.1c-0.1,1.7,1.5,3,3.1,3.1c4.5,0.2,8.4-0.8,12.1-3.4
				C332.9,186,329.9,180.7,326.6,183z"/>
		</g>
	</g>
	<g>
		<path class="st11" d="M414,156.4c-3.4-2-7.3-0.6-9.4,2.5c-4.5,6.5-9.7,12.5-15.4,18.1c-2.6,2.5-5.3,4.7-7.8,7.1
			c-0.3-0.6-0.6-1.2-0.9-1.9c-0.1-0.3-0.3-0.6-0.4-0.9c-0.3-0.7-0.5-1.3-0.8-2c-0.5-1.4-1-2.8-1.5-4.2c-1.8-5.4-3.4-10.8-5.3-16.2
			c-1.2-3.4-4.8-6-8.5-4.8c-3.3,1.1-6.1,4.8-4.8,8.5c4.1,11.6,6.8,23.9,13.6,34.3c0.4,0.6,0.9,1.1,1.4,1.6
			c-1.1,6.5-1.8,13.2-2.7,19.8c-1.2,8.5-2.6,17.1-3.4,25.7c-0.4,3.7,3.4,6.9,6.9,6.9c4,0,6.5-3.2,6.9-6.9c0.7-7.6,1.9-15.1,3-22.7
			c1.1-7.5,1.8-15.1,3.2-22.5c0.7-3.4,2.6-4.4,5.1-6.7c2.8-2.5,5.6-5,8.2-7.7c5.5-5.7,10.5-11.9,15-18.4
			C418.6,162.8,417,158.2,414,156.4z"/>
		<path class="st11" d="M414,153.4c-6.4-0.8-7-0.6-11.8,3.7c-1,0.9-18.7,23.7-19,23.6c-6.8-1.8-3.8-25.3-13.9-28.9
			c-10.7-3.8-13.4,6.8-12,14.6c1.7,9.2,6.4,18.1,9.8,26.8c4.2,10.6,2.9,14.3,1,27.5c-1.2,8.7-7.9,26,2,31.9
			c7.5,4.5,12.3-1.7,14.8-7.8c2.8-6.8,2.7-20.9,3.9-29.1c2.6-18.8,11.9-24.7,22.8-38c6.3-7.7,12.8-14.8,4.7-23.3
			c-2.7-2.9-7.1,1.5-4.3,4.3c3.3,3.4-8,18.6-10.5,21.3c-3.2,3.5-7,6.5-10.2,9.9c-3.6,3.8-5,5.5-6.4,10.8c-2.3,8.7-2.6,18.4-3.9,27.3
			c-0.8,6,0.8,7.8-5.1,8.9c-7.6,1.5-2.1-12.5-1.3-17.8c0.8-5.7,4-16.6,2.8-21c-1.7-6.3-7-12.4-9.3-18.7c-1.9-5.1-6.1-11.1-0.2-13
			c6-1.9,5.2,4.2,7.1,9.5c1.2,3.3,2.4,6.6,4,9.7c0.9,1.9,3.5,1.9,4.8,0.6c5.5-4.9,22.2-27.8,30.4-26.7
			C417.9,160,417.8,153.9,414,153.4z"/>
	</g>
	<g>
		<path class="st12" d="M54.3,301.5c-1.6-1.7-3.4-3.1-5.4-4.3c0.1-0.2,0.3-0.3,0.4-0.5c3.6-5.1,4.9-11.9,2.1-17.6
			c-2.6-5.2-7.9-8.4-13.6-9.3c-5.5-0.9-15.2-1.1-18.3,4.5c-1.7,3-1.1,6.5-0.9,9.8c0.2,3.3,0.4,6.7,0.6,10c0.4,6.7,0.7,13.3,1.1,20
			c0.4,6.6,0.6,13.2,0.9,19.7c0.3,5.2,0.6,10.9,2.2,15.9c0.1,0.9,0.4,1.8,1,2.6c0.5,1.1,1.4,1.9,2.4,2.5c6.6,5,16.7,0.6,22.7-4.1
			c7.4-5.9,12-14.2,13.1-23.6C63.5,318,60.6,308.4,54.3,301.5z M37.2,280.1c2.7,0.8,5.2,1.9,5.2,5c-0.1,4.6-5.5,8.9-8.7,11.5
			c-1.1,0.9-2.2,1.6-3.3,2.4c-0.5-6.5-1-13-1.3-19.4C31.8,279.5,34.6,279.4,37.2,280.1z M41.9,337.1c-1.7,1.9-3.6,3.5-5.8,4.7
			c-0.9,0.5-1.5,0.7-2.4,1c-0.1-1.3-0.2-2.7-0.3-3.6c-0.3-2.7-0.4-5.4-0.5-8.1c-0.3-5.9-0.5-11.8-0.8-17.7c-0.1-1.3-0.1-2.5-0.2-3.8
			c0.3-0.1,0.5-0.2,0.8-0.4c9.1-6.1,14.6,8.9,14.3,15.6C46.6,329.4,44.8,333.8,41.9,337.1z"/>
		<g>
			<path class="st12" d="M56.5,299.3c-2.6-2.4-3.1-2.8-6-4.8c0.2,1.6,0.4,3.2,0.6,4.8c11.7-14.9,0.2-32.2-17-33
				c-7.9-0.4-15.6,1.5-18.1,9.6c-1.8,5.6-0.2,12.4,0.1,18.2c0.6,11.1,1.2,22.1,1.7,33.2c0.4,8.8-1,23.3,6.7,29.7
				c7.2,6,17.7,2.2,24.4-2.3C68.2,342,70.2,316.7,56.5,299.3c-2.4-3.1-6.8,1.3-4.3,4.3c9.2,11.7,9.5,26.6,1,38.4
				c-2.3,3.7-5.4,6.6-9.4,8.7c-5.8-0.6-11.7-1.2-17.5-1.8c-2.8-2.4-2-14.8-2.2-18.4c-0.5-9.9-0.9-19.9-1.5-29.8
				c-0.2-3.7-1.1-8-0.7-11.7c-1.6-5,0.4-8.6,5.9-10.8c9-12.2,15.3-6.7,18.9,16.7c-1.3,1.6-1.2,3.6,0.6,4.8c1.6,1.3,3.2,2.5,4.8,3.8
				C55,306.4,59.4,302,56.5,299.3z"/>
			<path class="st12" d="M36.4,283.1c8,2.5-4.7,11.2-7.6,13.3c1.5,0.9,3.1,1.8,4.6,2.7c-0.5-6.5-1-12.9-1.3-19.4c-1,1-2,2-3.1,3.1
				C31.6,282.6,34,282.5,36.4,283.1c3.8,0.9,5.5-5,1.6-5.9c-3-0.7-5.9-0.8-8.9-0.6c-1.6,0.1-3.1,1.3-3.1,3.1
				c0.3,6.5,0.8,13,1.3,19.4c0.2,2.1,2.6,4.1,4.6,2.7c4.7-3.4,10.5-7.2,12.7-12.8c2.3-5.9-1-10-6.6-11.7
				C34.3,276,32.6,281.9,36.4,283.1z"/>
			<path class="st12" d="M39.7,335c-2,2.1-4.1,3.9-6.8,5c1.3,1,2.6,2,3.9,3c-1-11-1.3-22.1-1.9-33.2c-0.5,0.9-1,1.8-1.5,2.7
				c5.4-2.9,8.1,1.6,9.5,6.5C44.5,324.7,43.5,330.2,39.7,335c-2.4,3.1,1.9,7.4,4.3,4.3c6-7.5,7.4-16.6,3.5-25.5
				C44,306,38,303,30.2,307.1c-0.9,0.5-1.6,1.6-1.5,2.7c0.6,11.1,0.9,22.1,1.9,33.2c0.2,1.8,1.9,3.7,3.9,3c3.8-1.4,6.8-3.6,9.6-6.5
				C46.7,336.4,42.4,332.1,39.7,335z"/>
		</g>
	</g>
	<g>
		<path class="st13" d="M93.4,343.8c-1.8-10.7-1.4-21.6-1.8-32.4c-0.5-10.6-0.8-21.2-1-31.7c0-0.3,0.1-0.7,0.1-1.1
			c0-0.6-0.1-1.2-0.1-1.8c-0.6-8.8-13.9-9-13.8,0c0.2,12,0.6,23.9,1.1,35.9c0.5,11.6,0.4,23.2,2.3,34.8c0.6,3.7,5.2,5.7,8.5,4.8
			C92.5,351.2,94,347.5,93.4,343.8z"/>
		<path class="st13" d="M96.5,343.8c-1.9-14.2-1.8-28.7-2.3-43c-0.3-8,2.1-20.1-1.5-27.7c-3.8-7.9-14.6-7.7-18.4-0.1
			c-2.1,4.3-0.5,11.3-0.4,15.7c0.2,8,0.6,15.9,0.8,23.9c0.4,10.6-1.8,26.4,2.7,36.3C82.8,360.7,96.1,354.9,96.5,343.8
			c0.1-4-6-3.9-6.1,0c-6.9-2.7-9.8-7.3-8.8-13.7c-0.1-1.9-0.1-3.9-0.2-5.8c-0.2-5.9-0.4-11.7-0.6-17.6c-0.2-5.3-1.4-12.7-0.6-17.9
			c-1.9-4.5-0.6-7.2,3.7-8.1c3-3,4.2-3.4,3.8-1.1c2.6,2,0.8,27.5,1,31.7c0.4,10.8,0.4,21.6,1.8,32.4C90.8,347.7,97,347.7,96.5,343.8
			z"/>
	</g>
	<g>
		<path class="st14" d="M163,332.9c-3-4.1-5.9-8.3-9.7-11.8c-2.7-2.5-5.8-4.6-8.8-6.8c-0.3-0.2-0.7-0.5-1-0.7c2.1-1.1,4.1-2.4,6-3.9
			c5.7-4.7,9.7-11.8,9.3-19.3c-0.5-8.2-5.5-14.6-13.2-17.2c-7.5-2.5-16.5-1.8-24.4-2.2c-3.7-0.2-7,3.3-6.9,6.9
			c0.3,10.8,0.7,21.6,1.3,32.4c0.3,5.1,0.6,10.2,0.9,15.3c0.4,5.2,0.1,10.5,0.6,15.7c0.3,3.7,2.9,6.9,6.9,6.9c3.5,0,7.2-3.2,6.9-6.9
			c-0.5-5-0.2-10.1-0.6-15.2c-0.1-1.6-0.2-3.2-0.3-4.7c0.2,0.1,0.3,0.2,0.5,0.3c2.6,1.5,5,3.2,7.4,5c5.2,3.8,9.2,8.1,13,13.3
			c2.2,3,6,4.5,9.4,2.5C163.5,340.6,165.2,335.9,163,332.9z M145.1,291.2c0.1,7.6-8.8,11.3-15.9,13.6c-0.3-6.6-0.6-13.3-0.8-19.9
			c3.4,0.1,6.9,0.2,10.2,0.7C142.2,286.1,145.1,287.4,145.1,291.2z"/>
		<g>
			<path class="st14" d="M165.6,331.3c-6-8.2-12.3-14.5-20.5-20.4c0,1.8,0,3.5,0,5.3c13.8-8.1,23.9-26.4,10.8-40.2
				c-8.5-8.9-38.8-15.4-44-0.8c-3.9,11,0.4,28.5,1,40c0.5,8.2-2.1,24.4,3.2,31.6c3.1,4.2,8.7,5.7,13.3,2.7
				c8.4-5.4,4.3-20.3,3.8-28.3c-1.5,0.9-3.1,1.8-4.6,2.7c7.6,4.3,13.1,9.8,18.8,16.1c2.7,2.9,5.1,6.2,9.6,6.2
				c8.1-0.1,10.9-7.7,8.9-14.2c-1.1-3.8-7-2.2-5.9,1.6c-2.3,1.3-4.5,2.7-6.8,4c-1-1.2-1.9-2.5-2.9-3.7c-3-1.9-5.4-5.8-8.2-8.1
				c-3.2-2.6-6.7-5.1-10.4-7.2c-1.9-1.1-4.8,0.3-4.6,2.7c0.1,1.6,1.7,13.8,0.6,14.9c-2.6-0.1-5.1-0.1-7.7-0.2c0-2.6-0.1-5.3-0.2-7.9
				c-0.4-9.6-1.1-19.1-1.6-28.7c-0.5-11.7-2.6-23.7,12.8-25.2c8.1-0.8,23,3.1,24.2,13c1.3,10.4-4.9,18.8-13.3,23.7
				c-2.1,1.3-1.8,4,0,5.3c8,5.8,12.6,10.3,18.3,18.2C162.6,337.6,167.9,334.5,165.6,331.3z"/>
			<path class="st14" d="M142,291.2c-0.2,6.4-8.6,9-13.6,10.6c1.3,1,2.6,2,3.9,3c-0.3-6.6-0.6-13.3-0.8-19.9c-1,1-2,2-3.1,3.1
				C131.2,288,141.7,287.1,142,291.2c0.4,3.9,6.5,3.9,6.1,0c-0.9-9.8-12.3-9.2-19.8-9.4c-1.6,0-3.1,1.4-3.1,3.1
				c0.2,6.6,0.5,13.3,0.8,19.9c0.1,1.9,1.9,3.6,3.9,3c8-2.7,17.8-6.8,18.1-16.6C148.3,287.2,142.2,287.3,142,291.2z"/>
		</g>
	</g>
	<g>
		<path class="st15" d="M221.6,274.7c-1.7-1-3.7-1.2-5.6-1.6c-1.7-0.4-3.5-0.7-5.2-1.1c-4-0.8-8-1.4-12-1.9
			c-7.5-0.9-15.2-0.6-22.5,1.4c-3.5,1-6,4.9-4.8,8.5c1.1,3.5,4.8,5.9,8.5,4.8c3.8-1.1,7.5-1.4,11.5-1.4c-1.1,20.2-1.3,40.5,0.1,60.7
			c0.3,3.7,3,6.9,6.9,6.9c3.5,0,7.2-3.2,6.9-6.9c-1.3-19.7-1.3-39.5-0.2-59.2c0.4,0.1,0.8,0.1,1.2,0.2c1.5,0.3,3,0.6,4.5,0.9
			c0.7,0.2,1.5,0.3,2.2,0.5c0.5,0.1,3.1,1,1.6,0.1c3.1,1.9,7.7,0.8,9.4-2.5C225.8,280.8,224.9,276.7,221.6,274.7z"/>
		<path class="st15" d="M222.4,271.7c-10.7-4.1-48.7-13-53.9,3.5c-1.7,5.4,1.5,9.9,6.2,12.2c1.9,0.9,4-0.1,6,0.3
			c8.1,1.6,5.6,1.3,7,7.8c1,4.5-0.3,10.5-0.3,15.2c0,7.3-4.9,51.8,15.2,42.3c6.2-3,5.6-8.9,5.4-14.8c-0.7-17.8-0.7-35.5,0.2-53.3
			c-1.3,1-2.6,2-3.9,3c3.3,0.6,6.6,1.3,9.9,2.1c3,0.7,5.1-2.8,3-5.1c-0.1-0.1-0.2-0.3-0.4-0.4c-1,1.7-2,3.4-3,5.1
			c11.8,3.1,18.4-8.4,10-17c-2.8-2.8-7.1,1.5-4.3,4.3c-1.3,2.3-2.7,4.5-4,6.8c-3.1-0.8-5,2.9-3,5.1c0.1,0.1,0.2,0.3,0.4,0.4
			c1-1.7,2-3.4,3-5.1c-3.3-0.7-6.6-1.5-9.9-2.1c-2-0.4-3.8,0.8-3.9,3c-0.4,8.9-0.8,17.7-0.8,26.6c0,4.9,0,9.9,0.1,14.8
			c0.1,5,3.6,12.4-3.4,11.8c-5.9-0.5-4-3.7-4.2-9.2c-0.2-5.1-0.3-10.1-0.3-15.2c0-10.1,0.4-20.2,0.9-30.3c0.1-1.6-1.5-3.1-3.1-3.1
			c-0.7,0-6.1,0.9-6.6,0.4c0.9-2.7,1.8-5.3,2.7-8c3.7-0.3,7.4-0.1,11.1,0.5c7.3,0.7,15.3,1.7,22.3,4.3
			C224.4,279.1,226,273.2,222.4,271.7z"/>
	</g>
	<g>
		<path class="st16" d="M282.8,275.4c0.3-8.5-13.5-8.5-13.8,0c-0.4,10.3-0.7,20.5-0.8,30.8c-0.8-0.1-1.6-0.1-2.4-0.2
			c-2.2-0.2-4.5-0.4-6.7-0.6c-2.4-0.2-4.9-0.4-7.3-0.7c0.2-9.8,0.5-19.5,0.6-29.3c0.1-8.5-13.7-8.5-13.8,0
			c-0.3,23.6-1.2,47.2-1.2,70.7c0,8.5,13.8,8.5,13.8,0c0-9.4,0.2-18.9,0.4-28.3c3.7,0.3,7.4,0.7,11.1,1c1.8,0.2,3.7,0.4,5.5,0.6
			c0,7.6,0,15.3,0.1,22.9c0,0.3-0.1,0.5-0.1,0.8c0,1.3,0.1,2.5,0.1,3.8c0.3,8.5,14,8.5,13.8,0C281.6,323.2,281.9,299.3,282.8,275.4z
			 M265.7,312.2C265.7,312.1,265.7,312.1,265.7,312.2c0,0.4,0.1,0.8,0.2,1.3C265.8,313,265.8,312.6,265.7,312.2z"/>
		<g>
			<path class="st16" d="M285.8,274.6c-1-6.9-8-10.9-14.5-7.5c-10.6,5.5-6,30.1-6.1,39.1c1-1,2-2,3.1-3.1c-5.5-0.5-10.9-1-16.4-1.5
				c1,1,2,2,3.1,3.1c0.2-9.4,7.1-38.6-9.3-38.6c-4,0-7.6,2-9.3,5.7c-4.3,9.1-1.2,26.4-1.4,36.4c-0.3,12.1-2.9,27.1-0.4,38.9
				c0.9,4.4,3.2,7.6,7.9,8.5c18.1,3.4,12.1-28.8,12.3-37.6c-1,1-2,2-3.1,3.1c5.5,0.5,11.1,1,16.6,1.6c-1-1-2-2-3.1-3.1
				c0,7.6-4.8,45.5,14.8,36.1c8-3.8,5.2-15.4,5.1-22.3c-0.2-19.3,0.2-38.6,0.9-57.9c0.1-4-6-3.9-6.1,0c-0.6,17.5-1,34.9-0.9,52.4
				c0,2.4,0.6,25.1-7.5,14.6c-2.7-3.5-0.1-18.4-0.1-22.9c0-1.8-1.4-2.9-3.1-3.1c-5.5-0.6-11-1.1-16.6-1.6c-1.7-0.2-3,1.5-3.1,3.1
				c-0.1,4.8,0.8,12.3-0.3,17c0,1.9,0,3.8-0.1,5.7c-6,2.7-8.6,1.9-7.6-2.5c-3-6.6,0.3-22.5,0.5-29.9c0.1-4-2-24.9,0.6-27.2
				c10.1-8.9,7.5,6.3,7.5,9.2c-0.1,4.9-0.2,9.8-0.3,14.6c0,1.8,1.4,2.9,3.1,3.1c5.5,0.5,10.9,1,16.4,1.5c1.7,0.2,3-1.5,3.1-3.1
				c0.1-5.1,0.2-10.3,0.3-15.4c0-1.7,0.1-3.4,0.1-5.1c-1.3-5.6,1.4-8.8,8.1-9.4C280.4,280.1,286.4,278.4,285.8,274.6z"/>
			<path class="st16" d="M268.7,313C268.7,313,268.7,313,268.7,313c-2-0.3-4-0.6-6-0.8c0,0.7,0.1,1.4,0.3,2.1
				c0.2,0.7,0.8,1.5,1.4,1.8c0.7,0.4,1.6,0.5,2.4,0.3c0.7-0.2,1.5-0.7,1.8-1.4c0.1-0.2,0.2-0.5,0.3-0.7c0.1-0.5,0.1-1.1,0-1.6
				c-0.1-0.4-0.1-0.8-0.2-1.3c-0.1-0.4-0.3-0.7-0.5-1c-0.2-0.3-0.5-0.6-0.9-0.8c-0.7-0.4-1.6-0.5-2.4-0.3c-0.7,0.2-1.5,0.7-1.8,1.4
				c-0.1,0.2-0.2,0.5-0.3,0.7c-0.1,0.5-0.1,1.1,0,1.6c0.1,0.4,0.1,0.8,0.2,1.3c2-0.5,3.9-1.1,5.9-1.6c-0.1-0.2-0.1-0.5-0.1-0.7
				c0,0.3,0.1,0.5,0.1,0.8c0-0.2,0-0.4-0.1-0.5c-0.1-0.8-0.3-1.6-0.9-2.2c-0.2-0.2-0.4-0.3-0.6-0.5c-0.4-0.2-0.7-0.3-1.1-0.4
				c-0.3-0.1-0.5-0.1-0.8,0c-0.4,0-0.8,0.1-1.1,0.4c-0.7,0.4-1.2,1-1.4,1.8c0,0,0,0,0,0c-0.2,0.8-0.1,1.7,0.3,2.4
				c0.4,0.6,1.1,1.2,1.8,1.4c0.8,0.2,1.7,0.1,2.4-0.3C267.9,314.4,268.4,313.8,268.7,313z"/>
		</g>
	</g>
	<g>
		<path class="st17" d="M339.1,278.2c-5-4.2-11-8-17.5-9.2c-3.4-0.7-7.1-0.7-10.2,1.1c-3.9,2.3-5.2,6.4-5.5,10.7
			c-0.7,11.4-0.2,22.8-0.8,34.2c-0.5,8.6-0.3,17.6-1.4,26.2c-0.3,2,0.8,3.9,2.4,5.1c0.8,0.8,1.9,1.4,3.2,1.6
			c0.4,0.1,0.9,0.1,1.3,0.1c17.8,0.3,34.7-8.2,41.7-25.2C359,306.4,352.1,289.3,339.1,278.2z M317.7,282.3
			C317.4,282.5,316.4,282.1,317.7,282.3L317.7,282.3z M341.1,311.6c-0.7,6.4-4.3,12.6-9.3,16.6c-4,3.2-8.8,4.9-13.8,5.7
			c0.2-3.4,0.2-6.9,0.4-10.3c0.4-7,1-14.1,1-21.1c0-6.5,0.3-13.1,0.2-19.6c1.9,0.5,3.3,1.2,5.3,2.3
			C333.4,289.7,342.4,300.2,341.1,311.6z"/>
		<g>
			<path class="st17" d="M341.3,276.1c-12.7-9.9-34.7-18-38.4,4.3c-2.5,15.2-0.6,32.3-1.3,47.7c-0.3,7.7-3.7,17.3,4.6,21.7
				c14.1,7.4,36.6-6.2,44.5-17.6C363.9,313.2,357.2,290.9,341.3,276.1c-2.9-2.7-7.2,1.6-4.3,4.3c11.7,10.9,18.5,25.2,12.3,41
				c-4.6,11.7-20.2,25.5-34.2,23.4c-7.8-1.1-7-6.6-7.4-14.1c-0.3-5.2,0.4-10.5,0.6-15.7c0.2-5.7,0.3-11.4,0.4-17.1
				c0-3.8,0.1-7.6,0.2-11.4c10-13.5,19.4-15.5,28.2-6C340,282.8,344.4,278.5,341.3,276.1z"/>
			<path class="st17" d="M317.7,279.3c-0.2,0-0.4,0-0.6,0c-4-0.2-3.9,6,0,6.1c0.2,0,0.4,0,0.6,0
				C321.6,285.6,321.6,279.4,317.7,279.3c-0.2,0-0.4,0-0.6,0c-4-0.2-3.9,6,0,6.1c0.2,0,0.4,0,0.6,0
				C321.6,285.6,321.6,279.4,317.7,279.3z"/>
			<path class="st17" d="M338.2,310.7c-2.2,11.6-9.8,17.9-20.9,20.1c1.3,1,2.6,2,3.9,3c0.6-17,1.7-34,1.6-51c-1.3,1-2.6,2-3.9,3
				c10.9,3.9,19.6,14,19.2,25.9c-0.1,4,6,3.9,6.1,0c0.5-14.7-10.2-27-23.7-31.8c-1.9-0.7-3.9,1.1-3.9,3c0,17.1-1,34-1.6,51
				c-0.1,2.1,2,3.3,3.9,3c13.2-2.6,22.7-10.8,25.2-24.4C344.8,308.5,338.9,306.9,338.2,310.7z"/>
		</g>
	</g>
	<g>
		<path class="st18" d="M425.3,339.1c-1.7-8-3.9-16-6-24c-0.1-0.7-0.2-1.5-0.6-2.1c-0.3-1.2-0.6-2.5-1-3.7
			c-2.5-10-4.7-20.3-7.7-30.2c-0.5-1.6-0.8-3.8-2.1-5.7c-1.9-2.9-5.1-3.8-8.4-3.8c-5.2,0-12.3-0.9-16.2,3.2
			c-3.5,3.7-4.1,10.4-5.3,15.2c-1.3,5.5-2.6,10.9-4,16.4c-2.9,12-6,24-9.5,35.8c-2.5,8.6,10.9,12.2,13.3,3.7
			c1.9-6.7,3.8-13.4,5.5-20.2c3.9,0,7.8-0.3,11.7-0.6c2.8-0.2,5.5-0.4,8.3-0.6c1.2-0.1,2.3-0.1,3.5-0.1c1.8,6.7,3.5,13.4,5,20.2
			c0.8,3.6,5,5.8,8.5,4.8C424.2,346.6,426.1,342.8,425.3,339.1z M396.2,280.5c0,0-0.1-0.1-0.1-0.1C396,278.9,396,278.9,396.2,280.5z
			 M384.7,312.8c0.3-1,0.5-2,0.8-2.9c1.9-7.4,3.7-14.8,5.7-22.2c0.5-2,1.1-4.1,1.6-6.1c0-0.2,0.1-0.4,0.1-0.5
			c1.6-0.1,3.4-0.3,3.8-0.3c0.2,0,0.4,0,0.7,0c0.3,0.9,0.5,1.9,0.8,2.9c0.9,3.2,1.7,6.4,2.6,9.6c1.6,6.1,3.3,12.2,4.9,18.3
			c-2.8,0.1-5.6,0.3-8.4,0.5C393.1,312.3,388.9,312.6,384.7,312.8z"/>
		<g>
			<path class="st18" d="M428.2,338.3c-4.2-18.4-8.9-36.8-13.8-55c-2.9-10.8-5.2-16.1-16.9-16.7c-13.5-0.7-18.3,4.5-21.6,16.8
				c-2.6,10.1-4.8,20.4-7.3,30.6c-2.1,8.2-6.9,18-7,26.4c-0.1,6.4,3.5,12.3,10.8,11.5c13-1.4,7.4-20,16.9-25.2
				c0.7-0.4,12.5-2,14.1-1c3,1.8,3.6,10.1,4.4,12.8c1.5,5,1.9,9.7,7.5,11.7c8.2,2.8,12.9-4,13-11.1c0.1-4-6.1-4-6.1,0
				c-6.6,0.9-9.8-1.5-9.7-7.3c-0.9-3.4-1.7-6.7-2.6-10.1c-0.3-1.3-1.6-2.3-3-2.3c-7.8,0.2-15.6,1-23.5,1.3c-1.3,0-2.6,0.9-3,2.3
				c-0.9,3.3-3.4,24.4-11.4,13c-1.3-1.9,4.8-17.7,5.5-20.5c1.8-7.1,3.5-14.1,5.2-21.2c2.1-8.8,1.4-12.4,9.4-17.6
				c18.8-12.2,21.1,15.2,24.4,28.3c2.9,11.6,6.1,23.1,8.8,34.8C423.2,343.8,429.1,342.1,428.2,338.3z"/>
			<path class="st18" d="M397.7,277.9c0,0-0.1-0.1-0.1-0.1c0.5,0.9,1,1.8,1.5,2.7c0-0.3,0-0.5-0.1-0.8c0-0.1,0-0.2,0-0.3
				c0,0.3-0.1,0.5-0.1,0.8c0,0,0,0,0,0c-0.1,0.2-0.2,0.5-0.3,0.7c0,0,0,0,0,0c-0.2,0.2-0.3,0.4-0.5,0.6c0,0,0,0,0,0
				c-0.5,0.3-0.9,0.5-1.4,0.8c0,0,0,0,0,0c-0.5,0-1.1,0-1.6,0c0,0,0,0,0,0c-0.2-0.1-0.5-0.2-0.7-0.3c0,0,0,0,0,0
				c-0.2-0.2-0.4-0.3-0.6-0.5c0,0,0,0,0,0c-0.2-0.2-0.3-0.4-0.5-0.6c0,0,0,0,0,0c-0.1-0.2-0.2-0.5-0.3-0.7c0,0,0,0.1,0,0.1
				c0,0.1,0,0.2,0,0.2c0-0.3-0.1-0.5-0.1-0.8c0,0.3,0.1,0.6,0.1,0.9c0,0.4,0.1,0.8,0.3,1.2c0.1,0.4,0.3,0.7,0.6,1
				c0.3,0.3,0.6,0.5,1,0.6c0.4,0.2,0.8,0.3,1.2,0.3c0.3,0,0.5-0.1,0.8-0.1c0.5-0.1,1-0.4,1.4-0.8c0.2-0.2,0.3-0.4,0.5-0.6
				c0.3-0.5,0.4-1,0.4-1.5c0-0.3-0.1-0.5-0.1-0.8c0-0.4-0.1-0.7-0.1-1.1c0,0,0-0.1,0-0.1c-0.1-0.3-0.4-0.9-0.3-0.8
				c0,0-0.4-0.6-0.5-0.6c-0.2-0.2-0.4-0.3-0.6-0.5c-0.2-0.2-0.5-0.3-0.7-0.3c-0.3,0-0.5-0.1-0.8-0.1c-0.5,0-1.1,0.2-1.5,0.4
				c-0.5,0.3-0.6,0.4-0.9,0.8c-0.3,0.4-0.4,0.4-0.6,1c-0.1,0.3-0.1,0.6-0.1,0.8c0,0.1,0,0.3,0,0.4c0,0.1,0,0.3,0,0.4
				c0,0.1,0,0.2,0,0.3c0,0,0,0,0,0.1c0,0.6,0.1,1.1,0.4,1.5c0.2,0.4,0.5,0.6,0.8,0.9c0.1,0.1,0.3,0.2,0.4,0.3
				c0.4,0.2,0.7,0.3,1.1,0.4c0.4,0.1,0.8,0.1,1.2-0.1c0.4-0.1,0.7-0.3,1-0.5c0.3-0.2,0.6-0.5,0.8-0.9c0.1-0.2,0.2-0.5,0.3-0.7
				c0.1-0.5,0.1-1.1,0-1.6c-0.1-0.2-0.2-0.5-0.3-0.7C398.6,278.5,398.2,278.1,397.7,277.9z"/>
			<path class="st18" d="M387.6,313.6c2.8-10.6,5.4-21.2,8.3-31.8c-1,0.8-2,1.5-3,2.3c1.5-0.1,3-0.2,4.5-0.3c-1-0.8-2-1.5-3-2.3
				c2.9,10.2,5.5,20.5,8.3,30.8c1-1.3,2-2.6,3-3.9c-7,0.3-14,1-21.1,1.3c-3.9,0.2-4,6.3,0,6.1c7-0.3,14-1,21.1-1.3
				c2-0.1,3.5-1.9,3-3.9c-2.7-10.3-5.4-20.6-8.3-30.8c-0.4-1.3-1.6-2.3-3-2.3c-1.5,0.1-3,0.2-4.5,0.3c-1.4,0.1-2.6,0.9-3,2.3
				c-2.9,10.6-5.4,21.2-8.3,31.8C380.7,315.8,386.6,317.4,387.6,313.6z"/>
		</g>
	</g>
	<g>
		<path class="st19" d="M475.2,270.7c-4.2,4.6-9.1,8.4-13.5,12.7c-2.8,2.7-5.5,5.5-8.2,8.3c-4-7.3-6.7-15.2-11.4-22.1
			c-2-3-6.1-4.6-9.4-2.5c-3,1.9-4.7,6.3-2.5,9.4c5.9,8.5,8.6,18.8,14.6,27.3c0.4,0.5,0.8,1,1.3,1.5c-0.3,2.1-0.4,4.3-0.6,6.4
			c-0.4,4.2-0.8,8.3-1.1,12.5c-0.7,8.7-1.1,17.4-1.6,26.1c-0.5,8.9,13.3,8.8,13.8,0c0.4-7.7,0.8-15.5,1.4-23.2
			c0.3-3.8,0.6-7.6,0.9-11.3c0.3-3.2,0-7.7,1.2-10.7c0.8-1.9,2.9-3.4,4.3-4.9c2.6-2.7,5.3-5.4,8-8c4.2-4,8.7-7.5,12.5-11.8
			C490.9,273.9,481.2,264.1,475.2,270.7z"/>
		<path class="st19" d="M473,268.6c-7,7.2-14.6,13.8-21.7,21c1.6,0.2,3.2,0.4,4.8,0.6c-3.9-7.7-8.7-27.1-20.1-27
			c-8.2,0-10.5,7.8-8.9,14.3c1.7,6.6,7.7,15.3,11,21.3c5.1,9.5,4,14.5,3.2,25.5c-0.7,8.7-7,30.1,3.9,35c5.1,2.3,11.2-0.3,13.5-5.2
			c2.9-5.9,1.5-14.9,1.9-21.1c0.9-13.6,0.5-23.6,9.9-34.6c5.7-6.7,21.7-14.2,18.9-25c-2-7.8-9.9-9.3-15.8-5.3
			c-3.2,2.2-0.2,7.6,3.1,5.3c0.7,3,1.3,6,2,9c-2.1,1.9-4.3,3.8-6.4,5.8c-3.4,3.2-6.9,6.5-10.1,9.9c-2.5,2.7-4.3,4.4-5.5,7.9
			c-1.6,4.6-1,10.6-1.4,15.5c-0.3,3.5,0.7,32.3-9.1,22.4c-3-3.1,1.6-24.4,2-29c0.4-4.1,1.2-7.9,0-11.7c-1.5-4.7-14.2-18.5-12.7-23.7
			c2-6.9,7-1.9,8.8,0.4c2.6,3.2,4.6,9.8,6.5,13.4c0.9,1.8,3.5,2,4.8,0.6c7.1-7.2,14.7-13.8,21.7-21
			C480.2,270.1,475.8,265.7,473,268.6z"/>
	</g>
</g>
</svg>
