<?xml version="1.0" encoding="utf-8"?>
<!-- Generator: Adobe Illustrator 24.1.0, SVG Export Plug-In . SVG Version: 6.00 Build 0)  -->
<svg version="1.1" id="레이어_1" xmlns="http://www.w3.org/2000/svg" xmlns:xlink="http://www.w3.org/1999/xlink" x="0px"
	 y="0px" viewBox="0 0 500 500" style="enable-background:new 0 0 500 500;" xml:space="preserve">
<style type="text/css">
	.st0{fill:#F05A4B;}
	.st1{fill:#FCE061;}
	.st2{fill:#92C2FD;}
	.st3{fill:#98D882;}
	.st4{fill:#D3A1DE;}
	.st5{fill:#6E5850;}
	.st6{fill:#FCC057;}
	.st7{fill:#FF6045;}
	.st8{fill:#FFE771;}
	.st9{fill:#93CFEA;}
	.st10{fill:#6EC695;}
	.st11{fill:#E1B7EA;}
	.st12{fill:#FFA074;}
	.st13{fill:#FFCE0E;}
	.st14{fill:#B1E659;}
	.st15{fill:#6DA1BC;}
	.st16{fill:#8B649E;}
	.st17{fill:#FF9C28;}
	.st18{fill:#63BC9B;}
	.st19{fill:#E36C6B;}
	.st20{fill:#FFD974;}
	.st21{fill:#FA93AB;}
	.st22{fill:#60A7DE;}
	.st23{fill:#D393E3;}
	.st24{fill:#CFD5D7;}
	.st25{fill:#FFFFFF;}
	.st26{fill:#FFB901;}
	.st27{fill:#FFF2DF;}
	.st28{fill:none;}
	.st29{fill:#F8F2D7;}
	.st30{fill:#FFD06B;}
	.st31{fill:#EA3C23;}
	.st32{fill:#8A1F1C;}
	.st33{fill:#ECEDEE;}
	.st34{fill:#F9DE5F;}
	.st35{fill:#FFE986;}
	.st36{clip-path:url(#SVGID_2_);fill:#FFE986;}
	.st37{fill:#C7CACB;}
	.st38{fill:#FDACC0;}
	.st39{fill:#FFCEDC;}
	.st40{fill:#711A18;}
	.st41{fill:#FFCA33;}
	.st42{fill:#FF6134;}
	.st43{fill:#FF6A89;}
	.st44{fill:#FD8E9E;}
	.st45{clip-path:url(#SVGID_4_);fill:#FF6E57;}
	.st46{fill:#D2E5FF;}
</style>
<g>
	<g>
		<path class="st33" d="M211.5,154.2c-17.6-1.6-35.3-2-52.9-3.1c-12.3-0.8-24.9-1.3-37.1-3.4c-3.8-0.7-8-1.8-9,3
			c-3.2,15.3-3.1,30.9-4.3,46.3c-0.7,9.4-1.9,19-0.9,28.4c1,26.9,5.1,53.7,12.2,79.6c4.4,15.9,12,33.6,27.7,38.5
			c11.1,3.4,23.4-0.9,32.1-8.5c8.7-7.6,14.3-18.2,18.8-28.9c2.2-5.2,4.1-10.4,5.9-15.7c1.8-5.3,3.3-10.7,4.7-16.1
			c1.4-5.4,2.6-10.9,3.7-16.3c1.1-5.5,2-11,2.8-16.6c0.8-5.6,1.5-11.1,2-16.7c0.6-5.6,1-11.2,1.4-16.9c0.4-5.6,0.7-11.3,1-16.9
			c0.3-5.6,0.5-11.3,0.6-16.9c0.1-2.8,0.2-5.6,0.2-8.5c0-1.4,0.1-2.8,0.1-4.2c0-1.3,0.2-2.7-0.1-4c-0.1-0.6-0.4-1.2-0.7-1.7
			c-0.8-1.2-3-1.1-4.3-1.2C214.2,154.3,212.8,154.3,211.5,154.2z"/>
	</g>
	<g>
		<path class="st33" d="M362.3,147.1c-17.6,1.4-35.1,4.1-52.6,5.9c-12.3,1.3-24.8,3-37.2,2.9c-6.2,0-8.4,2.8-8.8,9
			c-0.3,4.6,0.7,9,1.1,13.5c0.8,9.5,2.2,18.9,3,28.3c0.9,9.4,1.4,19,4,28.1c5.5,26.3,14.1,52,25.6,76.4c7,14.9,17.5,31.1,33.9,33.2
			c11.5,1.5,22.9-4.8,30.2-13.8s11-20.3,13.6-31.6c4.1-17.6,5.8-35.6,5.9-53.7c0.2-18.2-1.2-36.3-3.3-54.4
			c-0.8-7.2-1.7-14.3-2.7-21.5c-0.5-3.5-1-7-1.5-10.6c-0.5-3.4-0.8-6.9-2-10.1c-0.2-0.6-0.5-1.2-0.9-1.7
			C368.7,145.5,364.3,147,362.3,147.1z"/>
	</g>
	<g>
		<path class="st22" d="M267.4,82.2c2.3,1.7,4.6,3.3,6.4,5.4c3.4,4,3.4,9.9,3.1,14.8c-0.1,1.5-1.1,4.6,0.1,5.9
			c2,2.2,3.9-1.4,4.7-2.9c2.4-4.5,3.6-10.7,8.4-13.5c1.4-0.8,3-1.2,4.6-1.4c1.4-0.2,2.8-0.3,4.2-0.4c1.1,0,2.2,0,3.1-0.6
			c2.3-1.3,0.8-3.2-0.8-4.1c-2.7-1.4-5.3-2.9-8-4.3c-0.7-0.4-1.4-0.8-1.8-1.5c-0.3-0.6-0.3-1.4-0.3-2.1c0.2-4.1,0.4-8.1,0.6-12.2
			c0.1-1.6,0.1-5.6-2-6.3c-2.1-0.6-3.5,2.8-4.3,4.3c-1.6,3.1-3.4,6.3-5.6,9.1c-0.8,1-1.7,2-2.8,2.7c-2.7,1.5-6.1,0.5-9.2,0.4
			c-1.6-0.1-3.5,0.4-3.9,1.9c-0.4,1.5,0.9,2.8,2.1,3.8C266.6,81.6,267,81.9,267.4,82.2z"/>
		<path class="st22" d="M264.7,86.9c2,1.5,4.5,3,5.7,5.3c1.2,2.2,1.3,4.9,1.2,7.4c0,0.6,0,1.2-0.1,1.8c0,0.3-0.1,1.8,0,0.6
			c-0.2,1.4-0.5,2.7-0.5,4.1c-0.1,3.5,1.9,7.1,5.4,8.1c6.5,1.8,9.8-5.5,11.8-10.2c0.9-2,1.7-4.3,3.1-6.1c1.3-1.6,3.6-2,5.9-2.2
			c3.5-0.3,7-0.2,9.5-3.1c2.6-2.9,2.2-7.1-0.4-9.8c-2.1-2.2-5.3-3.5-8-4.9c-0.5-0.3-1.8-1.3-2.4-1.3c-0.2-0.1-0.3-0.2-0.5-0.3
			c0.4,0.7,0.7,1.4,1.1,2.1c-0.1,0,0.3-5.8,0.3-6.4c0.2-5,1.6-12.3-2.5-16.2c-2.5-2.4-6.2-2.7-9.1-0.9c-2.1,1.4-3.3,3.6-4.5,5.8
			c-1.6,3-3.3,6.9-5.7,9.3c-1.8,1.7-5,0.3-7.2,0.3c-3.9,0-8,1.8-9.1,5.8C257.5,80.9,261.2,84.3,264.7,86.9c2.3,1.7,6,0.4,7.4-1.9
			c1.6-2.7,0.4-5.6-1.9-7.4c-0.3-0.2-0.6-0.4-0.8-0.7c-0.8-0.9-0.8-0.7,0.1,0.5c-0.2,0.9-0.5,1.8-0.7,2.7c0.4-0.8-1,1.1-1.3,0.8
			c0.1,0.1,2,0.1,2.2,0.1c1.4,0.1,2.9,0.4,4.3,0.3c3.7-0.2,7-1.6,9.4-4.5c2.2-2.6,4-5.5,5.7-8.5c0.7-1.2,1.2-2.4,1.9-3.6
			c0.2-0.4,0.5-0.8,0.7-1.2c0.2-0.3,0.2-0.3,0,0c-1.9,1.1-3.4,1-4.5-0.1c-1-0.9-0.3-0.6-0.6-0.2c0-0.4-0.1-0.4,0,0
			c0,0.3,0,0.5,0,0.8c0,1.2-0.1,2.4-0.1,3.7c-0.2,3.5-0.6,7.1-0.5,10.6c0.1,3.9,2.3,6.2,5.5,7.9c1.6,0.9,3.2,1.7,4.8,2.6
			c0.4,0.2,2.2,1.4,2.4,1.3c-0.3,0.2-0.6-3.3-0.7-1.8c0.2-0.9,0.5-1.8,0.7-2.7c0.7-1.7,2.1-0.6,0.4-0.8c-0.8-0.1-1.7,0.1-2.5,0.2
			c-1.8,0.2-3.7,0.4-5.5,0.9c-3.6,1.1-6.4,3.3-8.6,6.3c-1.7,2.3-2.7,5-3.8,7.6c-0.4,1-0.9,2.1-1.5,3.2c-0.2,0.4-0.7,0.9-0.8,1.3
			c-0.2,0.3-0.2,0.3,0,0c0.5-0.3,1.1-0.5,1.7-0.7c0.9,0.2,1.8,0.5,2.7,0.7c0.6,0.5,1,1.2,1.1,1.9c0.1,0.4,0.1,0.2,0-0.4
			c0.2-0.7,0-0.3,0.1-0.7c0.2-1.4,0.4-2.7,0.4-4.1c0.1-3,0-6-0.6-8.9c-1.4-6.8-6.4-10.7-11.6-14.6c-2.3-1.7-6-0.4-7.4,1.9
			C261.2,82.3,262.4,85.2,264.7,86.9z"/>
	</g>
	<g>
		<path class="st2" d="M235.9,50.6c-7.2-1.3-14.2-3.5-19.9-8.7c-3.4-3.1-5.6-7.1-7.9-11.1c-1.1-1.8-4.2-9.6-7.1-6.6
			c-0.8,0.9-1,2.1-1.1,3.3c-0.6,5.7,0.3,11.6-1.6,17c-2.4,7-8.9,11.7-15.4,15.1c-2.1,1.1-6.3,3.9-5.3,6.7c1.1,3.1,6.6,3.4,9.2,4.1
			c4.6,1.2,9.1,2.8,13,5.6c5,3.6,6.3,7.7,9.5,12.5c2.2,3.3,3.4,8.2,7.3,10.1c7.2,3.6,5.2-9.2,5.9-13.6c0.8-5.7,2.1-12,5.8-16.6
			c1.3-1.6,2.9-3,4.6-4.3c2.4-1.9,4.8-3.9,7.2-5.8c1-0.8,2.1-1.7,2.6-2.9s0.5-2.8-0.5-3.6C240.2,51.3,238,51,235.9,50.6z"/>
		<path class="st2" d="M236.6,48c-4.9-0.9-9.8-2.2-14.2-4.8c-4.8-2.8-7.9-6.9-10.7-11.7c-2.1-3.6-5.3-12.9-11-10.4
			c-3.4,1.5-3.5,5.7-3.7,8.9c-0.3,5.4,0.3,11-2.4,16c-2.1,3.8-5.6,6.7-9.2,9c-3.1,2-6.8,3.4-9.1,6.4c-1.9,2.5-2.1,5.6,0.2,8
			c2.3,2.4,5.9,2.7,8.9,3.4c4.6,1,9.3,2.7,13.1,5.5c3.7,2.7,5.5,6.8,7.9,10.6c2.9,4.7,6.1,14.2,13.3,13c5.3-0.9,5.2-7.9,5.3-12
			c0.1-3.8,0.4-7.4,1.4-11.1c1.6-6,4.6-9.8,9.4-13.6c3.3-2.7,9.1-5.8,9.9-10.4C246.7,48.6,240.8,48.7,236.6,48
			c-3.4-0.6-4.8,4.6-1.4,5.2c2.4,0.4,4.8,0.8,7.1,1.1c-0.8-0.4-1.5-0.9-2.3-1.3c1.5,2-6.7,7.3-7.9,8.3c-3.1,2.5-6,5.1-8,8.6
			c-2.8,5.1-4.2,11.4-4.4,17.2c-0.1,2.1,0.1,4.2-0.2,6.3c-0.2,2.2-0.1,4-2.6,2.2c-2.2-1.7-3.2-5-4.5-7.3c-1.6-2.8-3.2-5.7-5-8.3
			c-4.1-6.1-10.4-9.5-17.3-11.5c-2.5-0.8-5.2-1-7.7-1.8c-1.9-0.7-2.6-1.1-1.1-2.7c1-1.1,2.6-1.8,3.9-2.5c5.6-3.1,11.2-7.2,14.3-13.1
			c1.6-3,2.3-6.2,2.6-9.6c0.1-1.1,0.5-12.5,0.1-12.5c1.1-0.1,3.4,5.5,3.9,6.5c2,3.6,4.2,7.3,7.1,10.2c5.9,6,13.9,8.8,21.9,10.3
			C238.6,53.8,240,48.6,236.6,48z"/>
	</g>
	<g>
		<path class="st34" d="M152.7,214.7c1.4,0.1,2.7,0.3,4.1,0.4c17.4,1.7,42.1,1.6,57.4,11c-3.1,4.1-1.3,13.9-1.7,19.1
			c-0.7,8-2.1,15.9-4.1,23.6c-4,15.6-10.5,30.6-19.3,44.2c-4.9,7.6-10.7,15-18.9,19.4c-13.8,7.4-29.9,2.9-36.6-10.4
			c-2.6-5.2-4-10.8-5.3-16.4c-3.4-13.9-7.5-27.3-9.4-41.5c-1.3-9.4-2.1-18.9-2.6-28.4c-0.3-6.1-4.7-20.3,2.3-23.9
			c3.9-2,12.4,0.6,16.5,1C141,213.5,146.8,214.1,152.7,214.7z"/>
		<path class="st34" d="M156.4,337.8c-2.9,0-5.8-0.4-8.6-1.3c-6.9-2.2-12.5-7-15.8-13.6c-2.7-5.4-4.1-11.2-5.5-16.8
			c-0.8-3.4-1.7-6.8-2.6-10.2c-2.7-10.2-5.4-20.7-6.8-31.5c-1.2-9.4-2.1-19-2.6-28.5c-0.1-1.3-0.3-3.1-0.6-5
			c-1.1-7.3-2.7-17.2,3.9-20.6c3.4-1.8,9-0.7,13.6,0.2c1.5,0.3,2.9,0.5,3.9,0.6l21.7,2.1c3.3,0.3,6.8,0.6,10.4,0.8
			c16.4,1.2,35,2.6,47.7,10.4l1.7,1l-1.2,1.6c-1.8,2.3-1.6,7.7-1.4,12.1c0.1,2.3,0.2,4.4,0,6.1c-0.7,8-2.1,16.1-4.1,23.9
			c-4.1,15.9-10.6,30.9-19.5,44.7c-4.4,6.8-10.5,15.2-19.5,20C166.4,336.5,161.4,337.8,156.4,337.8z M122.6,213
			c-1.3,0-2.4,0.2-3.2,0.6c-4.2,2.2-2.9,10.6-1.9,16.8c0.3,2.1,0.6,3.9,0.7,5.4c0.5,9.4,1.3,18.9,2.6,28.2c1.4,10.6,4,20.5,6.8,31
			c0.9,3.4,1.8,6.8,2.6,10.2c1.3,5.4,2.7,11,5.2,16c2.8,5.7,7.7,9.8,13.7,11.8c6.6,2.1,13.9,1.3,20.5-2.2
			c8.3-4.4,14.1-12.3,18.2-18.7c8.6-13.5,15-28.2,19-43.7c2-7.7,3.3-15.5,4-23.4c0.1-1.5,0.1-3.5,0-5.7c-0.2-4.4-0.3-9.2,1.1-12.6
			c-12-6.6-29.3-7.9-44.6-9c-3.7-0.3-7.2-0.5-10.5-0.8l-21.7-2.1c-1.1-0.1-2.6-0.4-4.2-0.7C128.2,213.6,125.1,213,122.6,213z"/>
	</g>
	<g>
		<path class="st34" d="M313.1,216.8c6.7-1.6,13.7-2.5,20.4-3.9c10-2.1,20.4-2.7,30.6-1.7c2.7,0.3,5.6,0.7,7.6,2.4
			c2.1,1.8,2.9,4.6,3.4,7.3c6.1,29,3.2,59.7-8.3,87.2c-3.4,8.2-7.8,16.5-15.1,22.1c-11.7,9-26.8,8.3-35.6-3.2
			c-12.4-16.3-21.1-36.7-27.2-55.8c-2.3-7.1-4.3-14.2-6.2-21.4c-1.2-4.9-4.2-11.4-4.2-16.5c0-10.3,20.4-12.3,28.2-14.7
			C308.8,217.9,311,217.3,313.1,216.8z"/>
		<path class="st34" d="M334.7,338.2c-1.1,0-2.2-0.1-3.4-0.2c-6.6-0.9-12.4-4.3-16.7-9.9c-10.7-14.1-20-33-27.5-56.3
			c-2.3-7.1-4.4-14.3-6.2-21.5c-0.4-1.5-1-3.3-1.6-5c-1.3-4-2.7-8.2-2.7-11.9c0-9.6,13.5-12.7,23.4-14.9c2.4-0.5,4.5-1,6.1-1.5
			c2.1-0.7,4.3-1.3,6.6-1.8l0,0c3.8-0.9,7.8-1.6,11.6-2.3c3-0.5,5.9-1,8.8-1.7c10.2-2.1,20.7-2.7,31.1-1.7c3.1,0.3,6.3,0.8,8.6,2.8
			c2.6,2.2,3.4,5.4,4,8.3c6.1,29.2,3.1,60.5-8.4,88.3c-3,7.4-7.6,16.6-15.7,22.8C347.3,335.9,341,338.2,334.7,338.2z M313.5,218.6
			c-2.1,0.5-4.2,1.1-6.3,1.7c-1.7,0.5-3.9,1-6.4,1.6c-8.2,1.9-20.6,4.7-20.6,11.4c0,3.2,1.3,7,2.5,10.8c0.6,1.9,1.2,3.7,1.6,5.3
			c1.8,7.1,3.9,14.3,6.1,21.3c7.4,22.9,16.5,41.5,27,55.3c3.7,4.8,8.6,7.8,14.3,8.5c6.3,0.9,13-1.1,18.8-5.6
			c7.4-5.7,11.6-14.4,14.5-21.4c11.2-27.1,14.1-57.7,8.2-86.2c-0.5-2.4-1.1-4.8-2.8-6.3c-1.7-1.4-4.3-1.8-6.6-2
			c-10.1-1-20.1-0.4-30,1.7c-2.9,0.6-5.9,1.1-8.9,1.7C321.2,217,317.3,217.7,313.5,218.6L313.5,218.6z"/>
	</g>
	<g>
		<path class="st33" d="M213.2,143.4c-23.2-2-46.5-2.5-69.8-4.2c-8.4-0.6-17.4-3.4-25.7-2.9c-10.3,0.6-13.6,9.2-15,18
			c-6.7,42.5-6,86.7,2.4,128.9c6.2,31.1,19.1,79.8,61.2,71c18.3-3.8,31.4-18.8,39.4-34.9c9.7-19.4,15.7-40.7,19.6-61.9
			c4.3-23.7,6.2-47.7,7.1-71.7c0.4-9.3,2.4-20.7,0.5-29.9C230.8,145.3,222.4,143.9,213.2,143.4c-13.8-0.7-13.8,20.8,0,21.5
			c-0.3,0,4,0.3,4,0.2c-0.9-1-1.9-2-2.8-2.9c-2.3-3.8-3.2-4.1-2.9-1c-0.8,2.1-0.2,6.3-0.2,8.4c-0.3,8.7-0.6,17.5-1,26.2
			c-0.9,17-2.2,34-5.1,50.9c-2.9,17.1-7,34-13.2,50.1c-5,13-11.8,28.5-25.2,34.6c-31,14.1-38.5-40.3-41.9-59
			c-3-16.6-4.7-33.5-5.3-50.4c-0.6-16,1.4-32.5,2.5-48.5c0.4-5.1,0.8-10.2,1.6-15.3c0.5-3.4,3.2-6.7-1.7-2.8c-3.8,3-2.5,2.3,1.7,2.9
			c9.3,1.5,18.8,2.1,28.2,2.7c20.4,1.3,40.9,1.9,61.3,3.7C227,166.1,226.9,144.6,213.2,143.4z"/>
	</g>
	<path class="st33" d="M143.1,349.2c-2,33.9-4,67.7-6,101.6c-0.3,5.8,5.2,10.8,10.8,10.8c6.1,0,10.4-4.9,10.8-10.8
		c2-33.9,4-67.7,6-101.6c0.3-5.8-5.2-10.8-10.8-10.8C147.7,338.4,143.4,343.3,143.1,349.2L143.1,349.2z"/>
	<path class="st33" d="M94.9,454c35.8,6.6,72.2,9.9,108.7,9.6c13.8-0.1,13.9-21.7,0-21.5c-34.5,0.4-69-2.5-103-8.8
		c-5.7-1.1-11.6,1.6-13.2,7.5C85.9,446,89.1,453,94.9,454L94.9,454z"/>
	<path class="st33" d="M363.9,136.4c-23.2,2-46.3,5.5-69.5,7.7c-15.7,1.5-37.3-2.2-39.7,18.7c-1.2,10.8,1.5,22.6,2.7,33.4
		c1.2,10.8,1.7,21.7,3.5,32.3c3.4,20.5,9.6,40.9,16.9,60.3c10.8,28.6,29.9,76.8,69.5,64.9c40.1-12,44.7-67,45.8-101.7
		c0.8-24-1.4-48-4.4-71.9c-1.4-10.8-1.7-22.7-4.9-33c-3.5-11.5-12.4-12-22.7-10.4c-13.6,2.1-7.9,22.9,5.7,20.8
		c0.9-0.6,1.7-0.5,2.5,0c-2.1-1.6-4.3-3.3-6.4-4.9c2.9,5.2,2.5,14,3.3,19.8c1.2,8.4,2.2,16.9,3.1,25.4c1.7,16.4,2.8,32.8,2.5,49.3
		c-0.2,17-1.9,34-5.9,50.5c-3.1,12.8-8,27.7-20.6,34c-27,13.5-42.1-35.8-48.3-53c-5.3-14.7-9.3-29.7-12.9-45
		c-3.8-16.3-4.8-33.2-6.4-49.8c-0.5-4.6-1.1-9.2-1.4-13.8c-0.1-1.7,0-3.4-0.1-5.1c0.3,2.5-4-0.2-0.3,1.8c2.8,1.5,12-0.5,15.2-0.8
		c4.5-0.4,9-0.9,13.5-1.4c19.8-2.1,39.5-4.9,59.4-6.6C377.6,156.7,377.8,135.2,363.9,136.4z"/>
	<path class="st33" d="M327.7,349.4c3.8,33.7,7.5,67.4,11.3,101.1c0.6,5.8,4.5,10.8,10.8,10.8c5.3,0,11.4-5,10.8-10.8
		c-3.8-33.7-7.5-67.4-11.3-101.1c-0.6-5.8-4.5-10.8-10.8-10.8C333.2,338.6,327.1,343.5,327.7,349.4L327.7,349.4z"/>
	<path class="st33" d="M299.3,462.8c36.5,0.5,72.8-2.7,108.7-9.3c5.7-1,9-8,7.5-13.2c-1.7-6-7.5-8.6-13.2-7.5
		c-34,6.2-68.4,9-103,8.5C285.4,441.1,285.4,462.6,299.3,462.8L299.3,462.8z"/>
</g>
</svg>
