<?xml version="1.0" encoding="utf-8"?>
<!-- Generator: Adobe Illustrator 24.1.0, SVG Export Plug-In . SVG Version: 6.00 Build 0)  -->
<svg version="1.1" id="레이어_1" xmlns="http://www.w3.org/2000/svg" xmlns:xlink="http://www.w3.org/1999/xlink" x="0px"
	 y="0px" viewBox="0 0 500 500" style="enable-background:new 0 0 500 500;" xml:space="preserve">
<style type="text/css">
	.st0{fill:#F05A4B;}
	.st1{fill:#FCE061;}
	.st2{fill:#92C2FD;}
	.st3{fill:#98D882;}
	.st4{fill:#D3A1DE;}
	.st5{fill:#6E5850;}
	.st6{fill:#FCC057;}
	.st7{fill:#FF6045;}
	.st8{fill:#FFE771;}
	.st9{fill:#93CFEA;}
	.st10{fill:#6EC695;}
	.st11{fill:#E1B7EA;}
	.st12{fill:#FFA074;}
	.st13{fill:#FFCE0E;}
	.st14{fill:#B1E659;}
	.st15{fill:#6DA1BC;}
	.st16{fill:#8B649E;}
	.st17{fill:#FF9C28;}
	.st18{fill:#63BC9B;}
	.st19{fill:#E36C6B;}
	.st20{fill:#FFD974;}
	.st21{fill:#FA93AB;}
	.st22{fill:#60A7DE;}
	.st23{fill:#D393E3;}
	.st24{fill:#CFD5D7;}
	.st25{fill:#FFFFFF;}
	.st26{fill:#FFB901;}
	.st27{fill:#FFF2DF;}
	.st28{fill:none;}
	.st29{fill:#F8F2D7;}
	.st30{fill:#FFD06B;}
	.st31{fill:#EA3C23;}
	.st32{fill:#8A1F1C;}
	.st33{fill:#ECEDEE;}
	.st34{fill:#F9DE5F;}
	.st35{fill:#FFE986;}
	.st36{clip-path:url(#SVGID_2_);fill:#FFE986;}
	.st37{fill:#C7CACB;}
	.st38{fill:#FDACC0;}
	.st39{fill:#FFCEDC;}
	.st40{fill:#711A18;}
	.st41{fill:#FFCA33;}
	.st42{fill:#FF6134;}
	.st43{fill:#FF6A89;}
	.st44{fill:#FD8E9E;}
	.st45{clip-path:url(#SVGID_4_);fill:#FF6E57;}
	.st46{fill:#D2E5FF;}
</style>
<g>
	<g>
		<path class="st6" d="M213.1,201c-19-24.2-39.1-47.6-60.2-70c-2.6-2.8-6.4-5.8-9.9-4.1c-2.1,1.1-3.1,3.6-3.8,5.9
			c-8.4,26.8-15.3,54.2-20.6,81.8c-3.8,19.9,7.9,42.3,22.9,55.9c15,13.6,35.4,21,55.6,20.3c7.7-0.3,15.4-1.7,22-5.6
			c14.6-8.6,20.5-27.8,17-44.4S223.5,214.3,213.1,201z"/>
		<path class="st6" d="M218.3,195.7c-14.9-18.8-30.2-37.2-46.3-54.9c-8.8-9.7-15.5-20.4-29-21.3c-2.6-0.2-5.1,1.6-6.4,3.7
			c-10.8,16.7-14,39.3-18.5,58.5c-4,16.7-9.8,34.9-6.3,52.3c6.1,30.5,32.6,54.3,62,61.6c24.5,6.1,53.7,2.4,65.8-22.5
			C253.6,244.2,235.8,217.8,218.3,195.7c-5.9-7.5-16.4,3.1-10.5,10.5c12,15.1,26.7,33.3,20.6,54.3c-7.4,25.2-34.6,26-54.9,19.7
			c-39.2-12.1-51.3-46.7-43.4-84.3c2.8-13.6,5.9-27.7,10.3-40.9c1-3.4,2-6.8,2.9-10.1c2.2-11.1,6-11.5,11.3-1.1
			c9.8,5.3,20,22.2,27.2,30.7c8.9,10.4,17.5,21.1,26,31.8C213.8,213.7,224.2,203.1,218.3,195.7z"/>
	</g>
	<g>
		<path class="st6" d="M397.4,195.3c-5.3-12.4-25.5-74.2-39.4-75.2c-13.6-0.9-43.3,56.7-51.4,68.3c-2.2,3.2-4.5,6.7-4.8,10.7
			c-1,15.5-6.8,27.5-2.6,42.4s13.7,28.6,27,34.7c6.2,2.8,12.9,4,19.6,4.5c6.1,0.4,12.4,0.3,18.2-1.9c9.4-3.6,16.2-12.4,21.1-21.7
			C395.1,238.1,405.8,215.1,397.4,195.3z"/>
		<path class="st6" d="M404.5,193.3c-7.5-18.6-20.3-78.4-45.6-80.5c-24.5-2-49.8,54.6-58.8,71.8c-18.5,35.4-11.2,91.2,33.6,101.7
			C384,298.3,417.1,236.6,404.5,193.3c-2.7-9.2-17-5.3-14.3,3.9c5.3,18.3-2.4,55.1-19.3,67.5c-11.1,2.5-22.1,4.9-33.2,7.4
			c-10-1.9-17.4-6.9-22.3-14.9c-9.3-12.1-10.8-23-9.1-38.8c2.3-20.7,12.7-36.6,23.2-53.9c5.3-8.8,10.8-20.4,18.3-27.4
			c10-9.3,12.5-6.1,19.7,5.7c10.2,16.5,15.3,36.6,22.5,54.5C393.7,206,408.1,202.2,404.5,193.3z"/>
	</g>
	<g>
		<path class="st1" d="M63.4,220.8c-0.4-6.3-0.3-13.7,4.6-17.7c5.8-4.6,14.3-1.5,20.9,1.7c17.1,8.3,34,17,50.7,25.9
			c8.7,4.6,17.4,9.3,26.1,14.1c6,3.3,14.1,13.5,19.7,4.4c11.7-19.2,23.5-38.4,35.2-57.5c4.9-8.1,9.4-16.3,14.7-24.1
			c2.5-3.7,5.2-7.3,7.7-11.1c4.9-7.5,8.2-7.1,12.8-0.5c4.3,6.2,9.3,12.1,14,18c8.4,10.6,16.9,21.3,25.3,31.9
			c7.3,9.3,14.7,18.6,22,27.9c5.6,7.1,10,14.2,17.1,20.2c1,0.8,2,1.6,3.2,2c7.2,2.3,15.2-6.5,20.1-10.1c8-5.8,15.9-11.6,23.9-17.4
			c15.6-11.4,31.2-22.7,46.8-34.1c25.2-18.4,16.7,33.3,14.9,42.5c-6.2,32.5-7.4,69.8-18.8,100.7c-7.9,21.2-26.4,27.7-47.4,33.3
			c-60.1,15.8-123.3,17.1-185,12.3c-27.6-2.2-100.1-1-110.4-36.7c-4.5-15.6-5-32-8-47.9C68.6,272.9,65.2,246.9,63.4,220.8z"/>
		<path class="st1" d="M70.8,220.8c-0.4-25.5,36.6,1.5,44.9,5.8c12.6,6.5,25.3,12.8,37.6,19.9c9.1,5.2,20,16.2,31.2,12.8
			c24.2-7.3,44.6-103,70.4-91.9c7.4,3.2,17.3,21.7,22.2,27.8c9.1,11.5,18.3,23,27.3,34.5c7.4,9.5,19.1,31.5,32.9,33.6
			c16.9,2.6,36-19.9,47.8-28.5c12.2-8.9,24.3-19.9,37.4-27.3c12.7-7.2,13.2-11.9,15.9,2.5c2.5,13.2-3.9,31.9-5.8,44.7
			c-3.8,26.4-3.4,63-18.3,86.2c-15.3,23.8-57.1,27.6-82.4,31.4c-30.1,4.6-60.5,6-90.9,5.5c-37.7-0.6-81.8,0-118.5-10
			c-33-9-35.5-28.9-40.1-59.9C78.1,279,73.1,250.2,70.8,220.8c-0.7-9.5-15.6-9.5-14.9,0c2.1,26.9,6,53.1,10.3,79.7
			c3,18.8,2.3,43.6,13.9,59.7c16.9,23.3,53.4,26.3,79.5,28.4c48.8,4,98.2,6.6,147.1,1.9c35.4-3.4,91.4-5.7,116.1-35.8
			c24.7-30.2,24.4-89.4,29-126.5c1.7-13.6,5.8-44.7-15.4-45.1c-16.5-0.3-37.3,23.2-49.6,32.2c-9.4,6.9-19,15.9-29.2,21.3
			c-16.5,8.8-23.3,7.4-35.4-8.1c-17.2-22-34.9-43.7-52.1-65.7c-6.6-8.4-13.5-23.1-26.5-17.7c-15.2,6.3-27.5,39.5-35.4,52.4
			c-6.3,10.3-17,37.3-28.7,41.3c-10.7,3.6-25.3-8.8-36.1-14.5c-21.5-11.4-88.3-58-87.5-3.5C56.1,230.4,71,230.4,70.8,220.8z"/>
	</g>
	<g>
		<path class="st1" d="M238.1,125.8c-1.7,7.8,1.5,16.6,12.1,17.7c4.7,0.5,9.6-1.9,12.1-5.9C275.5,116.7,242.7,104.9,238.1,125.8z"/>
		<path class="st1" d="M223.8,121.9c-1.5,8.2-1.1,16.5,3.5,23.7c5.1,8,13.7,12.1,22.9,12.8c19,1.4,33.1-18.6,29.4-36.2
			c-2.6-12.7-14.5-21.4-27.1-22.1C238.7,99.3,227,108.7,223.8,121.9c-1.8,7.5,2.4,16.5,10.4,18.3c7.7,1.7,16.3-2.3,18.3-10.4
			c0-0.2,0.5-2,0.5-2c0.5,0.1-2.3,3-0.2,0.6c1.2-1.4-2.1,2.3-0.8,1c0.4-0.4,1.4-2-0.1-0.2c-1.3,1.5-0.6,0.3,0.4-0.1
			c-0.3,0.1-3.4,1.2-1.5,0.6c3.4-1.1-2.1,0.5-0.3-0.1c0.6-0.2,3.1,0.3,0.3-0.1c-2.7-0.4-0.6-0.1-0.1,0.1c0.4,0.2,1.1,0.4,1.5,0.4
			c1.6,0.1-3-1.1-1.5-0.6c0.1,0,1.6,1,1.6,1c-0.1,0.2-2.8-2.4-1.3-0.9c1.5,1.6-0.9-1.2-0.8-1.3c0,0,0.9,1.5,1,1.6
			c0.7,1.7-1.3-3.1-0.6-1.4c0.2,0.5,0.6,2.5,0.1,0c-0.4-2.4-0.1-0.6-0.2,0.1c-0.1,1.6,1-3.3,0.1-0.8c-0.2,0.6-0.4,1.3-0.6,1.9
			c0.3-1.2,1.1-2,0.1-0.6c-0.7,1-0.9,0.9-0.1,0.2c2-1.5-1.3,0,0-0.1c1.8-0.3,3.7-0.2,0.8-0.6c-1.6-0.2,1.9,1.2-0.2-0.3
			c0.4,0.3,2.6,1.7,2.3,2.3c0.1-0.1-0.9-1.6-1-1.8c0.5,0.8,1.1,2.4,0.5,0.6c1,3,0.3,1.6,0.2,0.2c-0.1-1,0.6-3.4-0.1,0.2
			c1.4-7.6-2.1-16.4-10.4-18.3C234.8,109.9,225.3,113.7,223.8,121.9z"/>
	</g>
	<g>
		<path class="st1" d="M433.6,168.3c-1.7,7.8,1.5,16.6,12.1,17.7c4.7,0.5,9.6-1.9,12.1-5.9C471,159.1,438.1,147.3,433.6,168.3z"/>
		<path class="st1" d="M419.2,164.3c-1.5,8.2-1.1,16.5,3.5,23.7c5.1,8,13.7,12.1,22.9,12.8c19,1.4,33.1-18.6,29.4-36.2
			c-2.6-12.7-14.5-21.4-27.1-22.1C434.2,141.7,422.5,151.1,419.2,164.3c-1.8,7.5,2.4,16.5,10.4,18.3c7.7,1.7,16.3-2.3,18.3-10.4
			c0-0.2,0.5-2,0.5-2c0.5,0.1-2.3,3-0.2,0.6c1.2-1.4-2.1,2.3-0.8,1c0.4-0.4,1.4-2-0.1-0.2c-1.3,1.5-0.6,0.3,0.4-0.1
			c-0.3,0.1-3.4,1.2-1.5,0.6c3.4-1.1-2.1,0.5-0.3-0.1c0.6-0.2,3.1,0.3,0.3-0.1c-2.7-0.4-0.6-0.1-0.1,0.1c0.4,0.2,1.1,0.4,1.5,0.4
			c1.6,0.1-3-1.1-1.5-0.6c0.1,0,1.6,1,1.6,1c-0.1,0.2-2.8-2.4-1.3-0.9c1.5,1.6-0.9-1.2-0.8-1.3c0,0,0.9,1.5,1,1.6
			c0.7,1.7-1.3-3.1-0.6-1.4c0.2,0.5,0.6,2.5,0.1,0c-0.4-2.4-0.1-0.6-0.2,0.1c-0.1,1.6,1-3.3,0.1-0.8c-0.2,0.6-0.4,1.3-0.6,1.9
			c0.3-1.2,1.1-2,0.1-0.6c-0.7,1-0.9,0.9-0.1,0.2c2-1.5-1.3,0,0-0.1c1.8-0.3,3.7-0.2,0.8-0.6c-1.6-0.2,1.9,1.2-0.2-0.3
			c0.4,0.3,2.6,1.7,2.3,2.3c0.1-0.1-0.9-1.6-1-1.8c0.5,0.8,1.1,2.4,0.5,0.6c1,3,0.3,1.6,0.2,0.2c-0.1-1,0.6-3.4-0.1,0.2
			c1.4-7.6-2.1-16.4-10.4-18.3C430.2,152.3,420.8,156.1,419.2,164.3z"/>
	</g>
	<g>
		<path class="st1" d="M47.8,182.6c-1.7,7.8,1.5,16.6,12.1,17.7c4.7,0.5,9.6-1.9,12.1-5.9C85.2,173.5,52.3,161.7,47.8,182.6z"/>
		<path class="st1" d="M33.5,178.7c-1.5,8.2-1.1,16.5,3.5,23.7c5.1,8,13.7,12.1,22.9,12.8c19,1.4,33.1-18.6,29.4-36.2
			c-2.6-12.7-14.5-21.4-27.1-22.1C48.4,156.1,36.7,165.5,33.5,178.7c-1.8,7.5,2.4,16.5,10.4,18.3c7.7,1.7,16.3-2.3,18.3-10.4
			c0-0.2,0.5-2,0.5-2c0.5,0.1-2.3,3-0.2,0.6c1.2-1.4-2.1,2.3-0.8,1c0.4-0.4,1.4-2-0.1-0.2c-1.3,1.5-0.6,0.3,0.4-0.1
			c-0.3,0.1-3.4,1.2-1.5,0.6c3.4-1.1-2.1,0.5-0.3-0.1c0.6-0.2,3.1,0.3,0.3-0.1c-2.7-0.4-0.6-0.1-0.1,0.1c0.4,0.2,1.1,0.4,1.5,0.4
			c1.6,0.1-3-1.1-1.5-0.6c0.1,0,1.6,1,1.6,1c-0.1,0.2-2.8-2.4-1.3-0.9c1.5,1.6-0.9-1.2-0.8-1.3c0,0,0.9,1.5,1,1.6
			c0.7,1.7-1.3-3.1-0.6-1.4c0.2,0.5,0.6,2.5,0.1,0c-0.4-2.4-0.1-0.6-0.2,0.1c-0.1,1.6,1-3.3,0.1-0.8c-0.2,0.6-0.4,1.3-0.6,1.9
			c0.3-1.2,1.1-2,0.1-0.6c-0.7,1-0.9,0.9-0.1,0.2c2-1.5-1.3,0,0-0.1c1.8-0.3,3.7-0.2,0.8-0.6c-1.6-0.2,1.9,1.2-0.2-0.3
			c0.4,0.3,2.6,1.7,2.3,2.3c0.1-0.1-0.9-1.6-1-1.8c0.5,0.8,1.1,2.4,0.5,0.6c1,3,0.3,1.6,0.2,0.2c-0.1-1,0.6-3.4-0.1,0.2
			c1.4-7.6-2.1-16.4-10.4-18.3C44.4,166.7,35,170.5,33.5,178.7z"/>
	</g>
</g>
</svg>
