<?xml version="1.0" encoding="utf-8"?>
<!-- Generator: Adobe Illustrator 24.1.0, SVG Export Plug-In . SVG Version: 6.00 Build 0)  -->
<svg version="1.1" id="레이어_1" xmlns="http://www.w3.org/2000/svg" xmlns:xlink="http://www.w3.org/1999/xlink" x="0px"
	 y="0px" viewBox="0 0 500 500" style="enable-background:new 0 0 500 500;" xml:space="preserve">
<style type="text/css">
	.st0{fill:#F05A4B;}
	.st1{fill:#FCE061;}
	.st2{fill:#92C2FD;}
	.st3{fill:#98D882;}
	.st4{fill:#D3A1DE;}
	.st5{fill:#6E5850;}
	.st6{fill:#FCC057;}
	.st7{fill:#FF6045;}
	.st8{fill:#FFE771;}
	.st9{fill:#93CFEA;}
	.st10{fill:#6EC695;}
	.st11{fill:#E1B7EA;}
	.st12{fill:#FFA074;}
	.st13{fill:#FFCE0E;}
	.st14{fill:#B1E659;}
	.st15{fill:#6DA1BC;}
	.st16{fill:#8B649E;}
	.st17{fill:#FF9C28;}
	.st18{fill:#63BC9B;}
	.st19{fill:#E36C6B;}
	.st20{fill:#FFD974;}
	.st21{fill:#FA93AB;}
	.st22{fill:#60A7DE;}
	.st23{fill:#D393E3;}
	.st24{fill:#CFD5D7;}
	.st25{fill:#FFFFFF;}
	.st26{fill:#FFB901;}
	.st27{fill:#FFF2DF;}
	.st28{fill:none;}
	.st29{fill:#F8F2D7;}
	.st30{fill:#FFD06B;}
	.st31{fill:#EA3C23;}
	.st32{fill:#8A1F1C;}
	.st33{fill:#ECEDEE;}
	.st34{fill:#F9DE5F;}
	.st35{fill:#FFE986;}
	.st36{clip-path:url(#SVGID_2_);fill:#FFE986;}
	.st37{fill:#C7CACB;}
	.st38{fill:#FDACC0;}
	.st39{fill:#FFCEDC;}
	.st40{fill:#711A18;}
	.st41{fill:#FFCA33;}
	.st42{fill:#FF6134;}
	.st43{fill:#FF6A89;}
	.st44{fill:#FD8E9E;}
	.st45{clip-path:url(#SVGID_4_);fill:#FF6E57;}
	.st46{fill:#D2E5FF;}
</style>
<g>
	<g>
		<g>
			<path class="st46" d="M149.9,182.2c-0.5,0.3-0.9,0.7-1.4,1c-4.6,3.4-8.8,7.6-12.2,12.2c-2.2,3-4,6.2-5.8,9.4
				c-0.6,1.1-5.7,8.6-5.2,9.4c-4.9-8.9-10.3-17-17.8-24c-2.6-2.4-5.4-4.7-8.5-6.3c-6.1-3.2-14.4-6.9-21.3-7.5
				c-7.7-0.7-15.4,1.7-21.9,5.8c-16.5,10.5-24.1,31.8-21.6,51.2s13.7,36.8,27.7,50.3c14.1,13.5,31,23.7,47.9,33.6
				c3.9,2.3,8,4.7,12.6,4.8c4.9,0.1,9.4-2.6,13.6-5.2c36.7-22.7,74.1-52.6,82.1-95c3.2-16.8-1.1-37.1-15.8-47.4
				c-2.7-1.9-5.7-3.3-8.9-4.3c-10.3-3-21.5-0.4-30.9,4.1C158,176.5,153.8,179.3,149.9,182.2z"/>
			<path class="st7" d="M140.9,166.8c-14.8,10.8-25.9,25.7-32.8,42.7c10.9-1.4,21.7-2.8,32.6-4.3c-14.9-25-38.9-49.3-70.7-46.3
				c-24.3,2.3-43.9,22.2-50.8,44.8c-8.6,28.3,0.9,57.7,18.8,80.1c16.8,21.1,49.4,48.7,76.3,54.7c25.5,5.7,51.9-19.1,70-34.3
				c22.8-19.1,43-43.9,49.9-73.4C248.6,169.5,192.2,131.5,140.9,166.8c-18.8,12.9-1,43.8,18,30.8c14.6-10,34.5-12.6,41.7,6.6
				c5,13.4-5.1,32.6-12.3,43.6c-11.4,17.3-40.1,49.2-61.3,53.7c-20.5,4.4-55.6-30.1-65.7-46.2c-9-14.5-14.3-33.9-3.5-48.8
				c18-24.7,41-2.2,52.1,16.6c8.5,14.3,27,9.3,32.6-4.3c3.2-7.8,9.6-16.4,16.4-21.4C177.2,184.1,159.4,153.2,140.9,166.8z"/>
		</g>
		<path class="st7" d="M228,243.8c13.6-7.1,28.4-7.3,42.8-2.8c21.9,7,31.3-27.4,9.5-34.4c-23.6-7.5-48.4-5-70.3,6.4
			C189.7,223.6,207.7,254.4,228,243.8L228,243.8z"/>
		<g>
			<path class="st46" d="M452.1,258.2c-23,37.3-70.3,71.4-98.6,62C328.8,312,308,280.1,296,259c-7.5-13.1-13.3-27.5-13.8-42.5
				c-0.5-15,5.1-30.8,17-40c13-10.1,31.8-10.7,46.9-4.1c15.5,6.8,25.5,19.7,35,32.9c23.6-19.8,54.7-41.3,78.4-6.9
				C470.4,214.3,465.3,236.8,452.1,258.2z"/>
			<path class="st7" d="M436.7,249.2c-12.2,18.4-28.2,35.7-47.8,46.3c-25,13.6-40.1,6-57.4-15.3c-12.9-15.8-27.6-36.9-30.4-57.4
				c-2.8-20.2,8.2-41.7,32.3-36.1c14.4,3.3,23.9,16.2,32.1,27.4c7.3,9.9,18.5,11.4,28,3.6c7.6-6.2,20.7-18.5,31.3-19.2
				C457.1,196.5,445.5,233.6,436.7,249.2c-11.2,20.1,19.6,38.1,30.8,18c18-32.4,24.8-74.1-11.6-97.2c-31-19.6-63.4,2.7-87.6,22.5
				c9.3,1.2,18.7,2.4,28,3.6c-22.7-31.1-59-60.3-99.3-39.4c-44.3,22.9-35.4,78.4-14.8,114.2c17.8,30.8,45.8,70.6,85.7,68.3
				c41.7-2.3,78-39.5,99.5-72.1C480.2,248,449.3,230.1,436.7,249.2z"/>
		</g>
	</g>
	<path class="st25" d="M64.4,229c-0.4,5.2,1.5,10.2,3.7,14.9c1.6,3.4,3.5,6.6,5.7,9.7c5,7.1,10.9,13,17.9,18.2
		c1.7,1.3,4.9,1.4,6.9,0.9c2.1-0.6,4.3-2.2,5.3-4.1c1.1-2.1,1.6-4.6,0.9-6.9c-0.8-2.3-2.1-3.9-4.1-5.3c-0.3-0.2-0.6-0.5-0.9-0.7
		c0.7,0.5,1.2,1,0.2,0.1c-0.6-0.5-1.2-1-1.8-1.5c-1.2-1.1-2.4-2.2-3.6-3.4c-1.1-1.2-2.2-2.4-3.3-3.6c-0.6-0.7-1.1-1.4-1.6-2
		c0.3,0.3,1,1.4,0.3,0.4c-0.3-0.4-0.6-0.8-0.8-1.2c-1.9-2.7-3.6-5.5-5-8.4c-0.4-0.7-0.7-1.4-1-2.2c-0.5-1,0.6,1.6,0,0.1
		c-0.1-0.4-0.3-0.8-0.4-1.2c-0.2-0.6-0.3-2-0.6-2.5c0.1,1.2,0.2,1.5,0.1,0.8c0-0.2,0-0.4,0-0.6c0-0.5,0-1,0-1.6
		c0.3-4.7-4.3-9.1-8.9-8.9C68.2,220.3,64.8,224,64.4,229L64.4,229z"/>
	<path class="st25" d="M315,220.7c-0.5,5.2,1,10.3,2.8,15.1c1.7,4.6,3.7,9.1,6,13.4c4.4,8.1,10,15.7,16.4,22.4
		c3.2,3.4,9.4,3.5,12.6,0c3.3-3.6,3.4-9,0-12.6c-1.4-1.4-2.7-2.9-4-4.5c-0.6-0.8-1.3-1.5-1.9-2.3c1.3,1.6-0.7-0.9-0.9-1.2
		c-2.4-3.2-4.5-6.6-6.4-10.1c-1-1.8-1.9-3.5-2.7-5.3c-0.4-0.9-0.8-1.8-1.2-2.7c0.9,2-0.4-1-0.5-1.3c-0.8-2-1.5-4-2-6
		c-0.1-0.5-0.4-3.6-0.3-1.6c0-1.1,0-2.1,0-3.2c0.4-4.7-4.4-9.1-8.9-8.9C318.8,212,315.5,215.7,315,220.7L315,220.7z"/>
</g>
</svg>
