<?xml version="1.0" encoding="utf-8"?>
<!-- Generator: Adobe Illustrator 24.1.0, SVG Export Plug-In . SVG Version: 6.00 Build 0)  -->
<svg version="1.1" id="레이어_1" xmlns="http://www.w3.org/2000/svg" xmlns:xlink="http://www.w3.org/1999/xlink" x="0px"
	 y="0px" viewBox="0 0 500 500" style="enable-background:new 0 0 500 500;" xml:space="preserve">
<style type="text/css">
	.st0{fill:#F05A4B;}
	.st1{fill:#FCE061;}
	.st2{fill:#92C2FD;}
	.st3{fill:#98D882;}
	.st4{fill:#D3A1DE;}
	.st5{fill:#6E5850;}
	.st6{fill:#FCC057;}
	.st7{fill:#FF6045;}
	.st8{fill:#FFE771;}
	.st9{fill:#93CFEA;}
	.st10{fill:#6EC695;}
	.st11{fill:#E1B7EA;}
	.st12{fill:#FFA074;}
	.st13{fill:#FFCE0E;}
	.st14{fill:#B1E659;}
	.st15{fill:#6DA1BC;}
	.st16{fill:#8B649E;}
	.st17{fill:#FF9C28;}
	.st18{fill:#63BC9B;}
	.st19{fill:#E36C6B;}
	.st20{fill:#FFD974;}
	.st21{fill:#FA93AB;}
	.st22{fill:#60A7DE;}
	.st23{fill:#D393E3;}
	.st24{fill:#CFD5D7;}
	.st25{fill:#FFFFFF;}
	.st26{fill:#FFB901;}
	.st27{fill:#FFF2DF;}
	.st28{fill:none;}
	.st29{fill:#F8F2D7;}
	.st30{fill:#FFD06B;}
	.st31{fill:#EA3C23;}
	.st32{fill:#8A1F1C;}
	.st33{fill:#ECEDEE;}
	.st34{fill:#F9DE5F;}
	.st35{fill:#FFE986;}
	.st36{clip-path:url(#SVGID_2_);fill:#FFE986;}
	.st37{fill:#C7CACB;}
	.st38{fill:#FDACC0;}
	.st39{fill:#FFCEDC;}
	.st40{fill:#711A18;}
	.st41{fill:#FFCA33;}
	.st42{fill:#FF6134;}
	.st43{fill:#FF6A89;}
	.st44{fill:#FD8E9E;}
	.st45{clip-path:url(#SVGID_4_);fill:#FF6E57;}
	.st46{fill:#D2E5FF;}
</style>
<g>
	<g>
		<path class="st24" d="M198.5,340c12,24.1,23.4,48.7,38.3,71.2c7.2,10.9,15.9,20.6,23,31.5c7.4,11.3,13.6,23.4,20.5,35.1
			c1.5,2.5,5.3,0.2,3.8-2.2c-6.7-11.3-12.7-23-19.8-34.1c-7.3-11.3-16.3-21.3-23.7-32.5c-14.9-22.5-26.3-47.1-38.3-71.2
			C201.1,335.1,197.3,337.4,198.5,340L198.5,340z"/>
		<path class="st24" d="M196.6,341.1c11.7,23.7,23,47.9,37.6,70.1c7.4,11.3,16.3,21.4,23.8,32.6c7,10.6,12.7,22,19.2,32.9
			c1.4,2.3,2.8,4.8,5.9,4.2c2.1-0.4,3.6-2.3,3.6-4.3c0.1-4.3-5.1-10-7.1-13.7c-3.4-6.1-6.8-12.2-10.5-18.2
			c-6.6-10.8-14.7-20.5-22.2-30.8c-7.6-10.5-14.1-21.7-20.3-33.1c-7.2-13.4-13.8-27.1-20.6-40.8c-1.3-2.7-2.7-6.6-6.5-5.6
			c-3,0.8-3.5,3.5-3.1,6c0.4,2.8,4.7,1.6,4.3-1.2c0.4,2.7,3.2,6.4,4.4,8.8c1.5,3.1,3.1,6.2,4.6,9.4c3.1,6.2,6.2,12.5,9.4,18.6
			c6,11.6,12.4,23,19.6,33.8c7,10.5,15.3,20,22.3,30.4c7.3,10.9,13.3,22.6,19.9,34c-6.3-10.8-12.2-22.3-19.2-32.9
			c-7.2-10.9-15.8-20.7-23-31.5c-15-22.4-26.3-47.1-38.3-71.2C199.2,336.3,195.4,338.5,196.6,341.1z"/>
	</g>
	<g>
		<path class="st24" d="M266.8,235.6c5.4,21,7.7,42.5,6.4,64.2c-1.3,22-7.5,42.1-13.1,63.2c-5.2,19.7-6.1,40.7-6,61
			c0.1,20.3,2.5,40.5,8.4,60c0.8,2.7,5.1,1.6,4.3-1.2c-12.3-40.7-11.5-88.5,0.7-129.1c11.8-39.2,13.9-79.4,3.6-119.3
			C270.3,231.7,266,232.8,266.8,235.6L266.8,235.6z"/>
		<path class="st24" d="M264.6,236.2c5.2,20.8,7.6,42.2,6.3,63.6c-1.2,19.6-6.5,38.5-11.6,57.3c-9.7,36-10.5,76.2-2.8,112.7
			c0.9,4.4,1.3,15.6,6.5,17.6c2.6,1,5.5-0.6,6-3.4c0.5-2.8-1.5-6.7-2.2-9.2c-1.1-4.2-2-8.4-2.8-12.6c-1.9-10.1-3.1-20.4-3.6-30.7
			c-0.9-19.6,0.5-39.3,4.5-58.4c4-19.3,10.4-37.7,13-57.3c2.8-20.7,2.6-41.7-0.7-62.4c-0.9-5.6-1.9-11.2-3.3-16.7
			c-0.5-2.1-0.8-4.3-2.8-5.4c-3.4-1.9-6.5,1-6.5,4.4c0,2.9,4.4,2.9,4.5,0c-0.1,3.6,2.1,8.4,2.7,11.9c0.9,4.9,1.7,9.8,2.3,14.7
			c1,8.3,1.4,16.7,1.4,25.1c-0.1,17.5-2.3,35-6.4,52c-3.6,15.2-8.4,29.8-10.7,45.3c-2.2,15-3.1,30.3-2.4,45.4
			c0.6,14.6,2.6,29.2,6,43.3c0.2,0.8,2.6,10.1,1.6,5.9c-1-4-2.1-8-2.9-12.1c-1.8-8.8-3-17.8-3.6-26.8c-1.2-16.6-1-33.5,0.6-50.1
			c1.6-16.8,6.4-32.7,10.6-49c9.1-35.5,9.7-70.8,0.7-106.4C268.2,232.3,263.9,233.4,264.6,236.2z"/>
	</g>
	<g>
		<path class="st24" d="M334.6,290c6.3,34.9-22.7,61.8-41.3,87.6c-22.5,31.2-47.4,61.4-63.1,96.9c-1.1,2.6,2.7,4.9,3.8,2.2
			c16.4-37.3,42.9-69.8,67-102.4c18.9-25.5,44-51.1,37.8-85.6C338.4,286,334.1,287.2,334.6,290L334.6,290z"/>
		<path class="st24" d="M332.4,290.6c5.4,33.7-21.5,59.4-39.9,84.2c-21.7,29.4-45,58.4-61,91.4c-1.5,3.2-5.9,9.1-2.4,12.6
			c3.5,3.5,6.4-0.2,7.9-3.2c8-16.5,17-32.2,27.3-47.4c19.3-28.3,42.1-54.3,61.2-82.8c8.6-12.9,15.7-27.2,16.5-43
			c0.2-4,1.4-15.1-3.4-17.1c-3.5-1.5-5.9,1.6-6.2,4.7c-0.2,2.9,4.2,2.8,4.5,0c-0.3,3.5,0.9,7.7,0.8,11.3c-0.1,3.4-0.5,6.8-1.2,10.2
			c-1.5,7.2-4.3,14-7.8,20.4c-6.2,11.5-14.4,21.8-22.4,32.2c-17.7,23-35.6,46.1-51.4,70.5c-8,12.3-15.5,25.3-21.5,38.6
			c6.1-13.6,13.8-26.5,22-38.9c16.4-24.8,34.5-48.8,52.8-72.2c16.7-21.2,33.3-44.3,28.7-72.7C336.3,286.6,332,287.8,332.4,290.6z"/>
	</g>
	<g>
		<path class="st1" d="M338.1,292.1c-2.6,1-5.5,0.6-8.1-0.3c-1.4-0.5-6.3-2.4-6.9-4c-0.5-1.5,1.8-3.5,2.5-4.7
			c1.3-2.2,2.4-4.6,2.6-7.2c0-0.5,0-0.9-0.1-1.4c-0.2-0.5-0.6-0.8-0.9-1.2c-2.9-2.8-4.7-4.2-8.4-5.9c-3.7-1.8-7.3-3.8-10.7-6.2
			c-6.5-4.5-12.9-10.3-17.3-16.9c-7.5-10.2-15.5-25.1-16.9-37.9c-1.5-13.1-5.1-25.7-5.2-39c-0.1-30.3,14.4-68.1,43.2-84.6
			c21.8-12.5,50.2-10.5,71.9,1.2c25.4,13.7,32.9,39.5,36,65c2.9,23.8-2.6,47.9-11.6,70.3c-3.4,8.6-7.4,17-12.9,24.7
			c-6.9,9.7-16,18-26.5,24.2c-4.9,2.9-11.5,1.7-15.2,6.7c-3.1,4.2,1.2,9.2,1.4,13.5c0.2,3.3-3.4,4.4-7.3,4.8
			c-7.1,0.6-16.6,1.3-22.7-2.8c-1.6-1-2.1-1.9-2.1-2.7C327.1,291.3,332.7,293.4,338.1,292.1z"/>
		<path class="st1" d="M335.7,283.6c-1.7,0.4-2.7-0.3-4.3-0.7c-0.2-0.1-0.4-0.2-0.7-0.3c-3.7-2.5-3.5,0.2,0.5,8
			c3.2-1.8,5.2-9,5.6-12.2c1.4-10.4-7.8-15.5-15.8-19.6c-17.8-9.4-31-26.6-36.7-45.8c-2.9-9.8-3.9-20.8-5.4-30.9
			c-1.4-9.1-1.7-18.3-0.5-27.4c2.2-16.7,8.5-33.5,18.8-46.9c11.2-14.6,27.4-23.8,46-24.4c18-0.5,37.4,5.6,49.9,19
			c11.6,12.5,15.8,30.3,17.8,46.8c2.6,21.5-1.8,42.8-9.3,63c-7.3,19.6-20.4,44.1-42.3,50c-10,2.7-17.7,9.9-15.1,21.1
			c0.2,0.7,1.4,5.7,1.9,5.9c4-4.2,4.6-5.7,1.6-4.6c-1.4,0.1-2.7,0.2-4.1,0.3c-2.2,0.1-4.4,0.3-6.5,0.1c-2.3-0.2-6.7-2.5-5.6,0.6
			c-4.4,3.4-8.7,6.7-13.1,10.1c6.7,5.2,13.8,6.6,22.1,5.4C351.8,299,347,281.8,335.7,283.6c-3.2,0.5-5.9-1.7-8.3-3.6
			c-6.1-4.7-15.6,3.1-13.1,10.1c3.6,10.1,15.3,12.5,25,12.5c8.6,0,21.1-0.4,24.2-10.3c1.3-4.1,0-9.2-1.7-13
			c-0.9-2.1-1.3,0.7-0.1,0.6c0.8-0.1,1.7-0.5,2.5-0.7c2.6-0.7,5.1-1.3,7.6-2.4c9.7-4.5,18.8-12.7,25.6-20.8
			c15-17.6,23.9-41.3,28.7-63.7c4.8-22.3,4.3-45.2-1.6-67.2c-5.2-19.2-15.8-36.6-33.1-47.1c-18.6-11.4-42-15.2-63.2-10.8
			c-40,8.4-62.8,49-67.4,86.8c-1.5,12.4-0.4,24.4,1.8,36.7c2.3,13.5,3.7,26.4,9.5,38.9c4.9,10.9,11.8,21.9,20.5,30.1
			c4.3,4.2,9.2,7.9,14.3,11.1c5.1,3.2,11.3,5,15.1,9.9c-0.9-2.1-1.7-4.2-2.6-6.3c0.4,3.8-3.6,6.3-4.6,9.7c-1.2,4.4,0.4,8.4,3.7,11.3
			c5.8,5.1,14.8,6.9,22.1,5.1C351.6,298,346.9,280.8,335.7,283.6z"/>
	</g>
	<g>
		<path class="st7" d="M214.2,206c7.8,4.9,17,7,24.8,11.8c2.5,1.5,4.4,3.7,7,5.1c3.4,1.9,11,1.9,10.7,6.9c-0.2,4.5-0.7,8.9-1.4,13.3
			c6,1.5,11.5-3.1,17.4-5.1c2.4-0.8,5-1.2,7.5-2c3.3-1.1,6.3-2.9,9.2-4.8c0.4-0.3,0.9-0.6,1-1.1c0.1-0.7-0.5-1.3-1.1-1.7
			c-3.1-2.3-6.1-4.6-9.2-7c-1.1-0.8-2.2-2.1-1.6-3.3c0.2-0.4,0.6-0.6,1-0.9c7.8-5,13.5-16.6,18.2-24.5c6.1-10.3,10.9-21.4,14.9-32.8
			c4.3-12.4,7.8-25.1,8.9-38.2c2.9-35.1-13.9-72.2-44.6-89.6s-74-11.2-95.5,16.8c-4.4,5.8-7.9,12.2-10.7,18.9
			c-12.5,29.9-11.2,65.2,3.4,94c16.2,31.9,46.2,51.8,79.6,62.2c0.9,0.3,2.4,0.2,2.4-0.8"/>
		<path class="st7" d="M209.7,213.7c9.2,5.4,19.5,8,28.1,14.4c2.5,1.8,6.4,5,9.6,4.8c0.7,0.2,1.4,0.4,2,0.6
			c-0.6-1.2-1.1-2.4-1.7-3.7c0.4,0.1-1,10.2-1.1,11c-1,6.3,2.4,10.5,8.6,11.3c6.6,0.9,11.6-2,17.5-4.4c6.3-2.6,12.9-3.6,18.8-7.2
			c4.9-3,9.1-7.3,7-13.5c-2.1-6.2-9.5-8.7-13.7-13.1c0.9,2.1,1.7,4.2,2.6,6.3c0-0.6-0.1-1.2-0.1-1.8c-0.9,2.1-1.7,4.2-2.6,6.3
			c14.3-12.4,23.5-30.6,30.8-47.9c8.7-20.5,15.6-43,14.9-65.5c-1.1-36.9-21.6-74.9-56.4-90.1C242.5,7.2,201,13,177.6,39.7
			c-28,31.9-30.6,82.3-14.3,120.1c8.8,20.5,23.5,37.4,41.4,50.4c8.6,6.2,18,11.4,27.8,15.6c8.2,3.5,22.3,11.9,29.9,4
			c7.9-8.3-4.7-20.9-12.6-12.6c-0.3,0.3-0.5,0.6-0.8,0.9c2.1-0.9,4.2-1.7,6.3-2.6c-3.6-0.2-8.4-2.9-11.8-4.2
			c-3.4-1.4-6.7-2.9-10-4.5c-7.8-3.9-15.4-8.4-22.3-13.8c-13.5-10.5-24.6-24.2-31.5-39.8c-14.1-32-12.4-78.7,14-104.3
			c21.6-20.9,57.6-22.4,82.4-6.5c28.3,18.2,40.8,54.8,35.5,87.1c-3.6,22.1-12.4,43.1-23.5,62.4c-2.1,3.7-4.2,7.4-6.6,10.9
			c-2.7,3.8-6.2,6-9.2,9.3c-3,3.4-3.4,8.6-1.3,12.6c1.1,2,3,3.3,4.6,4.7c1.5,1.2,3.1,2.3,4.6,3.5c2.4,2.5,2.9,2.4,1.6-0.2
			c0.8-2.9,1.5-5.8,2.3-8.7c-3.6,4-10.2,4.3-14.9,6c-4.6,1.7-8.8,5-13.9,4.3c2.9,3.8,5.7,7.5,8.6,11.3c1-6.2,3.2-14.3,0.8-20.5
			c-2.1-5.4-6.8-7.3-11.8-9.1c-5.1-1.9-8.9-5.7-13.8-8.2c-6.7-3.3-13.9-5.6-20.4-9.4C208.8,192.5,199.8,207.9,209.7,213.7
			L209.7,213.7z"/>
	</g>
	<g>
		<path class="st18" d="M201.2,343.1c5.1-2.9,9.8-8.1,12.7-12.8c0.2-0.4,0.4-0.7,0.4-1.1c-0.1-0.3-0.3-0.6-0.5-0.8
			c-1.6-1.6-8.2-6.4-8.3-8.6c-0.1-1.6,3.1-4.3,4-5.5c2.6-3.4,5.4-7,7.4-10.8c3.6-6.7,5.5-14.3,6.6-21.8c2.3-15.2,1.5-31.3-2.5-46.1
			c-6.7-24.8-21.3-48.8-42.5-63.7c-30.6-21.6-80-21.5-97.6,14.7c-12.9,26.5-13.3,57.7-0.3,84.6c9.5,19.7,24.3,37.9,43.2,49.2
			c10.4,6.2,20.6,10.8,32.7,12.6c7,1.1,14.2,0.7,21.1,1.6c5.9,0.7,6.3,4.6,7.1,10c0.8,5.2,11.1,1,13.7,0
			C199.3,344.1,200.3,343.6,201.2,343.1z"/>
		<path class="st18" d="M205.7,350.8c6.8-4.3,19.7-14.5,17.1-24c-0.9-3.4-3.8-5.5-6.3-7.7c-0.6-0.5-1.2-1.3-1.9-1.6
			c-0.2-0.2-0.4-0.4-0.6-0.6c-1.9-2.1-2-0.2-0.3,5.7c1.1-0.1,3.5-4.1,4-4.9c14.9-19.5,17.7-44.9,14.6-68.8
			c-5.3-41-31.8-82.3-72.1-96c-32.3-10.9-72.2-2.7-87.8,30.2c-20.2,42.5-9.1,90.7,22.1,124.7c16.9,18.5,40.5,32.1,65.7,34.5
			c3.5,0.3,7.1,0.4,10.6,0.6c1.2,0.1,2.8,0.4,3.9,0.3c0.7,0.1,1.3,0.2,2,0.3c-1.5-1.8-2.1-2.1-1.6-0.7c-1.7,3.2,3.5,9.8,5.9,11.3
			C188.5,358.6,199,354.4,205.7,350.8c10.1-5.4,1.1-20.8-9-15.4c-1.9,1-5.3,1.3-6.8,2.6c-1.7,1.4,2.4,6.2,3.1,3.3c0.3-1-0.5-3-0.8-4
			c-2.5-8.6-9.3-11.2-17.4-12c-9.8-0.9-19-0.8-28.4-3.9c-9-2.9-17.5-7.7-25.1-13.3c-29.8-21.9-47.7-61.4-39.4-98
			c3.3-14.4,9.3-29,22.5-37c11.2-6.8,25.1-8.3,37.8-6.4c32.8,5,56.6,32,67.3,62.2c7.1,20.2,9.5,44.7,1.8,65.2
			c-1.9,5.2-5,9.8-8.5,14.1c-2.4,2.9-5.2,5.3-6,9.1c-1.8,8.6,6.7,11.6,9.8,16.2c-0.3-2.3-0.6-4.6-0.9-6.9c-1,3.3-6.3,6.9-8.9,8.6
			C187.1,341.5,196,357,205.7,350.8z"/>
	</g>
	<g>
		<path class="st25" d="M103.8,185c-0.6-0.7-1.8-0.8-2.8-0.3c-4.1,1.7-6.8,7.3-9,10.8c-3.3,5.2-5.8,12.3-7.3,18.3
			c-3.1,12-2.7,24.8,1.6,36.5c1,2.7,5.3,1.5,4.3-1.2c-3.7-10.3-4.5-21.5-2-32.2c1.2-5.2,3-11.5,5.6-16.2c1.9-3.5,4.3-6.7,6.8-9.8
			c0.9-1.1,3.2-2.9,3.3-4.4C104.2,185.9,104,185.4,103.8,185z"/>
		<path class="st25" d="M88.3,254.8c-0.3,0-0.6,0-1-0.1c-1.9-0.3-3.4-1.6-4-3.4c-4.4-12-5-25.6-1.6-38.3c1.2-4.4,3.7-12.8,7.7-19.1
			c0.4-0.6,0.7-1.2,1.1-1.9c2.2-3.7,4.9-8.3,9.3-10.1c2.4-1,4.9-0.5,6.3,1.2l0,0c0.6,0.7,1.2,1.9,1,3.8c-0.2,2-1.9,3.7-3.2,5
			c-0.3,0.3-0.6,0.6-0.8,0.9c-2,2.4-4.5,5.7-6.5,9.4c-2.5,4.6-4.3,10.9-5.3,15.4c-2.3,10.2-1.6,20.7,1.9,30.6
			c0.6,1.7,0.3,3.5-0.8,4.8C91.4,254.1,89.9,254.8,88.3,254.8z"/>
	</g>
	<g>
		<path class="st25" d="M93.2,264.2c0.8,2.6,2.2,5,4.1,6.9c0.8,0.8,2.3,0.9,3.2,0c0.8-0.9,0.9-2.3,0-3.2c-0.4-0.4-0.8-0.9-1.2-1.4
			c0.1,0.2,0.2,0.3,0.3,0.5c-0.8-1-1.4-2.1-1.9-3.3c0.1,0.2,0.1,0.4,0.2,0.5c-0.2-0.4-0.3-0.9-0.5-1.3c-0.2-0.5-0.5-1-1-1.3
			c-0.5-0.3-1.2-0.4-1.7-0.2C93.6,261.8,92.8,263,93.2,264.2L93.2,264.2z"/>
		<path class="st25" d="M98.9,274.8c-1.4,0-2.8-0.6-3.7-1.5c-2.2-2.3-3.9-5.1-4.9-8.1l0,0c-0.8-2.7,0.7-5.6,3.5-6.5
			c1.3-0.4,2.9-0.2,4.1,0.5c1.1,0.6,1.9,1.7,2.4,3c0.1,0.3,0.2,0.6,0.3,0.9c0.3,0.7,0.8,1.5,1.3,2.1c0.2,0.3,0.5,0.6,0.7,0.8
			c2,2,2,5.2,0.1,7.2C101.7,274.2,100.4,274.7,98.9,274.8C99,274.8,98.9,274.8,98.9,274.8z M96,263.3L96,263.3L96,263.3L96,263.3z"
			/>
	</g>
	<g>
		<path class="st25" d="M181.3,109.1c0.2-0.4,0.3-0.8,0.4-1.2c0.4-2.3,0.3-4.7,0.5-7c0.2-2,1.2-3.9,0.8-5.9
			c-0.1-0.4-0.2-0.8-0.6-1.1c-0.2-0.1-0.4-0.1-0.6-0.1c-0.8,0-1.5,0.3-2.1,0.8c-0.6,0.5-1,1.2-1.3,1.9c-1.2,2.4-1.3,5.4-1.4,8
			c-0.1,1.4,1.2,7.4,3.7,5.5C181,109.7,181.2,109.5,181.3,109.1z"/>
		<path class="st25" d="M179.7,113.3c-0.7,0-1.3-0.2-2-0.5c-3.3-1.7-3.8-7.5-3.8-8.5c0.1-3.1,0.3-6.3,1.7-9.2
			c0.6-1.2,1.3-2.1,2.1-2.8c1.2-1.1,2.7-1.6,4.2-1.6c0.7,0,1.4,0.2,2,0.6c1,0.6,1.7,1.6,2,3c0.4,1.9-0.1,3.6-0.4,5
			c-0.2,0.6-0.3,1.2-0.4,1.8c-0.1,0.8-0.1,1.6-0.1,2.5c0,1.6-0.1,3.2-0.4,4.8c-0.1,0.8-0.3,1.4-0.6,2l0,0c-0.4,0.8-0.9,1.4-1.5,1.9
			C181.6,113,180.7,113.3,179.7,113.3z"/>
	</g>
	<g>
		<path class="st25" d="M227.5,43c1.7-0.6,2-2.3,0.8-3.6c-1.3-1.4-3.9-1.2-5.7-1.1c-4.5,0.1-9.3,3-13,5.5
			c-8.3,5.5-15,13.4-20.1,21.9c-2.5,4.2-5.2,7.8-5.4,12.9c0,1.3,0.4,2.5,1.8,2.8c1.9,0.3,2.4-1.3,3.1-2.7
			c4.4-7.7,8.9-15.6,15.5-21.6C211.2,50.9,219,46.1,227.5,43z"/>
		<path class="st25" d="M186.5,84.3c-0.3,0-0.7,0-1-0.1c-2.7-0.5-4.3-2.8-4.2-5.8c0.2-5.2,2.5-9,4.8-12.7l1-1.7
			c5.8-9.6,13-17.5,21-22.8c4.6-3,9.5-5.9,14.6-6c2.7-0.1,5.9-0.2,7.9,2.1c1.3,1.4,1.7,3.2,1.3,4.8c-0.4,1.6-1.6,2.9-3.3,3.5h0
			c-8,2.9-15.5,7.5-21.9,13.4c-6.4,5.9-10.9,13.9-14.9,20.9C190.9,81.6,189.5,84.3,186.5,84.3z M223.8,41.3c-0.2,0-0.3,0-0.4,0
			l-0.6,0c-4,0.1-9,3.4-11.4,5c-7.2,4.8-13.8,12-19.2,20.9l-1.1,1.8c-1.2,1.9-2.3,3.7-3,5.6c3.8-6.7,8.3-13.9,14.5-19.7
			C208.8,49.1,216.1,44.4,223.8,41.3z M227.5,43l-1-2.8c0,0,0,0,0,0L227.5,43l-1-2.8L227.5,43z M226.5,40.2L226.5,40.2L226.5,40.2z"
			/>
	</g>
	<g>
		<path class="st25" d="M336.7,95.3c13.7-4.5,27.6-2.3,40.4,3.9c0.7,0.3,1.3,0.6,2.1,0.7c2.5,0.1,1.3-2.5,0.4-3.5
			c-1.3-1.4-2.9-2.2-4.6-3c-2.5-1.1-5-2.1-7.7-2.8c-10.3-2.9-21.5-2.8-31.8,0.5C332.8,91.9,334,96.2,336.7,95.3z"/>
		<path class="st25" d="M379.3,102.8c-0.1,0-0.1,0-0.2,0c-1.4,0-2.5-0.6-3.3-1c-13.2-6.4-26.1-7.7-38.2-3.7l0,0
			c-2.7,0.9-5.4-0.5-6.3-3.3c-0.9-2.8,0.5-5.8,3.3-6.7c10.7-3.5,22.6-3.7,33.5-0.6c2.8,0.8,5.5,1.8,8.1,3c1.8,0.8,3.9,1.9,5.6,3.7
			c1.1,1.2,2.6,3.8,1.5,6.2C383,101.1,381.9,102.8,379.3,102.8z"/>
	</g>
	<g>
		<path class="st4" d="M230.1,448.3c6.4-0.1,12.2-2.4,17.7-5.4c2.6-1.4,4.9-3.1,7.3-4.8c1.6-1.2,3.8-2.2,3.8-4.5
			c0-1.8-1.3-3.4-2.5-4.6c-2.4-2.3-5.3-4.2-8.2-6c-2.5-1.5-5.1-2.9-7.8-4.1c-2.8-1.3-5.9-2.9-9.1-2.7c-2.1,0.2-4.1,1.2-4.7,3.3
			c-0.9,2.7,1.1,5.3,2.7,7.3c4,4.7,9.8,7.1,15.6,8.8c4.6,1.3,11.9,3.2,15.1-1.8c0.7-1,0.9-2.2,1.4-3.3c0.6-1.2,1.4-2.2,2.3-3.2
			c1.7-2,3.7-3.8,5.8-5.4c2.7-2,5.9-3.5,9.3-3.9c1-0.1,3.2-0.5,3.5,0.6c0.4,1.2-2.9,3.4-3.6,3.9c-6.6,4.3-14.5,7.2-21.8,10.2
			c-2.3,1-2,4.1,0.6,4.4c-1.1-0.1,0.5,0.6,1,0.9c0.8,0.5,1.5,1.1,2.3,1.6c1.6,1.2,3.4,2.2,5.1,3.2c5.6,3.2,11.5,5.8,17.4,8.5
			c2.6,1.2,4.9-2.7,2.2-3.8c-6.5-3-12.9-5.8-19-9.5c-1.7-1-3.2-2.1-4.8-3.2c-1.3-0.9-2.6-2-4.2-2.2c0.2,1.5,0.4,2.9,0.6,4.4
			c5.8-2.4,11.5-4.9,17.1-7.6c4-1.9,9.3-4.2,11.1-8.7c1.8-4.4-1.6-7.2-5.8-7.2c-4.6,0-9.1,1.8-12.9,4.4c-3.5,2.4-6.9,5.5-9.3,9.1
			c-1.3,1.9-1.3,4.8-3.8,5.6c-2.9,0.9-6.5-0.5-9.3-1.4c-2.6-0.8-5.2-1.7-7.6-3.1c-1.7-1-6.6-4.2-6.3-6.5c0.1-1,0.4-0.7,1.4-0.6
			c0.8,0.1,1.6,0.4,2.3,0.7c1.4,0.5,2.7,1.1,4,1.7c2.7,1.2,5.3,2.6,7.7,4.2c2.4,1.5,6.1,3.4,7.5,5.9c0.4,0.7,0,0,0-0.2
			c-0.4,0.6-1.6,1.2-2.2,1.6c-1.2,0.9-2.4,1.8-3.7,2.7c-5.4,3.5-11.8,6.3-18.3,6.4C227.2,443.9,227.2,448.3,230.1,448.3L230.1,448.3
			z"/>
		<path class="st4" d="M284.2,452.9c-0.5,0-1.1-0.1-1.6-0.4l-2.1-1c-5.1-2.3-10.4-4.7-15.4-7.6c-1.6-0.9-3.4-2-5.2-3.3
			c-0.9-0.7-1.6-1.1-2.2-1.6c-0.1-0.1-0.3-0.2-0.4-0.2c0,0,0,0,0,0l-0.3,0.1l0-0.3c-0.3,0.2-0.6,0.4-0.8,0.6c-2.3,1.7-4.7,3.5-7.4,5
			c-4.3,2.3-10.9,5.4-18.4,5.6l0,0c0,0-0.1,0-0.1,0c-2,0-3.6-1.5-3.6-3.6c0-2.1,1.5-3.8,3.6-3.8c4.9-0.1,10.1-1.8,15.6-5
			c-0.4-0.1-0.8-0.2-1.1-0.3c-5.2-1.5-11.8-3.9-16.3-9.3c-1.4-1.6-4.2-5-3-8.7c0.8-2.4,3.1-4.1,6-4.3c3.1-0.3,6.2,1.1,8.8,2.4l1,0.5
			c2.8,1.3,5.5,2.7,8,4.2c2.5,1.5,5.2,3.3,7.5,5.3c0.2-0.3,0.3-0.7,0.6-1c2.8-4.2,6.8-7.5,9.6-9.5c3-2.1,7.9-4.6,13.7-4.6
			c0,0,0,0,0.1,0c2.9,0,5.5,1.2,6.8,3.1c1.1,1.7,1.3,3.9,0.4,6.1c-1.9,4.7-6.9,7.1-10.9,9l-0.9,0.4c-3.4,1.6-6.8,3.2-10.5,4.8
			c0.6,0.4,1.2,0.8,1.9,1.2c5.6,3.3,11.4,6,17.5,8.7l1.4,0.7c1.8,0.8,2.5,2.7,1.7,4.6C287.1,451.9,285.8,452.9,284.2,452.9z
			 M260.5,437.5c0.3,0.2,0.6,0.4,0.9,0.6c1.9,1.4,3.7,2.4,5.2,3.3c4.9,2.8,10.1,5.2,15.1,7.5l2.1,1c0.7,0.3,1.1-0.3,1.2-0.5
			c0.2-0.4,0-0.5-0.2-0.6l-1.4-0.7c-5.9-2.7-12-5.5-17.7-8.9c-1.2-0.7-2.4-1.5-3.6-2.3C261.6,437,261,437.2,260.5,437.5z
			 M249.8,438.3c-0.2,0.1-0.4,0.3-0.6,0.4c-6.7,4.3-13.1,6.5-19.1,6.6c-0.6,0-0.7,0.6-0.7,0.8c0,0.7,0.4,0.6,0.6,0.7l0,0
			c5.3-0.1,10.5-1.7,17.1-5.2c1.7-0.9,3.3-2,4.8-3.1C251.3,438.5,250.5,438.4,249.8,438.3z M253.8,435.5c0,0-0.1,0.1-0.1,0.1
			c-0.1,0.1,0.2,0,0.3,0c0,0,0,0,0-0.1L253.8,435.5L253.8,435.5z M232,417.7c-0.2,0-0.3,0-0.5,0c-1.3,0.1-2.9,0.8-3.4,2.3
			c-0.6,1.9,0.8,3.9,2.5,5.9c4,4.7,10.1,6.9,14.9,8.3c1.3,0.4,2.6,0.7,3.8,0.9c0.5-0.4,1-0.7,1.5-1.1c-1.7-0.2-3.3-0.8-4.7-1.2
			l-1.2-0.4c-2.3-0.7-5.2-1.6-7.9-3.2c-2.2-1.3-7.4-4.7-7-8c0-0.4,0.1-1.2,0.8-1.7c0.7-0.5,1.4-0.4,1.9-0.3l0.4,0.1
			c0.9,0.1,1.7,0.4,2.4,0.7c1.6,0.6,3,1.2,4.4,1.9c2.8,1.3,5.5,2.7,7.9,4.3l1.3,0.8c1.8,1.1,3.9,2.4,5.4,4c0.4-0.2,0.7-0.5,0.9-0.9
			c-2.3-2.2-5.1-4-7.8-5.6c-2.4-1.4-4.9-2.8-7.6-4l-1-0.5C236.5,418.8,234.2,417.7,232,417.7z M262,433.1l0.5,0.3
			c4.2-1.8,8.2-3.6,12-5.5l1-0.5c3.7-1.8,8-3.8,9.4-7.4c0.5-1.3,0.5-2.5-0.1-3.3c-0.7-1.1-2.4-1.8-4.3-1.8c0,0,0,0,0,0
			c-5,0-9.3,2.2-12,4.1c-2.6,1.8-6.3,4.8-8.9,8.7c-0.3,0.5-0.5,1.1-0.8,1.7c0.2,0.2,0.3,0.4,0.5,0.6l0.4-0.1
			c0.2-0.1,0.4-0.2,0.5-0.2c0.6-1.3,1.5-2.3,2.4-3.4c2.1-2.3,4-4.2,6-5.6c3.4-2.4,6.7-3.8,10-4.2c1.7-0.2,4.4-0.5,5.1,1.6
			c0.3,1,0.2,2.7-4.2,5.6c-5.3,3.4-11.2,5.9-17.1,8.3c0,0.1-0.1,0.2-0.1,0.4C262.2,432.5,262.1,432.8,262,433.1z M233.1,422.4
			c0.8,1.1,2.7,2.8,5.2,4.3c2.4,1.4,5.2,2.3,7.3,3l1.2,0.4c0.8,0.3,1.7,0.5,2.6,0.8c-0.7-0.4-1.4-0.9-2-1.2l-1.3-0.8
			c-2.3-1.5-4.9-2.9-7.6-4.1c-1.3-0.6-2.6-1.2-3.9-1.7C234,422.7,233.5,422.5,233.1,422.4z M280.2,419.3c-0.3,0-0.7,0.1-0.9,0.1
			l-0.4,0.1c-2.8,0.3-5.7,1.5-8.6,3.6c-1.6,1.1-3.1,2.6-4.8,4.3c4.3-1.8,8.5-3.8,12.3-6.3C279,420.4,279.8,419.7,280.2,419.3z"/>
	</g>
</g>
</svg>
