<?xml version="1.0" encoding="utf-8"?>
<!-- Generator: Adobe Illustrator 24.1.0, SVG Export Plug-In . SVG Version: 6.00 Build 0)  -->
<svg version="1.1" id="레이어_1" xmlns="http://www.w3.org/2000/svg" xmlns:xlink="http://www.w3.org/1999/xlink" x="0px"
	 y="0px" viewBox="0 0 500 500" style="enable-background:new 0 0 500 500;" xml:space="preserve">
<style type="text/css">
	.st0{fill:#F05A4B;}
	.st1{fill:#FCE061;}
	.st2{fill:#92C2FD;}
	.st3{fill:#98D882;}
	.st4{fill:#D3A1DE;}
	.st5{fill:#6E5850;}
	.st6{fill:#FCC057;}
	.st7{fill:#FF6045;}
	.st8{fill:#FFE771;}
	.st9{fill:#93CFEA;}
	.st10{fill:#6EC695;}
	.st11{fill:#E1B7EA;}
	.st12{fill:#FFA074;}
	.st13{fill:#FFCE0E;}
	.st14{fill:#B1E659;}
	.st15{fill:#6DA1BC;}
	.st16{fill:#8B649E;}
	.st17{fill:#FF9C28;}
	.st18{fill:#63BC9B;}
	.st19{fill:#E36C6B;}
	.st20{fill:#FFD974;}
	.st21{fill:#FA93AB;}
	.st22{fill:#60A7DE;}
	.st23{fill:#D393E3;}
	.st24{fill:#CFD5D7;}
	.st25{fill:#FFFFFF;}
	.st26{fill:#FFB901;}
	.st27{fill:#FFF2DF;}
	.st28{fill:none;}
	.st29{fill:#F8F2D7;}
	.st30{fill:#FFD06B;}
	.st31{fill:#EA3C23;}
	.st32{fill:#8A1F1C;}
	.st33{fill:#ECEDEE;}
	.st34{fill:#F9DE5F;}
	.st35{fill:#FFE986;}
	.st36{clip-path:url(#SVGID_2_);fill:#FFE986;}
	.st37{fill:#C7CACB;}
	.st38{fill:#FDACC0;}
	.st39{fill:#FFCEDC;}
	.st40{fill:#711A18;}
	.st41{fill:#FFCA33;}
	.st42{fill:#FF6134;}
	.st43{fill:#FF6A89;}
	.st44{fill:#FD8E9E;}
	.st45{clip-path:url(#SVGID_4_);fill:#FF6E57;}
	.st46{fill:#D2E5FF;}
</style>
<g>
	<path class="st26" d="M258.4,189.2c-0.5,0-1,0-1.4,0c-4.4-0.1-8.4-1.9-11.3-4.8c-18.1,1.1-38.7-9.9-50.3-16.1
		c-16-8.5-27.4-17.8-34.8-28.4c-9.8-14-17.6-39.9,0.9-53.8c15.5-11.6,39.6-5.2,51.4,0.5c13.5,6.5,32.2,17.5,44.4,33.2
		c0.3,0.4,0.8,1,1.4,1.9c6.8-9.9,14.8-19.2,23.8-27.8c17.5-16.7,35.8-25.2,54.5-25.4c7.7-0.1,13.7,1.5,18.6,4.9
		c6.4,4.3,10.3,11.3,11.1,19.7c1.9,18.8-9.8,34.4-18.8,44.5c-9.4,10.6-20.1,20.5-32,29.3C296,182,277.1,189.2,258.4,189.2z
		 M183.8,112.7c0.7,2.6,2.1,5.9,3.8,8.3c4.3,6.1,12.1,12.2,23.2,18.1c13.3,7,21.5,10.1,26.6,11.4c-1.7-3.7-4.1-7.7-6.3-10.5
		c-6.3-8.2-18.2-16.8-32.6-23.7C193.9,114.2,187.8,112.9,183.8,112.7z M332.8,101.9c-8.7,1.4-17.8,6.6-27.5,15.9
		c-8.9,8.5-16.6,17.9-22.8,27.8c-0.7,1.1-1.5,2.9-2.3,4.9c5.1-2.5,10.4-5.8,16-10c10.1-7.5,19.2-15.9,27.1-24.8
		C328,110.3,331.2,105.7,332.8,101.9z M180.6,113L180.6,113L180.6,113z M338.9,101.6L338.9,101.6L338.9,101.6z"/>
	<g>
		<path class="st7" d="M109.8,429.1c7.3,3.8,16.8,5.2,29.3,5.4c73.6,1.4,147.1,0.3,220.6-3.4c12.6-0.6,25.5-1.4,37.1-6.6
			c29.7-13.2,23.3-45.3,26.2-72.6c3.2-29.7,4.6-59.7,5.9-89.5c0.3-7.8,5.5-36.2,0.2-42.7c-5.3-6.6-54.6-7.8-66-8.5
			c-22.8-1.4-45.7-2.4-68.5-2.6c-47-0.3-94.1,2.8-140.1,13.1c-14.9,3.3-56.6,4.7-67.7,14.5c-11.2,10-5.3,33.1-4.4,46.7
			c2.4,37-3,74.9,5.9,111.3C92.9,413.2,99.1,423.6,109.8,429.1z"/>
		<path class="st7" d="M200.5,438.4c-20.6,0-41.1-0.2-61.5-0.6c-14.2-0.3-23.4-2-30.7-5.8h0c-11.3-5.8-18.3-16.9-23.2-37
			c-5.8-23.9-5.6-48.6-5.4-72.5c0.1-13,0.3-26.4-0.6-39.4c-0.2-2.7-0.6-5.7-1-8.9c-1.7-13.9-3.9-31.3,6.4-40.4
			c8.5-7.6,30.8-10.3,50.4-12.6c7.8-0.9,14.5-1.7,18.8-2.7c41.2-9.2,87.2-13.5,140.9-13.2c20.1,0.1,42,1,68.7,2.6
			c1.6,0.1,4,0.2,6.9,0.3c40.8,1.9,57.5,4.4,61.5,9.4c4.5,5.6,3.3,19.9,1.3,36.7c-0.4,3.5-0.7,6.4-0.8,8.2
			c-1.2,28.7-2.6,59.3-5.9,89.7c-0.6,5.5-0.8,11.3-1,17c-0.8,23.1-1.7,47-27.1,58.3c-12.5,5.6-26.2,6.2-38.3,6.9
			C307,437.1,253.6,438.4,200.5,438.4z M111.3,426.1c6.3,3.2,14.9,4.8,27.8,5.1c73.1,1.4,147.3,0.3,220.4-3.4
			c11.5-0.6,24.6-1.2,36-6.3c21.7-9.7,22.4-30.5,23.2-52.5c0.2-5.8,0.4-11.7,1-17.4c3.2-30.2,4.7-60.7,5.9-89.3
			c0.1-1.9,0.4-5,0.9-8.7c1-9.1,3.2-27.9,0.1-31.8c-2.8-3-21.8-5.3-56.6-6.9c-2.9-0.1-5.3-0.2-7-0.3c-26.6-1.6-48.3-2.4-68.3-2.6
			c-53.1-0.3-98.6,3.9-139.4,13c-4.6,1-11.5,1.9-19.4,2.8c-16.8,2-39.8,4.8-46.8,11c-7.7,6.8-5.8,22.3-4.3,34.7
			c0.4,3.4,0.8,6.5,1,9.3c0.9,13.3,0.7,26.8,0.6,39.9c-0.2,23.5-0.5,47.8,5.2,70.8C96,411.8,101.7,421.2,111.3,426.1L111.3,426.1z"
			/>
	</g>
	<g>
		<path class="st0" d="M95,250.4c1.3,0.1,2.6,0.2,3.9,0.2c25.8,0.9,51.7-1.4,77.6-1.5c69-0.4,138-1.6,206.9-4.4
			c6.2-0.3,12.4-0.5,18.6-0.8c16.7-0.7,36.3,4.2,41.3-11.8c5.5-17.7,4.2-40,3.9-58.2c-0.1-10.9-20.6-19.2-31.4-20.9
			c-40.6-6.5-88.4,0.5-129.6,1.6c-45.3,1.2-90.6,2.6-135.8,4.7c-22.3,1-46.9-1.7-68.1,5.3c-27.9,9.2-25.3,35.1-23.8,55.6
			C60,241.6,76.2,248.9,95,250.4z"/>
		<path class="st0" d="M111.5,254.1c-4.2,0-8.5-0.1-12.7-0.2c-1.4-0.1-2.7-0.1-4.1-0.2h0c-24.8-1.9-38.1-13.1-39.6-33.3l-0.1-1.7
			c-1.4-20-3.4-47.5,26.2-57.2c15.8-5.2,33.2-5.2,50.1-5.2c6.5,0,12.8,0,18.9-0.3c39.8-1.8,83-3.3,135.9-4.7
			c12.2-0.3,24.7-1.1,37.9-2c31.2-2,63.4-4.1,92.3,0.5c10.6,1.7,34,10.1,34.2,24.1l0.1,7.4c0.4,16.8,0.8,35.9-4.2,51.8
			c-4.7,14.9-20,14.5-33.6,14.1c-3.6-0.1-7.3-0.2-10.8-0.1c-6.2,0.3-12.4,0.5-18.6,0.8c-62.9,2.5-130.6,4-207,4.4
			c-10.4,0.1-20.9,0.5-31.1,0.9C134.3,253.6,122.8,254.1,111.5,254.1z M95.2,247.1c1.3,0.1,2.5,0.2,3.8,0.2
			c15.3,0.5,31-0.1,46.1-0.7c10.2-0.4,20.8-0.8,31.3-0.9c76.3-0.4,144-1.9,206.8-4.4c6.2-0.3,12.4-0.5,18.6-0.8
			c3.7-0.2,7.5-0.1,11.3,0c14.9,0.4,24.1,0,27.1-9.5c4.7-14.8,4.3-33.3,3.9-49.7l-0.1-7.5c-0.1-7.9-17.3-15.9-28.6-17.7
			c-28.2-4.5-60-2.4-90.8-0.4c-13.3,0.9-25.9,1.7-38.2,2c-52.9,1.4-96,2.9-135.8,4.7c-6.3,0.3-12.9,0.3-19.2,0.3
			c-16.3,0-33.2,0-48.1,4.8c-24.7,8.1-23.1,30.6-21.7,50.5l0.1,1.7C62.9,236.5,73.9,245.4,95.2,247.1L95.2,247.1z"/>
	</g>
	<path class="st26" d="M254.5,253.6c-0.3,0-0.5,0-0.8,0c-7.3-0.4-12.8-6.7-12.4-14c1.9-30.9,3.3-62.1,4.2-92.8
		c0.2-7.2,6.1-12.8,13.2-12.8c0.1,0,0.3,0,0.4,0c7.3,0.2,13,6.3,12.8,13.6c-1,31-2.4,62.5-4.3,93.6
		C267.2,248.2,261.4,253.6,254.5,253.6z"/>
	<path class="st26" d="M180.6,333.3c-33.6,0-67.1-0.8-100.6-2.4c-7.3-0.4-12.9-6.5-12.6-13.8c0.3-7.3,6.9-12.9,13.8-12.6
		c114.8,5.5,230.8,1.4,344.9-12.1c7.2-0.8,13.8,4.3,14.7,11.6c0.9,7.2-4.3,13.8-11.6,14.7C347,328.4,263.7,333.3,180.6,333.3z"/>
	<path class="st26" d="M252.7,449.9c-7.3,0-13.2-5.9-13.2-13.2c0-32.3,0.5-65.3,0.9-97.2c0.4-31.2,0.9-63.5,0.9-95.1
		c0-7.3,5.9-13.2,13.2-13.2h0c7.3,0,13.2,5.9,13.2,13.2c0,31.8-0.5,64.2-0.9,95.5c-0.4,31.8-0.9,64.7-0.9,96.9
		C265.9,444,260,449.9,252.7,449.9z"/>
</g>
</svg>
