<?xml version="1.0" encoding="utf-8"?>
<!-- Generator: Adobe Illustrator 24.1.0, SVG Export Plug-In . SVG Version: 6.00 Build 0)  -->
<svg version="1.1" id="레이어_1" xmlns="http://www.w3.org/2000/svg" xmlns:xlink="http://www.w3.org/1999/xlink" x="0px"
	 y="0px" viewBox="0 0 500 500" style="enable-background:new 0 0 500 500;" xml:space="preserve">
<style type="text/css">
	.st0{fill:#F05A4B;}
	.st1{fill:#FCE061;}
	.st2{fill:#92C2FD;}
	.st3{fill:#98D882;}
	.st4{fill:#D3A1DE;}
	.st5{fill:#6E5850;}
	.st6{fill:#FCC057;}
	.st7{fill:#FF6045;}
	.st8{fill:#FFE771;}
	.st9{fill:#93CFEA;}
	.st10{fill:#6EC695;}
	.st11{fill:#E1B7EA;}
	.st12{fill:#FFA074;}
	.st13{fill:#FFCE0E;}
	.st14{fill:#B1E659;}
	.st15{fill:#6DA1BC;}
	.st16{fill:#8B649E;}
	.st17{fill:#FF9C28;}
	.st18{fill:#63BC9B;}
	.st19{fill:#E36C6B;}
	.st20{fill:#FFD974;}
	.st21{fill:#FA93AB;}
	.st22{fill:#60A7DE;}
	.st23{fill:#D393E3;}
	.st24{fill:#CFD5D7;}
	.st25{fill:#FFFFFF;}
	.st26{fill:#FFB901;}
	.st27{fill:#FFF2DF;}
	.st28{fill:none;}
	.st29{fill:#F8F2D7;}
	.st30{fill:#FFD06B;}
	.st31{fill:#EA3C23;}
	.st32{fill:#8A1F1C;}
	.st33{fill:#ECEDEE;}
	.st34{fill:#F9DE5F;}
	.st35{fill:#FFE986;}
	.st36{clip-path:url(#SVGID_2_);fill:#FFE986;}
	.st37{fill:#C7CACB;}
	.st38{fill:#FDACC0;}
	.st39{fill:#FFCEDC;}
	.st40{fill:#711A18;}
	.st41{fill:#FFCA33;}
	.st42{fill:#FF6134;}
	.st43{fill:#FF6A89;}
	.st44{fill:#FD8E9E;}
	.st45{clip-path:url(#SVGID_4_);fill:#FF6E57;}
	.st46{fill:#D2E5FF;}
</style>
<g>
	<g>
		<path class="st1" d="M225,129.6c0.8,3.8,4.9,6.7,8.7,6.2c1.4-0.2,2.7-0.7,3.7-1.6c3.9-3.4,4.4-9.6,0.3-13.1c-3.7-3-8.2-1.8-11,1.7
			C225.2,124.6,224.5,127.2,225,129.6z"/>
		<path class="st1" d="M232.9,137.3c-4.3,0-8.4-3.2-9.3-7.4c-0.6-2.7,0.2-5.8,2.1-8.1c1.9-2.3,4.3-3.7,6.9-3.9
			c2.2-0.3,4.4,0.5,6.2,2c2.1,1.8,3.3,4.3,3.4,7.2c0,3.1-1.3,6.1-3.7,8.2c-1.2,1.1-2.8,1.8-4.5,2
			C233.6,137.3,233.2,137.3,232.9,137.3z M233.3,120.9c-0.2,0-0.3,0-0.5,0c-1.7,0.2-3.5,1.2-4.9,2.8c-1.3,1.6-1.9,3.7-1.5,5.5l0,0
			c0.7,3.1,4.1,5.5,7.1,5c1.1-0.1,2.2-0.6,3-1.3c1.7-1.5,2.7-3.7,2.7-5.9c0-2-0.8-3.7-2.3-4.9C235.8,121.3,234.6,120.9,233.3,120.9z
			"/>
	</g>
	<g>
		<path class="st43" d="M281.6,58.6c6.8,10.3,9.4,23.5,2.8,34.6c-2.8,4.7-7.4,9.1-12.8,10.5c-4.2,1.1-7.9-1.2-6.3-5.9
			c1.4-4.2,7.3-4.7,10.8-3.3c4.9,2,7.7,7.1,8.8,12c1.7,7,0.3,14.6-1.4,21.4c-1.3,5.1-3.2,10.9-7.7,14.2c-6.9,5-0.2,16.6,6.7,11.5
			c12.9-9.3,17.6-28.9,16.3-44.2c-1.3-14.9-11.8-30.4-28.4-29c-14.7,1.2-24.7,17.6-15.1,30.3c10.9,14.5,31.1,2.7,39.1-8.6
			c10.7-15.1,8.6-35.5-1.3-50.4C288.4,44.8,276.8,51.4,281.6,58.6L281.6,58.6z"/>
		<path class="st43" d="M279.6,59.8c5.3,8.3,8.4,18.6,4.8,28.2c-1.7,4.7-4.9,8.9-9.1,11.7c-1,0.7-2,1.2-3.2,1.6
			c-2.5,0.8-3.2,1.3-4-1.4c-1.1-3.8,3.6-4.2,6.3-3.5c10.9,3,9.4,19.4,7.7,27.6c-0.9,4.1-1.9,8.4-3.9,12.1c-1.8,3.2-5.3,4.9-6.8,8.2
			c-1.8,4.2-0.2,9.5,3.8,11.9c5.2,3.1,10.1-1.2,13.5-4.9c9.5-10.2,13.1-25.4,12.5-39c-0.5-12.8-6.6-26.7-19-32
			c-11.6-4.9-26-0.2-31.1,11.7c-4.8,11,1.4,25,13.5,27.5c12,2.5,24.7-6.4,31.4-15.6c10.4-14.3,9.6-33.9,1.4-49
			c-2.8-5.3-7-10.1-13.5-7.5C278.7,49.5,276.9,54.9,279.6,59.8c1.4,2.5,5.3,0.3,3.8-2.2c-1.7-3.1,0.3-6.2,3.8-6.4c4-0.2,6,5,7.4,8.1
			c3.3,7,5,14.7,4.6,22.5c-0.8,14.1-9.9,27.3-23.2,32.3c-6.4,2.4-13.4,2-18.2-3.5c-4.7-5.4-5.2-12.9-1.5-18.9
			c8.1-13.1,26.1-10.1,34.1,1.2c7.7,10.8,7.6,25.5,4.2,37.8c-1.8,6.6-4.8,13.1-9.6,18.1c-2.3,2.3-5.9,6.1-8.8,2.6
			c-3-3.7,0.3-6.4,2.7-8.9c4.5-4.5,6.1-11.2,7.4-17.2c1.5-6.9,2.3-14.3,0-21.1c-1.6-4.9-4.8-9.7-9.8-11.6c-3.9-1.5-9.4-1.1-12.2,2.4
			c-2.8,3.4-2.4,9,2,10.9c5.5,2.3,12-2.2,15.7-6c11.4-11.8,9.5-29.2,1.2-42.2C282,55.1,278.1,57.3,279.6,59.8z"/>
	</g>
	<g>
		<path class="st38" d="M448,185.8c-12.9-9.8-30.3-13.1-45.3-6.5c-12.5,5.5-27.4,22.1-19.2,36.5c7.4,13.1,27,10.4,33-2.4
			c6.9-15-3.7-29.9-17.9-34.9c-9.5-3.3-20.1-2.4-29.8-0.5c-8.2,1.5-16.4,4.8-21.8,11.3c-5.4,6.6,4,16.1,9.5,9.5
			c3.8-4.6,8.9-6.4,14.5-7.6c6.9-1.5,14.6-2.3,21.5-0.5c4.8,1.3,10,4.2,12,9c1.6,3.7,0.9,10-3.5,11.4c-4.5,1.3-7.1-2.1-5.7-6.3
			c1.7-5.4,6.3-9.7,11.2-12.3c11.6-6.3,25-2.5,34.9,5.1c2.9,2.2,7.4,0.4,9.1-2.4C452.4,191.5,450.8,187.9,448,185.8L448,185.8z"/>
		<path class="st38" d="M449.1,183.8c-12.5-9.2-28.9-13.1-43.9-8c-11.8,4-23.7,14.5-26,27.2c-2,11.3,5.8,22.2,17.3,23.3
			c11.7,1.1,21.8-7.1,23.9-18.5c2.4-13.6-7.4-25.9-19.4-31c-13.3-5.6-31.8-3.6-44.7,2.4c-5,2.3-12,6.7-13.1,12.6
			c-0.8,4.3,1.8,9,5.9,10.6c6.2,2.4,9-3.7,13.6-6.4c7.7-4.5,19.7-5.7,28.2-3.7c4.6,1.1,10.2,3.7,11.7,8.6c0.5,1.8,0.6,4.4-0.4,5.9
			c-1.2,1.8-5,3.8-4.9-1.8c0-1.1,1.2-2.7,1.8-3.6c6-9.4,18.5-11.9,28.6-8.8c5,1.5,8.5,4.5,13,6.8c2.5,1.3,5.4,1.2,7.9-0.1
			c6.5-3.3,5.8-10.9,0.9-15.2c-2.1-1.9-5.3,1.2-3.2,3.2c2.4,2.1,3.2,7.5-0.7,8.5c-2.3,0.6-4.3-1.2-6-2.3c-2.7-1.7-5.5-3.2-8.5-4.3
			c-5.9-2.2-12.3-3-18.5-1.7c-5.8,1.2-11.3,4.4-15.2,8.8c-2.9,3.3-6.2,8.6-4.3,13.1c1.6,3.8,6.1,4.8,9.7,3c3.8-1.9,5-6.5,4.5-10.4
			c-1.3-11.9-16-15.2-25.7-14.8c-6.3,0.3-13.1,1.3-18.9,3.9c-2.3,1-4.5,2.4-6.3,4.1c-2.5,2.4-5.7,5.2-8.2,0.8
			c-4.1-7.1,10.1-13.1,15-14.7c7.1-2.2,14.9-3.2,22.3-3.1c14.3,0.3,31.5,9.6,30.9,26c-0.5,12.4-13.9,22.3-25.6,15.7
			c-16.4-9.4-2.6-29.5,8.4-36.5c15-9.4,34-5.9,47.7,4.1C449.1,189.4,451.4,185.5,449.1,183.8z"/>
	</g>
	<g>
		<path class="st2" d="M313.5,170.9c21.8-21.1,44.1-41.7,66.9-61.8c2.7-2.4,2.4-7,0-9.5c-2.7-2.7-6.7-2.4-9.5,0
			c-22.8,20.1-45.1,40.7-66.9,61.8C297.8,167.5,307.3,176.9,313.5,170.9L313.5,170.9z"/>
		<path class="st2" d="M315,172.5c13.6-13.1,27.4-26.1,41.4-38.9c7-6.4,14-12.7,21.1-19c2.4-2.1,5.6-4.1,6.6-7.3
			c0.9-2.7,0.4-5.8-1.2-8.1c-3.5-5.2-9.9-4.2-14.1-0.7c-7.2,6.1-14.1,12.6-21.1,18.9c-13.8,12.6-27.5,25.3-40.9,38.3
			c-4.4,4.2-9.7,8.9-5.3,15.2C304.7,175.7,310.8,176.1,315,172.5c2.2-1.9-1-5-3.2-3.2c-3.6,3.1-9.6-1.1-7.1-5.4c1.6-2.7,5-5,7.2-7.1
			c2.7-2.6,5.4-5.2,8.1-7.7c10.3-9.8,20.7-19.4,31.2-29c5.2-4.7,10.3-9.3,15.6-14c2.2-1.9,5.6-6.3,8.8-6.2c4.2,0.1,5.5,4.7,3.1,7.6
			c-2.1,2.6-5.3,4.7-7.8,6.9c-2.8,2.5-5.6,5-8.3,7.5c-5.2,4.7-10.3,9.4-15.5,14.1c-11.9,11-23.7,22.1-35.3,33.3
			C309.8,171.3,313,174.5,315,172.5z"/>
	</g>
	<g>
		<path class="st1" d="M416,157.9c0.1,0.1,0.1,0.1,0.2,0.2c0.5,0.4,1,0.7,1.5,0.9c2.8,1.1,6.6,0.6,8.6-1.7c4.7-5.8,2.5-15.9-6-15.3
			c-5.1,0.3-8.5,5.3-7.6,10.3C413.1,154.4,414.3,156.4,416,157.9z"/>
		<path class="st1" d="M420.8,161c-1.3,0-2.5-0.2-3.6-0.6c-0.8-0.3-1.4-0.8-1.9-1.2l-0.2-0.2c-2-1.7-3.3-4-3.8-6.5
			c-0.6-3,0.2-6,2-8.4c1.7-2.2,4.2-3.5,6.9-3.7c3.9-0.2,7.1,1.5,8.8,4.8c2,4,1.4,9.3-1.6,13C425.8,160.2,423.3,161,420.8,161z
			 M417,156.8l0.2,0.2c0.2,0.2,0.6,0.5,1.1,0.7c2.1,0.8,5.3,0.6,6.9-1.3c2.2-2.7,2.8-6.8,1.3-9.7c-1.1-2.2-3.3-3.3-6-3.2
			c-1.9,0.1-3.6,1-4.8,2.5c-1.3,1.7-1.8,3.9-1.4,6C414.5,153.8,415.5,155.5,417,156.8z"/>
	</g>
	<path class="st26" d="M325,295.4c0.1-1,0-2-0.2-3c-2.5-21.1-15.2-39.9-27.5-56.6c-12.4-16.8-27.4-31.8-44.3-44.1
		c-11.6-8.5-24.1-15.1-36.9-21.6c-9.1-4.6-25.9-14.1-35.6-6.2c-2.3,1.9-3.9,4.4-5.3,7c-11.4,19.4-21.7,38.9-30.7,59.3
		c-7,15.7-13.9,31.4-20.9,47.1c-13.4,30.2-26.7,60.4-40.1,90.5c-5,11.2-9.9,22.4-14.9,33.6c-3.9,8.7-10.9,19.7-10.8,29.1
		c0,1.4,0.1,2.9,0.6,4.2c1,2.5,3.3,4.4,5.8,5.4c3.2,1.3,6.5,1.2,9.9,0.3c6.8-1.8,13.7-6.6,19.4-9.7c10.4-5.6,20.8-11.2,31.1-16.9
		c28.2-15.3,56.5-30.6,84.7-45.9c37.8-20.5,76.4-39.8,111-65.7c1.6-1.2,3.2-2.5,4-4.3C324.8,297.2,325,296.3,325,295.4z"/>
	<g>
		<defs>
			<path id="SVGID_3_" d="M325,295.4c0.1-1,0-2-0.2-3c-2.5-21.1-15.2-39.9-27.5-56.6c-12.4-16.8-27.4-31.8-44.3-44.1
				c-11.6-8.5-24.1-15.1-36.9-21.6c-9.1-4.6-25.9-14.1-35.6-6.2c-2.3,1.9-3.9,4.4-5.3,7c-11.4,19.4-21.7,38.9-30.7,59.3
				c-7,15.7-13.9,31.4-20.9,47.1c-13.4,30.2-26.7,60.4-40.1,90.5c-5,11.2-9.9,22.4-14.9,33.6c-3.9,8.7-10.9,19.7-10.8,29.1
				c0,1.4,0.1,2.9,0.6,4.2c1,2.5,3.3,4.4,5.8,5.4c3.2,1.3,6.5,1.2,9.9,0.3c6.8-1.8,13.7-6.6,19.4-9.7c10.4-5.6,20.8-11.2,31.1-16.9
				c28.2-15.3,56.5-30.6,84.7-45.9c37.8-20.5,76.4-39.8,111-65.7c1.6-1.2,3.2-2.5,4-4.3C324.8,297.2,325,296.3,325,295.4z"/>
		</defs>
		<clipPath id="SVGID_2_">
			<use xlink:href="#SVGID_3_"  style="overflow:visible;"/>
		</clipPath>
		<path style="clip-path:url(#SVGID_2_);fill:#FF6E57;" d="M118.9,224.5c32.6,5.4,64,31.1,88.6,52.2c25.3,21.7,47.7,46.3,67.2,73.3
			c15.5,21.5,51.6,0.8,35.9-21c-23.6-32.7-50.1-62.6-81.4-88.1c-28.5-23.4-62-50.3-99.2-56.5C103.8,180,92.5,220.1,118.9,224.5
			L118.9,224.5z"/>
		<path style="clip-path:url(#SVGID_2_);fill:#FF6E57;" d="M75.9,296.7c25.9,13.3,50.3,28.8,72.3,47.9c17.5,15.2,44,36.8,53.5,58.5
			c10.7,24.5,46.6,3.3,35.9-21c-10.9-24.8-40.1-49.5-60-66.9c-24.6-21.4-51.7-39.5-80.7-54.4C73.1,248.6,52,284.5,75.9,296.7
			L75.9,296.7z"/>
		<path style="clip-path:url(#SVGID_2_);fill:#FF6E57;" d="M52.1,375c17,6.2,33.3,14.5,46.2,27.5c6.1,6.1,11.5,13,17,19.7
			c2.9,3.6,5.8,7.2,8.7,10.7c1,1.3,7.2,10.4,6.1,6.4c6.7-8.8,13.4-17.6,20.1-26.3c-0.3,0-0.6,0-0.9-0.1c6.9,6.9,13.9,13.9,20.8,20.8
			c0-0.2,0-0.4,0-0.7c1.2-26.8-40.4-26.7-41.6,0c0,0.2,0,0.4,0,0.7c-0.5,11.8,10,20,20.8,20.8c0.3,0,0.6,0,0.9,0.1
			c13.8,1,23.3-14.1,20.1-26.3c-2.8-10.7-12.2-19.1-19-27.4c-8.3-10.2-16.2-20.9-25.7-30c-17.7-16.9-39.5-27.6-62.3-35.9
			C38,325.7,27.1,365.9,52.1,375L52.1,375z"/>
	</g>
</g>
</svg>
