<?xml version="1.0" encoding="utf-8"?>
<!-- Generator: Adobe Illustrator 24.1.0, SVG Export Plug-In . SVG Version: 6.00 Build 0)  -->
<svg version="1.1" id="레이어_1" xmlns="http://www.w3.org/2000/svg" xmlns:xlink="http://www.w3.org/1999/xlink" x="0px"
	 y="0px" viewBox="0 0 500 500" style="enable-background:new 0 0 500 500;" xml:space="preserve">
<style type="text/css">
	.st0{fill:#F05A4B;}
	.st1{fill:#FCE061;}
	.st2{fill:#92C2FD;}
	.st3{fill:#98D882;}
	.st4{fill:#D3A1DE;}
	.st5{fill:#6E5850;}
	.st6{fill:#FCC057;}
	.st7{fill:#FF6045;}
	.st8{fill:#FFE771;}
	.st9{fill:#93CFEA;}
	.st10{fill:#6EC695;}
	.st11{fill:#E1B7EA;}
	.st12{fill:#FFA074;}
	.st13{fill:#FFCE0E;}
	.st14{fill:#B1E659;}
	.st15{fill:#6DA1BC;}
	.st16{fill:#8B649E;}
	.st17{fill:#FF9C28;}
	.st18{fill:#63BC9B;}
	.st19{fill:#E36C6B;}
	.st20{fill:#FFD974;}
	.st21{fill:#FA93AB;}
	.st22{fill:#60A7DE;}
	.st23{fill:#D393E3;}
	.st24{fill:#CFD5D7;}
	.st25{fill:#FFFFFF;}
	.st26{fill:#FFB901;}
	.st27{fill:#FFF2DF;}
	.st28{fill:#F8F2D7;}
	.st29{fill:#FFD06B;}
	.st30{fill:#EA3C23;}
	.st31{fill:#8A1F1C;}
	.st32{fill:#ECEDEE;}
	.st33{fill:#F9DE5F;}
	.st34{fill:#FFE986;}
	.st35{clip-path:url(#SVGID_2_);fill:#FFE986;}
	.st36{fill:#C7CACB;}
	.st37{fill:#FDACC0;}
	.st38{fill:#FFCEDC;}
	.st39{fill:#711A18;}
	.st40{fill:#FFCA33;}
	.st41{fill:#FF6134;}
	.st42{fill:#FF6A89;}
	.st43{fill:#FD8E9E;}
	.st44{clip-path:url(#SVGID_4_);fill:#FF6E57;}
	.st45{fill:#D2E5FF;}
	.st46{fill:none;}
	.st47{clip-path:url(#SVGID_6_);fill:#FFE986;}
	.st48{clip-path:url(#SVGID_8_);fill:#FF6E57;}
</style>
<g>
	<g>
		<g>
			<path class="st4" d="M82,190.6c1.1-1-0.5-3.2-1.8-2.5c-7.8,34.6-6.5,70.5-4.8,105.9c1,22.2,3.2,44.4,15.3,63.5
				c10.6,16.8,16.9,35,30.8,50.1c19.7,21.5,47.2,36.8,76.6,37.8c21.9,0.7,43.4-5.7,64.3-13.2c40.8-14.7,80.5-33.8,118.3-57
				c8.2-5,16.6-10.4,22.7-18.6c9.3-12.5,12.2-29.8,14.1-46.2c1.9-16.7,4-33.3,4.6-50.1c0.4-10.3,2.1-21.7,1.5-32.5
				c-0.7-12.4-5.5-20-10.5-30.5c-8.5-17.7-24.2-27.2-42.8-27.9c-20.4-0.8-40.9-1.5-61.3-2.3c-37.4-1.4-74.9-2.7-112.3-4.1
				c-16.9-0.6-33.9-1.2-50.8,0.8c-16.1,2-56.5,7.1-65.8,25c-4.7,9-0.7,29.1-0.4,39.1c0.5,16.6,1.9,32.4,4.1,48.6
				c2,15.1-1.2,30.8,0.7,46.2c1.9,15.7,6,31.3,12.3,45.8"/>
			<path class="st4" d="M201.6,448.3c-1.2,0-2.3,0-3.5-0.1c-28.3-1-57-15.1-78.6-38.7c-9.2-10-15.2-21.5-21-32.5
				c-1.3-2.5-2.7-5.1-4-7.6l-0.5,0.2c-0.6-1.4-1.2-2.7-1.7-4.1c-1.3-2.2-2.6-4.4-3.9-6.5c-12.7-20-14.7-43-15.8-64.9
				c-1.3-27.6-2.9-61.2,2.3-93.5c0.1-5.1,0.8-9.8,2.6-13.2l0.3-1.2l0.6-0.4c11.5-18.2,51.7-23.1,67.1-25c17.1-2.1,34.4-1.5,51.2-0.9
				l112.3,4.1c20.6,0.7,41,1.5,61.3,2.3c20.5,0.8,36.6,11.3,45.3,29.5c0.8,1.7,1.6,3.3,2.4,4.8c4.2,8.5,7.9,15.8,8.4,26.8
				c0.4,7-0.2,14.3-0.8,21.3c-0.3,3.9-0.6,7.8-0.8,11.5c-0.5,15.5-2.3,31.1-4.1,46.2l-0.5,4.1c-1.9,16-4.7,34.3-14.6,47.6
				c-6.3,8.5-14.7,14-23.5,19.3c-37.9,23.2-77.9,42.4-118.8,57.2C243.9,441.9,223,448.3,201.6,448.3z M97.4,363.1
				c2.1,3.8,4.1,7.6,6.1,11.3c5.9,11.2,11.5,21.8,20.2,31.3c20.6,22.5,47.8,35.9,74.6,36.8c21.6,0.7,43.2-5.9,63.2-13.1
				c40.6-14.6,80.2-33.7,117.8-56.7c8.3-5.1,16.2-10.2,21.9-17.9c9.1-12.2,11.8-29.6,13.5-44.9l0.5-4.1c1.7-15,3.5-30.5,4.1-45.8
				c0.1-3.8,0.4-7.7,0.8-11.7c0.5-6.8,1.1-13.9,0.8-20.5c-0.5-9.8-3.8-16.3-7.9-24.6c-0.8-1.6-1.6-3.2-2.4-4.9
				c-7.8-16.2-22.1-25.6-40.4-26.3c-20.4-0.8-40.7-1.5-61.1-2.3l-112.5-4.1c-16.5-0.6-33.6-1.2-50.3,0.8c-12.8,1.6-50,6.1-61.7,20.6
				c1.2,1.8,1,4.1-0.6,5.5l-1.4-1.6c-0.7,3.3-1.3,6.7-1.9,10.1c-0.1,5.5,0.5,11.7,1,16.8c0.4,3.7,0.7,7.1,0.8,9.8
				c0.5,15.8,1.8,31.6,4,48.3c1.1,7.9,0.7,16.1,0.4,23.9c-0.3,7.4-0.6,15,0.3,22.4C88.9,336.6,92.3,350.3,97.4,363.1z M77.2,239
				c-0.6,19.4,0.3,38.3,1.1,55c0.5,11.6,1.4,23.4,4,34.9c-0.3-1.9-0.6-3.8-0.8-5.7c-0.9-7.8-0.6-15.7-0.3-23.3
				c0.3-7.9,0.6-15.5-0.4-22.9C79.1,263.8,77.9,251.3,77.2,239z"/>
		</g>
		<g>
			<path class="st4" d="M102.9,265.1c-16.3-28.7-30.1-63.4-20.8-95.2c4.2-14.4,13.8-26.7,25.1-36.6c22.4-19.6,53.2-30.6,82.6-25.5
				s55.9,27.9,61.7,57.2c17.9-15.2,42.5-19.6,65.9-20.8c21.8-1.1,44.1,0.3,64.2,8.8c20.1,8.5,37.6,24.9,43.2,46
				c6.1,23.1-3.2,48.2-19,66.1c-15.8,17.9-37.3,29.7-59.1,39.5c-45.7,20.6-98.3,37.9-148.7,40.6c-40.1,2.2-66.8-34.4-85.5-64.1
				C109.4,276.1,106.1,270.7,102.9,265.1z"/>
			<path class="st4" d="M194.6,348.2c-38,0-64-33-84.5-65.5c-3.6-5.8-6.8-11-9.7-16.1c-22-38.8-28.9-70.7-21-97.4
				c4-13.6,12.7-26.4,26-37.9c24.4-21.4,56.2-31.2,84.9-26.1c30.2,5.3,55.4,27.5,62.9,54.9c19.9-14.8,45.8-17.7,64-18.6
				c27-1.3,47.7,1.5,65.4,9c22.7,9.6,39.5,27.4,44.8,47.9c5.8,22.1-1.7,48.4-19.6,68.7c-16.9,19.2-39.9,31.1-60,40.2
				c-54.7,24.7-105.1,38.4-149.7,40.8C197,348.1,195.8,348.2,194.6,348.2z M175.2,109.5c-23,0-46.8,9.2-66,26
				c-12.4,10.9-20.6,22.7-24.3,35.3c-7.4,25.1-0.7,55.5,20.5,92.9h0c2.8,5,6,10.2,9.5,15.9c20.3,32.1,45.8,64.6,82.9,62.8
				c44-2.4,93.7-15.9,147.7-40.3c19.6-8.9,41.9-20.4,58.1-38.8c16.7-18.9,23.7-43.2,18.4-63.5c-4.9-18.7-20.5-35.2-41.5-44.1
				c-16.9-7.1-36.9-9.8-62.9-8.6c-29.3,1.4-49.7,7.8-64.2,20.1l-3.7,3.1l-0.9-4.8c-5.4-27.2-29.8-49.7-59.3-54.9
				C184.7,109.9,180,109.5,175.2,109.5z"/>
		</g>
	</g>
	<g>
		<g>
			<path class="st27" d="M90.9,370.6c10-9.8-1.5-33.6-14.6-34.1c-7.4-0.3-12.5,12.2-14.2,18c-1.2,4-1.1,8.7,1.2,12.2
				c1.5,2.3,3.8,3.9,6.1,5.3C75.8,375.8,85,376.3,90.9,370.6z"/>
			<path class="st27" d="M92.4,372.1c5.2-5.3,5.2-13.4,2.9-20.1C92.9,345,88,338.1,81,335.3c-3.2-1.3-6.8-1.5-9.9,0.4
				c-3.3,2-5.6,5.5-7.4,8.8c-4,7.6-7.5,18-0.8,25.2C70.4,377.7,84.1,379.9,92.4,372.1c2-1.9-1-4.9-3-3c-6.1,5.7-15.2,4.1-21.4-0.6
				c-7-5.2-4.4-13.8-1.2-20.4c1.4-2.9,3-5.8,5.5-7.9c2.1-1.8,4.3-1.9,6.8-1c5.4,1.8,9.3,7.2,11.4,12.1c2.4,5.5,3.5,13.1-1.1,17.8
				C87.4,371,90.4,374,92.4,372.1z"/>
		</g>
		<g>
			<path class="st27" d="M82.3,342.2c10-9.9-1.6-33.5-14.8-34c-7.4-0.3-12.4,12.2-14.1,18.1c-1.2,4.1-1.1,8.7,1.2,12.2
				c1.5,2.2,3.8,3.9,6.1,5.2C67.2,347.6,76.4,348.1,82.3,342.2z"/>
			<path class="st27" d="M83.8,343.8c5.3-5.4,5.2-13.6,2.8-20.3c-2.5-6.9-7.4-13.7-14.4-16.4c-3.3-1.2-6.8-1.4-9.9,0.6
				c-3.3,2.1-5.6,5.6-7.3,9c-4,7.8-7.4,18.4-0.2,25.4C62.4,349.5,75.7,351.6,83.8,343.8c2-1.9-1-4.9-3-3c-5.9,5.7-14.7,4.2-20.9-0.1
				c-3.9-2.7-5.6-6.8-4.9-11.5c0.5-3,1.7-6.1,3-8.8c1.3-2.9,2.9-5.9,5.3-8c2-1.9,4.2-2.2,6.8-1.4c5.5,1.7,9.6,7.1,11.8,12.2
				c2.4,5.5,3.6,13.1-1,17.8C78.9,342.7,81.9,345.7,83.8,343.8z"/>
		</g>
		<g>
			<path class="st27" d="M100.3,398.6c10.5-9.2,0.5-33.6-12.7-34.9c-7.3-0.7-13.1,11.4-15.2,17.2c-1.4,4-1.6,8.6,0.5,12.3
				c1.4,2.3,3.5,4.1,5.8,5.6C84.9,403,94.1,404,100.3,398.6z"/>
			<path class="st27" d="M101.8,400.1c5.5-4.9,5.8-13,4-19.7c-1.8-6.8-6.1-13.8-12.5-17.2c-3.1-1.6-6.7-2.4-10-1
				c-3.7,1.6-6.3,5-8.4,8.3c-4.6,7.4-8.8,17.7-2.6,25.4C79.4,404.7,93.1,407.5,101.8,400.1c2.1-1.8-0.9-4.8-3-3
				c-6.5,5.5-16.1,3-21.8-2.4c-6.3-5.8-2.7-14.3,0.9-20.6c1.5-2.7,3.4-5.6,6.1-7.3c2.2-1.4,4.5-1.2,6.8-0.1c5.2,2.4,8.8,8,10.5,13.3
				c1.9,5.6,2.3,12.7-2.5,17C96.7,398.9,99.8,401.9,101.8,400.1z"/>
		</g>
		<g>
			<path class="st27" d="M122.1,418c10.5-9.2,0.5-33.6-12.7-34.9c-7.3-0.7-13.1,11.4-15.2,17.2c-1.4,4-1.6,8.6,0.5,12.3
				c1.4,2.3,3.5,4.1,5.8,5.6C106.8,422.4,115.9,423.4,122.1,418z"/>
			<path class="st27" d="M123.6,419.5c5.5-4.9,5.8-13,4-19.7c-1.8-6.8-6.1-13.8-12.5-17.2c-3.1-1.6-6.7-2.4-10-1
				c-3.7,1.6-6.3,5-8.4,8.3c-4.6,7.4-8.8,17.7-2.6,25.4C101.2,424.1,114.9,426.9,123.6,419.5c2.1-1.8-0.9-4.8-3-3
				c-6.5,5.5-16.1,3-21.8-2.4c-6.3-5.8-2.7-14.3,0.9-20.6c1.5-2.7,3.4-5.6,6.1-7.3c2.2-1.4,4.5-1.2,6.8-0.1c5.2,2.4,8.8,8,10.5,13.3
				c1.9,5.6,2.3,12.7-2.5,17C118.6,418.3,121.6,421.4,123.6,419.5z"/>
		</g>
		<g>
			<path class="st27" d="M141.7,437c10.5-9.3,0.3-33.6-12.8-34.8c-7.3-0.7-13.1,11.5-15.1,17.3c-1.4,4-1.6,8.6,0.5,12.3
				c1.4,2.3,3.5,4.1,5.8,5.6C126.3,441.4,135.5,442.4,141.7,437z"/>
			<path class="st27" d="M143.2,438.5c5.4-5,5.8-13,3.9-19.7c-1.9-6.8-6.2-13.8-12.6-17.1c-3.1-1.6-6.7-2.4-10-0.9
				c-3.7,1.6-6.3,5-8.3,8.3c-4.6,7.4-8.7,17.8-2.5,25.4C120.8,443.1,134.5,445.9,143.2,438.5c2.1-1.8-0.9-4.8-3-3
				c-6.5,5.5-16,3.1-21.8-2.2c-6.3-5.8-2.8-14.3,0.8-20.6c1.5-2.7,3.4-5.6,6-7.3c2.2-1.4,4.5-1.2,6.8-0.1c5.2,2.4,8.8,8,10.6,13.3
				c1.9,5.6,2.4,12.7-2.4,17C138.1,437.3,141.2,440.3,143.2,438.5z"/>
		</g>
		<g>
			<path class="st27" d="M168.3,445.5c10.5-9.2,0.5-33.6-12.7-34.9c-7.3-0.7-13.1,11.4-15.2,17.2c-1.4,4-1.6,8.6,0.5,12.3
				c1.4,2.3,3.5,4.1,5.8,5.6C153,449.9,162.1,450.9,168.3,445.5z"/>
			<path class="st27" d="M169.8,447c5.5-4.9,5.8-13,4-19.7c-1.8-6.8-6.1-13.8-12.5-17.2c-3.1-1.6-6.7-2.4-10-1
				c-3.7,1.6-6.3,5-8.4,8.3c-4.6,7.4-8.8,17.7-2.6,25.4C147.4,451.6,161.1,454.4,169.8,447c2.1-1.8-0.9-4.8-3-3
				c-6.5,5.5-16.1,3-21.8-2.4c-6.3-5.8-2.7-14.3,0.9-20.6c1.5-2.7,3.4-5.6,6.1-7.3c2.2-1.4,4.5-1.2,6.8-0.1c5.2,2.4,8.8,8,10.5,13.3
				c1.9,5.6,2.3,12.7-2.5,17C164.8,445.8,167.8,448.8,169.8,447z"/>
		</g>
		<g>
			<path class="st27" d="M201.7,449c10.5-9.2,0.5-33.6-12.7-34.9c-7.3-0.7-13.1,11.4-15.2,17.2c-1.4,4-1.6,8.6,0.5,12.3
				c1.4,2.3,3.5,4.1,5.8,5.6C186.3,453.4,195.5,454.4,201.7,449z"/>
			<path class="st27" d="M203.2,450.5c5.5-4.9,5.8-13,4-19.7c-1.8-6.8-6.1-13.8-12.5-17.2c-3.1-1.6-6.7-2.4-10-1
				c-3.7,1.6-6.3,5-8.4,8.3c-4.6,7.4-8.8,17.7-2.6,25.4C180.7,455.1,194.4,457.9,203.2,450.5c2.1-1.8-0.9-4.8-3-3
				c-6.5,5.5-16.1,3-21.8-2.4c-6.3-5.8-2.7-14.3,0.9-20.6c1.5-2.7,3.4-5.6,6.1-7.3c2.2-1.4,4.5-1.2,6.8-0.1c5.2,2.4,8.8,8,10.5,13.3
				c1.9,5.6,2.3,12.7-2.5,17C198.1,449.3,201.2,452.4,203.2,450.5z"/>
		</g>
		<g>
			<path class="st27" d="M233,451.8c10.5-9.2,0.5-33.6-12.7-34.9c-7.3-0.7-13.1,11.4-15.2,17.2c-1.4,4-1.6,8.6,0.5,12.3
				c1.4,2.3,3.5,4.1,5.8,5.6C217.7,456.2,226.8,457.3,233,451.8z"/>
			<path class="st27" d="M234.5,453.3c5.5-4.9,5.8-13,4-19.7c-1.8-6.8-6.1-13.8-12.5-17.2c-3.1-1.6-6.7-2.4-10-1
				c-3.7,1.6-6.3,5-8.4,8.3c-4.6,7.4-8.8,17.7-2.6,25.4C212.1,457.9,225.8,460.7,234.5,453.3c2.1-1.8-0.9-4.8-3-3
				c-6.5,5.5-16.1,3-21.8-2.4c-6.3-5.8-2.7-14.3,0.9-20.6c1.5-2.7,3.4-5.6,6.1-7.3c2.2-1.4,4.5-1.2,6.8-0.1c5.2,2.4,8.8,8,10.5,13.3
				c1.9,5.6,2.3,12.7-2.5,17C229.5,452.2,232.5,455.2,234.5,453.3z"/>
		</g>
		<g>
			<path class="st27" d="M265,446.1c10.5-9.2,0.5-33.6-12.7-34.9c-7.3-0.7-13.1,11.4-15.2,17.2c-1.4,4-1.6,8.6,0.5,12.3
				c1.4,2.3,3.5,4.1,5.8,5.6C249.7,450.4,258.8,451.5,265,446.1z"/>
			<path class="st27" d="M266.6,447.6c5.5-4.9,5.8-13,4-19.7c-1.8-6.8-6.1-13.8-12.5-17.2c-3.1-1.6-6.7-2.4-10-1
				c-3.7,1.6-6.3,5-8.4,8.3c-4.6,7.4-8.8,17.7-2.6,25.4C244.1,452.1,257.8,455,266.6,447.6c2.1-1.8-0.9-4.8-3-3
				c-6.5,5.5-16.1,3-21.8-2.4c-6.3-5.8-2.7-14.3,0.9-20.6c1.5-2.7,3.4-5.6,6.1-7.3c2.2-1.4,4.5-1.2,6.8-0.1c5.2,2.4,8.8,8,10.5,13.3
				c1.9,5.6,2.3,12.7-2.5,17C261.5,446.4,264.5,449.4,266.6,447.6z"/>
		</g>
		<g>
			<path class="st27" d="M298.4,441.3c10.5-9.2,0.5-33.6-12.7-34.9c-7.3-0.7-13.1,11.4-15.2,17.2c-1.4,4-1.6,8.6,0.5,12.3
				c1.4,2.3,3.5,4.1,5.8,5.6C283.1,445.7,292.2,446.7,298.4,441.3z"/>
			<path class="st27" d="M299.9,442.8c5.5-4.9,5.8-13,4-19.7c-1.8-6.8-6.1-13.8-12.5-17.2c-3.1-1.6-6.7-2.4-10-1
				c-3.7,1.6-6.3,5-8.4,8.3c-4.6,7.4-8.8,17.7-2.6,25.4C277.5,447.4,291.2,450.2,299.9,442.8c2.1-1.8-0.9-4.8-3-3
				c-6.5,5.5-16.1,3-21.8-2.4c-6.3-5.8-2.7-14.3,0.9-20.6c1.5-2.7,3.4-5.6,6.1-7.3c2.2-1.4,4.5-1.2,6.8-0.1c5.2,2.4,8.8,8,10.5,13.3
				c1.9,5.6,2.3,12.7-2.5,17C294.9,441.6,297.9,444.7,299.9,442.8z"/>
		</g>
		<g>
			<path class="st27" d="M330.6,430.9c10.5-9.2,0.5-33.6-12.7-34.9c-7.3-0.7-13.1,11.4-15.2,17.2c-1.4,4-1.6,8.6,0.5,12.3
				c1.4,2.3,3.5,4.1,5.8,5.6C315.3,435.3,324.4,436.3,330.6,430.9z"/>
			<path class="st27" d="M332.1,432.4c5.5-4.9,5.8-13,4-19.7c-1.8-6.8-6.1-13.8-12.5-17.2c-3.1-1.6-6.7-2.4-10-1
				c-3.7,1.6-6.3,5-8.4,8.3c-4.6,7.4-8.8,17.7-2.6,25.4C309.7,436.9,323.4,439.8,332.1,432.4c2.1-1.8-0.9-4.8-3-3
				c-6.5,5.5-16.1,3-21.8-2.4c-6.3-5.8-2.7-14.3,0.9-20.6c1.5-2.7,3.4-5.6,6.1-7.3c2.2-1.4,4.5-1.2,6.8-0.1c5.2,2.4,8.8,8,10.5,13.3
				c1.9,5.6,2.3,12.7-2.5,17C327.1,431.2,330.1,434.2,332.1,432.4z"/>
		</g>
		<g>
			<path class="st27" d="M360,416.3c10.5-9.2,0.5-33.6-12.7-34.9c-7.3-0.7-13.1,11.4-15.2,17.2c-1.4,4-1.6,8.6,0.5,12.3
				c1.4,2.3,3.5,4.1,5.8,5.6C344.6,420.7,353.8,421.8,360,416.3z"/>
			<path class="st27" d="M361.5,417.8c5.5-4.9,5.8-13,4-19.7c-1.8-6.8-6.1-13.8-12.5-17.2c-3.1-1.6-6.7-2.4-10-1
				c-3.7,1.6-6.3,5-8.4,8.3c-4.6,7.4-8.8,17.7-2.6,25.4C339.1,422.4,352.8,425.2,361.5,417.8c2.1-1.8-0.9-4.8-3-3
				c-6.5,5.5-16.1,3-21.8-2.4c-6.3-5.8-2.7-14.3,0.9-20.6c1.5-2.7,3.4-5.6,6.1-7.3c2.2-1.4,4.5-1.2,6.8-0.1c5.2,2.4,8.8,8,10.5,13.3
				c1.9,5.6,2.3,12.7-2.5,17C356.4,416.6,359.5,419.7,361.5,417.8z"/>
		</g>
		<g>
			<path class="st27" d="M389.1,397.1c10.5-9.2,0.5-33.6-12.7-34.9c-7.3-0.7-13.1,11.4-15.2,17.2c-1.4,4-1.6,8.6,0.5,12.3
				c1.4,2.3,3.5,4.1,5.8,5.6C373.7,401.5,382.9,402.6,389.1,397.1z"/>
			<path class="st27" d="M390.6,398.6c5.5-4.9,5.8-13,4-19.7c-1.8-6.8-6.1-13.8-12.5-17.2c-3.1-1.6-6.7-2.4-10-1
				c-3.7,1.6-6.3,5-8.4,8.3c-4.6,7.4-8.8,17.7-2.6,25.4C368.2,403.2,381.9,406,390.6,398.6c2.1-1.8-0.9-4.8-3-3
				c-6.5,5.5-16.1,3-21.8-2.4c-6.3-5.8-2.7-14.3,0.9-20.6c1.5-2.7,3.4-5.6,6.1-7.3c2.2-1.4,4.5-1.2,6.8-0.1c5.2,2.4,8.8,8,10.5,13.3
				c1.9,5.6,2.3,12.7-2.5,17C385.5,397.5,388.6,400.5,390.6,398.6z"/>
		</g>
		<g>
			<path class="st27" d="M416.8,383.2c10.5-9.2,0.5-33.6-12.7-34.9c-7.3-0.7-13.1,11.4-15.2,17.2c-1.4,4-1.6,8.6,0.5,12.3
				c1.4,2.3,3.5,4.1,5.8,5.6C401.4,387.6,410.6,388.6,416.8,383.2z"/>
			<path class="st27" d="M418.3,384.7c5.5-4.9,5.8-13,4-19.7c-1.8-6.8-6.1-13.8-12.5-17.2c-3.1-1.6-6.7-2.4-10-1
				c-3.7,1.6-6.3,5-8.4,8.3c-4.6,7.4-8.8,17.7-2.6,25.4C395.8,389.2,409.5,392.1,418.3,384.7c2.1-1.8-0.9-4.8-3-3
				c-6.5,5.5-16.1,3-21.8-2.4c-6.3-5.8-2.7-14.3,0.9-20.6c1.5-2.7,3.4-5.6,6.1-7.3c2.2-1.4,4.5-1.2,6.8-0.1c5.2,2.4,8.8,8,10.5,13.3
				c1.9,5.6,2.3,12.7-2.5,17C413.2,383.5,416.2,386.5,418.3,384.7z"/>
		</g>
		<g>
			<path class="st27" d="M433.1,356.1c10.5-9.2,0.5-33.6-12.7-34.9c-7.3-0.7-13.1,11.4-15.2,17.2c-1.4,4-1.6,8.6,0.5,12.3
				c1.4,2.3,3.5,4.1,5.8,5.6C417.7,360.4,426.9,361.5,433.1,356.1z"/>
			<path class="st27" d="M434.6,357.6c5.5-4.9,5.8-13,4-19.7c-1.8-6.8-6.1-13.8-12.5-17.2c-3.1-1.6-6.7-2.4-10-1
				c-3.7,1.6-6.3,5-8.4,8.3c-4.6,7.4-8.8,17.7-2.6,25.4C412.2,362.1,425.9,365,434.6,357.6c2.1-1.8-0.9-4.8-3-3
				c-6.5,5.5-16.1,3-21.8-2.4c-6.3-5.8-2.7-14.3,0.9-20.6c1.5-2.7,3.4-5.6,6.1-7.3c2.2-1.4,4.5-1.2,6.8-0.1c5.2,2.4,8.8,8,10.5,13.3
				c1.9,5.6,2.3,12.7-2.5,17C429.6,356.4,432.6,359.4,434.6,357.6z"/>
		</g>
	</g>
	<path class="st28" d="M171.8,146.2c-1.6,0-3.1-0.9-3.8-2.3l-2.5-5c-1.1-2.1-0.3-4.7,1.8-5.8c2.1-1.1,4.7-0.3,5.8,1.8l2.6,5
		c1.1,2.1,0.2,4.7-1.9,5.8C173.2,146.1,172.5,146.2,171.8,146.2z"/>
	<path class="st28" d="M118.9,350.7c-1.1,0-2.2-0.4-3-1.2l-4-3.9c-1.7-1.7-1.7-4.4-0.1-6c1.7-1.7,4.4-1.7,6-0.1l4,3.9
		c1.7,1.7,1.7,4.4,0.1,6C121.1,350.3,120,350.7,118.9,350.7z"/>
	<path class="st28" d="M340.2,184.8c-1.7,0-3.3-1-4-2.7c-0.9-2.2,0.2-4.7,2.4-5.6l5.2-2.1c2.2-0.9,4.7,0.2,5.6,2.4
		c0.9,2.2-0.2,4.7-2.4,5.6l-5.2,2.1C341.2,184.7,340.7,184.8,340.2,184.8z"/>
	<path class="st28" d="M307.5,367.5c-0.6,0-1.3-0.1-1.9-0.4l-5-2.4c-2.1-1-3-3.6-2-5.7c1-2.1,3.6-3,5.7-2l5,2.5c2.1,1,3,3.6,2,5.7
		C310.6,366.6,309,367.5,307.5,367.5z"/>
	<path class="st28" d="M244.9,290.9c-1.7,0-3.3-1-4-2.7c-0.9-2.2,0.2-4.7,2.4-5.6l5.2-2.1c2.2-0.9,4.7,0.2,5.6,2.4
		c0.9,2.2-0.2,4.7-2.4,5.6l-5.2,2.1C246,290.8,245.4,290.9,244.9,290.9z"/>
	<path class="st29" d="M174.4,273.2c-1.6,0-3.1-0.9-3.8-2.4l-2.5-5c-1.1-2.1-0.2-4.7,1.9-5.7c2.1-1,4.7-0.2,5.7,1.9l2.5,5
		c1.1,2.1,0.2,4.7-1.9,5.7C175.7,273.1,175.1,273.2,174.4,273.2z"/>
	<path class="st29" d="M349.1,221.4c-1.5,0-2.9-0.8-3.7-2.1l-2.8-4.8c-1.2-2-0.5-4.7,1.6-5.8c2-1.2,4.7-0.5,5.8,1.6l2.8,4.8
		c1.2,2,0.5,4.7-1.6,5.8C350.6,221.2,349.8,221.4,349.1,221.4z"/>
	<path class="st29" d="M345,359.7c-1.3,0-2.6-0.6-3.4-1.7c-1.4-1.9-1-4.6,0.8-6l4.5-3.4c1.9-1.4,4.6-1.1,6,0.8
		c1.4,1.9,1.1,4.6-0.8,6l-4.5,3.4C346.8,359.4,345.9,359.7,345,359.7z"/>
	<path class="st2" d="M282.9,278.7c-1,0-2-0.3-2.8-1l-4.2-3.7c-1.8-1.6-2-4.3-0.4-6c1.6-1.8,4.3-2,6-0.4l4.2,3.7
		c1.8,1.6,2,4.3,0.4,6C285.2,278.2,284,278.7,282.9,278.7z"/>
	<path class="st2" d="M210.7,401.3c-1.2,0-2.3-0.5-3.2-1.4l-3.7-4.2c-1.6-1.8-1.4-4.5,0.3-6c1.8-1.6,4.5-1.4,6,0.3l3.7,4.2
		c1.6,1.8,1.4,4.5-0.3,6C212.8,400.9,211.8,401.3,210.7,401.3z"/>
	<path class="st2" d="M383.5,334c-1.4,0-2.8-0.7-3.6-2l-3-4.7c-1.3-2-0.7-4.6,1.3-5.9c2-1.3,4.6-0.6,5.9,1.3l3,4.7
		c1.3,2,0.7,4.6-1.3,5.9C385.1,333.8,384.3,334,383.5,334z"/>
	<path class="st29" d="M140.6,170.2c-1.7,0-3.3-1-4-2.7c-0.9-2.2,0.2-4.7,2.4-5.6l5.2-2.1c2.2-0.9,4.7,0.2,5.6,2.4
		c0.9,2.2-0.2,4.7-2.4,5.6l-5.2,2.1C141.7,170.1,141.2,170.2,140.6,170.2z"/>
	<path class="st29" d="M164,380.8c-1.7,0-3.3-1-4-2.7c-0.9-2.2,0.2-4.7,2.4-5.6l5.2-2.1c2.2-0.9,4.7,0.2,5.6,2.4
		c0.9,2.2-0.2,4.7-2.4,5.6l-5.2,2.1C165,380.7,164.5,380.8,164,380.8z"/>
	<path class="st29" d="M254.1,386.1c-1.7,0-3.3-1-4-2.7c-0.9-2.2,0.2-4.7,2.4-5.6l5.2-2.1c2.2-0.9,4.7,0.2,5.6,2.4
		c0.9,2.2-0.2,4.7-2.4,5.6l-5.2,2.1C255.2,386,254.6,386.1,254.1,386.1z"/>
	<g>
		<path class="st27" d="M215.8,351.2c-1.9,2.1-5.2,2.3-8.1,2.3c-5.1,0-10.4-0.1-15.2-2c-4.5-1.8-8.2-5.2-11.6-8.7
			c-7.4-7.8,1.5-13.2,9-14.8c6.8-1.4,14,0.1,19.2,4.7C213.3,336.2,220.6,345.9,215.8,351.2z"/>
		<path class="st27" d="M208,354.1c-0.1,0-0.2,0-0.2,0c-4.9,0-10.5,0-15.5-2c-4.8-2-8.7-5.6-11.8-8.9c-2.6-2.7-3.5-5.4-2.7-8
			c1.4-4.3,7.4-7,12.1-8c7.3-1.5,14.7,0.3,19.9,4.9c3.1,2.7,8,8.9,8.3,14.3c0.1,2.1-0.5,3.8-1.7,5.2l0,0
			C214.3,353.9,211,354.1,208,354.1z M194.9,328.2c-1.6,0-3.2,0.2-4.7,0.5c-4.7,1-9.9,3.5-11,7c-0.6,2,0.2,4.2,2.4,6.6
			c3,3.2,6.7,6.7,11.3,8.5c4.7,1.9,10.1,1.9,14.9,1.9c0.1,0,0.2,0,0.3,0c2.8,0,5.6-0.2,7.3-2l0,0c1-1.1,1.5-2.5,1.4-4.2
			c-0.3-4.9-4.9-10.7-7.8-13.3C205.1,329.9,200.1,328.2,194.9,328.2z"/>
	</g>
	<g>
		<path class="st27" d="M90.9,197.7c10-9.9-1.6-33.5-14.8-34c-7.4-0.3-12.4,12.2-14.1,18.1c-1.2,4.1-1.1,8.7,1.2,12.2
			c1.5,2.2,3.8,3.9,6.1,5.2C75.8,203.1,85.1,203.6,90.9,197.7z"/>
		<path class="st27" d="M92.4,199.3c5.3-5.4,5.2-13.6,2.8-20.3c-2.5-6.9-7.4-13.7-14.4-16.4c-3.3-1.2-6.8-1.4-9.9,0.6
			c-3.3,2.1-5.6,5.6-7.3,9c-4,7.8-7.4,18.4-0.2,25.4C71.1,205,84.3,207.1,92.4,199.3c2-1.9-1-4.9-3-3c-5.9,5.7-14.7,4.2-20.9-0.1
			c-3.9-2.7-5.6-6.8-4.9-11.5c0.5-3,1.7-6.1,3-8.8c1.3-2.9,2.9-5.9,5.3-8c2-1.9,4.2-2.2,6.8-1.4c5.5,1.7,9.6,7.1,11.8,12.2
			c2.4,5.5,3.6,13.1-1,17.8C87.5,198.2,90.5,201.2,92.4,199.3z"/>
	</g>
	<g>
		<path class="st27" d="M95.1,163.7c10-9.9-1.6-33.5-14.8-34c-7.4-0.3-12.4,12.2-14.1,18.1c-1.2,4.1-1.1,8.7,1.2,12.2
			c1.5,2.2,3.8,3.9,6.1,5.2C80.1,169.1,89.3,169.6,95.1,163.7z"/>
		<path class="st27" d="M96.6,165.3c5.3-5.4,5.2-13.6,2.8-20.3C96.9,138,92,131.2,85,128.5c-3.3-1.2-6.8-1.4-9.9,0.6
			c-3.3,2.1-5.6,5.6-7.3,9c-4,7.8-7.4,18.4-0.2,25.4C75.3,171,88.5,173.1,96.6,165.3c2-1.9-1-4.9-3-3c-5.9,5.7-14.7,4.2-20.9-0.1
			c-3.9-2.7-5.6-6.8-4.9-11.5c0.5-3,1.7-6.1,3-8.8c1.3-2.9,2.9-5.9,5.3-8c2-1.9,4.2-2.2,6.8-1.4c5.5,1.7,9.6,7.1,11.8,12.2
			c2.4,5.5,3.6,13.1-1,17.8C91.7,164.2,94.7,167.2,96.6,165.3z"/>
	</g>
	<g>
		<path class="st27" d="M111.8,135.1c10-9.9-1.6-33.5-14.8-34c-7.4-0.3-12.4,12.2-14.1,18.1c-1.2,4.1-1.1,8.7,1.2,12.2
			c1.5,2.2,3.8,3.9,6.1,5.2C96.8,140.4,106,140.9,111.8,135.1z"/>
		<path class="st27" d="M113.3,136.6c5.3-5.4,5.2-13.6,2.8-20.3c-2.5-6.9-7.4-13.7-14.4-16.4c-3.3-1.2-6.8-1.4-9.9,0.6
			c-3.3,2.1-5.6,5.6-7.3,9c-4,7.8-7.4,18.4-0.2,25.4C92,142.3,105.2,144.4,113.3,136.6c2-1.9-1-4.9-3-3c-5.9,5.7-14.7,4.2-20.9-0.1
			c-3.9-2.7-5.6-6.8-4.9-11.5c0.5-3,1.7-6.1,3-8.8c1.3-2.9,2.9-5.9,5.3-8c2-1.9,4.2-2.2,6.8-1.4c5.5,1.7,9.6,7.1,11.8,12.2
			c2.4,5.5,3.6,13.1-1,17.8C108.4,135.6,111.4,138.6,113.3,136.6z"/>
	</g>
	<g>
		<path class="st27" d="M135.5,119.7c10-9.9-1.6-33.5-14.8-34c-7.4-0.3-12.4,12.2-14.1,18.1c-1.2,4.1-1.1,8.7,1.2,12.2
			c1.5,2.2,3.8,3.9,6.1,5.2C120.4,125,129.6,125.5,135.5,119.7z"/>
		<path class="st27" d="M137,121.2c5.3-5.4,5.2-13.6,2.8-20.3c-2.5-6.9-7.4-13.7-14.4-16.4c-3.3-1.2-6.8-1.4-9.9,0.6
			c-3.3,2.1-5.6,5.6-7.3,9c-4,7.8-7.4,18.4-0.2,25.4C115.6,126.9,128.8,129,137,121.2c2-1.9-1-4.9-3-3c-5.9,5.7-14.7,4.2-20.9-0.1
			c-3.9-2.7-5.6-6.8-4.9-11.5c0.5-3,1.7-6.1,3-8.8c1.3-2.9,2.9-5.9,5.3-8c2-1.9,4.2-2.2,6.8-1.4c5.5,1.7,9.6,7.1,11.8,12.2
			c2.4,5.5,3.6,13.1-1,17.8C132,120.2,135.1,123.2,137,121.2z"/>
	</g>
	<g>
		<path class="st27" d="M164,111c10-9.9-1.6-33.5-14.8-34c-7.4-0.3-12.4,12.2-14.1,18.1c-1.2,4.1-1.1,8.7,1.2,12.2
			c1.5,2.2,3.8,3.9,6.1,5.2C149,116.4,158.2,116.9,164,111z"/>
		<path class="st27" d="M165.6,112.5c5.3-5.4,5.2-13.6,2.8-20.3c-2.5-6.9-7.4-13.7-14.4-16.4c-3.3-1.2-6.8-1.4-9.9,0.6
			c-3.3,2.1-5.6,5.6-7.3,9c-4,7.8-7.4,18.4-0.2,25.4C144.2,118.3,157.4,120.4,165.6,112.5c2-1.9-1-4.9-3-3
			c-5.9,5.7-14.7,4.2-20.9-0.1c-3.9-2.7-5.6-6.8-4.9-11.5c0.5-3,1.7-6.1,3-8.8c1.3-2.9,2.9-5.9,5.3-8c2-1.9,4.2-2.2,6.8-1.4
			c5.5,1.7,9.6,7.1,11.8,12.2c2.4,5.5,3.6,13.1-1,17.8C160.6,111.5,163.6,114.5,165.6,112.5z"/>
	</g>
	<g>
		<path class="st27" d="M193.5,110.1c10-9.9-1.6-33.5-14.8-34c-7.4-0.3-12.4,12.2-14.1,18.1c-1.2,4.1-1.1,8.7,1.2,12.2
			c1.5,2.2,3.8,3.9,6.1,5.2C178.4,115.4,187.6,115.9,193.5,110.1z"/>
		<path class="st27" d="M195,111.6c5.3-5.4,5.2-13.6,2.8-20.3c-2.5-6.9-7.4-13.7-14.4-16.4c-3.3-1.2-6.8-1.4-9.9,0.6
			c-3.3,2.1-5.6,5.6-7.3,9c-4,7.8-7.4,18.4-0.2,25.4C173.6,117.3,186.9,119.4,195,111.6c2-1.9-1-4.9-3-3c-5.9,5.7-14.7,4.2-20.9-0.1
			c-3.9-2.7-5.6-6.8-4.9-11.5c0.5-3,1.7-6.1,3-8.8c1.3-2.9,2.9-5.9,5.3-8c2-1.9,4.2-2.2,6.8-1.4c5.5,1.7,9.6,7.1,11.8,12.2
			c2.4,5.5,3.6,13.1-1,17.8C190.1,110.5,193.1,113.6,195,111.6z"/>
	</g>
	<g>
		<path class="st27" d="M221.8,115.9c10-9.9-1.6-33.5-14.8-34c-7.4-0.3-12.4,12.2-14.1,18.1c-1.2,4.1-1.1,8.7,1.2,12.2
			c1.5,2.2,3.8,3.9,6.1,5.2C206.8,121.2,216,121.7,221.8,115.9z"/>
		<path class="st27" d="M223.3,117.4c5.3-5.4,5.2-13.6,2.8-20.3c-2.5-6.9-7.4-13.7-14.4-16.4c-3.3-1.2-6.8-1.4-9.9,0.6
			c-3.3,2.1-5.6,5.6-7.3,9c-4,7.8-7.4,18.4-0.2,25.4C202,123.1,215.2,125.2,223.3,117.4c2-1.9-1-4.9-3-3c-5.9,5.7-14.7,4.2-20.9-0.1
			c-3.9-2.7-5.6-6.8-4.9-11.5c0.5-3,1.7-6.1,3-8.8c1.3-2.9,2.9-5.9,5.3-8c2-1.9,4.2-2.2,6.8-1.4c5.5,1.7,9.6,7.1,11.8,12.2
			c2.4,5.5,3.6,13.1-1,17.8C218.4,116.4,221.4,119.4,223.3,117.4z"/>
	</g>
	<g>
		<path class="st27" d="M242.3,132.9c10-9.9-1.6-33.5-14.8-34c-7.4-0.3-12.4,12.2-14.1,18.1c-1.2,4.1-1.1,8.7,1.2,12.2
			c1.5,2.2,3.8,3.9,6.1,5.2C227.2,138.3,236.4,138.7,242.3,132.9z"/>
		<path class="st27" d="M243.8,134.4c5.3-5.4,5.2-13.6,2.8-20.3c-2.5-6.9-7.4-13.7-14.4-16.4c-3.3-1.2-6.8-1.4-9.9,0.6
			c-3.3,2.1-5.6,5.6-7.3,9c-4,7.8-7.4,18.4-0.2,25.4C222.4,140.2,235.6,142.2,243.8,134.4c2-1.9-1-4.9-3-3
			c-5.9,5.7-14.7,4.2-20.9-0.1c-3.9-2.7-5.6-6.8-4.9-11.5c0.5-3,1.7-6.1,3-8.8c1.3-2.9,2.9-5.9,5.3-8c2-1.9,4.2-2.2,6.8-1.4
			c5.5,1.7,9.6,7.1,11.8,12.2c2.4,5.5,3.6,13.1-1,17.8C238.8,133.4,241.9,136.4,243.8,134.4z"/>
	</g>
	<g>
		<path class="st27" d="M266.6,157.9c10-9.9-1.6-33.5-14.8-34c-7.4-0.3-12.4,12.2-14.1,18.1c-1.2,4.1-1.1,8.7,1.2,12.2
			c1.5,2.2,3.8,3.9,6.1,5.2C251.6,163.2,260.8,163.7,266.6,157.9z"/>
		<path class="st27" d="M268.2,159.4c5.3-5.4,5.2-13.6,2.8-20.3c-2.5-6.9-7.4-13.7-14.4-16.4c-3.3-1.2-6.8-1.4-9.9,0.6
			c-3.3,2.1-5.6,5.6-7.3,9c-4,7.8-7.4,18.4-0.2,25.4C246.8,165.1,260,167.2,268.2,159.4c2-1.9-1-4.9-3-3c-5.9,5.7-14.7,4.2-20.9-0.1
			c-3.9-2.7-5.6-6.8-4.9-11.5c0.5-3,1.7-6.1,3-8.8c1.3-2.9,2.9-5.9,5.3-8c2-1.9,4.2-2.2,6.8-1.4c5.5,1.7,9.6,7.1,11.8,12.2
			c2.4,5.5,3.6,13.1-1,17.8C263.2,158.4,266.2,161.4,268.2,159.4z"/>
	</g>
	<g>
		<path class="st27" d="M296.1,153.1c10-9.9-1.6-33.5-14.8-34c-7.4-0.3-12.4,12.2-14.1,18.1c-1.2,4.1-1.1,8.7,1.2,12.2
			c1.5,2.2,3.8,3.9,6.1,5.2C281,158.4,290.2,158.9,296.1,153.1z"/>
		<path class="st27" d="M297.6,154.6c5.3-5.4,5.2-13.6,2.8-20.3c-2.5-6.9-7.4-13.7-14.4-16.4c-3.3-1.2-6.8-1.4-9.9,0.6
			c-3.3,2.1-5.6,5.6-7.3,9c-4,7.8-7.4,18.4-0.2,25.4C276.3,160.3,289.5,162.4,297.6,154.6c2-1.9-1-4.9-3-3
			c-5.9,5.7-14.7,4.2-20.9-0.1c-3.9-2.7-5.6-6.8-4.9-11.5c0.5-3,1.7-6.1,3-8.8c1.3-2.9,2.9-5.9,5.3-8c2-1.9,4.2-2.2,6.8-1.4
			c5.5,1.7,9.6,7.1,11.8,12.2c2.4,5.5,3.6,13.1-1,17.8C292.7,153.5,295.7,156.6,297.6,154.6z"/>
	</g>
	<g>
		<path class="st27" d="M327.8,144.5c10-9.9-1.6-33.5-14.8-34c-7.4-0.3-12.4,12.2-14.1,18.1c-1.2,4.1-1.1,8.7,1.2,12.2
			c1.5,2.2,3.8,3.9,6.1,5.2C312.7,149.9,321.9,150.3,327.8,144.5z"/>
		<path class="st27" d="M329.3,146c5.3-5.4,5.2-13.6,2.8-20.3c-2.5-6.9-7.4-13.7-14.4-16.4c-3.3-1.2-6.8-1.4-9.9,0.6
			c-3.3,2.1-5.6,5.6-7.3,9c-4,7.8-7.4,18.4-0.2,25.4C307.9,151.8,321.1,153.8,329.3,146c2-1.9-1-4.9-3-3c-5.9,5.7-14.7,4.2-20.9-0.1
			c-3.9-2.7-5.6-6.8-4.9-11.5c0.5-3,1.7-6.1,3-8.8c1.3-2.9,2.9-5.9,5.3-8c2-1.9,4.2-2.2,6.8-1.4c5.5,1.7,9.6,7.1,11.8,12.2
			c2.4,5.5,3.6,13.1-1,17.8C324.3,145,327.4,148,329.3,146z"/>
	</g>
	<g>
		<path class="st27" d="M362.6,145.9c10-9.9-1.6-33.5-14.8-34c-7.4-0.3-12.4,12.2-14.1,18.1c-1.2,4.1-1.1,8.7,1.2,12.2
			c1.5,2.2,3.8,3.9,6.1,5.2C347.6,151.3,356.8,151.7,362.6,145.9z"/>
		<path class="st27" d="M364.1,147.4c5.3-5.4,5.2-13.6,2.8-20.3c-2.5-6.9-7.4-13.7-14.4-16.4c-3.3-1.2-6.8-1.4-9.9,0.6
			c-3.3,2.1-5.6,5.6-7.3,9c-4,7.8-7.4,18.4-0.2,25.4C342.8,153.1,356,155.2,364.1,147.4c2-1.9-1-4.9-3-3c-5.9,5.7-14.7,4.2-20.9-0.1
			c-3.9-2.7-5.6-6.8-4.9-11.5c0.5-3,1.7-6.1,3-8.8c1.3-2.9,2.9-5.9,5.3-8c2-1.9,4.2-2.2,6.8-1.4c5.5,1.7,9.6,7.1,11.8,12.2
			c2.4,5.5,3.6,13.1-1,17.8C359.2,146.4,362.2,149.4,364.1,147.4z"/>
	</g>
	<g>
		<path class="st27" d="M393.2,154.3c10-9.9-1.6-33.5-14.8-34c-7.4-0.3-12.4,12.2-14.1,18.1c-1.2,4.1-1.1,8.7,1.2,12.2
			c1.5,2.2,3.8,3.9,6.1,5.2C378.1,159.7,387.3,160.1,393.2,154.3z"/>
		<path class="st27" d="M394.7,155.8c5.3-5.4,5.2-13.6,2.8-20.3c-2.5-6.9-7.4-13.7-14.4-16.4c-3.3-1.2-6.8-1.4-9.9,0.6
			c-3.3,2.1-5.6,5.6-7.3,9c-4,7.8-7.4,18.4-0.2,25.4C373.3,161.5,386.5,163.6,394.7,155.8c2-1.9-1-4.9-3-3
			c-5.9,5.7-14.7,4.2-20.9-0.1c-3.9-2.7-5.6-6.8-4.9-11.5c0.5-3,1.7-6.1,3-8.8c1.3-2.9,2.9-5.9,5.3-8c2-1.9,4.2-2.2,6.8-1.4
			c5.5,1.7,9.6,7.1,11.8,12.2c2.4,5.5,3.6,13.1-1,17.8C389.7,154.8,392.7,157.8,394.7,155.8z"/>
	</g>
	<g>
		<path class="st27" d="M420.6,172.3c10-9.9-1.6-33.5-14.8-34c-7.4-0.3-12.4,12.2-14.1,18.1c-1.2,4.1-1.1,8.7,1.2,12.2
			c1.5,2.2,3.8,3.9,6.1,5.2C405.5,177.6,414.8,178.1,420.6,172.3z"/>
		<path class="st27" d="M422.1,173.8c5.3-5.4,5.2-13.6,2.8-20.3c-2.5-6.9-7.4-13.7-14.4-16.4c-3.3-1.2-6.8-1.4-9.9,0.6
			c-3.3,2.1-5.6,5.6-7.3,9c-4,7.8-7.4,18.4-0.2,25.4C400.8,179.5,414,181.6,422.1,173.8c2-1.9-1-4.9-3-3c-5.9,5.7-14.7,4.2-20.9-0.1
			c-3.9-2.7-5.6-6.8-4.9-11.5c0.5-3,1.7-6.1,3-8.8c1.3-2.9,2.9-5.9,5.3-8c2-1.9,4.2-2.2,6.8-1.4c5.5,1.7,9.6,7.1,11.8,12.2
			c2.4,5.5,3.6,13.1-1,17.8C417.2,172.8,420.2,175.8,422.1,173.8z"/>
	</g>
	<g>
		<path class="st27" d="M436.7,204.1c10-9.9-1.6-33.5-14.8-34c-7.4-0.3-12.4,12.2-14.1,18.1c-1.2,4.1-1.1,8.7,1.2,12.2
			c1.5,2.2,3.8,3.9,6.1,5.2C421.6,209.4,430.8,209.9,436.7,204.1z"/>
		<path class="st27" d="M438.2,205.6c5.3-5.4,5.2-13.6,2.8-20.3c-2.5-6.9-7.4-13.7-14.4-16.4c-3.3-1.2-6.8-1.4-9.9,0.6
			c-3.3,2.1-5.6,5.6-7.3,9c-4,7.8-7.4,18.4-0.2,25.4C416.8,211.3,430,213.4,438.2,205.6c2-1.9-1-4.9-3-3c-5.9,5.7-14.7,4.2-20.9-0.1
			c-3.9-2.7-5.6-6.8-4.9-11.5c0.5-3,1.7-6.1,3-8.8c1.3-2.9,2.9-5.9,5.3-8c2-1.9,4.2-2.2,6.8-1.4c5.5,1.7,9.6,7.1,11.8,12.2
			c2.4,5.5,3.6,13.1-1,17.8C433.2,204.5,436.3,207.6,438.2,205.6z"/>
	</g>
	<g>
		<path class="st27" d="M109.7,254.7c10-9.9-1.6-33.5-14.8-34c-7.4-0.3-12.4,12.2-14.1,18.1c-1.2,4.1-1.1,8.7,1.2,12.2
			c1.5,2.2,3.8,3.9,6.1,5.2C94.6,260,103.9,260.5,109.7,254.7z"/>
		<path class="st27" d="M111.2,256.2c5.3-5.4,5.2-13.6,2.8-20.3c-2.5-6.9-7.4-13.7-14.4-16.4c-3.3-1.2-6.8-1.4-9.9,0.6
			c-3.3,2.1-5.6,5.6-7.3,9c-4,7.8-7.4,18.4-0.2,25.4C89.9,261.9,103.1,264,111.2,256.2c2-1.9-1-4.9-3-3c-5.9,5.7-14.7,4.2-20.9-0.1
			c-3.9-2.7-5.6-6.8-4.9-11.5c0.5-3,1.7-6.1,3-8.8c1.3-2.9,2.9-5.9,5.3-8c2-1.9,4.2-2.2,6.8-1.4c5.5,1.7,9.6,7.1,11.8,12.2
			c2.4,5.5,3.6,13.1-1,17.8C106.3,255.2,109.3,258.2,111.2,256.2z"/>
	</g>
	<g>
		<path class="st27" d="M123.7,280.7c10-9.9-1.6-33.5-14.8-34c-7.4-0.3-12.4,12.2-14.1,18.1c-1.2,4.1-1.1,8.7,1.2,12.2
			c1.5,2.2,3.8,3.9,6.1,5.2C108.6,286,117.8,286.5,123.7,280.7z"/>
		<path class="st27" d="M125.2,282.2c5.3-5.4,5.2-13.6,2.8-20.3c-2.5-6.9-7.4-13.7-14.4-16.4c-3.3-1.2-6.8-1.4-9.9,0.6
			c-3.3,2.1-5.6,5.6-7.3,9c-4,7.8-7.4,18.4-0.2,25.4C103.8,287.9,117.1,290,125.2,282.2c2-1.9-1-4.9-3-3c-5.9,5.7-14.7,4.2-20.9-0.1
			c-3.9-2.7-5.6-6.8-4.9-11.5c0.5-3,1.7-6.1,3-8.8c1.3-2.9,2.9-5.9,5.3-8c2-1.9,4.2-2.2,6.8-1.4c5.5,1.7,9.6,7.1,11.8,12.2
			c2.4,5.5,3.6,13.1-1,17.8C120.3,281.1,123.3,284.2,125.2,282.2z"/>
	</g>
	<g>
		<path class="st27" d="M163.3,327.6c10-9.9-1.6-33.5-14.8-34c-7.4-0.3-12.4,12.2-14.1,18.1c-1.2,4.1-1.1,8.7,1.2,12.2
			c1.5,2.2,3.8,3.9,6.1,5.2C148.2,332.9,157.4,333.4,163.3,327.6z"/>
		<path class="st27" d="M164.8,329.1c5.3-5.4,5.2-13.6,2.8-20.3c-2.5-6.9-7.4-13.7-14.4-16.4c-3.3-1.2-6.8-1.4-9.9,0.6
			c-3.3,2.1-5.6,5.6-7.3,9c-4,7.8-7.4,18.4-0.2,25.4C143.4,334.8,156.6,336.9,164.8,329.1c2-1.9-1-4.9-3-3
			c-5.9,5.7-14.7,4.2-20.9-0.1c-3.9-2.7-5.6-6.8-4.9-11.5c0.5-3,1.7-6.1,3-8.8c1.3-2.9,2.9-5.9,5.3-8c2-1.9,4.2-2.2,6.8-1.4
			c5.5,1.7,9.6,7.1,11.8,12.2c2.4,5.5,3.6,13.1-1,17.8C159.8,328.1,162.9,331.1,164.8,329.1z"/>
	</g>
	<g>
		<path class="st27" d="M188.4,342.3c10-9.9-1.6-33.5-14.8-34c-7.4-0.3-12.4,12.2-14.1,18.1c-1.2,4.1-1.1,8.7,1.2,12.2
			c1.5,2.2,3.8,3.9,6.1,5.2C173.4,347.6,182.6,348.1,188.4,342.3z"/>
		<path class="st27" d="M189.9,343.8c5.3-5.4,5.2-13.6,2.8-20.3c-2.5-6.9-7.4-13.7-14.4-16.4c-3.3-1.2-6.8-1.4-9.9,0.6
			c-3.3,2.1-5.6,5.6-7.3,9c-4,7.8-7.4,18.4-0.2,25.4C168.6,349.5,181.8,351.6,189.9,343.8c2-1.9-1-4.9-3-3
			c-5.9,5.7-14.7,4.2-20.9-0.1c-3.9-2.7-5.6-6.8-4.9-11.5c0.5-3,1.7-6.1,3-8.8c1.3-2.9,2.9-5.9,5.3-8c2-1.9,4.2-2.2,6.8-1.4
			c5.5,1.7,9.6,7.1,11.8,12.2c2.4,5.5,3.6,13.1-1,17.8C185,342.8,188,345.8,189.9,343.8z"/>
	</g>
	<g>
		<path class="st27" d="M249.9,342.3c10-9.9-1.6-33.5-14.8-34c-7.4-0.3-12.4,12.2-14.1,18.1c-1.2,4.1-1.1,8.7,1.2,12.2
			c1.5,2.2,3.8,3.9,6.1,5.2C234.9,347.6,244.1,348.1,249.9,342.3z"/>
		<path class="st27" d="M251.5,343.8c5.3-5.4,5.2-13.6,2.8-20.3c-2.5-6.9-7.4-13.7-14.4-16.4c-3.3-1.2-6.8-1.4-9.9,0.6
			c-3.3,2.1-5.6,5.6-7.3,9c-4,7.8-7.4,18.4-0.2,25.4C230.1,349.5,243.3,351.6,251.5,343.8c2-1.9-1-4.9-3-3
			c-5.9,5.7-14.7,4.2-20.9-0.1c-3.9-2.7-5.6-6.8-4.9-11.5c0.5-3,1.7-6.1,3-8.8c1.3-2.9,2.9-5.9,5.3-8c2-1.9,4.2-2.2,6.8-1.4
			c5.5,1.7,9.6,7.1,11.8,12.2c2.4,5.5,3.6,13.1-1,17.8C246.5,342.8,249.5,345.8,251.5,343.8z"/>
	</g>
	<g>
		<path class="st27" d="M221.8,347.3c10-9.9-1.6-33.5-14.8-34c-7.4-0.3-12.4,12.2-14.1,18.1c-1.2,4.1-1.1,8.7,1.2,12.2
			c1.5,2.2,3.8,3.9,6.1,5.2C206.7,352.6,215.9,353.1,221.8,347.3z"/>
		<path class="st27" d="M223.3,348.8c5.3-5.4,5.2-13.6,2.8-20.3c-2.5-6.9-7.4-13.7-14.4-16.4c-3.3-1.2-6.8-1.4-9.9,0.6
			c-3.3,2.1-5.6,5.6-7.3,9c-4,7.8-7.4,18.4-0.2,25.4C201.9,354.5,215.2,356.6,223.3,348.8c2-1.9-1-4.9-3-3
			c-5.9,5.7-14.7,4.2-20.9-0.1c-3.9-2.7-5.6-6.8-4.9-11.5c0.5-3,1.7-6.1,3-8.8c1.3-2.9,2.9-5.9,5.3-8c2-1.9,4.2-2.2,6.8-1.4
			c5.5,1.7,9.6,7.1,11.8,12.2c2.4,5.5,3.6,13.1-1,17.8C218.4,347.7,221.4,350.7,223.3,348.8z"/>
	</g>
	<g>
		<path class="st27" d="M282.7,338c10-9.9-1.6-33.5-14.8-34c-7.4-0.3-12.4,12.2-14.1,18.1c-1.2,4.1-1.1,8.7,1.2,12.2
			c1.5,2.2,3.8,3.9,6.1,5.2C267.6,343.3,276.8,343.8,282.7,338z"/>
		<path class="st27" d="M284.2,339.5c5.3-5.4,5.2-13.6,2.8-20.3c-2.5-6.9-7.4-13.7-14.4-16.4c-3.3-1.2-6.8-1.4-9.9,0.6
			c-3.3,2.1-5.6,5.6-7.3,9c-4,7.8-7.4,18.4-0.2,25.4C262.8,345.2,276,347.3,284.2,339.5c2-1.9-1-4.9-3-3c-5.9,5.7-14.7,4.2-20.9-0.1
			c-3.9-2.7-5.6-6.8-4.9-11.5c0.5-3,1.7-6.1,3-8.8c1.3-2.9,2.9-5.9,5.3-8c2-1.9,4.2-2.2,6.8-1.4c5.5,1.7,9.6,7.1,11.8,12.2
			c2.4,5.5,3.6,13.1-1,17.8C279.2,338.4,282.3,341.5,284.2,339.5z"/>
	</g>
	<g>
		<path class="st27" d="M314.5,330.1c10-9.9-1.6-33.5-14.8-34c-7.4-0.3-12.4,12.2-14.1,18.1c-1.2,4.1-1.1,8.7,1.2,12.2
			c1.5,2.2,3.8,3.9,6.1,5.2C299.4,335.4,308.6,335.9,314.5,330.1z"/>
		<path class="st27" d="M316,331.6c5.3-5.4,5.2-13.6,2.8-20.3c-2.5-6.9-7.4-13.7-14.4-16.4c-3.3-1.2-6.8-1.4-9.9,0.6
			c-3.3,2.1-5.6,5.6-7.3,9c-4,7.8-7.4,18.4-0.2,25.4C294.6,337.3,307.8,339.4,316,331.6c2-1.9-1-4.9-3-3c-5.9,5.7-14.7,4.2-20.9-0.1
			c-3.9-2.7-5.6-6.8-4.9-11.5c0.5-3,1.7-6.1,3-8.8c1.3-2.9,2.9-5.9,5.3-8c2-1.9,4.2-2.2,6.8-1.4c5.5,1.7,9.6,7.1,11.8,12.2
			c2.4,5.5,3.6,13.1-1,17.8C311,330.6,314,333.6,316,331.6z"/>
	</g>
	<g>
		<path class="st27" d="M344.3,321c10-9.9-1.6-33.5-14.8-34c-7.4-0.3-12.4,12.2-14.1,18.1c-1.2,4.1-1.1,8.7,1.2,12.2
			c1.5,2.2,3.8,3.9,6.1,5.2C329.2,326.4,338.4,326.8,344.3,321z"/>
		<path class="st27" d="M345.8,322.5c5.3-5.4,5.2-13.6,2.8-20.3c-2.5-6.9-7.4-13.7-14.4-16.4c-3.3-1.2-6.8-1.4-9.9,0.6
			c-3.3,2.1-5.6,5.6-7.3,9c-4,7.8-7.4,18.4-0.2,25.4C324.4,328.3,337.6,330.3,345.8,322.5c2-1.9-1-4.9-3-3
			c-5.9,5.7-14.7,4.2-20.9-0.1c-3.9-2.7-5.6-6.8-4.9-11.5c0.5-3,1.7-6.1,3-8.8c1.3-2.9,2.9-5.9,5.3-8c2-1.9,4.2-2.2,6.8-1.4
			c5.5,1.7,9.6,7.1,11.8,12.2c2.4,5.5,3.6,13.1-1,17.8C340.8,321.5,343.9,324.5,345.8,322.5z"/>
	</g>
	<g>
		<path class="st27" d="M371.3,307.2c10-9.9-1.6-33.5-14.8-34c-7.4-0.3-12.4,12.2-14.1,18.1c-1.2,4.1-1.1,8.7,1.2,12.2
			c1.5,2.2,3.8,3.9,6.1,5.2C356.2,312.5,365.4,313,371.3,307.2z"/>
		<path class="st27" d="M372.8,308.7c5.3-5.4,5.2-13.6,2.8-20.3c-2.5-6.9-7.4-13.7-14.4-16.4c-3.3-1.2-6.8-1.4-9.9,0.6
			c-3.3,2.1-5.6,5.6-7.3,9c-4,7.8-7.4,18.4-0.2,25.4C351.4,314.4,364.6,316.5,372.8,308.7c2-1.9-1-4.9-3-3
			c-5.9,5.7-14.7,4.2-20.9-0.1c-3.9-2.7-5.6-6.8-4.9-11.5c0.5-3,1.7-6.1,3-8.8c1.3-2.9,2.9-5.9,5.3-8c2-1.9,4.2-2.2,6.8-1.4
			c5.5,1.7,9.6,7.1,11.8,12.2c2.4,5.5,3.6,13.1-1,17.8C367.8,307.7,370.8,310.7,372.8,308.7z"/>
	</g>
	<g>
		<path class="st27" d="M398,288c10-9.9-1.6-33.5-14.8-34c-7.4-0.3-12.4,12.2-14.1,18.1c-1.2,4.1-1.1,8.7,1.2,12.2
			c1.5,2.2,3.8,3.9,6.1,5.2C382.9,293.3,392.1,293.8,398,288z"/>
		<path class="st27" d="M399.5,289.5c5.3-5.4,5.2-13.6,2.8-20.3c-2.5-6.9-7.4-13.7-14.4-16.4c-3.3-1.2-6.8-1.4-9.9,0.6
			c-3.3,2.1-5.6,5.6-7.3,9c-4,7.8-7.4,18.4-0.2,25.4C378.1,295.2,391.3,297.3,399.5,289.5c2-1.9-1-4.9-3-3
			c-5.9,5.7-14.7,4.2-20.9-0.1c-3.9-2.7-5.6-6.8-4.9-11.5c0.5-3,1.7-6.1,3-8.8c1.3-2.9,2.9-5.9,5.3-8c2-1.9,4.2-2.2,6.8-1.4
			c5.5,1.7,9.6,7.1,11.8,12.2c2.4,5.5,3.6,13.1-1,17.8C394.5,288.5,397.5,291.5,399.5,289.5z"/>
	</g>
	<g>
		<path class="st27" d="M423.8,269c10-9.9-1.6-33.5-14.8-34c-7.4-0.3-12.4,12.2-14.1,18.1c-1.2,4.1-1.1,8.7,1.2,12.2
			c1.5,2.2,3.8,3.9,6.1,5.2C408.7,274.3,417.9,274.8,423.8,269z"/>
		<path class="st27" d="M425.3,270.5c5.3-5.4,5.2-13.6,2.8-20.3c-2.5-6.9-7.4-13.7-14.4-16.4c-3.3-1.2-6.8-1.4-9.9,0.6
			c-3.3,2.1-5.6,5.6-7.3,9c-4,7.8-7.4,18.4-0.2,25.4C403.9,276.2,417.1,278.3,425.3,270.5c2-1.9-1-4.9-3-3
			c-5.9,5.7-14.7,4.2-20.9-0.1c-3.9-2.7-5.6-6.8-4.9-11.5c0.5-3,1.7-6.1,3-8.8c1.3-2.9,2.9-5.9,5.3-8c2-1.9,4.2-2.2,6.8-1.4
			c5.5,1.7,9.6,7.1,11.8,12.2c2.4,5.5,3.6,13.1-1,17.8C420.3,269.5,423.3,272.5,425.3,270.5z"/>
	</g>
	<g>
		<path class="st27" d="M439.7,240c10-9.9-1.6-33.5-14.8-34c-7.4-0.3-12.4,12.2-14.1,18.1c-1.2,4.1-1.1,8.7,1.2,12.2
			c1.5,2.2,3.8,3.9,6.1,5.2C424.6,245.3,433.8,245.8,439.7,240z"/>
		<path class="st27" d="M441.2,241.5c5.3-5.4,5.2-13.6,2.8-20.3c-2.5-6.9-7.4-13.7-14.4-16.4c-3.3-1.2-6.8-1.4-9.9,0.6
			c-3.3,2.1-5.6,5.6-7.3,9c-4,7.8-7.4,18.4-0.2,25.4C419.8,247.2,433,249.3,441.2,241.5c2-1.9-1-4.9-3-3c-5.9,5.7-14.7,4.2-20.9-0.1
			c-3.9-2.7-5.6-6.8-4.9-11.5c0.5-3,1.7-6.1,3-8.8c1.3-2.9,2.9-5.9,5.3-8c2-1.9,4.2-2.2,6.8-1.4c5.5,1.7,9.6,7.1,11.8,12.2
			c2.4,5.5,3.6,13.1-1,17.8C436.2,240.5,439.3,243.5,441.2,241.5z"/>
	</g>
	<g>
		<path class="st27" d="M144.4,311.1c11.6-11.5-1.9-38.9-17.2-39.5c-8.6-0.3-14.4,14.2-16.4,21c-1.4,4.7-1.3,10.1,1.4,14.2
			c1.7,2.6,4.4,4.5,7.1,6.1C126.9,317.3,137.6,317.8,144.4,311.1z"/>
		<path class="st27" d="M145.9,312.6c6-6.2,5.9-15.6,3.1-23.3c-2.8-7.9-8.5-15.7-16.5-18.8c-3.7-1.4-7.8-1.6-11.2,0.6
			c-3.8,2.4-6.4,6.4-8.3,10.3c-4.6,8.9-8.5,21-0.3,29.1C121.5,319.1,136.6,321.5,145.9,312.6c2-1.9-1-4.9-3-3
			c-7,6.7-17.4,5-24.7-0.1c-4.7-3.3-6.7-8.1-5.9-13.8c0.5-3.5,2-7.1,3.5-10.3c1.6-3.4,3.5-6.8,6.2-9.4c2.4-2.2,5.1-2.7,8.2-1.8
			c6.5,2,11.3,8.3,13.9,14.3c2.9,6.5,4.2,15.5-1.2,21C141,311.5,144,314.6,145.9,312.6z"/>
	</g>
	<g>
		<g>
			<path class="st30" d="M187.6,324.5c2.5,3.9,6.8,6.5,11.3,7.5c4.6,0.9,9.3,0.3,13.7-1.4c10.8-4.3,16.5-15.4,12.7-26.6
				C213.9,270.5,170.9,298.5,187.6,324.5z"/>
			<path class="st30" d="M203.3,335.3c-1.7,0-3.3-0.2-4.9-0.5c-5.5-1.1-10.3-4.3-13.2-8.7l0,0c-5.6-8.7-5.7-18.6-0.4-27.1
				c5.4-8.7,15.6-14.1,24.7-13c4.9,0.6,13.9,3.5,18.5,17.1c4.2,12.3-2,25.3-14.3,30.2C210.2,334.6,206.7,335.3,203.3,335.3z
				 M190,323c2,3.1,5.5,5.4,9.5,6.2c3.8,0.8,7.9,0.3,12-1.3c9.6-3.8,14.3-13.5,11-23c-2.7-8-7.5-12.6-13.8-13.3
				c-7-0.8-14.9,3.5-19.2,10.4C187.3,305.8,184.1,313.7,190,323L190,323z"/>
		</g>
		<path class="st31" d="M210.4,303.3c0.2-6.2,2.3-11.7,5.7-16.8c1.6-2.3,3.3-4.5,4.9-6.8c2.3-3.1,4.6-6.2,7-9.2
			c1-1.2,1.9-2.4,2.9-3.5c0.3-0.4,0.7-0.7,1-1.1c0.5-0.6,0.4-0.3-0.1-0.1c2.7-0.7,1.5-4.8-1.1-4.1c-2.2,0.6-4.1,3.8-5.4,5.5
			c-2.7,3.3-5.2,6.7-7.8,10.2c-1.8,2.4-3.6,4.7-5.2,7.2c-3.8,5.7-6,12-6.2,18.8C206.1,306,210.3,306,210.4,303.3L210.4,303.3z"/>
	</g>
	<g>
		<g>
			<path class="st30" d="M403.6,228.4c2.5,3.9,6.8,6.5,11.3,7.5c4.6,0.9,9.3,0.3,13.7-1.4c10.8-4.3,16.5-15.4,12.7-26.6
				C429.9,174.4,386.8,202.3,403.6,228.4z"/>
			<path class="st30" d="M419.2,239.1c-1.7,0-3.3-0.2-4.9-0.5c-5.5-1.1-10.3-4.3-13.2-8.7l0,0c-5.6-8.7-5.7-18.6-0.4-27.1
				c5.4-8.7,15.6-14.1,24.7-13c4.9,0.6,13.9,3.5,18.5,17.1c4.2,12.3-2,25.3-14.3,30.2C426.2,238.4,422.7,239.1,419.2,239.1z
				 M406,226.8c2,3.1,5.5,5.4,9.5,6.2c3.8,0.8,7.9,0.3,12-1.3c9.6-3.8,14.3-13.5,11-23c-2.7-8-7.5-12.6-13.8-13.3
				c-7-0.8-14.9,3.5-19.2,10.4C403.3,209.7,400.1,217.6,406,226.8L406,226.8z"/>
		</g>
		<path class="st31" d="M426.4,202.9c0.1-3,0.8-5.9,1.5-8.8c0.7-2.9,1.2-5.7,1.5-8.7c0.7-5.8,1.7-11.5,3.9-16.9
			c1-2.5-3.1-3.7-4.1-1.1c-2.3,5.6-3.2,11.5-4,17.4c-0.8,6.1-2.8,12-3.1,18.1C422,205.6,426.3,205.6,426.4,202.9L426.4,202.9z"/>
	</g>
	<g>
		<g>
			<path class="st30" d="M95.8,113.3c2.5,3.9,6.8,6.5,11.3,7.5c4.6,0.9,9.3,0.3,13.7-1.4c10.8-4.3,16.5-15.4,12.7-26.6
				C122.1,59.3,79,87.2,95.8,113.3z"/>
			<path class="st30" d="M111.4,124c-1.7,0-3.3-0.2-4.9-0.5c-5.5-1.1-10.3-4.3-13.2-8.7l0,0c-5.6-8.7-5.7-18.6-0.4-27.1
				c5.4-8.7,15.6-14.1,24.7-13c4.9,0.6,13.9,3.5,18.5,17.1c4.2,12.3-2,25.3-14.3,30.2C118.4,123.3,114.9,124,111.4,124z M115.3,80.2
				c-6.5,0-13.5,4.1-17.5,10.5c-2.4,3.9-5.6,11.8,0.4,21l0,0c2,3.1,5.5,5.4,9.5,6.2c3.8,0.8,7.9,0.3,12-1.3c9.6-3.8,14.3-13.5,11-23
				c-2.7-8-7.5-12.6-13.8-13.3C116.5,80.3,115.9,80.2,115.3,80.2z"/>
		</g>
		<path class="st31" d="M118.6,87.8c0.3-6.7,4-11.6,8.3-16.3c3.7-4,7.5-8,11.5-11.8c0.8-0.8,1.7-1.6,2.6-2.4
			c0.2-0.1,0.3-0.3,0.5-0.4c0.3-0.3-0.3,0.2,0.1-0.1c0.1-0.1,0.2-0.1,0.3-0.2c0.3-0.2-0.5,0.1-0.2,0.1c2.7-0.5,1.6-4.7-1.1-4.1
			c-1.5,0.3-3,2-4.1,3.1c-2.1,2-4.1,4-6.1,6.1c-3.2,3.2-6.4,6.5-9.3,10c-3.9,4.7-6.4,9.9-6.7,16.1C114.2,90.5,118.5,90.5,118.6,87.8
			L118.6,87.8z"/>
	</g>
	<g>
		<g>
			<path class="st30" d="M389,146.1c2.5,3.9,6.8,6.5,11.3,7.5c4.6,0.9,9.3,0.3,13.7-1.4c10.8-4.3,16.5-15.4,12.7-26.6
				C415.3,92.1,372.3,120,389,146.1z"/>
			<path class="st30" d="M404.7,156.8c-1.7,0-3.3-0.2-4.9-0.5c-5.5-1.1-10.3-4.3-13.2-8.7l0,0c-5.6-8.7-5.7-18.6-0.4-27.1
				c5.4-8.7,15.7-14.1,24.7-13c4.9,0.6,13.9,3.5,18.5,17.1c4.2,12.3-2,25.3-14.3,30.2C411.6,156.1,408.1,156.8,404.7,156.8z
				 M408.6,113.1c-6.5,0-13.5,4.1-17.5,10.5c-2.4,3.9-5.6,11.8,0.4,21l0,0c2,3.1,5.5,5.4,9.5,6.2c3.8,0.8,7.9,0.3,12-1.3
				c9.6-3.8,14.3-13.5,11-23c-2.7-8-7.5-12.6-13.8-13.3C409.7,113.1,409.1,113.1,408.6,113.1z"/>
		</g>
		<path class="st31" d="M411.8,120.6c0.4-8.8,6.2-15,12.2-20.8c3-2.9,6-5.6,9.1-8.4c3-2.7,6.3-5.2,9-8.2c1.8-2-1.2-5.1-3-3
			c-2.9,3.2-6.3,5.9-9.5,8.7c-3.4,3.1-6.9,6.1-10.1,9.4c-3,3.1-6.2,6.3-8.4,10.1c-2.2,3.7-3.4,8-3.6,12.3
			C407.5,123.4,411.7,123.4,411.8,120.6L411.8,120.6z"/>
	</g>
	<g>
		<g>
			<path class="st30" d="M287.4,131.9c2.5,3.9,6.8,6.5,11.3,7.5c4.6,0.9,9.3,0.3,13.7-1.4c10.8-4.3,16.5-15.4,12.7-26.6
				C313.7,77.9,270.6,105.8,287.4,131.9z"/>
			<path class="st30" d="M303,142.6c-1.7,0-3.3-0.2-4.9-0.5c-5.5-1.1-10.3-4.3-13.2-8.7l0,0c-5.6-8.7-5.7-18.6-0.4-27.1
				c5.4-8.7,15.6-14.1,24.7-13c4.9,0.6,13.9,3.5,18.5,17.1c4.2,12.3-2,25.3-14.3,30.2C310,141.9,306.5,142.6,303,142.6z M306.9,98.9
				c-6.5,0-13.5,4.1-17.5,10.5c-2.4,3.9-5.6,11.8,0.4,21l0,0c2,3.1,5.5,5.4,9.5,6.2c3.8,0.8,7.9,0.3,12-1.3c9.6-3.8,14.3-13.5,11-23
				c-2.7-8-7.5-12.6-13.8-13.3C308.1,98.9,307.5,98.9,306.9,98.9z"/>
		</g>
		<path class="st31" d="M306.2,112.1c-0.3-3,0.2-5.9,1.6-8.6c0.7-1.2,1.5-2.3,2.2-3.5c0.4-0.6-0.2,0.2,0.2-0.2
			c1.6-2,3.1-3.9,4.7-5.8c2.1-2.5,4.2-5,6.4-7.5c0.9-1,1.7-1.9,2.6-2.8c0.3-0.3,0.7-0.7,1-1c0.4-0.3-0.1,0,0,0c0,0,1.1-0.4-0.2,0
			c2.6-0.8,1.5-5-1.1-4.1c-1.5,0.5-2.7,2-3.7,3.1c-1.8,1.9-3.5,3.9-5.2,5.9c-2.8,3.3-5.8,6.6-8.4,10.2c-3.1,4.3-5.1,9-4.5,14.4
			C302.2,114.8,306.5,114.9,306.2,112.1L306.2,112.1z"/>
	</g>
	<g>
		<g>
			<path class="st30" d="M181.9,98.9c2.5,3.9,6.8,6.5,11.3,7.5c4.6,0.9,9.3,0.3,13.7-1.4c10.8-4.3,16.5-15.4,12.7-26.6
				C208.2,44.9,165.1,72.8,181.9,98.9z"/>
			<path class="st30" d="M197.5,109.6c-1.6,0-3.3-0.2-4.8-0.5c-5.5-1.1-10.3-4.3-13.2-8.7l0,0c-5.6-8.7-5.7-18.6-0.4-27.1
				c5.4-8.7,15.5-14.1,24.7-13c4.9,0.6,13.9,3.5,18.5,17.1c4.2,12.3-2,25.3-14.3,30.2C204.5,108.9,200.9,109.6,197.5,109.6z
				 M201.4,65.8c-6.5,0-13.5,4.1-17.5,10.5c-2.4,3.9-5.6,11.8,0.4,21l0,0c2,3.1,5.5,5.4,9.5,6.2c3.8,0.8,7.9,0.3,12-1.3
				c9.7-3.8,14.3-13.5,11-23c-2.7-8-7.5-12.6-13.8-13.3C202.6,65.8,202,65.8,201.4,65.8z"/>
		</g>
		<path class="st31" d="M204.7,73.4c0.6-15.2,12.4-27,21.2-38.3c1.7-2.1-1.3-5.2-3-3c-9.5,12.3-21.8,24.9-22.4,41.4
			C200.3,76.1,204.6,76.1,204.7,73.4L204.7,73.4z"/>
	</g>
	<path class="st2" d="M210.9,159.3c-1.7,0-3.3-1-4-2.7c-0.9-2.2,0.2-4.7,2.4-5.6l5.2-2.1c2.2-0.9,4.7,0.2,5.6,2.4
		c0.9,2.2-0.2,4.7-2.4,5.6l-5.2,2.1C211.9,159.2,211.4,159.3,210.9,159.3z"/>
	<g>
		<g>
			<path class="st30" d="M113.7,277.7c2.5,3.9,6.8,6.5,11.3,7.5c4.6,0.9,9.3,0.3,13.7-1.4c10.8-4.3,16.5-15.4,12.7-26.6
				C140,223.7,96.9,251.7,113.7,277.7z"/>
			<path class="st30" d="M129.3,288.5c-1.7,0-3.3-0.2-4.9-0.5c-5.5-1.1-10.3-4.3-13.2-8.7l0,0c-5.6-8.7-5.7-18.6-0.4-27.1
				c5.4-8.7,15.7-14.1,24.7-13c4.9,0.6,13.9,3.5,18.5,17.1c4.2,12.3-2,25.3-14.3,30.2C136.3,287.8,132.7,288.5,129.3,288.5z
				 M133.2,244.7c-6.5,0-13.5,4.1-17.5,10.5c-2.4,3.9-5.6,11.8,0.4,21l0,0c2,3.1,5.5,5.4,9.5,6.2c3.8,0.8,7.9,0.3,12-1.3
				c9.6-3.8,14.3-13.5,11-23c-2.7-8-7.5-12.6-13.8-13.3C134.3,244.7,133.8,244.7,133.2,244.7z"/>
		</g>
		<path class="st31" d="M136.5,252.2c0.3-5.9,3.1-11.2,3.1-17.1c0.1-6-1.1-12-2.8-17.7c-0.8-2.6-4.9-1.5-4.1,1.1
			c1.7,5.6,2.8,11.3,2.6,17.2c-0.1,5.7-2.8,10.9-3.1,16.5C132.1,255,136.4,255,136.5,252.2L136.5,252.2z"/>
	</g>
	<g>
		<g>
			<path class="st30" d="M311,303.4c2.5,3.9,6.8,6.5,11.3,7.5c4.6,0.9,9.3,0.3,13.7-1.4c10.8-4.3,16.5-15.4,12.7-26.6
				C337.3,249.4,294.2,277.3,311,303.4z"/>
			<path class="st30" d="M326.6,314.2c-1.7,0-3.3-0.2-4.9-0.5c-5.5-1.1-10.3-4.3-13.2-8.7l0,0c-5.6-8.7-5.7-18.6-0.4-27.1
				c5.4-8.7,15.6-14.1,24.7-13c4.9,0.6,13.9,3.5,18.5,17.1c4.2,12.3-2,25.3-14.3,30.2C333.6,313.5,330.1,314.2,326.6,314.2z
				 M330.5,270.4c-6.5,0-13.5,4.1-17.5,10.5c-2.4,3.9-5.6,11.8,0.4,21l0,0c2,3.1,5.5,5.4,9.5,6.2c3.8,0.8,7.9,0.3,12-1.3
				c9.7-3.8,14.3-13.5,11-23c-2.7-8-7.5-12.6-13.8-13.3C331.7,270.4,331.1,270.4,330.5,270.4z"/>
		</g>
		<path class="st31" d="M352.4,242.2c-5.2,5.3-10.2,10.8-14.6,16.7c-2.2,2.9-4.5,5.9-6,9.3c-1.4,3.1-2.5,6.9-2.2,10.3
			c0.2,1.8,2.2,2.9,3.6,1.5c0.9-0.9,1.7-1.7,2.5-2.6c0.7-0.9,0.1-2.4-0.8-2.9c-1.1-0.7-2.2-0.1-2.9,0.8c-0.5,0.6-1.2,1.2-1.8,1.8
			c1.2,0.5,2.4,1,3.6,1.5c-0.6-6.8,4.1-12.9,8-18c4.1-5.5,8.8-10.5,13.6-15.4C357.3,243.3,354.3,240.3,352.4,242.2L352.4,242.2z"/>
	</g>
	<g>
		<path class="st27" d="M101.6,227.1c10.5-10.4-1.7-35.3-15.5-35.8c-7.7-0.3-13,12.8-14.8,19c-1.3,4.3-1.2,9.1,1.3,12.8
			c1.6,2.4,4,4.1,6.4,5.5C85.8,232.7,95.5,233.2,101.6,227.1z"/>
		<path class="st27" d="M103.2,228.6c5.5-5.6,5.4-14.2,2.9-21.3c-2.6-7.2-7.7-14.4-15.1-17.2c-3.4-1.3-7.1-1.4-10.3,0.6
			c-3.4,2.2-5.8,5.8-7.6,9.4c-4.2,8.1-7.8,19.2-0.2,26.6C80.8,234.6,94.6,236.8,103.2,228.6c2-1.9-1-4.9-3-3
			c-6.2,6-15.6,4.5-22.1-0.1c-4.2-2.9-6-7.2-5.2-12.2c0.5-3.2,1.8-6.4,3.1-9.3c1.4-3.1,3.1-6.2,5.6-8.5c2.1-2,4.5-2.4,7.2-1.5
			c5.8,1.8,10.1,7.5,12.5,12.9c2.6,5.8,3.8,13.8-1.1,18.8C98.2,227.5,101.2,230.6,103.2,228.6z"/>
	</g>
	<g>
		<g>
			<path class="st30" d="M76.5,198c2.5,3.9,6.8,6.5,11.3,7.5c4.6,0.9,9.3,0.3,13.7-1.4c10.8-4.3,16.5-15.4,12.7-26.6
				C102.8,144,59.7,171.9,76.5,198z"/>
			<path class="st30" d="M92.1,208.7c-1.7,0-3.3-0.2-4.9-0.5c-5.5-1.1-10.3-4.3-13.2-8.7l0,0c-5.6-8.7-5.7-18.6-0.4-27.1
				c5.4-8.7,15.6-14.1,24.7-13c4.9,0.6,13.9,3.5,18.5,17.1c4.2,12.3-2,25.3-14.4,30.2C99.1,208,95.5,208.7,92.1,208.7z M96,164.9
				c-6.5,0-13.5,4.1-17.5,10.5c-2.4,3.9-5.6,11.8,0.4,21l0,0c2,3.1,5.5,5.4,9.5,6.2c3.8,0.8,7.9,0.3,12-1.3c9.6-3.8,14.3-13.5,11-23
				c-2.7-8-7.5-12.6-13.8-13.3C97.2,165,96.6,164.9,96,164.9z"/>
		</g>
		<path class="st31" d="M100.7,134.7c2.3,6.4,2.8,12.8,1.4,19.4c-1.3,6.3-3.8,12.4-5.7,18.5c-0.8,2.6,3.3,3.8,4.1,1.1
			c2-6.5,4.6-13,5.9-19.7c1.3-7,0.7-13.8-1.6-20.5C103.9,131,99.8,132.1,100.7,134.7L100.7,134.7z"/>
	</g>
	<g>
		<path class="st27" d="M176.4,180.7c-4,12.5-7.3,25.1-10,37.9c-0.6,3.1,0.9,6.6,4.2,7.4c3,0.7,6.7-0.9,7.4-4.2
			c2.7-12.8,6-25.5,10-37.9c1-3-1.1-6.7-4.2-7.4C180.5,175.8,177.4,177.5,176.4,180.7L176.4,180.7z"/>
		<path class="st27" d="M180.8,208.5c0.1,0,0.3,0,0.4,0.1c-0.5-0.1-1.1-0.1-1.6-0.2c6.9,1,13.7,2.7,20.2,5.1
			c1.3,0.5,3.4,0.1,4.6-0.6c1.1-0.7,1.9-1.6,2.4-2.9c1.1-2.6,0.2-6.2-2.4-7.5c-0.6-0.3-1.2-0.6-1.9-0.9c-1.5-0.7-3-1-4.6-0.6
			c-1.4,0.4-2.9,1.5-3.6,2.8c-1.4,2.7-0.9,6.7,2.1,8.2c0.6,0.3,1.2,0.6,1.9,0.9c1.5-3.6,3.1-7.3,4.6-10.9
			c-7.2-2.7-14.6-4.3-22.2-5.4c-1.4-0.2-3.3,0.8-4.2,1.8c-1,1-1.8,2.7-1.8,4.2c0.1,1.5,0.6,3.2,1.8,4.2
			C177.8,207.9,179.1,208.3,180.8,208.5L180.8,208.5z"/>
		<path class="st27" d="M201.6,187.1c0,0.8-0.1,1.7-0.2,2.5c-0.1,0.7-0.1,0.8,0,0.3c0,0.3-0.1,0.6-0.2,0.9c-0.3,1.5-0.6,3.1-1,4.6
			c-0.7,2.9-1.7,5.7-2.6,8.4c-1.9,5.8-3.9,11.6-4.8,17.7c-0.4,3.1,0.7,6.6,4.2,7.4c2.8,0.6,6.9-0.9,7.4-4.2
			c1.8-12.9,8.5-24.5,9.2-37.6c0.2-3.1-2.9-6.1-6-6C204.2,181.2,201.8,183.7,201.6,187.1L201.6,187.1z"/>
		<path class="st27" d="M230.3,227.3c1-5.8,2.3-11.8,4.5-16.9c1.2-2.8,2.6-5.6,4.4-8.1c-0.5,0.7,0.6-0.7,0.6-0.7
			c0.1-0.1,1.4-1.1,0.6-0.6c1.1-0.7,1.3-0.7,2.7-0.6c1.6,0.1,3.4,0.7,4.6,2.1c-0.5-0.6,0.4,0.8,0.5,0.9c-0.4-0.9,0.1,1,0,0
			c0,0.3-0.2,1.8,0,0.9c-0.2,0.7-0.2,0.8-0.1,0.3c0.3-0.3,0.3-0.3,0,0c-0.2,0.2-0.4,0.4-0.6,0.6c0.3-0.2,0.3-0.2,0,0
			c-0.6,0.4-1.3,0.8-1.9,1.2c-1.2,0.7-2,1-3.2,1.4c-3.1,1-5.2,1.3-8.4,1.2c-3.2-0.1-6,2.8-6,6c0,3.6,2.8,5.6,6,6
			c-0.8-0.1,1.1,0.2,1.1,0.2c0.6,0.1,1.1,0.2,1.7,0.4c1.4,0.4,1.5,0.4,2.6,1c1.2,0.6,0.9,0.5,1.9,1.4c0.1,0.2,0.3,0.3,0.4,0.5
			c-0.2-0.3-0.2-0.3,0,0.1c0.1,0.2,0.7,1.2,0.4,0.5c0,0.1,0.4,1.8,0.3,0.9c0,0.2-0.1,1.7,0,1c0.1-0.7-0.2,0.7-0.3,0.8
			c0.5-1.1-0.4,0.4-0.4,0.5c0.7-1-1.6,1.3-0.7,0.7c-0.5,0.3-1,0.6-1.5,0.9c-0.9,0.5,0.1,0-0.5,0.2c-0.5,0.1-0.9,0.3-1.4,0.4
			c-1.4,0.4,0.8,0,0.2,0c-0.7,0-1.5,0.1-2.3,0.1c-0.8,0-1.6,0-2.4-0.1c-0.5,0-1-0.1-1.5-0.1c-1.2-0.1,0.5,0.2-0.2,0
			c-0.8-0.2-1.7-0.5-2.5-0.6c0.3,0.1,0.9,0.5,0.3,0.1c-0.8-0.5,0.7,0.8,0.8,1c0.1,0.2,0.1,0.4,0.2,0.6c-0.1-0.6-0.2-0.7-0.1-0.2
			c0,0.8,0-0.8,0-0.9c0-0.6,0.1-1.2,0.1-1.9C230.1,229.1,230.3,227.5,230.3,227.3c0.5-3.2-0.8-6.4-4.2-7.4c-2.9-0.8-6.8,1-7.4,4.2
			c-0.6,3.9-1.4,8.5,0.6,12.1c1.6,2.9,4.5,4.5,7.6,5.2c5.7,1.4,12.3,1.4,17.6-1.1c7-3.2,11.5-11.1,8.9-18.6
			c-2.9-8.6-11.4-11.8-19.7-12.9c0,4,0,8,0,12c6.7,0.2,14.1-1.5,19.6-5.4c2.9-2,5.5-4.8,6.3-8.4c0.8-3.6,0.2-7.5-1.7-10.6
			c-3.9-6.2-12.1-9.2-19.1-7.7c-6.8,1.5-10.7,7.7-13.5,13.5c-3.4,7-5.3,14.2-6.6,21.8c-0.5,3.2,0.8,6.4,4.2,7.4
			C225.8,232.3,229.8,230.5,230.3,227.3z"/>
		<path class="st27" d="M270.3,247c6.4,6.8,18.9,2.4,25.4-2.1c7.6-5.3,15.8-14.1,15.5-23.9c-0.3-10.3-8-17.8-17.2-21.1
			c-5.1-1.8-12-2.9-15.3,2.6c-1.2,2-1.8,4.5-2.5,6.8c-0.8,2.6-1.6,5.2-2.5,7.8c-1.5,4.9-3.1,9.7-4.7,14.6
			c-1.4,4.4-2.7,10.2,0.3,14.3c1.9,2.6,5.2,3.9,8.2,2.1c2.6-1.5,4.1-5.6,2.1-8.2c-0.2-0.2-0.3-0.5-0.5-0.7c0.1,0.2,0.7,1.1,0.2,0.1
			c0.1,0.3-0.1,0.9,0.1,0.4c0.1-0.3,0-0.7,0-1c0-0.7,0,0.2,0,0.3c0.1-0.4,0.1-0.7,0.2-1.1c0.2-0.7,0.4-1.5,0.6-2.2
			c1-3.2,2.1-6.3,3.1-9.5c1.2-3.7,2.3-7.4,3.5-11.1c0.6-1.8,1.2-3.7,1.8-5.5c0-0.1,0.5-1.3,0.4-1.3c-0.2,0.3-0.5,0.6-0.7,0.9
			c-0.3,0.7-0.7,1-1.4,1.1c-0.2,0.1-0.5,0.1-0.7,0.2c0.7,0,0.8,0,0.4,0c-0.6-0.1,1.1,0.2,1,0.2c0.7,0.2,1.5,0.4,2.2,0.6
			c0.2,0.1,2,0.7,1.3,0.4c0.8,0.3,1.5,0.7,2.3,1.2c0.3,0.2,0.5,0.3,0.8,0.5c0.2,0.1,1.2,0.8,0.6,0.4c0.6,0.5,1.1,1,1.6,1.5
			c0.1,0.1,0.9,1,0.5,0.6c-0.3-0.4,0.3,0.4,0.3,0.4c0.5,0.7,0.9,1.4,1.2,2.1c-0.3-0.7,0.4,1.1,0.5,1.4c0.1,0.4,0.2,0.8,0.3,1.2
			c0-0.3,0-0.9,0,0.2c0,0.3,0,0.6,0,0.9c0,1,0.2-0.8,0,0.3c-0.3,1.9-0.6,2.4-1.6,4c-1.5,2.4-3.6,4.6-6,6.8c-1.3,1.1-2.1,1.8-3.8,2.8
			c-0.7,0.4-1.4,0.7-2,1c-1,0.5-0.3,0.1,0,0c-0.4,0.2-0.9,0.3-1.3,0.5c-0.8,0.3-1.7,0.6-2.6,0.8c-0.3,0.1-2.4,0.4-1.3,0.3
			c-0.7,0.1-1.5,0.1-2.2,0c1.3,0.1,0.4,0.1,0.1,0c0.3,0.2,1.2,1,0.4,0.2c-2.2-2.4-6.2-2.2-8.5,0C268,240.9,268.1,244.7,270.3,247z"
			/>
	</g>
</g>
</svg>
