<?xml version="1.0" encoding="utf-8"?>
<!-- Generator: Adobe Illustrator 24.1.0, SVG Export Plug-In . SVG Version: 6.00 Build 0)  -->
<svg version="1.1" id="레이어_1" xmlns="http://www.w3.org/2000/svg" xmlns:xlink="http://www.w3.org/1999/xlink" x="0px"
	 y="0px" viewBox="0 0 500 500" style="enable-background:new 0 0 500 500;" xml:space="preserve">
<style type="text/css">
	.st0{fill:#F05A4B;}
	.st1{fill:#FCE061;}
	.st2{fill:#92C2FD;}
	.st3{fill:#98D882;}
	.st4{fill:#D3A1DE;}
	.st5{fill:#6E5850;}
	.st6{fill:#FCC057;}
	.st7{fill:#FF6045;}
	.st8{fill:#FFE771;}
	.st9{fill:#93CFEA;}
	.st10{fill:#6EC695;}
	.st11{fill:#E1B7EA;}
	.st12{fill:#FFA074;}
	.st13{fill:#FFCE0E;}
	.st14{fill:#B1E659;}
	.st15{fill:#6DA1BC;}
	.st16{fill:#8B649E;}
	.st17{fill:#FF9C28;}
	.st18{fill:#63BC9B;}
	.st19{fill:#E36C6B;}
	.st20{fill:#FFD974;}
	.st21{fill:#FA93AB;}
	.st22{fill:#60A7DE;}
	.st23{fill:#D393E3;}
	.st24{fill:#CFD5D7;}
	.st25{fill:#FFFFFF;}
	.st26{fill:#FFB901;}
	.st27{fill:#FFF2DF;}
	.st28{fill:none;}
	.st29{fill:#F8F2D7;}
	.st30{fill:#FFD06B;}
	.st31{fill:#EA3C23;}
	.st32{fill:#8A1F1C;}
	.st33{fill:#ECEDEE;}
	.st34{fill:#F9DE5F;}
	.st35{fill:#FFE986;}
	.st36{clip-path:url(#SVGID_2_);fill:#FFE986;}
	.st37{fill:#C7CACB;}
	.st38{fill:#FDACC0;}
	.st39{fill:#FFCEDC;}
	.st40{fill:#711A18;}
	.st41{fill:#FFCA33;}
	.st42{fill:#FF6134;}
	.st43{fill:#FF6A89;}
	.st44{fill:#FD8E9E;}
	.st45{clip-path:url(#SVGID_4_);fill:#FF6E57;}
	.st46{fill:#D2E5FF;}
</style>
<g>
	<g>
		<path class="st24" d="M49.6,352c2.9,20.2,17.1,39,33.3,50.7c16.2,11.7,35.1,17.9,53.9,23c89.8,24.2,188.8,24.2,270.2-24.3
			c20.7-12.4,41.7-30.6,44.9-56.4c3.3-26.8-14.8-52.4-37-64c-22.1-11.6-47.5-12.3-72-12.8c-37.9-0.8-75.8-1.6-113.6-2.3
			c-61.5-1.3-135.1-10.4-173.1,53.2C49.8,329.8,48.1,341.1,49.6,352z"/>
		<path class="st37" d="M43,353.8c21.6,91.2,162.4,99.7,237.6,93.5c58.9-4.9,197.4-38.3,176.7-123.9c-9.1-37.7-45.4-55.8-80.9-60.3
			c-53.7-6.8-110.1-3.1-164.1-4.7c-62.9-1.8-172.9,4.7-169.6,93.5c0.3,8.8,14.1,8.9,13.8,0c-3.1-82.7,104.8-81.1,160.1-79.6
			c33.7,0.9,67.4,1.5,101.1,2.2c40.3,0.8,94.9-3.9,119.3,36.1c50.8,83.5-116.3,120.9-167.5,123.5c-66.2,3.4-194.6-5-213.3-84.1
			C54.3,341.5,41,345.2,43,353.8z"/>
	</g>
	<g>
		<path class="st38" d="M391.1,362.1c5.4-5.3,9.8-11.4,13.5-18.2c3.8-6.8,5-14.7,7.9-22.1c1.8-4.6,3.9-9.2,5-14.1
			c1.4-6.3,1-12.9,0.7-19.4c-0.5-9.1-1.1-18.3-1.6-27.4c-0.5-7.9-0.3-15.2-2.4-22.9c-1.3-4.9-4.4-9.2-8.3-4.2
			c-2.9,3.8-4.6,8.5-7.6,12.2c-4.2,5.1-8.8,9.9-13.7,14.3c-9.6,8.6-20.3,15.6-31.7,21c-34.1,16.2-73.3,17.8-109.4,9.3
			c-18.2-4.3-35.7-12.1-53.5-18.2c-23.5-8.1-49.4-11.9-72.3-21c-18.8-7.4-30.5-24.1-37.5,7.2c-9,40.2-1.9,100.6,39.7,120.1
			c71.3,33.5,153.4,32.6,226.8,7.3C362.5,380.6,378.6,374.4,391.1,362.1z"/>
		<path class="st38" d="M397.2,368.2c17.7-20.4,29.5-47.6,29.8-74.9c0.2-18.2,4.2-56.6-13.1-69.1c-2.4-1.7-6.3-1.5-8.7,0
			c-11.3,7-16.7,20.9-26.7,30c-19.1,17.5-44.3,27.3-69.7,31c-51,7.3-93-15.3-140.7-28.1c-22.2-6-42.9-15.8-64.4-22.3
			c-6-1.8-10.5-4.3-16.9-2c-19.1,6.9-18.8,42.7-18.8,58.9c0.3,73.5,48.5,104.3,116,116.5C251,420.3,343.1,413.8,397.2,368.2
			c8.5-7.2-3.7-19.3-12.2-12.2c-60.2,50.7-171.5,49-241.2,23.5c-42.5-15.6-59.3-47.9-58.4-92.2c0.3-17.8,1.8-34.7,21.2-31.5
			c14.3,2.4,30.4,11,44.7,14.8c63.2,16.7,121.9,47.5,188.2,25.3c27.9-9.3,43.1-26.1,64.9-43.7c7.2-5.8,2.3-14.3,4.4,0.5
			c1.4,10,0.9,25.7,0.8,35.8c-0.3,23.9-8.5,49.1-24.5,67.6C377.8,364.4,389.9,376.6,397.2,368.2z"/>
	</g>
	<g>
		<path class="st39" d="M149.9,193.3c67-20,139.8-24.5,207.3-6c19.1,5.2,39.2,13.4,49.2,30.3c12,20.4,4.6,47.8-11.8,65
			c-16.4,17.2-39.9,26-63.1,32.2c-66.7,17.5-159.6,23.1-222.4-10.7C41.1,267.4,99.5,208.3,149.9,193.3z"/>
		<path class="st39" d="M152.2,201.6c62-17.6,127.5-23.9,190.8-9c12.4,2.9,26.9,6.2,37.9,12.9c35.4,21.7,23.2,62.5-6.3,82.4
			c-20.1,13.6-45.6,19.2-69.1,23.9c-50.9,10.2-106.9,13.1-157.2-1.5c-28.9-8.3-75.7-27.4-55.7-65.4
			C103.9,223.1,130.1,209.1,152.2,201.6c10.4-3.5,6-20.2-4.6-16.6C104.9,199.5,38.3,252,86.2,298.5c53.3,51.6,158.2,43.1,223.8,29.9
			c34.8-7,75.1-17.4,97.1-47.8c16.7-23.1,19.3-54.8-0.4-76.9c-25.1-28.2-75.2-32.7-110.1-35.6c-50.4-4.1-100.5,3.1-149,16.9
			C137,188,141.5,204.6,152.2,201.6z"/>
	</g>
	<g>
		<path class="st38" d="M137.6,153.8c16.9-13.3,33.8-23.2,55.7-28.2c51.7-11.6,107.5-5.3,155.1,17.6c15.4,7.4,17.3,20.4,16.9,35.6
			c-0.3,10.9-0.8,21.8-1.5,32.6c-0.6,8.9,0.8,22-4.3,29.7c-9,13.8-32.3,17.3-47.1,20.5c-1.4,0.3-2.7,0.6-4.1,0.8
			c-31.7,6.4-65.5,8.1-97.7,5c-27.4-2.7-76.4-10.8-80.8-43.9c-2.5-18.9-2.5-38.2,0-57.1c0.5-3.6,1.2-7.4,4-9.7
			C135.1,155.8,136.4,154.8,137.6,153.8z"/>
		<path class="st38" d="M142,161.2c43.6-32.8,97.9-38.8,150.6-27.8c24,5,57.9,11.4,63.7,38.1c2.3,10.9-0.1,23.5-0.7,34.5
			c-0.8,15.3,0.9,22.6-10.6,33.6c-12.7,12.2-33.9,14-50.8,16.7c-27.5,4.4-55.7,5.2-83.4,2.5c-17.3-1.7-40.7-4.2-55.4-14.5
			c-15.4-10.8-32.2-68-11.6-84.5c8.6-6.9-3.6-19.1-12.2-12.2c-19,15.3-14.7,56.5-10.2,77.1c4.9,22.2,20.9,34.4,41.8,41.9
			c29.9,10.8,65.3,12.1,96.6,10.5c29.2-1.5,69.9-3.5,94.9-20.2c21.2-14.1,17.7-39.1,18.7-61.9c1.5-31.7-0.6-50.4-30.9-64
			c-65.8-29.7-150.6-28.8-209.2,15.2C124.5,152.9,133.1,167.9,142,161.2z"/>
	</g>
	<g>
		<path class="st39" d="M364.3,174.4c-4.8,13.6-25.7,20.7-38.1,24.6c-17,5.3-35,7.7-52.8,7.9c-11.6,0.2-23.3,0-34.9-0.7
			c-20.1-1.3-134.1-12.3-100-51.2c15.3-17.4,44.3-25.6,66.1-30.4c36-7.8,74.8-4.8,110.6,4.7C331.7,133.8,372.2,151.9,364.3,174.4z"
			/>
		<path class="st39" d="M356.8,170.1c-20.3,35.1-90.9,29.8-124.3,27c-22.6-1.9-46.4-5-67.9-12.6c-62-21.8,39-52.7,64.3-55
			c19.9-1.8,134.1,0.4,127,42.6c-1.8,10.8,14.8,15.5,16.6,4.6c9-53.6-84.3-64.3-118.8-65.1c-29.6-0.7-139.2,10.1-129.8,61.2
			c6.1,33.1,70.3,37.3,95.2,40.2c43.9,5.1,126.3,11.3,152.5-34.2C377.3,169.2,362.4,160.5,356.8,170.1z"/>
	</g>
	<g>
		<path class="st25" d="M89.2,260.4c-2.8-2-5.6-4.3-7.3-7.3c-2.7-4.8-2.5-10.9-0.7-16.1c1.8-5.2,5-9.8,8.2-14.3
			c2-2.8,5.5-11.1,9.9-10.8c4,0.3,11.8,10.7,14.2,13.8c8.1,10.3,14.1,24.2,3,34.4C108.8,267.3,97.2,266,89.2,260.4z"/>
		<path class="st25" d="M91,257.4c-13.3-9.9-5.5-22.2,1.4-33c1.6-2.5,3.4-7.5,6.3-8c3.2-0.6,6.1,3.9,8.1,6.3
			c5.1,6.1,10.4,12.8,11.9,20.7C121.9,260.4,102.7,264.8,91,257.4c-3.8-2.4-7.2,3.6-3.5,6c12.6,7.9,31.5,6.6,37.3-9.4
			c5.1-14.2-6.3-28.9-15.3-38.7c-10.4-11.2-16.1-5.2-23,5.6c-9.6,15-15.5,30.1,1.1,42.4C91.1,266,94.5,260.1,91,257.4z"/>
	</g>
	<g>
		<path class="st25" d="M94.5,294.2c-2.8-2-5.6-4.3-7.3-7.3c-2.7-4.8-2.5-10.9-0.7-16.1c1.8-5.2,5-9.8,8.2-14.3
			c2-2.8,5.5-11.1,9.9-10.8c4,0.3,11.8,10.7,14.2,13.8c8.1,10.3,14.1,24.2,3,34.4C114,301.1,102.4,299.7,94.5,294.2z"/>
		<path class="st25" d="M96.3,291.2c-13.3-9.9-5.5-22.2,1.4-33c1.6-2.5,3.4-7.5,6.3-8c3.2-0.6,6.1,3.9,8.1,6.3
			c5.1,6.1,10.4,12.8,11.9,20.7C127.2,294.2,108,298.5,96.3,291.2c-3.8-2.4-7.2,3.6-3.5,6c12.6,7.9,31.5,6.6,37.3-9.4
			c5.1-14.2-6.3-28.9-15.3-38.7c-10.4-11.2-16.1-5.2-23,5.6c-9.6,15-15.5,30.1,1.1,42.4C96.4,299.8,99.8,293.8,96.3,291.2z"/>
	</g>
	<g>
		<path class="st25" d="M137.3,312.8c-2.8-2-5.6-4.3-7.3-7.3c-2.7-4.8-2.5-10.9-0.7-16.1c1.8-5.2,5-9.8,8.2-14.3
			c2-2.8,5.5-11.1,9.9-10.8c4,0.3,11.8,10.7,14.2,13.8c8.1,10.3,14.1,24.2,3,34.4C156.8,319.7,145.2,318.3,137.3,312.8z"/>
		<path class="st25" d="M139,309.8c-13.3-9.9-5.5-22.2,1.4-33c1.6-2.5,3.4-7.5,6.3-8c3.2-0.6,6.1,3.9,8.1,6.3
			c5.1,6.1,10.4,12.8,11.9,20.7C169.9,312.8,150.7,317.1,139,309.8c-3.8-2.4-7.2,3.6-3.5,6c12.6,7.9,31.5,6.6,37.3-9.4
			c5.1-14.2-6.3-28.9-15.3-38.7c-10.4-11.2-16.1-5.2-23,5.6c-9.6,15-15.5,30.1,1.1,42.4C139.1,318.4,142.5,312.4,139,309.8z"/>
	</g>
	<g>
		<path class="st25" d="M183.5,323.5c-2.8-2-5.6-4.3-7.3-7.3c-2.7-4.8-2.5-10.9-0.7-16.1c1.8-5.2,5-9.8,8.2-14.3
			c2-2.8,5.5-11.1,9.9-10.8c4,0.3,11.8,10.7,14.2,13.8c8.1,10.3,14.1,24.2,3,34.4C203,330.4,191.4,329,183.5,323.5z"/>
		<path class="st25" d="M185.2,320.5c-13.3-9.9-5.5-22.2,1.4-33c1.6-2.5,3.4-7.5,6.3-8c3.2-0.6,6.1,3.9,8.1,6.3
			c5.1,6.1,10.4,12.8,11.9,20.7C216.1,323.5,196.9,327.9,185.2,320.5c-3.8-2.4-7.2,3.6-3.5,6c12.6,7.9,31.5,6.6,37.3-9.4
			c5.1-14.2-6.3-28.9-15.3-38.7c-10.4-11.2-16.1-5.2-23,5.6c-9.6,15-15.5,30.1,1.1,42.4C185.3,329.1,188.8,323.1,185.2,320.5z"/>
	</g>
	<g>
		<path class="st25" d="M224.1,327.9c-2.8-2-5.6-4.3-7.3-7.3c-2.7-4.8-2.5-10.9-0.7-16.1c1.8-5.2,5-9.8,8.2-14.3
			c2-2.8,5.5-11.1,9.9-10.8c4,0.3,11.8,10.7,14.2,13.8c8.1,10.3,14.1,24.2,3,34.4C243.6,334.8,232,333.4,224.1,327.9z"/>
		<path class="st25" d="M225.8,324.9c-13.3-9.9-5.5-22.2,1.4-33c1.6-2.5,3.4-7.5,6.3-8c3.2-0.6,6.1,3.9,8.1,6.3
			c5.1,6.1,10.4,12.8,11.9,20.7C256.7,327.9,237.5,332.2,225.8,324.9c-3.8-2.4-7.2,3.6-3.5,6c12.6,7.9,31.5,6.6,37.3-9.4
			c5.1-14.2-6.3-28.9-15.3-38.7c-10.4-11.2-16.1-5.2-23,5.6c-9.6,15-15.5,30.1,1.1,42.4C225.9,333.5,229.3,327.5,225.8,324.9z"/>
	</g>
	<g>
		<path class="st25" d="M266.8,323.5c-2.8-2-5.6-4.3-7.3-7.3c-2.7-4.8-2.5-10.9-0.7-16.1c1.8-5.2,5-9.8,8.2-14.3
			c2-2.8,5.5-11.1,9.9-10.8c4,0.3,11.8,10.7,14.2,13.8c8.1,10.3,14.1,24.2,3,34.4C286.3,330.4,274.7,329,266.8,323.5z"/>
		<path class="st25" d="M268.5,320.5c-13.3-9.9-5.5-22.2,1.4-33c1.6-2.5,3.4-7.5,6.3-8c3.2-0.6,6.1,3.9,8.1,6.3
			c5.1,6.1,10.4,12.8,11.9,20.7C299.4,323.5,280.2,327.9,268.5,320.5c-3.8-2.4-7.2,3.6-3.5,6c12.6,7.9,31.5,6.6,37.3-9.4
			c5.1-14.2-6.3-28.9-15.3-38.7c-10.4-11.2-16.1-5.2-23,5.6c-9.6,15-15.5,30.1,1.1,42.4C268.6,329.1,272,323.1,268.5,320.5z"/>
	</g>
	<g>
		<path class="st25" d="M141.7,168.7c-2.8-2-5.6-4.3-7.3-7.3c-2.7-4.8-2.5-10.9-0.7-16.1c1.8-5.2,5-9.8,8.2-14.3
			c2-2.8,5.5-11.1,9.9-10.8c4,0.3,11.8,10.7,14.2,13.8c8.1,10.3,14.1,24.2,3,34.4C161.3,175.6,149.6,174.3,141.7,168.7z"/>
		<path class="st25" d="M143.5,165.7c-13.3-9.9-5.5-22.2,1.4-33c1.6-2.5,3.4-7.5,6.3-8c3.2-0.6,6.1,3.9,8.1,6.3
			c5.1,6.1,10.4,12.8,11.9,20.7C174.4,168.7,155.2,173.1,143.5,165.7c-3.8-2.4-7.2,3.6-3.5,5.9c12.6,7.9,31.5,6.6,37.3-9.4
			c5.1-14.2-6.3-28.9-15.3-38.7c-10.4-11.2-16.1-5.2-23,5.6c-9.6,15-15.5,30.1,1.1,42.4C143.6,174.3,147,168.3,143.5,165.7z"/>
	</g>
	<g>
		<path class="st25" d="M171.2,190.7c-2.8-2-5.6-4.3-7.3-7.3c-2.7-4.8-2.5-10.9-0.7-16.1c1.8-5.2,5-9.8,8.2-14.3
			c2-2.8,5.5-11.1,9.9-10.8c4,0.3,11.8,10.7,14.2,13.8c8.1,10.3,14.1,24.2,3,34.4C190.7,197.6,179.1,196.3,171.2,190.7z"/>
		<path class="st25" d="M173,187.7c-13.3-9.9-5.5-22.2,1.4-33c1.6-2.5,3.4-7.5,6.3-8c3.2-0.6,6.1,3.9,8.1,6.3
			c5.1,6.1,10.4,12.8,11.9,20.7C203.9,190.7,184.7,195.1,173,187.7c-3.8-2.4-7.2,3.6-3.5,6c12.6,7.9,31.5,6.6,37.3-9.4
			c5.1-14.2-6.3-28.9-15.3-38.7c-10.4-11.2-16.1-5.2-23,5.6c-9.6,15-15.5,30.1,1.1,42.4C173,196.3,176.5,190.4,173,187.7z"/>
	</g>
	<g>
		<path class="st25" d="M334,178.1c-2.8-2-5.6-4.3-7.3-7.3c-2.7-4.8-2.5-10.9-0.7-16.1c1.8-5.2,5-9.8,8.2-14.3
			c2-2.8,5.5-11.1,9.9-10.8c4,0.3,11.8,10.7,14.2,13.8c8.1,10.3,14.1,24.2,3,34.4C353.5,185,341.9,183.7,334,178.1z"/>
		<path class="st25" d="M335.8,175.1c-13.3-9.9-5.5-22.2,1.4-33c1.6-2.5,3.4-7.5,6.3-8c3.2-0.6,6.1,3.9,8.1,6.3
			c5.1,6.1,10.4,12.8,11.9,20.7C366.7,178.1,347.5,182.5,335.8,175.1c-3.8-2.4-7.2,3.6-3.5,6c12.6,7.9,31.5,6.6,37.3-9.4
			c5.1-14.2-6.3-28.9-15.3-38.7c-10.4-11.2-16.1-5.2-23,5.6c-9.6,15-15.5,30.1,1.1,42.4C335.8,183.7,339.3,177.8,335.8,175.1z"/>
	</g>
	<g>
		<path class="st25" d="M171.2,138c-2.8-2-5.6-4.3-7.3-7.3c-2.7-4.8-2.5-10.9-0.7-16.1c1.8-5.2,5-9.8,8.2-14.3
			c2-2.8,5.5-11.1,9.9-10.8c4,0.3,11.8,10.7,14.2,13.8c8.1,10.3,14.1,24.2,3,34.4C190.7,144.8,179.1,143.5,171.2,138z"/>
		<path class="st25" d="M173,135c-13.3-9.9-5.5-22.2,1.4-33c1.6-2.5,3.4-7.5,6.3-8c3.2-0.6,6.1,3.9,8.1,6.3
			c5.1,6.1,10.4,12.8,11.9,20.7C203.9,138,184.7,142.3,173,135c-3.8-2.4-7.2,3.6-3.5,6c12.6,7.9,31.5,6.6,37.3-9.4
			c5.1-14.2-6.3-28.9-15.3-38.7c-10.4-11.2-16.1-5.2-23,5.6c-9.6,15-15.5,30.1,1.1,42.4C173,143.6,176.5,137.6,173,135z"/>
	</g>
	<g>
		<path class="st25" d="M209.8,129.6c-2.8-2-5.6-4.3-7.3-7.3c-2.7-4.8-2.5-10.9-0.7-16.1c1.8-5.2,5-9.8,8.2-14.3
			c2-2.8,5.5-11.1,9.9-10.8c4,0.3,11.8,10.7,14.2,13.8c8.1,10.3,14.1,24.2,3,34.4C229.3,136.4,217.7,135.1,209.8,129.6z"/>
		<path class="st25" d="M211.5,126.6c-13.3-9.9-5.5-22.2,1.4-33c1.6-2.5,3.4-7.5,6.3-8c3.2-0.6,6.1,3.9,8.1,6.3
			c5.1,6.1,10.4,12.8,11.9,20.7C242.4,129.5,223.2,133.9,211.5,126.6c-3.8-2.4-7.2,3.6-3.5,6c12.6,7.9,31.5,6.6,37.3-9.4
			c5.1-14.2-6.3-28.9-15.3-38.7c-10.4-11.2-16.1-5.2-23,5.6c-9.6,15-15.5,30.1,1.1,42.4C211.6,135.2,215.1,129.2,211.5,126.6z"/>
	</g>
	<g>
		<path class="st25" d="M249.6,129.6c-2.8-2-5.6-4.3-7.3-7.3c-2.7-4.8-2.5-10.9-0.7-16.1c1.8-5.2,5-9.8,8.2-14.3
			c2-2.8,5.5-11.1,9.9-10.8c4,0.3,11.8,10.7,14.2,13.8c8.1,10.3,14.1,24.2,3,34.4C269.1,136.4,257.5,135.1,249.6,129.6z"/>
		<path class="st25" d="M251.3,126.6c-13.3-9.9-5.5-22.2,1.4-33c1.6-2.5,3.4-7.5,6.3-8c3.2-0.6,6.1,3.9,8.1,6.3
			c5.1,6.1,10.4,12.8,11.9,20.7C282.2,129.5,263,133.9,251.3,126.6c-3.8-2.4-7.2,3.6-3.5,6c12.6,7.9,31.5,6.6,37.3-9.4
			c5.1-14.2-6.3-28.9-15.3-38.7c-10.4-11.2-16.1-5.2-23,5.6c-9.6,15-15.5,30.1,1.1,42.4C251.4,135.2,254.9,129.2,251.3,126.6z"/>
	</g>
	<g>
		<path class="st25" d="M289.9,134.4c-2.8-2-5.6-4.3-7.3-7.3c-2.7-4.8-2.5-10.9-0.7-16.1c1.8-5.2,5-9.8,8.2-14.3
			c2-2.8,5.5-11.1,9.9-10.8c4,0.3,11.8,10.7,14.2,13.8c8.1,10.3,14.1,24.2,3,34.4C309.4,141.3,297.8,139.9,289.9,134.4z"/>
		<path class="st25" d="M291.6,131.4c-13.3-9.9-5.5-22.2,1.4-33c1.6-2.5,3.4-7.5,6.3-8c3.2-0.6,6.1,3.9,8.1,6.3
			c5.1,6.1,10.4,12.8,11.9,20.7C322.5,134.4,303.3,138.7,291.6,131.4c-3.8-2.4-7.2,3.6-3.5,6c12.6,7.9,31.5,6.6,37.3-9.4
			c5.1-14.2-6.3-28.9-15.3-38.7C299.7,78,294,84,287,94.9c-9.6,15-15.5,30.1,1.1,42.4C291.7,140,295.1,134,291.6,131.4z"/>
	</g>
	<g>
		<path class="st25" d="M316.7,160.7c-3.1-2.2-6.1-4.7-8-8c-3-5.2-2.7-11.9-0.8-17.6c2-5.7,5.5-10.7,8.9-15.6
			c2.2-3.1,6-12.1,10.8-11.8c4.4,0.3,12.9,11.7,15.5,15.1c8.8,11.2,15.4,26.5,3.3,37.6C338,168.2,325.3,166.7,316.7,160.7z"/>
		<path class="st25" d="M318.4,157.7c-14.8-10.9-6.3-24.5,1.4-36.5c1.8-2.8,3.7-8.2,7.1-8.9c3.7-0.7,6.8,4.1,9.1,6.9
			c5.6,6.7,11.5,14.1,13.1,22.8C352.7,160.9,331.4,165.8,318.4,157.7c-3.8-2.4-7.2,3.6-3.5,6c13.6,8.5,34,7.2,40.3-10
			c5.6-15.4-6.9-31.4-16.7-42c-11.2-12.1-17.2-5.6-24.7,6.1c-10.4,16.2-17,32.6,1.1,46C318.5,166.3,321.9,160.3,318.4,157.7z"/>
	</g>
	<g>
		<path class="st25" d="M311.2,312.8c-2.8-2-5.6-4.3-7.3-7.3c-2.7-4.8-2.5-10.9-0.7-16.1c1.8-5.2,5-9.8,8.2-14.3
			c2-2.8,5.5-11.1,9.9-10.8c4,0.3,11.8,10.7,14.2,13.8c8.1,10.3,14.1,24.2,3,34.4C330.7,319.7,319.1,318.3,311.2,312.8z"/>
		<path class="st25" d="M313,309.8c-13.3-9.9-5.5-22.2,1.4-33c1.6-2.5,3.4-7.5,6.3-8c3.2-0.6,6.1,3.9,8.1,6.3
			c5.1,6.1,10.4,12.8,11.9,20.7C343.9,312.8,324.7,317.1,313,309.8c-3.8-2.4-7.2,3.6-3.5,6c12.6,7.9,31.5,6.6,37.3-9.4
			c5.1-14.2-6.3-28.9-15.3-38.7c-10.4-11.2-16.1-5.2-23,5.6c-9.6,15-15.5,30.1,1.1,42.4C313,318.4,316.5,312.4,313,309.8z"/>
	</g>
	<g>
		<path class="st25" d="M345.1,301.3c-2.8-2-5.6-4.3-7.3-7.3c-2.7-4.8-2.5-10.9-0.7-16.1c1.8-5.2,5-9.8,8.2-14.3
			c2-2.8,5.5-11.1,9.9-10.8c4,0.3,11.8,10.7,14.2,13.8c8.1,10.3,14.1,24.2,3,34.4C364.6,308.2,353,306.9,345.1,301.3z"/>
		<path class="st25" d="M346.9,298.3c-13.3-9.9-5.5-22.2,1.4-33c1.6-2.5,3.4-7.5,6.3-8c3.2-0.6,6.1,3.9,8.1,6.3
			c5.1,6.1,10.4,12.8,11.9,20.7C377.8,301.3,358.6,305.7,346.9,298.3c-3.8-2.4-7.2,3.6-3.5,6c12.6,7.9,31.5,6.6,37.3-9.4
			c5.1-14.2-6.3-28.9-15.3-38.7c-10.4-11.2-16.1-5.2-23,5.6c-9.6,15-15.5,30.1,1.1,42.4C347,306.9,350.4,300.9,346.9,298.3z"/>
	</g>
	<g>
		<path class="st25" d="M377.8,276.2c-2.8-2-5.6-4.3-7.3-7.3c-2.7-4.8-2.5-10.9-0.7-16.1c1.8-5.2,5-9.8,8.2-14.3
			c2-2.8,5.5-11.1,9.9-10.8c4,0.3,11.8,10.7,14.2,13.8c8.1,10.3,14.1,24.2,3,34.4C397.4,283.1,385.8,281.7,377.8,276.2z"/>
		<path class="st25" d="M379.6,273.2c-13.3-9.9-5.5-22.2,1.4-33c1.6-2.5,3.4-7.5,6.3-8c3.2-0.6,6.1,3.9,8.1,6.3
			c5.1,6.1,10.4,12.8,11.9,20.7C410.5,276.2,391.3,280.5,379.6,273.2c-3.8-2.4-7.2,3.6-3.5,6c12.6,7.9,31.5,6.6,37.3-9.4
			c5.1-14.2-6.3-28.9-15.3-38.7c-10.4-11.2-16.1-5.2-23,5.6c-9.6,15-15.5,30.1,1.1,42.4C379.7,281.8,383.1,275.8,379.6,273.2z"/>
	</g>
	<g>
		<path class="st25" d="M384.7,247.6c-2.8-2-5.6-4.3-7.3-7.3c-2.7-4.8-2.5-10.9-0.7-16.1c1.8-5.2,5-9.8,8.2-14.3
			c2-2.8,5.5-11.1,9.9-10.8c4,0.3,11.8,10.7,14.2,13.8c8.1,10.3,14.1,24.2,3,34.4C404.3,254.5,392.6,253.2,384.7,247.6z"/>
		<path class="st25" d="M386.5,244.6c-13.3-9.9-5.5-22.2,1.4-33c1.6-2.5,3.4-7.5,6.3-8c3.2-0.6,6.1,3.9,8.1,6.3
			c5.1,6.1,10.4,12.8,11.9,20.7C417.4,247.6,398.2,252,386.5,244.6c-3.8-2.4-7.2,3.6-3.5,5.9c12.6,7.9,31.5,6.6,37.3-9.4
			c5.1-14.2-6.3-28.9-15.3-38.7c-10.4-11.2-16.1-5.2-23,5.6c-9.6,15-15.5,30.1,1.1,42.4C386.6,253.2,390,247.3,386.5,244.6z"/>
	</g>
	<g>
		<path class="st40" d="M251.2,85.7c-0.9,0-1.7-0.8-1.7-1.7v-8c0-0.9,0.8-1.7,1.7-1.7c0.9,0,1.7,0.8,1.7,1.7v8
			C253,84.9,252.2,85.7,251.2,85.7z"/>
		<g>
			<path class="st41" d="M247.8,71.2c-0.8-1.1-1.2-2.5-1.4-3.9c-0.4-2.4-0.6-4.9-0.1-7.3s1.6-4.7,3.4-6.1c0.1,0.6,0.3,1.2,0.4,1.8
				c0.2-1.3,0.5-2.6,0.9-3.8c0.1-0.2,0.2-0.5,0.4-0.6c0.4-0.2,0.8,0.1,1.1,0.5c2.5,2.9,3.1,7.1,3.5,11.1c0.2,2.2,0.3,4.4-0.5,6.4
				C254.2,72.7,250.1,74.3,247.8,71.2z"/>
			<path class="st41" d="M250.9,76.3c-2.3,0-4.4-1.1-5.8-3l0,0c-1.3-1.7-1.8-3.7-2.1-5.5c-0.5-3.3-0.6-6-0.1-8.5
				c0.7-3.4,2.4-6.3,4.7-8.1c0,0,0.1,0,0.1-0.1c0-0.1,0.1-0.2,0.1-0.3c0.1-0.4,0.6-1.7,1.9-2.4c1.4-0.9,3.7-0.8,5.4,1.2
				c3.1,3.7,3.9,8.6,4.3,13c0.2,2.4,0.3,5.2-0.7,7.9c-1.1,3-3.8,5.2-6.7,5.6C251.6,76.3,251.2,76.3,250.9,76.3z M250,59.2
				c-0.2,0.5-0.3,0.9-0.4,1.4c-0.3,1.6-0.3,3.6,0.1,6c0.1,0.8,0.4,1.9,0.8,2.4c0,0,0,0,0,0c0.2,0.3,0.3,0.3,0.5,0.3
				c0.4-0.1,1-0.5,1.3-1.3c0.5-1.4,0.4-3.2,0.3-4.9c-0.1-1.5-0.3-3-0.6-4.5c-0.5,0.3-1.1,0.5-1.7,0.5
				C250.1,59.2,250.1,59.2,250,59.2z"/>
		</g>
		<g>
			<path class="st42" d="M253.3,68.5c0,1.2-0.3,2.3-1.2,2.7c-0.8,0.4-2.1,0.2-2.6-0.5c-1-1.2-0.9-3.5-0.4-5c0.4-1,1.5-1.6,2.1-2.6
				c0-0.1,0.1-0.2,0.2-0.2c0.1,0,0.2,0,0.2,0.1c0.6,0.4,0.9,1.1,1.1,1.7C253,65.6,253.3,67.1,253.3,68.5z"/>
			<path class="st42" d="M251.2,73.1c-1.2,0-2.3-0.5-3-1.3c-1.6-1.9-1.3-5-0.7-6.6c0.3-0.9,1-1.6,1.5-2.1c0.3-0.3,0.5-0.5,0.7-0.8
				l0.4-0.6l0.9-0.3c0.3-0.1,1-0.1,1.7,0.4c0.9,0.7,1.4,1.8,1.7,2.5c0.2,0.5,0.8,2.4,0.8,4.3l0,0c0,2.6-1.2,3.7-2.1,4.2
				C252.4,73,251.8,73.1,251.2,73.1z M251.2,65.7c-0.2,0.2-0.4,0.5-0.5,0.6c-0.4,1.1-0.3,2.7,0.1,3.3c0.1,0.1,0.4,0.1,0.5,0.1
				c0.1,0,0.3-0.4,0.3-1.2C251.6,67.5,251.4,66.5,251.2,65.7z M252.6,64C252.6,64,252.6,64,252.6,64C252.6,64,252.6,64,252.6,64z"/>
		</g>
		<g>
			<path class="st9" d="M255.3,161c-0.4,1-0.9,1.9-1.8,2.7c-2,1.9-4.5,1.2-6.3-0.8c-1.8-2-2-6.2-2-10c0-7,0-14,0-21
				c0-7.9,0.1-15.8,0.3-23.6c0.1-3.8-0.1-8.4,0.3-12.1c0.4-3.9,1.6-5.9,2.9-8.6c0.6-1.1,1.1-2.3,1.8-2.9c4.8-4.3,5,15.3,5.3,20.8
				c0.6,11.1,0.2,22.7,0.2,33.8c0,3.8,0,7.5,0,11.3C256.1,154.7,256.3,158.3,255.3,161z"/>
			<path class="st9" d="M251,168.3c-0.1,0-0.2,0-0.2,0c-2.2-0.1-4.3-1.2-6-3.1c-2.6-2.8-2.9-7.6-2.9-12.3v-21
				c0-7.9,0.1-15.8,0.3-23.7c0-1.3,0-2.6,0-3.9c0-2.8,0-5.8,0.3-8.5c0.4-4.1,1.6-6.5,2.8-8.9l0.4-0.9c0.7-1.4,1.4-2.9,2.6-4
				c2.3-2.1,4.5-1.5,5.4-1.1c4.1,1.7,5,8.6,5.6,22.3l0.1,2c0.4,7.7,0.3,15.6,0.2,23.3c0,3.6-0.1,7.1-0.1,10.6l0,13c0,3.6,0.1,7-1,10
				l0,0c-0.6,1.6-1.5,2.9-2.6,4C254.5,167.6,252.8,168.3,251,168.3z M251.3,90.2c-1,2-1.7,3.6-2,6.3c-0.3,2.4-0.2,5.1-0.2,7.7
				c0,1.4,0,2.8,0,4.1c-0.2,7.8-0.3,15.7-0.3,23.5v21c0,5.3,0.6,7.1,1.1,7.7c0.6,0.7,1.1,0.8,1.2,0.8c0.6-0.5,0.9-1,1.1-1.6
				c0.7-1.8,0.6-4.4,0.6-7.5l0-13.1c0-3.5,0-7.1,0.1-10.7c0.1-7.6,0.1-15.5-0.2-22.9l-0.1-2.1C252.1,97.5,251.8,93,251.3,90.2z"/>
		</g>
	</g>
	<g>
		<path class="st40" d="M283.5,92.6c-0.9,0-1.7-0.8-1.7-1.7v-8c0-0.9,0.8-1.7,1.7-1.7c0.9,0,1.7,0.8,1.7,1.7v8
			C285.2,91.8,284.4,92.6,283.5,92.6z"/>
		<g>
			<path class="st41" d="M280,78.1c-0.8-1.1-1.2-2.5-1.4-3.9c-0.4-2.4-0.6-4.9-0.1-7.3c0.5-2.4,1.6-4.7,3.4-6.1
				c0.1,0.6,0.3,1.2,0.4,1.8c0.2-1.3,0.5-2.6,0.9-3.8c0.1-0.2,0.2-0.5,0.4-0.6c0.4-0.2,0.8,0.1,1.1,0.5c2.5,2.9,3.1,7.1,3.5,11.1
				c0.2,2.2,0.3,4.4-0.5,6.4C286.5,79.6,282.3,81.2,280,78.1z"/>
			<path class="st41" d="M283.1,83.2c-2.3,0-4.4-1.1-5.8-3c0,0,0,0,0,0c-1.3-1.7-1.8-3.7-2.1-5.5c-0.6-3.2-0.6-6-0.1-8.5
				c0.7-3.4,2.4-6.3,4.7-8.1c0,0,0.1,0,0.1-0.1c0-0.1,0.1-0.2,0.1-0.3c0.2-0.5,0.6-1.7,1.9-2.4c1.5-0.8,3.7-0.8,5.4,1.2
				c3.1,3.7,3.9,8.6,4.3,13c0.2,2.4,0.3,5.2-0.7,7.9c-1.1,3-3.8,5.2-6.7,5.6C283.8,83.2,283.5,83.2,283.1,83.2z M282.7,76
				c0.2,0.3,0.3,0.3,0.5,0.3c0.4-0.1,1-0.5,1.3-1.3c0.5-1.4,0.4-3.2,0.3-4.9c-0.1-1.5-0.3-3-0.7-4.5c-0.5,0.3-1.1,0.5-1.7,0.5
				c-0.1,0-0.1,0-0.2,0c-0.2,0.5-0.3,0.9-0.4,1.4c-0.3,1.7-0.3,3.6,0.1,6C282,74.1,282.3,75.4,282.7,76L282.7,76z"/>
		</g>
		<g>
			<path class="st42" d="M285.6,75.4c0,1.2-0.3,2.3-1.2,2.7c-0.8,0.4-2.1,0.2-2.6-0.5c-1-1.2-0.9-3.5-0.4-5c0.4-1,1.5-1.6,2.1-2.6
				c0-0.1,0.1-0.2,0.2-0.2c0.1,0,0.2,0,0.2,0.1c0.6,0.4,0.9,1.1,1.1,1.7C285.2,72.5,285.6,74,285.6,75.4z"/>
			<path class="st42" d="M283.4,80c-1.2,0-2.3-0.5-3-1.3c-1.6-1.9-1.3-5-0.7-6.6c0.3-0.9,1-1.6,1.5-2.1c0.3-0.3,0.5-0.5,0.7-0.8
				l0.4-0.6l0.9-0.3c0.4-0.1,1-0.1,1.6,0.4c1,0.7,1.5,1.8,1.7,2.6c0.2,0.5,0.8,2.4,0.8,4.3c0,2.6-1.2,3.7-2.1,4.2
				C284.6,79.9,284,80,283.4,80z M283.4,72.6c-0.2,0.2-0.4,0.5-0.5,0.6c-0.4,1.1-0.3,2.7,0.1,3.3c0.1,0.1,0.4,0.1,0.5,0.1
				c0.1,0,0.3-0.4,0.3-1.2v0C283.8,74.4,283.6,73.4,283.4,72.6z"/>
		</g>
		<g>
			<path class="st11" d="M287.5,167.9c-0.4,1-0.9,1.9-1.8,2.7c-2,1.9-4.5,1.2-6.3-0.8c-1.8-2-2-6.2-2-10c0-7,0-14,0-21
				c0-7.9,0.1-15.8,0.3-23.6c0.1-3.8-0.1-8.4,0.3-12.1c0.4-3.9,1.6-5.9,2.9-8.6c0.6-1.1,1.1-2.3,1.8-2.9c4.8-4.3,5,15.3,5.3,20.8
				c0.6,11.1,0.2,22.7,0.2,33.8c0,3.8,0,7.5,0,11.3C288.3,161.5,288.6,165.2,287.5,167.9z"/>
			<path class="st11" d="M283.2,175.2c-0.1,0-0.2,0-0.2,0c-2.2-0.1-4.3-1.2-6-3.1c-2.4-2.7-2.9-6.8-2.9-12.3v-21
				c0-7.9,0.1-15.8,0.3-23.7c0-1.3,0-2.7,0-4c0-2.8,0-5.7,0.3-8.4c0.4-4.1,1.6-6.5,2.8-8.9l0.4-0.8c0.7-1.4,1.4-2.9,2.6-4
				c2.3-2.1,4.5-1.5,5.4-1.1c4.1,1.7,5,8.6,5.6,22.3l0.1,2c0.4,7.7,0.3,15.8,0.2,23.5c0,3.5-0.1,7-0.1,10.5l0,13.1
				c0,3.6,0.1,7-1,9.9l0,0c-0.6,1.6-1.5,2.9-2.6,4C286.8,174.5,285.1,175.2,283.2,175.2z M283.5,97.1c-1,2-1.7,3.6-2,6.3
				c-0.3,2.3-0.2,5-0.2,7.6c0,1.5,0,2.9,0,4.2c-0.2,7.8-0.3,15.7-0.3,23.5v21c0,5.3,0.6,7.1,1.1,7.7c0.6,0.7,1.1,0.8,1.2,0.8
				c0.6-0.5,0.9-1,1.1-1.6l0,0c0.6-1.7,0.6-4.4,0.6-7.4l0-13.2c0-3.5,0-7,0.1-10.6c0.1-7.7,0.1-15.6-0.2-23.1l-0.1-2.1
				C284.3,104.4,284,99.9,283.5,97.1z"/>
		</g>
	</g>
	<g>
		<path class="st40" d="M222.8,92.6c-0.9,0-1.7-0.8-1.7-1.7v-8c0-0.9,0.8-1.7,1.7-1.7c0.9,0,1.7,0.8,1.7,1.7v8
			C224.5,91.8,223.8,92.6,222.8,92.6z"/>
		<g>
			<path class="st41" d="M219.3,78.1c-0.8-1.1-1.2-2.5-1.4-3.9c-0.4-2.4-0.6-4.9-0.1-7.3c0.5-2.4,1.6-4.7,3.4-6.1
				c0.1,0.6,0.3,1.2,0.4,1.8c0.2-1.3,0.5-2.6,0.9-3.8c0.1-0.2,0.2-0.5,0.4-0.6c0.4-0.2,0.8,0.1,1.1,0.5c2.5,2.9,3.1,7.1,3.5,11.1
				c0.2,2.2,0.3,4.4-0.5,6.4C225.8,79.6,221.7,81.2,219.3,78.1z"/>
			<path class="st41" d="M222.4,83.2c-2.3,0-4.4-1.1-5.8-3c0,0,0,0,0,0c-1.3-1.7-1.8-3.7-2.1-5.5c-0.6-3.2-0.6-6-0.1-8.5
				c0.7-3.4,2.4-6.3,4.7-8.1c0,0,0.1,0,0.1-0.1c0-0.1,0.1-0.2,0.1-0.3c0.2-0.5,0.6-1.7,1.9-2.4c1.5-0.8,3.7-0.8,5.4,1.2
				c3.1,3.7,3.9,8.6,4.3,13c0.2,2.4,0.3,5.2-0.7,7.9c-1.1,3-3.8,5.2-6.7,5.6C223.2,83.2,222.8,83.2,222.4,83.2z M222.1,76
				c0.2,0.3,0.3,0.3,0.5,0.3c0.4-0.1,1-0.5,1.3-1.3c0.5-1.4,0.4-3.2,0.3-4.9c-0.1-1.5-0.3-3-0.7-4.5c-0.5,0.3-1.1,0.5-1.7,0.5
				c-0.1,0-0.1,0-0.2,0c-0.2,0.5-0.3,0.9-0.4,1.4c-0.3,1.7-0.3,3.6,0.1,6C221.4,74.1,221.6,75.4,222.1,76L222.1,76z"/>
		</g>
		<g>
			<path class="st42" d="M224.9,75.4c0,1.2-0.3,2.3-1.2,2.7c-0.8,0.4-2.1,0.2-2.6-0.5c-1-1.2-0.9-3.5-0.4-5c0.4-1,1.5-1.6,2.1-2.6
				c0-0.1,0.1-0.2,0.2-0.2c0.1,0,0.2,0,0.2,0.1c0.6,0.4,0.9,1.1,1.1,1.7C224.5,72.5,224.9,74,224.9,75.4z"/>
			<path class="st42" d="M222.8,80c-1.2,0-2.3-0.5-3-1.3c-1.6-1.9-1.3-5-0.7-6.6c0.3-0.9,1-1.6,1.5-2.1c0.3-0.3,0.5-0.5,0.7-0.8
				l0.4-0.6l0.9-0.3c0.4-0.1,1-0.1,1.6,0.4c1,0.7,1.5,1.8,1.7,2.6c0.2,0.5,0.8,2.4,0.8,4.3c0,2.6-1.2,3.7-2.1,4.2
				C224,79.9,223.4,80,222.8,80z M222.7,72.6c-0.2,0.2-0.4,0.5-0.5,0.6c-0.4,1.1-0.3,2.7,0.1,3.3c0.1,0.1,0.4,0.1,0.5,0.1
				c0.1,0,0.3-0.4,0.3-1.2v0C223.2,74.4,223,73.4,222.7,72.6z"/>
		</g>
		<g>
			<path class="st43" d="M226.9,167.9c-0.4,1-0.9,1.9-1.8,2.7c-2,1.9-4.5,1.2-6.3-0.8c-1.8-2-2-6.2-2-10c0-7,0-14,0-21
				c0-7.9,0.1-15.8,0.3-23.6c0.1-3.8-0.1-8.4,0.3-12.1c0.4-3.9,1.6-5.9,2.9-8.6c0.6-1.1,1.1-2.3,1.8-2.9c4.8-4.3,5,15.3,5.3,20.8
				c0.6,11.1,0.2,22.7,0.2,33.8c0,3.8,0,7.5,0,11.3C227.7,161.5,227.9,165.2,226.9,167.9z"/>
			<path class="st43" d="M222.6,175.2c-0.1,0-0.2,0-0.2,0c-2.2-0.1-4.3-1.2-6-3.1c-2.4-2.7-2.9-6.8-2.9-12.3v-21
				c0-7.9,0.1-15.8,0.3-23.7c0-1.3,0-2.7,0-4c0-2.8,0-5.7,0.3-8.4c0.4-4.1,1.6-6.5,2.8-8.9l0.4-0.8c0.7-1.4,1.4-2.9,2.6-4
				c2.3-2.1,4.5-1.5,5.4-1.1c4.1,1.7,5,8.6,5.6,22.3l0.1,2c0.4,7.7,0.3,15.8,0.2,23.5c0,3.5-0.1,7-0.1,10.5l0,13.1
				c0,3.6,0.1,7-1,9.9l0,0c-0.6,1.6-1.5,2.9-2.6,4C226.1,174.5,224.4,175.2,222.6,175.2z M222.9,97.1c-1,2-1.7,3.6-2,6.3
				c-0.3,2.3-0.2,5-0.2,7.6c0,1.5,0,2.9,0,4.2c-0.2,7.8-0.3,15.7-0.3,23.5v21c0,5.3,0.6,7.1,1.1,7.7c0.6,0.7,1.1,0.8,1.2,0.8
				c0.6-0.5,0.9-1,1.1-1.6l0,0c0.6-1.7,0.6-4.4,0.6-7.4l0-13.2c0-3.5,0-7,0.1-10.6c0.1-7.7,0.1-15.6-0.2-23.1l-0.1-2.1
				C223.7,104.4,223.3,99.9,222.9,97.1z"/>
		</g>
	</g>
	<g>
		<path class="st25" d="M209.8,196.5c-2.8-2-5.6-4.3-7.3-7.3c-2.7-4.8-2.5-10.9-0.7-16.1c1.8-5.2,5-9.8,8.2-14.3
			c2-2.8,5.5-11.1,9.9-10.8c4,0.3,11.8,10.7,14.2,13.8c8.1,10.3,14.1,24.2,3,34.4C229.3,203.4,217.7,202,209.8,196.5z"/>
		<path class="st25" d="M211.5,193.5c-13.3-9.9-5.5-22.2,1.4-33c1.6-2.5,3.4-7.5,6.3-8c3.2-0.6,6.1,3.9,8.1,6.3
			c5.1,6.1,10.4,12.8,11.9,20.7C242.4,196.5,223.2,200.8,211.5,193.5c-3.8-2.4-7.2,3.6-3.5,6c12.6,7.9,31.5,6.6,37.3-9.4
			c5.1-14.2-6.3-28.9-15.3-38.7c-10.4-11.2-16.1-5.2-23,5.6c-9.6,15-15.5,30.1,1.1,42.4C211.6,202.1,215.1,196.1,211.5,193.5z"/>
	</g>
	<g>
		<path class="st25" d="M249.6,196.5c-2.8-2-5.6-4.3-7.3-7.3c-2.7-4.8-2.5-10.9-0.7-16.1c1.8-5.2,5-9.8,8.2-14.3
			c2-2.8,5.5-11.1,9.9-10.8c4,0.3,11.8,10.7,14.2,13.8c8.1,10.3,14.1,24.2,3,34.4C269.1,203.4,257.5,202,249.6,196.5z"/>
		<path class="st25" d="M251.3,193.5c-13.3-9.9-5.5-22.2,1.4-33c1.6-2.5,3.4-7.5,6.3-8c3.2-0.6,6.1,3.9,8.1,6.3
			c5.1,6.1,10.4,12.8,11.9,20.7C282.2,196.5,263,200.8,251.3,193.5c-3.8-2.4-7.2,3.6-3.5,6c12.6,7.9,31.5,6.6,37.3-9.4
			c5.1-14.2-6.3-28.9-15.3-38.7c-10.4-11.2-16.1-5.2-23,5.6c-9.6,15-15.5,30.1,1.1,42.4C251.4,202.1,254.9,196.1,251.3,193.5z"/>
	</g>
	<g>
		<path class="st25" d="M292.5,195.3c-2.8-2-5.6-4.3-7.3-7.3c-2.7-4.8-2.5-10.9-0.7-16.1c1.8-5.2,5-9.8,8.2-14.3
			c2-2.8,5.5-11.1,9.9-10.8c4,0.3,11.8,10.7,14.2,13.8c8.1,10.3,14.1,24.2,3,34.4C312,202.2,300.4,200.8,292.5,195.3z"/>
		<path class="st25" d="M294.3,192.3c-13.3-9.9-5.5-22.2,1.4-33c1.6-2.5,3.4-7.5,6.3-8c3.2-0.6,6.1,3.9,8.1,6.3
			c5.1,6.1,10.4,12.8,11.9,20.7C325.2,195.3,306,199.6,294.3,192.3c-3.8-2.4-7.2,3.6-3.5,6c12.6,7.9,31.5,6.6,37.3-9.4
			c5.1-14.2-6.3-28.9-15.3-38.7c-10.4-11.2-16.1-5.2-23,5.6c-9.6,15-15.5,30.1,1.1,42.4C294.4,200.9,297.8,194.9,294.3,192.3z"/>
	</g>
	<path class="st44" d="M110.2,191.2c1.5,12.3,7.2,30.8,20.1,35.9c13.3,5.3,21.8-8.1,26.1-18.4c-3.3-0.9-6.6-1.8-10-2.7
		c-3.9,14-5.5,35.7,12.5,40.7c17.7,5,29.1-12.4,35.5-25.9c-3.2-0.9-6.4-1.7-9.6-2.6c-0.6,15.5,2,38.5,21.9,40.3
		c18.5,1.7,27.3-21.6,29.9-36.2c-3.3,0-6.6,0-10,0c2.7,14.4,12.5,33.4,28.8,35.5c17,2.2,25-20.9,29.2-33.6c-3.3,0-6.6,0-10,0
		c3.6,12.6,14.9,32.2,30.7,29.6c16-2.6,20.4-26.5,21.8-39.4c-3.4,0-6.9,0-10.3,0c1,13.5,6.7,37.2,25.3,30.9
		c17.6-6,18.5-28,17.6-43.3c-3.4,0.5-6.8,0.9-10.2,1.4c2.4,8.5,8.9,19.7,19.7,15.3c10-4.1,10.2-22.3,10.3-31.2
		c0.1-6.7-10.2-6.7-10.3,0c-0.1,4.7-0.4,9.2-1.4,13.8c-0.4,2-0.9,4-1.6,5.9c-4.1-0.8-6.3-3-6.7-6.5c-1.5-5.4-10.5-4.6-10.2,1.4
		c0.5,9.1,1.4,19.3-3.7,27.4c-3.3,5.2-10,7.7-14.2,2.3c-3.2-4.2-4-12.3-4.4-17.3c-0.5-6.7-9.6-6.6-10.3,0c-0.9,8-3.5,26-12.7,28.3
		c-10,2.5-17.3-13.6-19.5-21.3c-1.4-5.1-8.4-4.7-10,0c-2.7,8.3-9.4,30.1-21.3,24.9c-9.9-4.3-14.8-16.9-16.7-26.8
		c-0.9-4.9-9.1-5-10,0c-1.5,8.8-6.2,28-17.6,28.8c-14.6,1-14.2-20.9-13.8-30.1c0.2-4.9-7.4-7.3-9.6-2.6c-3.9,8.3-9.5,21.4-20.5,21.5
		c-14.9,0.1-11.1-19.6-8.6-28.4c1.8-6.6-7.5-8.7-10-2.7c-1.1,2.6-2.9,7.3-5.2,9.2c-6.9,5.8-11.1-0.5-13.9-4.8
		c-3.8-5.8-6-12.3-6.8-19.1C119.7,184.6,109.4,184.6,110.2,191.2L110.2,191.2z"/>
	<path class="st44" d="M60.9,304.8c3.3,14.8,10.5,35.6,23.7,44.6c13.6,9.2,23.4-4,26.6-16.1c-3.3,0-6.6,0-10,0
		c3.7,17.7,17.9,38.6,37,42.1c16.2,3,19.7-15,22.5-26.9c-3.3-0.9-6.6-1.8-10-2.7c-1.5,9.2,1.8,17.9,6.2,26
		c4.2,7.7,9.5,16.6,18.6,18.7c8.8,2,19.6,0.3,25.4-7.1c5.9-7.6,4.8-17.6,6.2-26.5c-2.5,1-5.1,2.1-7.6,3.1c4.2,2.8,5.3,11.3,7.8,15.6
		c3.5,6,8.3,11.3,13.7,15.6c9.5,7.4,20.9,8,30.4,0.1c4.3-3.5,6.8-7.5,8.3-12.8c0.4-1.6,0.6-4.7,1.5-6.1c-1-1.6-0.9-1.5,0.2,0.5
		c0.6,1.1,1.1,2.3,1.7,3.4c5.6,10.3,15.2,21,28.1,19.2c12.3-1.7,19.3-13.5,22.9-24.3c0.6-1.9,1.6-10.4,3.8-10.8
		c1.9-0.4,9.5,10.1,11.5,11.5c9.1,6.2,23.1,5.8,31.3-1.6c9.6-8.7,9.1-22.6,13.3-33.9c-3.3,0-6.6,0-10,0c1.7,12.5,14.4,22.2,27,19.5
		c18-3.8,16.4-28.2,18.4-42.3c-3.1,0.4-6.3,0.8-9.4,1.2c5.9,7.8,17.4,16.5,25.5,6.1c4.3-5.4,5.2-14,6.3-20.5
		c1.6-9.2,2.4-18.4,2.5-27.7c0.1-6.7-10.3-6.7-10.3,0c-0.1,8.9-0.8,17.8-2.4,26.6c-0.6,3.3-0.9,8.4-2.6,11.3
		c-0.1,3.3-1.8,4.6-5.2,3.9c-1.9-1.4-3.5-3-4.8-4.9c-2.3-3-8.7-3.7-9.4,1.2c-1.3,9.3-1.7,19.4-4.2,28.5c-1.7,5.9-8.6,7.8-13.9,5.3
		c-4.5-2.2-6.7-6.3-7.4-11c-0.8-5.6-8.4-4.2-10,0c-4,10.8-3.1,31.1-18.4,32.2c-12.3,0.9-14.5-10.8-24-15.1c-7.6-3.5-13,2.5-15.2,9.2
		c-3.4,10.2-8.7,33.1-24.4,23.2c-5-3.1-8.1-8.6-10.7-13.7c-1.7-3.2-3.3-6.7-6.9-8.2c-8.2-3.2-12.1,5-13.8,11.4
		c-1.7,6.1-3.9,11.3-10.5,13.6c-7.9,2.7-15.1-4.4-19.7-10c-6.3-7.7-7-19.5-15.5-25.1c-2.6-1.7-7.1-0.1-7.6,3.1
		c-1.9,11.6,0,30.4-18.4,26.4c-9.8-2.2-19.6-22.6-18.1-31.9c1-6.4-8.4-9.3-10-2.7c-1.9,7.9-2.8,23.2-14.2,18.2
		c-13.5-5.9-22.4-19.4-25.3-33.4c-1.1-5.1-8.7-4.8-10,0c-0.7,2.8-2.4,10.5-5.8,11.1c-6.5,1.2-11.2-7.7-13.9-12.2
		c-5.1-8.5-8.5-17.7-10.7-27.4C69.4,295.5,59.5,298.3,60.9,304.8L60.9,304.8z"/>
</g>
</svg>
