<?xml version="1.0" encoding="utf-8"?>
<!-- Generator: Adobe Illustrator 24.1.0, SVG Export Plug-In . SVG Version: 6.00 Build 0)  -->
<svg version="1.1" id="레이어_1" xmlns="http://www.w3.org/2000/svg" xmlns:xlink="http://www.w3.org/1999/xlink" x="0px"
	 y="0px" viewBox="0 0 500 500" style="enable-background:new 0 0 500 500;" xml:space="preserve">
<style type="text/css">
	.st0{fill:#F05A4B;}
	.st1{fill:#FCE061;}
	.st2{fill:#92C2FD;}
	.st3{fill:#98D882;}
	.st4{fill:#D3A1DE;}
	.st5{fill:#6E5850;}
	.st6{fill:#FCC057;}
	.st7{fill:#FF6045;}
	.st8{fill:#FFE771;}
	.st9{fill:#93CFEA;}
	.st10{fill:#6EC695;}
	.st11{fill:#E1B7EA;}
	.st12{fill:#FFA074;}
	.st13{fill:#FFCE0E;}
	.st14{fill:#B1E659;}
	.st15{fill:#6DA1BC;}
	.st16{fill:#8B649E;}
	.st17{fill:#FF9C28;}
	.st18{fill:#63BC9B;}
	.st19{fill:#E36C6B;}
	.st20{fill:#FFD974;}
	.st21{fill:#FA93AB;}
	.st22{fill:#60A7DE;}
	.st23{fill:#D393E3;}
	.st24{fill:#CFD5D7;}
	.st25{fill:#FFFFFF;}
	.st26{fill:#FFB901;}
	.st27{fill:#FFF2DF;}
	.st28{fill:none;}
	.st29{fill:#F8F2D7;}
	.st30{fill:#FFD06B;}
	.st31{fill:#EA3C23;}
	.st32{fill:#8A1F1C;}
	.st33{fill:#ECEDEE;}
	.st34{fill:#F9DE5F;}
	.st35{fill:#FFE986;}
	.st36{clip-path:url(#SVGID_2_);fill:#FFE986;}
	.st37{fill:#C7CACB;}
	.st38{fill:#FDACC0;}
	.st39{fill:#FFCEDC;}
	.st40{fill:#711A18;}
	.st41{fill:#FFCA33;}
	.st42{fill:#FF6134;}
	.st43{fill:#FF6A89;}
	.st44{fill:#FD8E9E;}
	.st45{clip-path:url(#SVGID_4_);fill:#FF6E57;}
	.st46{fill:#D2E5FF;}
</style>
<g>
	<g>
		<path class="st0" d="M50,333.3c0.5,1.5,1.1,3.3,2.6,3.9c1.8,0.8,3.8-0.5,5.3-1.7c26-20.5,50.8-45.2,60.2-76.9
			c-18.3,1.1-36.7-1.9-53.8-8.6c-6.1-2.4-12.2-5.4-18.8-5.9c-10.6-0.9-12.9-1.2-12.8,9.2c0.1,8.9,2.5,18.3,4,27
			C40.1,298.3,44.5,316,50,333.3z"/>
		<path class="st0" d="M47.8,333.9c3.7,10.5,11.9,3,17.5-1.5c8.3-6.8,16.3-14,23.6-21.8c13.9-14.8,25.4-31.9,31.3-51.4
			c0.4-1.3-0.7-2.9-2.1-2.8c-18.2,0.9-36.2-1.9-53.2-8.5c-7.3-2.8-14-5.6-21.8-6.2c-3.4-0.2-7.8-0.8-10.4,1.9c-3,3.2-2.3,9.2-2,13.2
			c0.6,8.2,2.5,16.2,4,24.3C38,298.9,42.3,316.5,47.8,333.9c0.9,2.7,5.2,1.6,4.3-1.2c-4.8-15.1-8.7-30.5-11.8-46
			c-1.6-7.9-3.3-15.8-4.4-23.8c-0.6-3.9-1-7.9-0.8-11.9c0.1-1.5,0-3.7,1.3-4.6c1.1-0.9,3.5-0.5,4.8-0.4c3.5,0.2,7,0.5,10.3,1.5
			c7.3,2,14.1,5.5,21.3,7.8c14.7,4.5,30.1,6.3,45.5,5.5c-0.7-0.9-1.4-1.9-2.1-2.8c-5,16.4-14,31-25.2,43.9
			c-5.4,6.2-11.2,12-17.3,17.5c-3,2.7-6,5.3-9,7.9c-1.7,1.4-3.4,2.8-5.2,4.2c-2.1,1.7-5.8,5.2-7.2,1.2
			C51.2,330,46.9,331.2,47.8,333.9z"/>
	</g>
	<g>
		<path class="st1" d="M160.1,351.2c0.8,1.4,1.8,3,3.3,3.3c1.9,0.4,3.6-1.3,4.9-2.8c21.5-25.2,41-54.2,44-87.1
			c-17.7,4.6-36.4,5.3-54.4,2.1c-6.5-1.2-13.1-2.9-19.6-2.1c-10.6,1.2-12.9,1.3-10.7,11.6c1.9,8.7,6,17.5,9.2,25.7
			C143.6,318.7,151.3,335.2,160.1,351.2z"/>
		<path class="st1" d="M158.2,352.3c5.5,9.4,12.1,0.6,16.6-4.8c6.7-8.2,13.1-16.6,18.7-25.6c11-17.5,19.1-36.7,21.1-57.4
			c0.1-1.5-1.5-2.5-2.8-2.1c-18,4.6-36.6,5.2-54.8,1.8c-7.5-1.4-14.4-2.5-22-1.5c-3.3,0.4-7.6,0.8-9.4,4.1c-2.2,4.1,0,10.5,1.2,14.5
			c2.3,7.8,5.7,15.2,8.7,22.7C142,320.5,149.6,336.7,158.2,352.3c1.4,2.5,5.2,0.3,3.8-2.2c-7.8-14.3-14.9-29-21.1-44.1
			c-2.9-7-5.9-14.1-8.5-21.3c-1.2-3.4-2.3-6.8-2.9-10.4c-0.3-1.4-1.1-4.3,0.1-5.6c1-1.2,3.6-1.3,4.9-1.5c3.5-0.5,6.9-0.8,10.4-0.5
			c7.7,0.6,15.2,2.8,22.9,3.5c15.1,1.5,30.4,0.2,45.1-3.5c-0.9-0.7-1.9-1.4-2.8-2.1c-1.7,17.1-7.8,33.2-16.2,48
			c-4,7-8.5,13.8-13.3,20.3c-2.7,3.7-5.6,7.4-8.5,10.9c-1.7,2.1-7.4,10.9-10.1,6.3C160.6,347.6,156.7,349.8,158.2,352.3z"/>
	</g>
	<g>
		<path class="st2" d="M272.1,337.9c15.9,11,17.9-6.4,21-17.1c4-13.9,5.7-28.1,8.9-42.1c1.1-4.5,4.6-28.9,7-30
			c-16.8,7.1-35.3,10.5-53.5,9.9c-6.6-0.2-13.3-0.9-19.7,0.8c-10.3,2.7-12.6,3.2-8.9,13c5.8,15.6,14.6,30,24.8,43.1
			C255.7,320.4,263.7,332.1,272.1,337.9z"/>
		<path class="st2" d="M271,339.8c6.9,4.6,14.7,5.5,19.2-2.6c2-3.6,3-7.7,4-11.6c1.6-6.2,3.3-12.3,4.6-18.5
			c2.4-11.5,4.7-23.1,6.8-34.7c0.8-4.4,1.6-8.8,2.5-13.2c0.4-1.9,0.8-3.9,1.4-5.7c0.2-0.6,0.3-1.3,0.6-1.9c0.2-0.4,0.9-1.3,0.3-0.9
			c2-1.3,0.7-5.1-1.7-4.1c-13.5,5.6-27.8,9-42.5,9.8c-12.7,0.6-25.6-2-37.8,3c-8.5,3.5-4.1,12.4-1.5,18.7
			c5.2,12.4,12.1,24.1,20.2,34.8C254.1,322.4,261.2,332.8,271,339.8c2.3,1.7,4.6-2.2,2.2-3.8c-10.5-7.6-18.7-19.9-26.1-30.4
			c-4.2-6-8-12.2-11.3-18.7c-2.1-4-4-8.1-5.6-12.2c-1-2.5-2.5-5.4-2.6-8.1c-0.2-4.5,10.1-5.5,13.1-5.8c7.6-0.9,15.3,0.4,22.9,0.1
			c15.8-0.5,31.4-3.9,46.1-10c-0.6-1.4-1.1-2.7-1.7-4.1c-1.8,1.1-2.3,3.6-2.9,5.5c-1.1,3.8-1.8,7.6-2.5,11.5
			c-1.6,8.4-3.3,16.9-4.9,25.3c-2.4,12.5-5,24.9-8.3,37.2c-1,3.6-1.9,8-4.4,10.9c-3.5,3.9-8.1,1.2-11.7-1.1
			C270.8,334.4,268.6,338.2,271,339.8z"/>
	</g>
	<g>
		<path class="st3" d="M375.7,306.4c16.1,6.7,18.9-12.1,20.9-28.7c1.7-14.4,1.3-29.1-1.3-43.4c-1.2-7-0.7-14.8-2.7-22.1
			c-15,10.4-32.3,17.6-50.4,20.7c-6.5,1.1-13.2,1.8-19.1,4.8c-11.3,5.7-10,12.8-2.2,22.1c13.8,16.4,30.8,31.3,48.7,43.2
			C371.8,304.5,373.9,305.6,375.7,306.4z"/>
		<path class="st3" d="M375.1,308.5c17.1,6.6,21.3-12.9,23-25.6c1.6-11.7,2.1-23.4,1.1-35.2c-0.5-6.2-1.8-12.3-2.4-18.4
			c-0.6-6-0.7-11.9-2.2-17.8c-0.3-1.3-2.1-2.1-3.3-1.3c-14.1,9.7-29.9,16.5-46.7,19.9c-9.8,2-30.6,2.8-32.1,16.3
			c-0.6,5.1,2.7,9.9,5.7,13.7c5.1,6.5,11,12.5,16.9,18.2c6.1,5.8,12.5,11.3,19.1,16.5c6.3,4.9,12.8,10.2,20.1,13.5
			c2.6,1.2,4.9-2.7,2.2-3.8c-6.4-2.8-12.1-7.4-17.7-11.6c-6.3-4.8-12.4-9.9-18.2-15.3c-5.3-4.9-10.4-10.1-15.2-15.6
			c-3.3-3.7-10-10.1-8.5-15.8c1.7-6.5,11.9-8.7,17.4-9.8c7-1.3,13.9-2.3,20.8-4.3c13.7-3.9,26.6-10,38.3-18.1
			c-1.1-0.4-2.2-0.9-3.3-1.3c1.3,5.2,1.5,10.4,1.9,15.7c0.4,5,1.4,9.8,2,14.8c1.2,10.5,1.3,21.2,0.2,31.7
			c-0.7,7.3-1.5,14.9-3.9,21.8c-2.5,7.1-7,10.3-14.4,7.4C373.6,303.2,372.5,307.5,375.1,308.5z"/>
	</g>
	<g>
		<path class="st4" d="M474.4,253.9c2.7,0.1,4.9-0.4,6.5-1.7c6.8-5.6,4.4-17.1,4.2-24.8c-0.3-11.7-1.8-23.5-4.5-34.9
			c-1.9-8.3-4.6-26.2-10.8-32.4c-4.2-4.2-3.3-2.6-7.9,2.1c-3.9,3.9-7.7,7.8-12,11.4c-8.1,6.7-17,12.4-26.5,17
			c-6,2.8-12.3,5.3-17.2,9.7c-7.9,7.2-9.7,8.6-2,15.6c6.6,6,15,10.7,22.5,15.5C434.6,236.4,460.5,253.3,474.4,253.9z"/>
		<path class="st4" d="M474.4,256.1c10.3-0.1,13.5-9,13.5-18c0-11.3-0.9-22.9-2.7-34c-1.6-10.1-3.7-20.5-6.5-30.3
			c-1.1-4-2.5-8.2-4.7-11.8c-1.4-2.4-4.2-6.3-7.2-6.4c-3.2-0.1-5.7,4.4-7.6,6.4c-4.9,5-10,9.8-15.6,13.9c-4.9,3.6-10,6.9-15.4,9.8
			c-5.7,3.1-11.9,5.4-17.6,8.8c-5.2,3.1-16.6,10.5-12.6,17.9c2.1,4,6.5,7,10,9.6c5.2,3.9,10.8,7.2,16.3,10.6
			c7.5,4.8,15,9.5,22.9,13.7C455.5,250.7,464.8,255.5,474.4,256.1c2.9,0.2,2.9-4.3,0-4.5c-7.2-0.5-14.2-3.8-20.5-7
			c-6.7-3.3-13.1-7.1-19.4-11c-6.1-3.8-12.2-7.6-18.2-11.5c-4.3-2.8-8.6-5.8-12.2-9.5c-1.4-1.4-3-2.8-2.2-4.9
			c0.8-1.9,3.2-3.5,4.6-4.8c7.7-7,17.9-10,26.8-15.2c8.8-5.1,17-11.2,24.3-18.2c1.8-1.7,3.5-3.5,5.3-5.2c0.5-0.5,3.2-4.4,4-4.4
			c0.5,0,2.8,3.4,3,3.7c1.2,1.8,2.1,3.9,2.8,5.9c2.5,6.9,3.8,14.2,5.3,21.3c2.5,11.8,4.5,23.5,4.9,35.6c0.3,7.9,3.8,25-8.5,25.1
			C471.5,251.7,471.5,256.1,474.4,256.1z"/>
	</g>
	<g>
		<path class="st5" d="M14.8,230.7c31.2,21.5,69.2,31.3,106.4,36c32.4,4.1,65.5,3.9,97.9,0.5c65.3-7,130.5-26.7,187.2-60
			c28.5-16.8,55-37.5,76-63.1c3.6-4.4-3.3-10-7-5.6c-37.8,46.1-93,76-148.5,95.4C266.6,255,201.1,265,137.3,259.5
			c-40.4-3.5-83-12.4-116.9-35.7C15.7,220.5,10.1,227.5,14.8,230.7L14.8,230.7z"/>
		<path class="st5" d="M11.5,236.5c29.2,19.8,63.5,30,98.1,35.3c38.9,6,78.4,6,117.5,1.2c72-8.8,144.2-32.2,204.2-73.7
			c14.1-9.7,27.4-20.5,39.6-32.6c7-7,27.4-22.7,15.5-33.4c-4.4-4-10.7-3.8-15.1,0c-6.2,5.5-11.2,12.7-17.1,18.6
			c-12.4,12.2-26,23.1-40.5,32.7c-60.7,40.3-135.5,62.9-207.8,68.5c-40.9,3.2-83.2,1.3-123-9c-18.6-4.8-36.7-11.7-53-21.9
			c-6.2-3.9-12.8-8.8-19.6-2.9c-5.1,4.5-5,11.7-0.2,16.3c6.2,6,15.7-3.5,9.5-9.5c-0.8,1.2-1.7,2.4-2.5,3.5c1,0.7,2,1.4,3.1,2.1
			c1.7,1.1,3.5,2.2,5.2,3.3c2.8,1.7,5.7,3.3,8.6,4.8c7.1,3.7,14.4,6.9,21.9,9.7c14.7,5.6,30.1,9.4,45.5,12.2
			c32.7,5.8,66.1,7.4,99.2,5.2c65.1-4.3,130.3-22,188.2-52.1c27.3-14.2,53.1-31.8,75-53.4c4.6-4.5,12-10.3,14.9-16.2
			c0.5-0.6,1-1.3,1.6-1.9c-1.4-0.6-2.7-1.3-4.1-1.9c-1,0.2-3.4,3.9-4.2,4.8c-3.1,3.5-6.3,6.9-9.6,10.2
			c-11.3,11.3-23.6,21.5-36.7,30.7c-54.4,38-119.3,60.7-184.6,70.7c-39.5,6.1-80,7.4-119.7,2.4c-36.3-4.6-72.5-14.4-103-35.1
			C11.1,220.1,4.4,231.7,11.5,236.5z"/>
	</g>
</g>
</svg>
